M48
; DRILL file {KiCad 9.0.1} date 2026-01-05T16:28:38-0500
; FORMAT={-:-/ absolute / metric / decimal}
; #@! TF.CreationDate,2026-01-05T16:28:38-05:00
; #@! TF.GenerationSoftware,Kicad,Pcbnew,9.0.1
; #@! TF.FileFunction,MixedPlating,1,8
FMAT,2
METRIC
; #@! TA.AperFunction,Plated,PTH,ViaDrill
T1C0.200
; #@! TA.AperFunction,Plated,PTH,ViaDrill
T2C0.300
; #@! TA.AperFunction,Plated,PTH,ComponentDrill
T3C0.600
; #@! TA.AperFunction,Plated,PTH,ComponentDrill
T4C0.900
; #@! TA.AperFunction,Plated,PTH,ComponentDrill
T5C0.990
; #@! TA.AperFunction,Plated,PTH,ComponentDrill
T6C1.000
; #@! TA.AperFunction,Plated,PTH,ComponentDrill
T7C1.020
; #@! TA.AperFunction,Plated,PTH,ComponentDrill
T8C1.630
; #@! TA.AperFunction,Plated,PTH,ComponentDrill
T9C2.100
; #@! TA.AperFunction,NonPlated,NPTH,ComponentDrill
T10C0.650
; #@! TA.AperFunction,NonPlated,NPTH,ComponentDrill
T11C0.900
; #@! TA.AperFunction,NonPlated,NPTH,ComponentDrill
T12C0.991
; #@! TA.AperFunction,NonPlated,NPTH,ComponentDrill
T13C3.250
%
G90
G05
T1
X124.5Y-87.75
X124.5Y-102.25
X125.5Y-87.75
X125.5Y-156.5
X126.02Y-137.59
X126.1Y-112.4
X126.1Y-115.0
X126.37Y-108.93
X126.5Y-87.75
X126.8Y-137.6
X128.5Y-87.75
X129.07Y-120.55
X129.08Y-109.9
X129.192Y-121.132
X129.25Y-152.91
X129.5Y-91.25
X129.5Y-92.5
X129.5Y-93.75
X129.5Y-95.0
X129.5Y-96.25
X129.5Y-97.5
X129.5Y-98.75
X129.66Y-152.19
X129.75Y-120.51
X129.773Y-128.92
X129.94Y-104.01
X129.94Y-104.72
X129.94Y-105.46
X129.94Y-106.1
X129.976Y-131.14
X130.0Y-83.5
X130.0Y-158.2
X130.0Y-161.77
X130.14Y-140.5
X130.14Y-143.5
X130.14Y-146.5
X130.183Y-131.65
X130.2Y-119.346
X130.2Y-132.91
X130.2Y-152.19
X130.202Y-134.027
X130.21Y-152.91
X130.24Y-130.03
X130.3Y-125.585
X130.5Y-107.13
X130.6Y-103.66
X130.62Y-105.46
X130.62Y-106.34
X130.623Y-104.603
X130.91Y-120.751
X130.99Y-153.1
X131.0Y-99.25
X131.0Y-102.25
X131.05Y-127.6
X131.05Y-128.7
X131.07Y-109.69
X131.25Y-118.3
X131.3Y-123.16
X131.32Y-110.35
X131.39Y-119.346
X131.5Y-125.3
X131.54Y-153.1
X131.58Y-109.69
X131.9Y-122.92
X132.0Y-90.75
X132.0Y-99.25
X132.0Y-157.3
X132.3Y-125.3
X132.36Y-115.38
X132.38Y-116.08
X132.46Y-152.93
X132.48Y-107.13
X132.5Y-86.25
X132.574Y-147.804
X132.75Y-124.08
X132.8Y-155.2
X132.84Y-121.33
X132.9Y-159.4
X133.0Y-90.75
X133.05Y-109.7
X133.1Y-125.3
X133.11Y-124.46
X133.14Y-133.755
X133.14Y-136.475
X133.17Y-133.12
X133.29Y-110.34
X133.51Y-121.33
X133.56Y-109.69
X133.75Y-86.25
X133.9Y-125.3
X134.0Y-90.75
X134.0Y-99.25
X134.0Y-102.25
X134.01Y-156.39
X134.071Y-146.858
X134.225Y-118.3
X134.46Y-107.13
X134.94Y-110.3
X134.97Y-144.3
X134.98Y-136.495
X135.0Y-83.5
X135.0Y-90.75
X135.0Y-97.0
X135.0Y-99.25
X135.0Y-133.695
X135.0Y-150.0
X135.0Y-161.77
X135.01Y-109.72
X135.53Y-109.72
X135.65Y-97.85
X135.65Y-98.5
X135.65Y-116.78
X135.788Y-125.731
X135.85Y-113.79
X135.97Y-133.885
X135.97Y-134.545
X135.97Y-143.6
X136.0Y-90.75
X136.0Y-135.75
X136.05Y-129.7
X136.12Y-116.33
X136.3Y-97.85
X136.3Y-98.5
X136.48Y-125.89
X136.5Y-97.0
X136.76Y-116.26
X136.76Y-117.21
X136.87Y-143.61
X136.88Y-118.725
X136.88Y-125.47
X137.115Y-120.833
X137.26Y-122.85
X137.26Y-124.99
X137.5Y-150.0
X137.76Y-143.6
X138.0Y-113.365
X138.14Y-89.35
X138.14Y-106.8
X138.16Y-100.65
X138.676Y-113.356
X138.917Y-121.798
X138.917Y-120.632
X138.94Y-117.58
X138.945Y-122.965
X138.947Y-119.662
X138.95Y-118.73
X139.0Y-115.73
X139.1Y-151.8
X139.11Y-128.43
X139.24Y-115.15
X139.263Y-117.135
X139.36Y-129.455
X139.425Y-120.198
X139.451Y-119.264
X139.46Y-105.38
X139.487Y-123.246
X139.49Y-122.685
X139.493Y-116.215
X139.503Y-121.179
X139.715Y-128.492
X139.82Y-129.045
X139.941Y-118.156
X139.996Y-115.713
X140.0Y-83.5
X140.0Y-124.71
X140.0Y-161.77
X140.015Y-120.201
X140.2Y-110.1
X140.21Y-112.08
X140.439Y-116.333
X140.44Y-121.645
X140.451Y-120.775
X140.46Y-123.22
X140.46Y-118.763
X140.491Y-117.175
X140.498Y-122.222
X140.498Y-119.714
X140.51Y-124.21
X140.549Y-118.166
X140.575Y-130.035
X140.6Y-144.8
X140.67Y-111.61
X140.73Y-129.405
X140.78Y-109.59
X140.82Y-103.95
X140.941Y-123.774
X140.977Y-117.728
X140.99Y-115.21
X140.99Y-124.68
X141.0Y-125.25
X141.01Y-121.21
X141.04Y-116.79
X141.114Y-119.15
X141.125Y-122.783
X141.18Y-129.755
X141.203Y-137.989
X141.25Y-113.325
X141.37Y-152.08
X141.447Y-123.257
X141.485Y-119.8
X141.53Y-120.675
X141.545Y-117.166
X141.549Y-131.455
X141.55Y-124.675
X141.575Y-115.567
X141.6Y-128.645
X141.6Y-132.075
X141.63Y-128.065
X141.887Y-129.392
X141.905Y-121.69
X141.91Y-146.245
X141.922Y-118.137
X141.93Y-150.165
X141.947Y-119.268
X141.962Y-150.947
X141.97Y-148.585
X141.98Y-130.515
X141.98Y-145.365
X141.995Y-138.836
X142.0Y-116.735
X142.014Y-137.99
X142.016Y-141.969
X142.032Y-139.68
X142.033Y-141.275
X142.033Y-147.675
X142.033Y-149.275
X142.043Y-123.507
X142.06Y-122.259
X142.092Y-116.168
X142.12Y-118.675
X142.136Y-127.366
X142.22Y-102.8
X142.257Y-119.832
X142.263Y-122.738
X142.45Y-104.56
X142.5Y-153.3
X142.544Y-121.224
X142.549Y-124.264
X142.55Y-120.658
X142.56Y-116.75
X142.813Y-145.337
X142.819Y-142.806
X142.82Y-147.71
X142.822Y-148.576
X142.83Y-146.9
X142.833Y-141.989
X142.833Y-138.075
X142.833Y-139.675
X142.833Y-146.075
X142.833Y-150.075
X142.833Y-150.875
X142.833Y-149.361
X142.841Y-140.546
X142.86Y-128.555
X142.954Y-121.715
X142.96Y-118.732
X142.961Y-125.252
X142.971Y-120.215
X142.989Y-122.464
X142.99Y-104.58
X142.99Y-129.655
X143.0Y-112.7
X143.009Y-115.713
X143.04Y-118.175
X143.04Y-123.175
X143.049Y-124.67
X143.052Y-128.019
X143.08Y-117.173
X143.15Y-113.7
X143.37Y-107.05
X143.41Y-128.47
X143.45Y-112.0
X143.453Y-130.908
X143.48Y-119.17
X143.49Y-123.71
X143.5Y-116.675
X143.5Y-121.169
X143.511Y-115.211
X143.516Y-119.746
X143.523Y-139.661
X143.531Y-125.278
X143.56Y-104.58
X143.579Y-133.21
X143.594Y-138.839
X143.63Y-112.527
X143.63Y-127.325
X143.633Y-145.275
X143.633Y-147.675
X143.633Y-148.475
X143.633Y-149.275
X143.633Y-142.789
X143.633Y-146.961
X143.645Y-146.147
X143.646Y-141.346
X143.691Y-140.499
X143.875Y-130.36
X143.94Y-102.18
X143.951Y-117.166
X143.96Y-115.675
X143.966Y-124.69
X144.0Y-122.399
X144.01Y-116.255
X144.015Y-123.265
X144.032Y-118.764
X144.035Y-121.714
X144.04Y-118.168
X144.066Y-124.158
X144.14Y-104.59
X144.157Y-110.785
X144.433Y-139.675
X144.433Y-142.075
X144.433Y-150.075
X144.433Y-150.875
X144.434Y-138.849
X144.451Y-115.166
X144.48Y-142.795
X144.483Y-141.324
X144.49Y-125.21
X144.5Y-121.205
X144.509Y-120.64
X144.54Y-122.675
X144.549Y-119.753
X144.55Y-123.771
X144.55Y-110.4
X144.553Y-119.152
X144.611Y-131.636
X144.63Y-104.05
X144.7Y-111.746
X144.8Y-130.635
X144.853Y-132.23
X144.859Y-148.369
X144.88Y-113.033
X144.943Y-123.176
X144.955Y-121.725
X144.993Y-117.168
X145.0Y-83.5
X145.0Y-124.71
X145.0Y-161.77
X145.001Y-144.228
X145.02Y-129.965
X145.04Y-115.675
X145.04Y-118.15
X145.04Y-118.73
X145.082Y-122.276
X145.15Y-129.235
X145.165Y-133.115
X145.165Y-133.895
X145.205Y-128.455
X145.336Y-149.063
X145.35Y-145.225
X145.453Y-123.667
X145.46Y-124.263
X145.49Y-116.625
X145.5Y-125.22
X145.5Y-149.87
X145.504Y-115.211
X145.505Y-119.215
X145.544Y-121.264
X145.55Y-111.8
X145.553Y-143.34
X145.555Y-120.628
X145.575Y-103.675
X145.73Y-148.372
X145.86Y-107.9
X145.87Y-108.715
X145.876Y-150.392
X145.91Y-154.29
X145.95Y-112.5
X145.975Y-144.825
X145.982Y-118.168
X146.035Y-122.29
X146.036Y-124.263
X146.046Y-121.676
X146.047Y-123.706
X146.048Y-120.256
X146.049Y-116.759
X146.055Y-118.705
X146.213Y-145.935
X146.223Y-146.735
X146.44Y-120.78
X146.46Y-112.11
X146.46Y-115.195
X146.465Y-125.263
X146.467Y-112.707
X146.48Y-124.695
X146.546Y-117.241
X146.548Y-119.75
X146.57Y-98.58
X146.6Y-110.5
X146.65Y-97.78
X146.65Y-113.3
X146.66Y-115.755
X146.81Y-129.935
X146.82Y-128.445
X146.82Y-129.081
X146.833Y-138.075
X146.833Y-138.875
X146.833Y-139.675
X146.833Y-140.475
X146.833Y-141.275
X146.833Y-142.075
X146.833Y-145.275
X146.99Y-116.705
X147.0Y-119.21
X147.0Y-122.7
X147.01Y-121.165
X147.028Y-125.26
X147.047Y-124.703
X147.2Y-110.45
X147.3Y-103.675
X147.325Y-123.3
X147.445Y-118.165
X147.45Y-118.764
X147.47Y-121.7
X147.496Y-117.22
X147.549Y-120.764
X147.553Y-119.768
X147.57Y-150.065
X147.578Y-124.165
X147.59Y-149.255
X147.6Y-150.855
X147.633Y-142.875
X147.633Y-143.675
X147.633Y-146.075
X147.633Y-148.475
X147.65Y-128.445
X147.65Y-129.895
X147.65Y-129.135
X147.653Y-139.68
X147.691Y-141.277
X147.744Y-145.257
X147.8Y-110.46
X147.88Y-104.09
X147.97Y-154.28
X147.98Y-124.705
X147.998Y-116.734
X148.016Y-127.445
X148.027Y-121.678
X148.049Y-118.166
X148.053Y-118.667
X148.39Y-102.32
X148.41Y-129.125
X148.41Y-129.835
X148.412Y-146.859
X148.433Y-148.561
X148.433Y-138.875
X148.433Y-140.475
X148.433Y-142.075
X148.433Y-142.875
X148.433Y-143.675
X148.433Y-147.675
X148.433Y-150.075
X148.433Y-150.875
X148.44Y-149.305
X148.45Y-141.342
X148.465Y-122.819
X148.47Y-125.225
X148.475Y-117.724
X148.49Y-110.46
X148.5Y-121.21
X148.5Y-137.979
X148.509Y-139.667
X148.553Y-119.265
X148.659Y-130.326
X148.74Y-115.18
X148.77Y-102.93
X148.9Y-105.5
X148.993Y-115.717
X149.0Y-118.715
X149.0Y-121.67
X149.003Y-120.719
X149.02Y-122.775
X149.032Y-117.715
X149.037Y-125.226
X149.233Y-139.675
X149.233Y-140.475
X149.233Y-142.075
X149.233Y-142.875
X149.233Y-143.675
X149.233Y-145.275
X149.233Y-146.875
X149.233Y-150.875
X149.253Y-149.3
X149.271Y-147.726
X149.28Y-145.985
X149.297Y-150.138
X149.32Y-148.555
X149.351Y-138.84
X149.5Y-104.79
X149.55Y-94.57
X149.55Y-95.14
X149.55Y-95.71
X149.6Y-102.145
X149.6Y-103.945
X149.97Y-154.25
X150.0Y-83.5
X150.0Y-113.365
X150.0Y-161.77
X150.13Y-94.57
X150.13Y-95.14
X150.13Y-95.71
X150.15Y-103.45
X150.17Y-150.5
X150.5Y-112.35
X150.682Y-107.934
X150.7Y-102.145
X150.72Y-94.57
X150.72Y-95.14
X150.72Y-95.71
X150.86Y-120.325
X150.868Y-122.759
X150.88Y-119.39
X150.88Y-125.785
X150.96Y-110.46
X150.96Y-123.485
X151.39Y-154.26
X151.6Y-110.45
X151.8Y-102.145
X151.93Y-119.54
X152.03Y-113.89
X152.12Y-125.78
X152.131Y-123.051
X152.17Y-105.33
X152.35Y-115.12
X152.45Y-108.75
X152.46Y-154.2
X152.48Y-102.92
X152.675Y-116.51
X152.68Y-113.72
X152.68Y-152.82
X152.708Y-123.051
X152.71Y-119.53
X152.9Y-102.36
X152.9Y-125.79
X152.93Y-115.12
X153.08Y-120.495
X153.09Y-121.726
X153.13Y-105.54
X153.29Y-102.92
X153.425Y-116.512
X153.6Y-151.9
X153.75Y-104.77
X153.85Y-128.425
X153.98Y-102.145
X154.03Y-95.89
X154.425Y-113.7
X154.45Y-112.4
X154.45Y-116.5
X154.462Y-110.85
X154.525Y-115.1
X154.75Y-126.6
X154.84Y-123.63
X154.85Y-127.895
X155.0Y-83.5
X155.0Y-114.6
X155.0Y-115.9
X155.0Y-161.77
X155.05Y-128.975
X155.24Y-103.81
X155.3Y-100.8
X155.35Y-113.25
X155.35Y-128.375
X155.39Y-127.445
X155.51Y-105.16
X155.6Y-150.05
X155.6Y-150.6
X155.81Y-103.81
X155.958Y-120.801
X155.958Y-121.378
X156.0Y-100.8
X156.09Y-129.573
X156.209Y-106.884
X156.256Y-158.98
X156.31Y-123.64
X156.526Y-153.1
X156.542Y-129.142
X156.7Y-100.8
X156.9Y-148.6
X156.92Y-123.63
X156.93Y-124.21
X157.025Y-127.225
X157.07Y-156.01
X157.2Y-144.4
X157.2Y-146.6
X157.28Y-118.64
X157.28Y-119.76
X157.4Y-100.8
X157.425Y-143.65
X157.43Y-124.84
X157.51Y-95.88
X157.51Y-123.614
X157.644Y-158.98
X157.75Y-118.07
X157.82Y-124.47
X157.9Y-127.1
X157.99Y-125.24
X158.06Y-118.97
X158.08Y-140.545
X158.11Y-117.71
X158.15Y-118.44
X158.213Y-127.7
X158.24Y-123.93
X158.34Y-156.01
X158.35Y-130.715
X158.4Y-146.475
X158.44Y-153.36
X158.662Y-103.487
X158.69Y-102.93
X159.026Y-159.0
X159.226Y-152.9
X159.44Y-102.145
X159.44Y-130.705
X159.49Y-97.84
X159.57Y-156.05
X159.77Y-117.35
X159.82Y-125.14
X159.83Y-123.63
X159.83Y-124.33
X159.97Y-118.04
X159.99Y-103.52
X160.0Y-83.5
X160.0Y-161.77
X160.122Y-119.68
X160.24Y-136.31
X160.39Y-156.03
X160.42Y-158.98
X160.532Y-102.143
X160.55Y-130.705
X160.63Y-139.64
X160.9Y-138.465
X160.9Y-143.475
X161.09Y-103.45
X161.13Y-134.835
X161.13Y-135.815
X161.276Y-153.36
X161.3Y-97.91
X161.38Y-95.95
X161.41Y-115.267
X161.415Y-124.469
X161.415Y-128.15
X161.42Y-117.108
X161.42Y-118.948
X161.42Y-120.788
X161.42Y-122.629
X161.42Y-126.31
X161.46Y-156.07
X161.808Y-158.98
X161.96Y-133.27
X162.04Y-134.835
X162.04Y-135.815
X162.05Y-144.495
X162.16Y-156.02
X162.25Y-101.61
X162.78Y-144.725
X162.89Y-140.475
X162.9Y-134.835
X162.9Y-135.815
X162.9Y-141.955
X162.911Y-141.414
X162.94Y-117.68
X162.95Y-117.226
X162.988Y-114.651
X162.988Y-115.121
X163.004Y-118.401
X163.004Y-118.871
X163.008Y-111.631
X163.01Y-112.7
X163.01Y-113.16
X163.021Y-125.015
X163.021Y-125.566
X163.037Y-121.535
X163.037Y-122.005
X163.085Y-123.12
X163.085Y-123.6
X163.196Y-158.98
X163.35Y-142.475
X163.359Y-138.975
X163.38Y-129.891
X163.4Y-144.475
X163.83Y-134.835
X163.83Y-135.815
X163.86Y-130.715
X163.9Y-139.975
X163.92Y-142.485
X163.94Y-140.895
X164.11Y-137.025
X164.13Y-110.79
X164.14Y-94.93
X164.28Y-138.955
X164.36Y-111.3
X164.39Y-144.485
X164.82Y-136.28
X164.83Y-135.2
X164.84Y-139.975
X164.9Y-142.445
X164.91Y-111.3
X164.95Y-130.705
X165.0Y-83.5
X165.0Y-161.77
X165.275Y-97.35
X165.275Y-98.825
X165.43Y-128.99
X165.44Y-111.3
X165.5Y-119.825
X165.51Y-116.06
X165.613Y-127.235
X165.67Y-145.465
X166.05Y-130.12
X166.05Y-130.695
X166.15Y-92.98
X166.196Y-127.219
X166.277Y-122.877
X166.277Y-123.643
X166.277Y-124.409
X166.277Y-125.175
X166.293Y-126.457
X166.4Y-141.475
X166.42Y-140.565
X166.779Y-127.219
X166.9Y-145.46
X167.02Y-96.59
X167.02Y-98.1
X167.02Y-99.57
X167.7Y-96.6
X167.7Y-98.1
X168.109Y-104.994
X168.15Y-107.09
X168.2Y-130.73
X168.3Y-101.35
X168.3Y-101.86
X168.55Y-103.265
X168.625Y-126.297
X168.625Y-128.139
X168.632Y-122.633
X168.635Y-124.456
X168.65Y-115.25
X168.65Y-117.091
X168.65Y-118.932
X168.65Y-120.774
X168.67Y-132.2
X168.74Y-93.5
X168.79Y-130.24
X168.83Y-101.35
X168.83Y-101.86
X169.11Y-131.66
X169.41Y-92.27
X169.44Y-93.29
X169.875Y-103.26
X170.91Y-92.37
X170.92Y-93.29
X170.975Y-90.2
X171.0Y-89.54
X171.3Y-115.3
X171.3Y-117.6
X171.31Y-118.61
X171.31Y-119.16
X171.87Y-118.61
X171.87Y-119.16
X171.9Y-105.69
X171.91Y-106.2
X172.0Y-117.6
X172.07Y-104.98
X172.38Y-93.29
X172.39Y-92.37
X172.39Y-105.69
X172.4Y-106.2
X172.5Y-148.77
X172.5Y-149.5
X172.572Y-101.012
X172.66Y-102.5
X172.66Y-126.94
X172.7Y-98.164
X172.73Y-106.97
X173.22Y-106.45
X173.5Y-127.0
X173.6Y-91.15
X173.8Y-136.7
X173.825Y-96.575
X173.87Y-106.49
X173.88Y-92.27
X174.05Y-103.5
X174.09Y-96.09
X174.26Y-126.99
X174.4Y-93.3
X174.4Y-137.2
X174.41Y-91.22
X174.49Y-106.49
X174.5Y-145.5
X174.5Y-146.2
X174.625Y-95.925
X174.789Y-94.276
X174.8Y-95.325
X174.975Y-120.245
X175.07Y-106.97
X175.11Y-98.789
X175.11Y-100.0
X175.11Y-101.21
X175.2Y-91.15
X175.2Y-145.5
X175.2Y-146.2
X175.32Y-126.99
X175.47Y-149.96
X175.475Y-94.85
X175.48Y-93.39
X175.66Y-106.49
X175.7Y-94.025
X176.25Y-88.37
X176.275Y-93.5
X176.31Y-98.8
X176.31Y-100.01
X176.31Y-101.21
X176.315Y-116.871
X176.325Y-131.269
X176.325Y-131.869
X176.325Y-143.55
X176.325Y-144.15
X176.7Y-118.43
X176.75Y-109.42
X176.8Y-141.35
X176.8Y-141.925
X176.8Y-142.5
X176.82Y-106.5
X176.825Y-131.569
X176.825Y-143.85
X176.917Y-96.55
X176.975Y-120.895
X177.0Y-117.87
X177.075Y-132.894
X177.075Y-133.469
X177.075Y-134.044
X177.09Y-88.45
X177.275Y-89.45
X177.325Y-131.269
X177.325Y-131.869
X177.325Y-143.55
X177.325Y-144.15
X177.328Y-96.078
X177.375Y-141.35
X177.375Y-141.925
X177.375Y-142.5
X177.53Y-98.8
X177.53Y-100.01
X177.53Y-101.21
X177.65Y-132.894
X177.65Y-133.469
X177.65Y-134.044
X177.72Y-103.77
X177.95Y-141.35
X177.95Y-141.925
X177.95Y-142.5
X178.025Y-94.575
X178.14Y-96.58
X178.2Y-106.5
X178.225Y-132.894
X178.225Y-133.469
X178.225Y-134.044
X178.47Y-147.52
X178.5Y-148.3
X178.525Y-141.35
X178.55Y-141.925
X178.55Y-142.5
X178.8Y-134.044
X178.825Y-132.894
X178.825Y-133.469
X178.94Y-104.79
X178.94Y-118.55
X179.0Y-117.75
X179.08Y-113.12
X179.17Y-102.465
X179.2Y-103.425
X179.575Y-96.425
X179.6Y-97.375
X179.61Y-118.55
X179.61Y-119.185
X179.98Y-139.78
X180.0Y-139.27
X180.16Y-99.007
X180.17Y-101.01
X180.225Y-145.119
X180.4Y-137.75
X180.425Y-121.245
X180.425Y-122.345
X180.5Y-118.8
X180.5Y-148.3
X180.53Y-147.525
X180.6Y-134.325
X180.6Y-134.825
X180.6Y-140.825
X180.6Y-141.325
X180.77Y-144.03
X180.9Y-127.8
X180.9Y-128.8
X181.1Y-134.325
X181.1Y-134.825
X181.1Y-140.825
X181.1Y-141.325
X181.2Y-128.3
X181.48Y-92.76
X181.5Y-127.8
X181.5Y-128.8
X181.5Y-143.01
X181.68Y-136.4
X181.7Y-135.825
X181.8Y-139.075
X181.8Y-139.7
X182.35Y-140.31
X182.35Y-142.55
X182.35Y-143.13
X182.4Y-136.2
X182.44Y-92.76
X182.495Y-89.515
X182.5Y-90.83
X182.86Y-142.84
X182.95Y-126.34
X182.95Y-127.1
X182.95Y-127.9
X182.95Y-128.65
X182.95Y-129.4
X183.05Y-150.875
X183.175Y-96.4
X183.24Y-116.13
X183.24Y-116.84
X183.5Y-134.0
X183.625Y-150.875
X183.675Y-126.34
X183.675Y-127.1
X183.675Y-127.9
X183.675Y-128.65
X183.675Y-129.4
X183.89Y-141.61
X184.03Y-116.13
X184.03Y-116.83
X184.06Y-142.83
X184.17Y-142.08
X184.4Y-126.34
X184.4Y-127.1
X184.4Y-127.9
X184.4Y-128.65
X184.4Y-129.4
X184.475Y-136.225
X184.475Y-137.45
X184.475Y-138.625
X184.49Y-150.89
X184.71Y-144.318
X184.79Y-142.52
X184.79Y-143.09
X184.805Y-141.77
X185.45Y-142.76
X185.45Y-144.32
X185.541Y-121.65
X185.541Y-122.3
X185.541Y-122.95
X185.541Y-123.6
X185.7Y-136.225
X185.7Y-137.45
X185.7Y-138.625
X185.75Y-133.5
X185.75Y-134.1
X186.0Y-83.5
X186.125Y-141.77
X186.191Y-121.65
X186.191Y-122.3
X186.191Y-122.95
X186.191Y-123.6
X186.2Y-89.35
X186.2Y-94.4
X186.8Y-132.54
X186.8Y-133.5
X186.841Y-121.65
X186.841Y-122.3
X186.841Y-122.95
X186.841Y-123.6
X186.925Y-136.225
X186.925Y-137.45
X186.925Y-138.625
X186.933Y-144.712
X186.933Y-145.288
X186.975Y-141.651
X187.01Y-140.555
X187.08Y-143.48
X187.48Y-141.9
X187.491Y-121.65
X187.491Y-122.3
X187.491Y-122.95
X187.491Y-123.6
X187.766Y-114.775
X187.9Y-133.51
X187.915Y-132.549
X188.266Y-117.6
X188.49Y-133.52
X188.5Y-134.12
X188.51Y-143.43
X188.53Y-142.82
X188.625Y-140.675
X188.825Y-141.3
X188.825Y-141.85
X189.375Y-141.3
X189.375Y-141.85
X189.591Y-118.16
X189.591Y-118.71
X189.591Y-119.26
X189.62Y-140.21
X189.675Y-133.469
X189.7Y-134.525
X189.7Y-135.325
X189.7Y-136.25
X189.7Y-136.95
X189.775Y-137.7
X190.23Y-139.92
X190.725Y-138.494
X191.0Y-83.5
X191.128Y-125.49
X191.128Y-126.15
X191.75Y-116.65
X192.0Y-87.75
X192.0Y-89.75
X192.03Y-132.8
X192.191Y-117.45
X192.191Y-118.05
X192.191Y-118.65
X192.191Y-119.25
X192.5Y-106.5
X192.891Y-117.45
X192.891Y-118.05
X192.891Y-118.65
X192.891Y-119.25
X193.0Y-89.75
X193.5Y-94.25
X193.5Y-95.75
X193.5Y-97.75
X193.5Y-99.75
X193.5Y-101.75
X193.5Y-103.75
X193.5Y-105.75
X193.75Y-106.75
X194.0Y-87.75
X194.0Y-89.75
X194.25Y-96.5
X194.25Y-104.25
X194.5Y-128.8
X194.5Y-129.5
X194.525Y-123.875
X194.75Y-90.5
X195.0Y-108.75
X195.0Y-109.75
X195.25Y-91.25
X195.25Y-92.25
X195.25Y-128.8
X195.25Y-129.5
X195.26Y-111.8
X195.26Y-113.02
X195.28Y-124.82
X195.28Y-126.73
X195.375Y-123.875
X195.5Y-97.0
X195.5Y-103.75
X196.0Y-83.5
X196.0Y-87.75
X196.0Y-128.8
X196.0Y-129.5
X196.225Y-123.875
X196.5Y-92.25
X196.5Y-161.77
X196.75Y-128.8
X196.75Y-129.5
X197.0Y-97.0
X197.0Y-103.75
X197.0Y-108.75
X197.0Y-109.75
X197.075Y-123.875
X197.59Y-124.65
X197.6Y-127.57
X197.75Y-92.75
X197.75Y-96.25
X197.75Y-104.5
X197.79Y-111.8
X197.79Y-113.03
X198.0Y-87.75
X198.0Y-107.5
X198.25Y-93.75
X198.25Y-95.25
X198.25Y-105.75
X199.25Y-116.25
X200.0Y-87.75
X200.5Y-124.35
X200.5Y-125.35
X200.5Y-126.35
X200.5Y-127.35
X200.5Y-128.35
X201.0Y-83.5
X201.0Y-114.5
X201.5Y-161.77
X202.0Y-87.75
X204.0Y-87.75
X204.0Y-89.75
X204.0Y-91.75
X204.0Y-105.75
X204.0Y-107.75
X204.0Y-114.5
X205.0Y-109.75
X205.5Y-156.0
X205.75Y-116.5
X206.0Y-87.75
X206.0Y-89.75
X206.0Y-91.75
X206.0Y-93.75
X206.0Y-95.75
X206.0Y-97.75
X206.0Y-99.75
X206.0Y-101.75
X206.0Y-101.75
X206.0Y-103.75
X206.0Y-105.75
X206.0Y-107.75
T2
X160.1Y-149.2
X164.98Y-149.22
X168.0Y-156.5
X170.32Y-149.37
X170.5Y-156.5
X175.5Y-156.5
X178.0Y-156.5
X182.5Y-156.5
X185.5Y-156.5
X189.96Y-147.21
X190.0Y-156.5
X190.95Y-147.21
X193.0Y-156.5
T4
X193.835Y-141.5
X193.835Y-144.0
X193.835Y-146.0
X193.835Y-148.5
T5
X166.78Y-154.675
X166.78Y-161.175
X171.28Y-154.675
X171.28Y-161.175
X174.28Y-154.675
X174.28Y-161.175
X178.78Y-154.675
X178.78Y-161.175
X181.8Y-154.675
X181.8Y-161.175
X186.3Y-154.675
X186.3Y-161.175
X187.06Y-95.82
X187.06Y-98.36
X187.06Y-100.9
X187.06Y-103.44
X187.06Y-105.98
X189.198Y-154.675
X189.198Y-161.175
X189.6Y-94.55
X189.6Y-97.09
X189.6Y-99.63
X189.6Y-102.17
X189.6Y-104.71
X193.698Y-154.675
X193.698Y-161.175
T6
X126.7Y-122.34
X126.7Y-124.88
X126.7Y-127.42
X126.7Y-129.96
X126.7Y-132.5
X126.7Y-135.04
X126.7Y-140.75
X126.7Y-143.29
X126.7Y-145.83
X126.7Y-148.37
X126.7Y-150.91
X126.7Y-153.45
X136.68Y-157.29
X139.22Y-157.29
X141.76Y-157.29
X143.8Y-85.84
X143.8Y-88.38
X143.8Y-90.92
X143.8Y-93.46
X143.8Y-96.0
X143.8Y-98.54
X168.74Y-85.2
X171.28Y-85.2
X173.82Y-85.2
X176.36Y-85.2
X178.9Y-85.2
X181.44Y-85.2
T7
X200.85Y-93.64
X200.85Y-96.18
X200.85Y-104.35
X200.85Y-106.89
T8
X192.9Y-92.215
X192.9Y-108.315
T9
X196.545Y-138.0
X196.545Y-152.0
T10
X200.175Y-123.43
X200.175Y-129.21
T11
X151.2Y-88.0
X159.2Y-88.0
T12
X126.449Y-116.25
X127.465Y-108.63
X128.481Y-116.25
X155.27Y-153.619
X155.27Y-155.651
X162.89Y-154.635
T13
X195.95Y-94.55
X195.95Y-105.98
T3
G00X199.095Y-122.0
M15
G01X200.195Y-122.0
M16
G05
G00X199.095Y-130.64
M15
G01X200.195Y-130.64
M16
G05
G00X203.525Y-122.0
M15
G01X204.125Y-122.0
M16
G05
G00X203.525Y-130.64
M15
G01X204.125Y-130.64
M16
G05
M30
