%TF.GenerationSoftware,KiCad,Pcbnew,9.0.1*%
%TF.CreationDate,2026-03-02T11:22:44-05:00*%
%TF.ProjectId,Leonhart,4c656f6e-6861-4727-942e-6b696361645f,rev?*%
%TF.SameCoordinates,Original*%
%TF.FileFunction,Legend,Bot*%
%TF.FilePolarity,Positive*%
%FSLAX46Y46*%
G04 Gerber Fmt 4.6, Leading zero omitted, Abs format (unit mm)*
G04 Created by KiCad (PCBNEW 9.0.1) date 2026-03-02 11:22:44*
%MOMM*%
%LPD*%
G01*
G04 APERTURE LIST*
%ADD10C,0.150000*%
%ADD11C,0.120000*%
%ADD12C,0.200000*%
%ADD13C,0.100000*%
%ADD14C,0.250000*%
%ADD15C,0.050000*%
G04 APERTURE END LIST*
D10*
X162183809Y-128749819D02*
X161850476Y-129749819D01*
X161850476Y-129749819D02*
X161517143Y-128749819D01*
X161183809Y-129749819D02*
X161183809Y-128749819D01*
X161183809Y-128749819D02*
X160945714Y-128749819D01*
X160945714Y-128749819D02*
X160802857Y-128797438D01*
X160802857Y-128797438D02*
X160707619Y-128892676D01*
X160707619Y-128892676D02*
X160660000Y-128987914D01*
X160660000Y-128987914D02*
X160612381Y-129178390D01*
X160612381Y-129178390D02*
X160612381Y-129321247D01*
X160612381Y-129321247D02*
X160660000Y-129511723D01*
X160660000Y-129511723D02*
X160707619Y-129606961D01*
X160707619Y-129606961D02*
X160802857Y-129702200D01*
X160802857Y-129702200D02*
X160945714Y-129749819D01*
X160945714Y-129749819D02*
X161183809Y-129749819D01*
X160183809Y-129749819D02*
X160183809Y-128749819D01*
X160183809Y-128749819D02*
X159945714Y-128749819D01*
X159945714Y-128749819D02*
X159802857Y-128797438D01*
X159802857Y-128797438D02*
X159707619Y-128892676D01*
X159707619Y-128892676D02*
X159660000Y-128987914D01*
X159660000Y-128987914D02*
X159612381Y-129178390D01*
X159612381Y-129178390D02*
X159612381Y-129321247D01*
X159612381Y-129321247D02*
X159660000Y-129511723D01*
X159660000Y-129511723D02*
X159707619Y-129606961D01*
X159707619Y-129606961D02*
X159802857Y-129702200D01*
X159802857Y-129702200D02*
X159945714Y-129749819D01*
X159945714Y-129749819D02*
X160183809Y-129749819D01*
X159231428Y-129464104D02*
X158755238Y-129464104D01*
X159326666Y-129749819D02*
X158993333Y-128749819D01*
X158993333Y-128749819D02*
X158660000Y-129749819D01*
X158564762Y-129845057D02*
X157802857Y-129845057D01*
X157040952Y-129749819D02*
X157612380Y-129749819D01*
X157326666Y-129749819D02*
X157326666Y-128749819D01*
X157326666Y-128749819D02*
X157421904Y-128892676D01*
X157421904Y-128892676D02*
X157517142Y-128987914D01*
X157517142Y-128987914D02*
X157612380Y-129035533D01*
X156755237Y-128749819D02*
X156421904Y-129749819D01*
X156421904Y-129749819D02*
X156088571Y-128749819D01*
X155612380Y-129178390D02*
X155707618Y-129130771D01*
X155707618Y-129130771D02*
X155755237Y-129083152D01*
X155755237Y-129083152D02*
X155802856Y-128987914D01*
X155802856Y-128987914D02*
X155802856Y-128940295D01*
X155802856Y-128940295D02*
X155755237Y-128845057D01*
X155755237Y-128845057D02*
X155707618Y-128797438D01*
X155707618Y-128797438D02*
X155612380Y-128749819D01*
X155612380Y-128749819D02*
X155421904Y-128749819D01*
X155421904Y-128749819D02*
X155326666Y-128797438D01*
X155326666Y-128797438D02*
X155279047Y-128845057D01*
X155279047Y-128845057D02*
X155231428Y-128940295D01*
X155231428Y-128940295D02*
X155231428Y-128987914D01*
X155231428Y-128987914D02*
X155279047Y-129083152D01*
X155279047Y-129083152D02*
X155326666Y-129130771D01*
X155326666Y-129130771D02*
X155421904Y-129178390D01*
X155421904Y-129178390D02*
X155612380Y-129178390D01*
X155612380Y-129178390D02*
X155707618Y-129226009D01*
X155707618Y-129226009D02*
X155755237Y-129273628D01*
X155755237Y-129273628D02*
X155802856Y-129368866D01*
X155802856Y-129368866D02*
X155802856Y-129559342D01*
X155802856Y-129559342D02*
X155755237Y-129654580D01*
X155755237Y-129654580D02*
X155707618Y-129702200D01*
X155707618Y-129702200D02*
X155612380Y-129749819D01*
X155612380Y-129749819D02*
X155421904Y-129749819D01*
X155421904Y-129749819D02*
X155326666Y-129702200D01*
X155326666Y-129702200D02*
X155279047Y-129654580D01*
X155279047Y-129654580D02*
X155231428Y-129559342D01*
X155231428Y-129559342D02*
X155231428Y-129368866D01*
X155231428Y-129368866D02*
X155279047Y-129273628D01*
X155279047Y-129273628D02*
X155326666Y-129226009D01*
X155326666Y-129226009D02*
X155421904Y-129178390D01*
X108000475Y-118827819D02*
X107429047Y-118827819D01*
X107714761Y-119827819D02*
X107714761Y-118827819D01*
X107095713Y-119827819D02*
X107095713Y-118827819D01*
X107095713Y-118827819D02*
X106714761Y-118827819D01*
X106714761Y-118827819D02*
X106619523Y-118875438D01*
X106619523Y-118875438D02*
X106571904Y-118923057D01*
X106571904Y-118923057D02*
X106524285Y-119018295D01*
X106524285Y-119018295D02*
X106524285Y-119161152D01*
X106524285Y-119161152D02*
X106571904Y-119256390D01*
X106571904Y-119256390D02*
X106619523Y-119304009D01*
X106619523Y-119304009D02*
X106714761Y-119351628D01*
X106714761Y-119351628D02*
X107095713Y-119351628D01*
X105571904Y-119827819D02*
X106143332Y-119827819D01*
X105857618Y-119827819D02*
X105857618Y-118827819D01*
X105857618Y-118827819D02*
X105952856Y-118970676D01*
X105952856Y-118970676D02*
X106048094Y-119065914D01*
X106048094Y-119065914D02*
X106143332Y-119113533D01*
X104952856Y-118827819D02*
X104857618Y-118827819D01*
X104857618Y-118827819D02*
X104762380Y-118875438D01*
X104762380Y-118875438D02*
X104714761Y-118923057D01*
X104714761Y-118923057D02*
X104667142Y-119018295D01*
X104667142Y-119018295D02*
X104619523Y-119208771D01*
X104619523Y-119208771D02*
X104619523Y-119446866D01*
X104619523Y-119446866D02*
X104667142Y-119637342D01*
X104667142Y-119637342D02*
X104714761Y-119732580D01*
X104714761Y-119732580D02*
X104762380Y-119780200D01*
X104762380Y-119780200D02*
X104857618Y-119827819D01*
X104857618Y-119827819D02*
X104952856Y-119827819D01*
X104952856Y-119827819D02*
X105048094Y-119780200D01*
X105048094Y-119780200D02*
X105095713Y-119732580D01*
X105095713Y-119732580D02*
X105143332Y-119637342D01*
X105143332Y-119637342D02*
X105190951Y-119446866D01*
X105190951Y-119446866D02*
X105190951Y-119208771D01*
X105190951Y-119208771D02*
X105143332Y-119018295D01*
X105143332Y-119018295D02*
X105095713Y-118923057D01*
X105095713Y-118923057D02*
X105048094Y-118875438D01*
X105048094Y-118875438D02*
X104952856Y-118827819D01*
X104000475Y-118827819D02*
X103905237Y-118827819D01*
X103905237Y-118827819D02*
X103809999Y-118875438D01*
X103809999Y-118875438D02*
X103762380Y-118923057D01*
X103762380Y-118923057D02*
X103714761Y-119018295D01*
X103714761Y-119018295D02*
X103667142Y-119208771D01*
X103667142Y-119208771D02*
X103667142Y-119446866D01*
X103667142Y-119446866D02*
X103714761Y-119637342D01*
X103714761Y-119637342D02*
X103762380Y-119732580D01*
X103762380Y-119732580D02*
X103809999Y-119780200D01*
X103809999Y-119780200D02*
X103905237Y-119827819D01*
X103905237Y-119827819D02*
X104000475Y-119827819D01*
X104000475Y-119827819D02*
X104095713Y-119780200D01*
X104095713Y-119780200D02*
X104143332Y-119732580D01*
X104143332Y-119732580D02*
X104190951Y-119637342D01*
X104190951Y-119637342D02*
X104238570Y-119446866D01*
X104238570Y-119446866D02*
X104238570Y-119208771D01*
X104238570Y-119208771D02*
X104190951Y-119018295D01*
X104190951Y-119018295D02*
X104143332Y-118923057D01*
X104143332Y-118923057D02*
X104095713Y-118875438D01*
X104095713Y-118875438D02*
X104000475Y-118827819D01*
X103333808Y-118827819D02*
X102714761Y-118827819D01*
X102714761Y-118827819D02*
X103048094Y-119208771D01*
X103048094Y-119208771D02*
X102905237Y-119208771D01*
X102905237Y-119208771D02*
X102809999Y-119256390D01*
X102809999Y-119256390D02*
X102762380Y-119304009D01*
X102762380Y-119304009D02*
X102714761Y-119399247D01*
X102714761Y-119399247D02*
X102714761Y-119637342D01*
X102714761Y-119637342D02*
X102762380Y-119732580D01*
X102762380Y-119732580D02*
X102809999Y-119780200D01*
X102809999Y-119780200D02*
X102905237Y-119827819D01*
X102905237Y-119827819D02*
X103190951Y-119827819D01*
X103190951Y-119827819D02*
X103286189Y-119780200D01*
X103286189Y-119780200D02*
X103333808Y-119732580D01*
X157650237Y-126894819D02*
X157316904Y-127894819D01*
X157316904Y-127894819D02*
X156983571Y-126894819D01*
X156650237Y-127894819D02*
X156650237Y-126894819D01*
X156650237Y-126894819D02*
X156412142Y-126894819D01*
X156412142Y-126894819D02*
X156269285Y-126942438D01*
X156269285Y-126942438D02*
X156174047Y-127037676D01*
X156174047Y-127037676D02*
X156126428Y-127132914D01*
X156126428Y-127132914D02*
X156078809Y-127323390D01*
X156078809Y-127323390D02*
X156078809Y-127466247D01*
X156078809Y-127466247D02*
X156126428Y-127656723D01*
X156126428Y-127656723D02*
X156174047Y-127751961D01*
X156174047Y-127751961D02*
X156269285Y-127847200D01*
X156269285Y-127847200D02*
X156412142Y-127894819D01*
X156412142Y-127894819D02*
X156650237Y-127894819D01*
X155650237Y-127894819D02*
X155650237Y-126894819D01*
X155650237Y-126894819D02*
X155412142Y-126894819D01*
X155412142Y-126894819D02*
X155269285Y-126942438D01*
X155269285Y-126942438D02*
X155174047Y-127037676D01*
X155174047Y-127037676D02*
X155126428Y-127132914D01*
X155126428Y-127132914D02*
X155078809Y-127323390D01*
X155078809Y-127323390D02*
X155078809Y-127466247D01*
X155078809Y-127466247D02*
X155126428Y-127656723D01*
X155126428Y-127656723D02*
X155174047Y-127751961D01*
X155174047Y-127751961D02*
X155269285Y-127847200D01*
X155269285Y-127847200D02*
X155412142Y-127894819D01*
X155412142Y-127894819D02*
X155650237Y-127894819D01*
X154888333Y-127990057D02*
X154126428Y-127990057D01*
X153935951Y-126990057D02*
X153888332Y-126942438D01*
X153888332Y-126942438D02*
X153793094Y-126894819D01*
X153793094Y-126894819D02*
X153554999Y-126894819D01*
X153554999Y-126894819D02*
X153459761Y-126942438D01*
X153459761Y-126942438D02*
X153412142Y-126990057D01*
X153412142Y-126990057D02*
X153364523Y-127085295D01*
X153364523Y-127085295D02*
X153364523Y-127180533D01*
X153364523Y-127180533D02*
X153412142Y-127323390D01*
X153412142Y-127323390D02*
X153983570Y-127894819D01*
X153983570Y-127894819D02*
X153364523Y-127894819D01*
X153078808Y-126894819D02*
X152745475Y-127894819D01*
X152745475Y-127894819D02*
X152412142Y-126894819D01*
X151602618Y-126894819D02*
X152078808Y-126894819D01*
X152078808Y-126894819D02*
X152126427Y-127371009D01*
X152126427Y-127371009D02*
X152078808Y-127323390D01*
X152078808Y-127323390D02*
X151983570Y-127275771D01*
X151983570Y-127275771D02*
X151745475Y-127275771D01*
X151745475Y-127275771D02*
X151650237Y-127323390D01*
X151650237Y-127323390D02*
X151602618Y-127371009D01*
X151602618Y-127371009D02*
X151554999Y-127466247D01*
X151554999Y-127466247D02*
X151554999Y-127704342D01*
X151554999Y-127704342D02*
X151602618Y-127799580D01*
X151602618Y-127799580D02*
X151650237Y-127847200D01*
X151650237Y-127847200D02*
X151745475Y-127894819D01*
X151745475Y-127894819D02*
X151983570Y-127894819D01*
X151983570Y-127894819D02*
X152078808Y-127847200D01*
X152078808Y-127847200D02*
X152126427Y-127799580D01*
X166999475Y-108198819D02*
X166666142Y-109198819D01*
X166666142Y-109198819D02*
X166332809Y-108198819D01*
X165999475Y-109198819D02*
X165999475Y-108198819D01*
X165999475Y-108198819D02*
X165761380Y-108198819D01*
X165761380Y-108198819D02*
X165618523Y-108246438D01*
X165618523Y-108246438D02*
X165523285Y-108341676D01*
X165523285Y-108341676D02*
X165475666Y-108436914D01*
X165475666Y-108436914D02*
X165428047Y-108627390D01*
X165428047Y-108627390D02*
X165428047Y-108770247D01*
X165428047Y-108770247D02*
X165475666Y-108960723D01*
X165475666Y-108960723D02*
X165523285Y-109055961D01*
X165523285Y-109055961D02*
X165618523Y-109151200D01*
X165618523Y-109151200D02*
X165761380Y-109198819D01*
X165761380Y-109198819D02*
X165999475Y-109198819D01*
X164999475Y-109198819D02*
X164999475Y-108198819D01*
X164999475Y-108198819D02*
X164761380Y-108198819D01*
X164761380Y-108198819D02*
X164618523Y-108246438D01*
X164618523Y-108246438D02*
X164523285Y-108341676D01*
X164523285Y-108341676D02*
X164475666Y-108436914D01*
X164475666Y-108436914D02*
X164428047Y-108627390D01*
X164428047Y-108627390D02*
X164428047Y-108770247D01*
X164428047Y-108770247D02*
X164475666Y-108960723D01*
X164475666Y-108960723D02*
X164523285Y-109055961D01*
X164523285Y-109055961D02*
X164618523Y-109151200D01*
X164618523Y-109151200D02*
X164761380Y-109198819D01*
X164761380Y-109198819D02*
X164999475Y-109198819D01*
X164237571Y-109294057D02*
X163475666Y-109294057D01*
X162666142Y-109103580D02*
X162713761Y-109151200D01*
X162713761Y-109151200D02*
X162856618Y-109198819D01*
X162856618Y-109198819D02*
X162951856Y-109198819D01*
X162951856Y-109198819D02*
X163094713Y-109151200D01*
X163094713Y-109151200D02*
X163189951Y-109055961D01*
X163189951Y-109055961D02*
X163237570Y-108960723D01*
X163237570Y-108960723D02*
X163285189Y-108770247D01*
X163285189Y-108770247D02*
X163285189Y-108627390D01*
X163285189Y-108627390D02*
X163237570Y-108436914D01*
X163237570Y-108436914D02*
X163189951Y-108341676D01*
X163189951Y-108341676D02*
X163094713Y-108246438D01*
X163094713Y-108246438D02*
X162951856Y-108198819D01*
X162951856Y-108198819D02*
X162856618Y-108198819D01*
X162856618Y-108198819D02*
X162713761Y-108246438D01*
X162713761Y-108246438D02*
X162666142Y-108294057D01*
X162047094Y-108198819D02*
X161856618Y-108198819D01*
X161856618Y-108198819D02*
X161761380Y-108246438D01*
X161761380Y-108246438D02*
X161666142Y-108341676D01*
X161666142Y-108341676D02*
X161618523Y-108532152D01*
X161618523Y-108532152D02*
X161618523Y-108865485D01*
X161618523Y-108865485D02*
X161666142Y-109055961D01*
X161666142Y-109055961D02*
X161761380Y-109151200D01*
X161761380Y-109151200D02*
X161856618Y-109198819D01*
X161856618Y-109198819D02*
X162047094Y-109198819D01*
X162047094Y-109198819D02*
X162142332Y-109151200D01*
X162142332Y-109151200D02*
X162237570Y-109055961D01*
X162237570Y-109055961D02*
X162285189Y-108865485D01*
X162285189Y-108865485D02*
X162285189Y-108532152D01*
X162285189Y-108532152D02*
X162237570Y-108341676D01*
X162237570Y-108341676D02*
X162142332Y-108246438D01*
X162142332Y-108246438D02*
X162047094Y-108198819D01*
X160618523Y-109198819D02*
X160951856Y-108722628D01*
X161189951Y-109198819D02*
X161189951Y-108198819D01*
X161189951Y-108198819D02*
X160808999Y-108198819D01*
X160808999Y-108198819D02*
X160713761Y-108246438D01*
X160713761Y-108246438D02*
X160666142Y-108294057D01*
X160666142Y-108294057D02*
X160618523Y-108389295D01*
X160618523Y-108389295D02*
X160618523Y-108532152D01*
X160618523Y-108532152D02*
X160666142Y-108627390D01*
X160666142Y-108627390D02*
X160713761Y-108675009D01*
X160713761Y-108675009D02*
X160808999Y-108722628D01*
X160808999Y-108722628D02*
X161189951Y-108722628D01*
X160189951Y-108675009D02*
X159856618Y-108675009D01*
X159713761Y-109198819D02*
X160189951Y-109198819D01*
X160189951Y-109198819D02*
X160189951Y-108198819D01*
X160189951Y-108198819D02*
X159713761Y-108198819D01*
X147355819Y-120530762D02*
X148355819Y-120864095D01*
X148355819Y-120864095D02*
X147355819Y-121197428D01*
X148355819Y-121530762D02*
X147355819Y-121530762D01*
X147355819Y-121530762D02*
X147355819Y-121768857D01*
X147355819Y-121768857D02*
X147403438Y-121911714D01*
X147403438Y-121911714D02*
X147498676Y-122006952D01*
X147498676Y-122006952D02*
X147593914Y-122054571D01*
X147593914Y-122054571D02*
X147784390Y-122102190D01*
X147784390Y-122102190D02*
X147927247Y-122102190D01*
X147927247Y-122102190D02*
X148117723Y-122054571D01*
X148117723Y-122054571D02*
X148212961Y-122006952D01*
X148212961Y-122006952D02*
X148308200Y-121911714D01*
X148308200Y-121911714D02*
X148355819Y-121768857D01*
X148355819Y-121768857D02*
X148355819Y-121530762D01*
X148355819Y-122530762D02*
X147355819Y-122530762D01*
X147355819Y-122530762D02*
X147355819Y-122768857D01*
X147355819Y-122768857D02*
X147403438Y-122911714D01*
X147403438Y-122911714D02*
X147498676Y-123006952D01*
X147498676Y-123006952D02*
X147593914Y-123054571D01*
X147593914Y-123054571D02*
X147784390Y-123102190D01*
X147784390Y-123102190D02*
X147927247Y-123102190D01*
X147927247Y-123102190D02*
X148117723Y-123054571D01*
X148117723Y-123054571D02*
X148212961Y-123006952D01*
X148212961Y-123006952D02*
X148308200Y-122911714D01*
X148308200Y-122911714D02*
X148355819Y-122768857D01*
X148355819Y-122768857D02*
X148355819Y-122530762D01*
X148451057Y-123292667D02*
X148451057Y-124054571D01*
X148355819Y-124816476D02*
X148355819Y-124245048D01*
X148355819Y-124530762D02*
X147355819Y-124530762D01*
X147355819Y-124530762D02*
X147498676Y-124435524D01*
X147498676Y-124435524D02*
X147593914Y-124340286D01*
X147593914Y-124340286D02*
X147641533Y-124245048D01*
X147355819Y-125102191D02*
X148355819Y-125435524D01*
X148355819Y-125435524D02*
X147355819Y-125768857D01*
X147451057Y-126054572D02*
X147403438Y-126102191D01*
X147403438Y-126102191D02*
X147355819Y-126197429D01*
X147355819Y-126197429D02*
X147355819Y-126435524D01*
X147355819Y-126435524D02*
X147403438Y-126530762D01*
X147403438Y-126530762D02*
X147451057Y-126578381D01*
X147451057Y-126578381D02*
X147546295Y-126626000D01*
X147546295Y-126626000D02*
X147641533Y-126626000D01*
X147641533Y-126626000D02*
X147784390Y-126578381D01*
X147784390Y-126578381D02*
X148355819Y-126006953D01*
X148355819Y-126006953D02*
X148355819Y-126626000D01*
X167269819Y-119893524D02*
X168269819Y-120226857D01*
X168269819Y-120226857D02*
X167269819Y-120560190D01*
X168269819Y-120893524D02*
X167269819Y-120893524D01*
X167269819Y-120893524D02*
X167269819Y-121131619D01*
X167269819Y-121131619D02*
X167317438Y-121274476D01*
X167317438Y-121274476D02*
X167412676Y-121369714D01*
X167412676Y-121369714D02*
X167507914Y-121417333D01*
X167507914Y-121417333D02*
X167698390Y-121464952D01*
X167698390Y-121464952D02*
X167841247Y-121464952D01*
X167841247Y-121464952D02*
X168031723Y-121417333D01*
X168031723Y-121417333D02*
X168126961Y-121369714D01*
X168126961Y-121369714D02*
X168222200Y-121274476D01*
X168222200Y-121274476D02*
X168269819Y-121131619D01*
X168269819Y-121131619D02*
X168269819Y-120893524D01*
X168269819Y-121893524D02*
X167269819Y-121893524D01*
X167269819Y-121893524D02*
X167269819Y-122131619D01*
X167269819Y-122131619D02*
X167317438Y-122274476D01*
X167317438Y-122274476D02*
X167412676Y-122369714D01*
X167412676Y-122369714D02*
X167507914Y-122417333D01*
X167507914Y-122417333D02*
X167698390Y-122464952D01*
X167698390Y-122464952D02*
X167841247Y-122464952D01*
X167841247Y-122464952D02*
X168031723Y-122417333D01*
X168031723Y-122417333D02*
X168126961Y-122369714D01*
X168126961Y-122369714D02*
X168222200Y-122274476D01*
X168222200Y-122274476D02*
X168269819Y-122131619D01*
X168269819Y-122131619D02*
X168269819Y-121893524D01*
X168269819Y-123464952D02*
X167793628Y-123131619D01*
X168269819Y-122893524D02*
X167269819Y-122893524D01*
X167269819Y-122893524D02*
X167269819Y-123274476D01*
X167269819Y-123274476D02*
X167317438Y-123369714D01*
X167317438Y-123369714D02*
X167365057Y-123417333D01*
X167365057Y-123417333D02*
X167460295Y-123464952D01*
X167460295Y-123464952D02*
X167603152Y-123464952D01*
X167603152Y-123464952D02*
X167698390Y-123417333D01*
X167698390Y-123417333D02*
X167746009Y-123369714D01*
X167746009Y-123369714D02*
X167793628Y-123274476D01*
X167793628Y-123274476D02*
X167793628Y-122893524D01*
X168365057Y-123655429D02*
X168365057Y-124417333D01*
X168174580Y-125226857D02*
X168222200Y-125179238D01*
X168222200Y-125179238D02*
X168269819Y-125036381D01*
X168269819Y-125036381D02*
X168269819Y-124941143D01*
X168269819Y-124941143D02*
X168222200Y-124798286D01*
X168222200Y-124798286D02*
X168126961Y-124703048D01*
X168126961Y-124703048D02*
X168031723Y-124655429D01*
X168031723Y-124655429D02*
X167841247Y-124607810D01*
X167841247Y-124607810D02*
X167698390Y-124607810D01*
X167698390Y-124607810D02*
X167507914Y-124655429D01*
X167507914Y-124655429D02*
X167412676Y-124703048D01*
X167412676Y-124703048D02*
X167317438Y-124798286D01*
X167317438Y-124798286D02*
X167269819Y-124941143D01*
X167269819Y-124941143D02*
X167269819Y-125036381D01*
X167269819Y-125036381D02*
X167317438Y-125179238D01*
X167317438Y-125179238D02*
X167365057Y-125226857D01*
X167269819Y-125845905D02*
X167269819Y-126036381D01*
X167269819Y-126036381D02*
X167317438Y-126131619D01*
X167317438Y-126131619D02*
X167412676Y-126226857D01*
X167412676Y-126226857D02*
X167603152Y-126274476D01*
X167603152Y-126274476D02*
X167936485Y-126274476D01*
X167936485Y-126274476D02*
X168126961Y-126226857D01*
X168126961Y-126226857D02*
X168222200Y-126131619D01*
X168222200Y-126131619D02*
X168269819Y-126036381D01*
X168269819Y-126036381D02*
X168269819Y-125845905D01*
X168269819Y-125845905D02*
X168222200Y-125750667D01*
X168222200Y-125750667D02*
X168126961Y-125655429D01*
X168126961Y-125655429D02*
X167936485Y-125607810D01*
X167936485Y-125607810D02*
X167603152Y-125607810D01*
X167603152Y-125607810D02*
X167412676Y-125655429D01*
X167412676Y-125655429D02*
X167317438Y-125750667D01*
X167317438Y-125750667D02*
X167269819Y-125845905D01*
X168269819Y-127274476D02*
X167793628Y-126941143D01*
X168269819Y-126703048D02*
X167269819Y-126703048D01*
X167269819Y-126703048D02*
X167269819Y-127084000D01*
X167269819Y-127084000D02*
X167317438Y-127179238D01*
X167317438Y-127179238D02*
X167365057Y-127226857D01*
X167365057Y-127226857D02*
X167460295Y-127274476D01*
X167460295Y-127274476D02*
X167603152Y-127274476D01*
X167603152Y-127274476D02*
X167698390Y-127226857D01*
X167698390Y-127226857D02*
X167746009Y-127179238D01*
X167746009Y-127179238D02*
X167793628Y-127084000D01*
X167793628Y-127084000D02*
X167793628Y-126703048D01*
X167746009Y-127703048D02*
X167746009Y-128036381D01*
X168269819Y-128179238D02*
X168269819Y-127703048D01*
X168269819Y-127703048D02*
X167269819Y-127703048D01*
X167269819Y-127703048D02*
X167269819Y-128179238D01*
X147355819Y-112080762D02*
X148355819Y-112414095D01*
X148355819Y-112414095D02*
X147355819Y-112747428D01*
X148355819Y-113080762D02*
X147355819Y-113080762D01*
X147355819Y-113080762D02*
X147355819Y-113318857D01*
X147355819Y-113318857D02*
X147403438Y-113461714D01*
X147403438Y-113461714D02*
X147498676Y-113556952D01*
X147498676Y-113556952D02*
X147593914Y-113604571D01*
X147593914Y-113604571D02*
X147784390Y-113652190D01*
X147784390Y-113652190D02*
X147927247Y-113652190D01*
X147927247Y-113652190D02*
X148117723Y-113604571D01*
X148117723Y-113604571D02*
X148212961Y-113556952D01*
X148212961Y-113556952D02*
X148308200Y-113461714D01*
X148308200Y-113461714D02*
X148355819Y-113318857D01*
X148355819Y-113318857D02*
X148355819Y-113080762D01*
X148355819Y-114080762D02*
X147355819Y-114080762D01*
X147355819Y-114080762D02*
X147355819Y-114318857D01*
X147355819Y-114318857D02*
X147403438Y-114461714D01*
X147403438Y-114461714D02*
X147498676Y-114556952D01*
X147498676Y-114556952D02*
X147593914Y-114604571D01*
X147593914Y-114604571D02*
X147784390Y-114652190D01*
X147784390Y-114652190D02*
X147927247Y-114652190D01*
X147927247Y-114652190D02*
X148117723Y-114604571D01*
X148117723Y-114604571D02*
X148212961Y-114556952D01*
X148212961Y-114556952D02*
X148308200Y-114461714D01*
X148308200Y-114461714D02*
X148355819Y-114318857D01*
X148355819Y-114318857D02*
X148355819Y-114080762D01*
X148451057Y-114842667D02*
X148451057Y-115604571D01*
X148355819Y-116366476D02*
X148355819Y-115795048D01*
X148355819Y-116080762D02*
X147355819Y-116080762D01*
X147355819Y-116080762D02*
X147498676Y-115985524D01*
X147498676Y-115985524D02*
X147593914Y-115890286D01*
X147593914Y-115890286D02*
X147641533Y-115795048D01*
X147355819Y-116652191D02*
X148355819Y-116985524D01*
X148355819Y-116985524D02*
X147355819Y-117318857D01*
X147784390Y-117795048D02*
X147736771Y-117699810D01*
X147736771Y-117699810D02*
X147689152Y-117652191D01*
X147689152Y-117652191D02*
X147593914Y-117604572D01*
X147593914Y-117604572D02*
X147546295Y-117604572D01*
X147546295Y-117604572D02*
X147451057Y-117652191D01*
X147451057Y-117652191D02*
X147403438Y-117699810D01*
X147403438Y-117699810D02*
X147355819Y-117795048D01*
X147355819Y-117795048D02*
X147355819Y-117985524D01*
X147355819Y-117985524D02*
X147403438Y-118080762D01*
X147403438Y-118080762D02*
X147451057Y-118128381D01*
X147451057Y-118128381D02*
X147546295Y-118176000D01*
X147546295Y-118176000D02*
X147593914Y-118176000D01*
X147593914Y-118176000D02*
X147689152Y-118128381D01*
X147689152Y-118128381D02*
X147736771Y-118080762D01*
X147736771Y-118080762D02*
X147784390Y-117985524D01*
X147784390Y-117985524D02*
X147784390Y-117795048D01*
X147784390Y-117795048D02*
X147832009Y-117699810D01*
X147832009Y-117699810D02*
X147879628Y-117652191D01*
X147879628Y-117652191D02*
X147974866Y-117604572D01*
X147974866Y-117604572D02*
X148165342Y-117604572D01*
X148165342Y-117604572D02*
X148260580Y-117652191D01*
X148260580Y-117652191D02*
X148308200Y-117699810D01*
X148308200Y-117699810D02*
X148355819Y-117795048D01*
X148355819Y-117795048D02*
X148355819Y-117985524D01*
X148355819Y-117985524D02*
X148308200Y-118080762D01*
X148308200Y-118080762D02*
X148260580Y-118128381D01*
X148260580Y-118128381D02*
X148165342Y-118176000D01*
X148165342Y-118176000D02*
X147974866Y-118176000D01*
X147974866Y-118176000D02*
X147879628Y-118128381D01*
X147879628Y-118128381D02*
X147832009Y-118080762D01*
X147832009Y-118080762D02*
X147784390Y-117985524D01*
X167721475Y-111429819D02*
X167388142Y-112429819D01*
X167388142Y-112429819D02*
X167054809Y-111429819D01*
X166721475Y-112429819D02*
X166721475Y-111429819D01*
X166721475Y-111429819D02*
X166483380Y-111429819D01*
X166483380Y-111429819D02*
X166340523Y-111477438D01*
X166340523Y-111477438D02*
X166245285Y-111572676D01*
X166245285Y-111572676D02*
X166197666Y-111667914D01*
X166197666Y-111667914D02*
X166150047Y-111858390D01*
X166150047Y-111858390D02*
X166150047Y-112001247D01*
X166150047Y-112001247D02*
X166197666Y-112191723D01*
X166197666Y-112191723D02*
X166245285Y-112286961D01*
X166245285Y-112286961D02*
X166340523Y-112382200D01*
X166340523Y-112382200D02*
X166483380Y-112429819D01*
X166483380Y-112429819D02*
X166721475Y-112429819D01*
X165721475Y-112429819D02*
X165721475Y-111429819D01*
X165721475Y-111429819D02*
X165483380Y-111429819D01*
X165483380Y-111429819D02*
X165340523Y-111477438D01*
X165340523Y-111477438D02*
X165245285Y-111572676D01*
X165245285Y-111572676D02*
X165197666Y-111667914D01*
X165197666Y-111667914D02*
X165150047Y-111858390D01*
X165150047Y-111858390D02*
X165150047Y-112001247D01*
X165150047Y-112001247D02*
X165197666Y-112191723D01*
X165197666Y-112191723D02*
X165245285Y-112286961D01*
X165245285Y-112286961D02*
X165340523Y-112382200D01*
X165340523Y-112382200D02*
X165483380Y-112429819D01*
X165483380Y-112429819D02*
X165721475Y-112429819D01*
X164959571Y-112525057D02*
X164197666Y-112525057D01*
X164007189Y-112382200D02*
X163864332Y-112429819D01*
X163864332Y-112429819D02*
X163626237Y-112429819D01*
X163626237Y-112429819D02*
X163530999Y-112382200D01*
X163530999Y-112382200D02*
X163483380Y-112334580D01*
X163483380Y-112334580D02*
X163435761Y-112239342D01*
X163435761Y-112239342D02*
X163435761Y-112144104D01*
X163435761Y-112144104D02*
X163483380Y-112048866D01*
X163483380Y-112048866D02*
X163530999Y-112001247D01*
X163530999Y-112001247D02*
X163626237Y-111953628D01*
X163626237Y-111953628D02*
X163816713Y-111906009D01*
X163816713Y-111906009D02*
X163911951Y-111858390D01*
X163911951Y-111858390D02*
X163959570Y-111810771D01*
X163959570Y-111810771D02*
X164007189Y-111715533D01*
X164007189Y-111715533D02*
X164007189Y-111620295D01*
X164007189Y-111620295D02*
X163959570Y-111525057D01*
X163959570Y-111525057D02*
X163911951Y-111477438D01*
X163911951Y-111477438D02*
X163816713Y-111429819D01*
X163816713Y-111429819D02*
X163578618Y-111429819D01*
X163578618Y-111429819D02*
X163435761Y-111477438D01*
X163007189Y-112429819D02*
X163007189Y-111429819D01*
X163007189Y-111429819D02*
X162769094Y-111429819D01*
X162769094Y-111429819D02*
X162626237Y-111477438D01*
X162626237Y-111477438D02*
X162530999Y-111572676D01*
X162530999Y-111572676D02*
X162483380Y-111667914D01*
X162483380Y-111667914D02*
X162435761Y-111858390D01*
X162435761Y-111858390D02*
X162435761Y-112001247D01*
X162435761Y-112001247D02*
X162483380Y-112191723D01*
X162483380Y-112191723D02*
X162530999Y-112286961D01*
X162530999Y-112286961D02*
X162626237Y-112382200D01*
X162626237Y-112382200D02*
X162769094Y-112429819D01*
X162769094Y-112429819D02*
X163007189Y-112429819D01*
X169029475Y-93859819D02*
X168458047Y-93859819D01*
X168743761Y-94859819D02*
X168743761Y-93859819D01*
X168124713Y-94859819D02*
X168124713Y-93859819D01*
X168124713Y-93859819D02*
X167743761Y-93859819D01*
X167743761Y-93859819D02*
X167648523Y-93907438D01*
X167648523Y-93907438D02*
X167600904Y-93955057D01*
X167600904Y-93955057D02*
X167553285Y-94050295D01*
X167553285Y-94050295D02*
X167553285Y-94193152D01*
X167553285Y-94193152D02*
X167600904Y-94288390D01*
X167600904Y-94288390D02*
X167648523Y-94336009D01*
X167648523Y-94336009D02*
X167743761Y-94383628D01*
X167743761Y-94383628D02*
X168124713Y-94383628D01*
X167219951Y-93859819D02*
X166600904Y-93859819D01*
X166600904Y-93859819D02*
X166934237Y-94240771D01*
X166934237Y-94240771D02*
X166791380Y-94240771D01*
X166791380Y-94240771D02*
X166696142Y-94288390D01*
X166696142Y-94288390D02*
X166648523Y-94336009D01*
X166648523Y-94336009D02*
X166600904Y-94431247D01*
X166600904Y-94431247D02*
X166600904Y-94669342D01*
X166600904Y-94669342D02*
X166648523Y-94764580D01*
X166648523Y-94764580D02*
X166696142Y-94812200D01*
X166696142Y-94812200D02*
X166791380Y-94859819D01*
X166791380Y-94859819D02*
X167077094Y-94859819D01*
X167077094Y-94859819D02*
X167172332Y-94812200D01*
X167172332Y-94812200D02*
X167219951Y-94764580D01*
X165981856Y-93859819D02*
X165886618Y-93859819D01*
X165886618Y-93859819D02*
X165791380Y-93907438D01*
X165791380Y-93907438D02*
X165743761Y-93955057D01*
X165743761Y-93955057D02*
X165696142Y-94050295D01*
X165696142Y-94050295D02*
X165648523Y-94240771D01*
X165648523Y-94240771D02*
X165648523Y-94478866D01*
X165648523Y-94478866D02*
X165696142Y-94669342D01*
X165696142Y-94669342D02*
X165743761Y-94764580D01*
X165743761Y-94764580D02*
X165791380Y-94812200D01*
X165791380Y-94812200D02*
X165886618Y-94859819D01*
X165886618Y-94859819D02*
X165981856Y-94859819D01*
X165981856Y-94859819D02*
X166077094Y-94812200D01*
X166077094Y-94812200D02*
X166124713Y-94764580D01*
X166124713Y-94764580D02*
X166172332Y-94669342D01*
X166172332Y-94669342D02*
X166219951Y-94478866D01*
X166219951Y-94478866D02*
X166219951Y-94240771D01*
X166219951Y-94240771D02*
X166172332Y-94050295D01*
X166172332Y-94050295D02*
X166124713Y-93955057D01*
X166124713Y-93955057D02*
X166077094Y-93907438D01*
X166077094Y-93907438D02*
X165981856Y-93859819D01*
X165029475Y-93859819D02*
X164934237Y-93859819D01*
X164934237Y-93859819D02*
X164838999Y-93907438D01*
X164838999Y-93907438D02*
X164791380Y-93955057D01*
X164791380Y-93955057D02*
X164743761Y-94050295D01*
X164743761Y-94050295D02*
X164696142Y-94240771D01*
X164696142Y-94240771D02*
X164696142Y-94478866D01*
X164696142Y-94478866D02*
X164743761Y-94669342D01*
X164743761Y-94669342D02*
X164791380Y-94764580D01*
X164791380Y-94764580D02*
X164838999Y-94812200D01*
X164838999Y-94812200D02*
X164934237Y-94859819D01*
X164934237Y-94859819D02*
X165029475Y-94859819D01*
X165029475Y-94859819D02*
X165124713Y-94812200D01*
X165124713Y-94812200D02*
X165172332Y-94764580D01*
X165172332Y-94764580D02*
X165219951Y-94669342D01*
X165219951Y-94669342D02*
X165267570Y-94478866D01*
X165267570Y-94478866D02*
X165267570Y-94240771D01*
X165267570Y-94240771D02*
X165219951Y-94050295D01*
X165219951Y-94050295D02*
X165172332Y-93955057D01*
X165172332Y-93955057D02*
X165124713Y-93907438D01*
X165124713Y-93907438D02*
X165029475Y-93859819D01*
X164124713Y-94288390D02*
X164219951Y-94240771D01*
X164219951Y-94240771D02*
X164267570Y-94193152D01*
X164267570Y-94193152D02*
X164315189Y-94097914D01*
X164315189Y-94097914D02*
X164315189Y-94050295D01*
X164315189Y-94050295D02*
X164267570Y-93955057D01*
X164267570Y-93955057D02*
X164219951Y-93907438D01*
X164219951Y-93907438D02*
X164124713Y-93859819D01*
X164124713Y-93859819D02*
X163934237Y-93859819D01*
X163934237Y-93859819D02*
X163838999Y-93907438D01*
X163838999Y-93907438D02*
X163791380Y-93955057D01*
X163791380Y-93955057D02*
X163743761Y-94050295D01*
X163743761Y-94050295D02*
X163743761Y-94097914D01*
X163743761Y-94097914D02*
X163791380Y-94193152D01*
X163791380Y-94193152D02*
X163838999Y-94240771D01*
X163838999Y-94240771D02*
X163934237Y-94288390D01*
X163934237Y-94288390D02*
X164124713Y-94288390D01*
X164124713Y-94288390D02*
X164219951Y-94336009D01*
X164219951Y-94336009D02*
X164267570Y-94383628D01*
X164267570Y-94383628D02*
X164315189Y-94478866D01*
X164315189Y-94478866D02*
X164315189Y-94669342D01*
X164315189Y-94669342D02*
X164267570Y-94764580D01*
X164267570Y-94764580D02*
X164219951Y-94812200D01*
X164219951Y-94812200D02*
X164124713Y-94859819D01*
X164124713Y-94859819D02*
X163934237Y-94859819D01*
X163934237Y-94859819D02*
X163838999Y-94812200D01*
X163838999Y-94812200D02*
X163791380Y-94764580D01*
X163791380Y-94764580D02*
X163743761Y-94669342D01*
X163743761Y-94669342D02*
X163743761Y-94478866D01*
X163743761Y-94478866D02*
X163791380Y-94383628D01*
X163791380Y-94383628D02*
X163838999Y-94336009D01*
X163838999Y-94336009D02*
X163934237Y-94288390D01*
X111718475Y-93193819D02*
X111147047Y-93193819D01*
X111432761Y-94193819D02*
X111432761Y-93193819D01*
X110813713Y-94193819D02*
X110813713Y-93193819D01*
X110813713Y-93193819D02*
X110432761Y-93193819D01*
X110432761Y-93193819D02*
X110337523Y-93241438D01*
X110337523Y-93241438D02*
X110289904Y-93289057D01*
X110289904Y-93289057D02*
X110242285Y-93384295D01*
X110242285Y-93384295D02*
X110242285Y-93527152D01*
X110242285Y-93527152D02*
X110289904Y-93622390D01*
X110289904Y-93622390D02*
X110337523Y-93670009D01*
X110337523Y-93670009D02*
X110432761Y-93717628D01*
X110432761Y-93717628D02*
X110813713Y-93717628D01*
X109289904Y-94193819D02*
X109861332Y-94193819D01*
X109575618Y-94193819D02*
X109575618Y-93193819D01*
X109575618Y-93193819D02*
X109670856Y-93336676D01*
X109670856Y-93336676D02*
X109766094Y-93431914D01*
X109766094Y-93431914D02*
X109861332Y-93479533D01*
X108670856Y-93193819D02*
X108575618Y-93193819D01*
X108575618Y-93193819D02*
X108480380Y-93241438D01*
X108480380Y-93241438D02*
X108432761Y-93289057D01*
X108432761Y-93289057D02*
X108385142Y-93384295D01*
X108385142Y-93384295D02*
X108337523Y-93574771D01*
X108337523Y-93574771D02*
X108337523Y-93812866D01*
X108337523Y-93812866D02*
X108385142Y-94003342D01*
X108385142Y-94003342D02*
X108432761Y-94098580D01*
X108432761Y-94098580D02*
X108480380Y-94146200D01*
X108480380Y-94146200D02*
X108575618Y-94193819D01*
X108575618Y-94193819D02*
X108670856Y-94193819D01*
X108670856Y-94193819D02*
X108766094Y-94146200D01*
X108766094Y-94146200D02*
X108813713Y-94098580D01*
X108813713Y-94098580D02*
X108861332Y-94003342D01*
X108861332Y-94003342D02*
X108908951Y-93812866D01*
X108908951Y-93812866D02*
X108908951Y-93574771D01*
X108908951Y-93574771D02*
X108861332Y-93384295D01*
X108861332Y-93384295D02*
X108813713Y-93289057D01*
X108813713Y-93289057D02*
X108766094Y-93241438D01*
X108766094Y-93241438D02*
X108670856Y-93193819D01*
X107718475Y-93193819D02*
X107623237Y-93193819D01*
X107623237Y-93193819D02*
X107527999Y-93241438D01*
X107527999Y-93241438D02*
X107480380Y-93289057D01*
X107480380Y-93289057D02*
X107432761Y-93384295D01*
X107432761Y-93384295D02*
X107385142Y-93574771D01*
X107385142Y-93574771D02*
X107385142Y-93812866D01*
X107385142Y-93812866D02*
X107432761Y-94003342D01*
X107432761Y-94003342D02*
X107480380Y-94098580D01*
X107480380Y-94098580D02*
X107527999Y-94146200D01*
X107527999Y-94146200D02*
X107623237Y-94193819D01*
X107623237Y-94193819D02*
X107718475Y-94193819D01*
X107718475Y-94193819D02*
X107813713Y-94146200D01*
X107813713Y-94146200D02*
X107861332Y-94098580D01*
X107861332Y-94098580D02*
X107908951Y-94003342D01*
X107908951Y-94003342D02*
X107956570Y-93812866D01*
X107956570Y-93812866D02*
X107956570Y-93574771D01*
X107956570Y-93574771D02*
X107908951Y-93384295D01*
X107908951Y-93384295D02*
X107861332Y-93289057D01*
X107861332Y-93289057D02*
X107813713Y-93241438D01*
X107813713Y-93241438D02*
X107718475Y-93193819D01*
X106527999Y-93527152D02*
X106527999Y-94193819D01*
X106766094Y-93146200D02*
X107004189Y-93860485D01*
X107004189Y-93860485D02*
X106385142Y-93860485D01*
D11*
%TO.C,R1061*%
X134053000Y-140017359D02*
X134053000Y-140324641D01*
X134813000Y-140017359D02*
X134813000Y-140324641D01*
%TO.C,D1004*%
X108811000Y-133711000D02*
X108811000Y-135671000D01*
X110011000Y-133711000D02*
X110011000Y-135671000D01*
X110011000Y-135671000D02*
X108811000Y-135671000D01*
%TO.C,C3002*%
X160791000Y-114838836D02*
X160791000Y-114623164D01*
X161511000Y-114838836D02*
X161511000Y-114623164D01*
%TO.C,R1019*%
X114181000Y-93027359D02*
X114181000Y-93334641D01*
X114941000Y-93027359D02*
X114941000Y-93334641D01*
%TO.C,C3015*%
X160491000Y-124833164D02*
X160491000Y-125048836D01*
X161211000Y-124833164D02*
X161211000Y-125048836D01*
%TO.C,R5005*%
X146671000Y-74639641D02*
X146671000Y-74332359D01*
X147431000Y-74639641D02*
X147431000Y-74332359D01*
%TO.C,R3013*%
X162211625Y-97114641D02*
X162211625Y-96807359D01*
X162971625Y-97114641D02*
X162971625Y-96807359D01*
%TO.C,C3012*%
X159833836Y-123111000D02*
X159618164Y-123111000D01*
X159833836Y-123831000D02*
X159618164Y-123831000D01*
%TO.C,C3099*%
X139416000Y-102961036D02*
X139416000Y-102745364D01*
X140136000Y-102961036D02*
X140136000Y-102745364D01*
%TO.C,C6005*%
X137078836Y-125836000D02*
X136863164Y-125836000D01*
X137078836Y-126556000D02*
X136863164Y-126556000D01*
%TO.C,VDDA_1V8*%
X160364000Y-126474000D02*
X160364000Y-127874000D01*
X160364000Y-127874000D02*
X161764000Y-127874000D01*
X161764000Y-126474000D02*
X160364000Y-126474000D01*
X161764000Y-127874000D02*
X161764000Y-126474000D01*
%TO.C,FB3003*%
X140521000Y-101019641D02*
X140521000Y-100712359D01*
X141281000Y-101019641D02*
X141281000Y-100712359D01*
D12*
%TO.C,J6003*%
X123305000Y-80795000D02*
X123305000Y-69175000D01*
X124305000Y-80795000D02*
X123305000Y-80795000D01*
X125305000Y-66545000D02*
X133645000Y-66545000D01*
X127705000Y-80795000D02*
X129905000Y-80795000D01*
D13*
X132225000Y-65375000D02*
X132225000Y-65375000D01*
X132225000Y-65475000D02*
X132225000Y-65475000D01*
D12*
X132305000Y-80795000D02*
X137305000Y-80795000D01*
X133645000Y-65555000D02*
X135305000Y-65555000D01*
X133645000Y-66545000D02*
X133645000Y-65555000D01*
X137305000Y-80795000D02*
X137305000Y-68175000D01*
D13*
X132225000Y-65375000D02*
G75*
G02*
X132225000Y-65475000I0J-50000D01*
G01*
X132225000Y-65475000D02*
G75*
G02*
X132225000Y-65375000I0J50000D01*
G01*
D11*
%TO.C,C5006*%
X157253164Y-74866000D02*
X157468836Y-74866000D01*
X157253164Y-75586000D02*
X157468836Y-75586000D01*
%TO.C,C3005*%
X156708836Y-117741000D02*
X156493164Y-117741000D01*
X156708836Y-118461000D02*
X156493164Y-118461000D01*
%TO.C,R5037*%
X142064641Y-78696000D02*
X141757359Y-78696000D01*
X142064641Y-79456000D02*
X141757359Y-79456000D01*
%TO.C,R1057*%
X132665000Y-140324641D02*
X132665000Y-140017359D01*
X133425000Y-140324641D02*
X133425000Y-140017359D01*
%TO.C,C5004*%
X157253164Y-77741000D02*
X157468836Y-77741000D01*
X157253164Y-78461000D02*
X157468836Y-78461000D01*
%TO.C,R3009*%
X113017359Y-104171000D02*
X113324641Y-104171000D01*
X113017359Y-104931000D02*
X113324641Y-104931000D01*
%TO.C,R5035*%
X148134000Y-74639641D02*
X148134000Y-74332359D01*
X148894000Y-74639641D02*
X148894000Y-74332359D01*
%TO.C,FB3006*%
X140521000Y-97074641D02*
X140521000Y-96767359D01*
X141281000Y-97074641D02*
X141281000Y-96767359D01*
%TO.C,C6012*%
X162480000Y-133995000D02*
X162480000Y-125930000D01*
X167000000Y-125930000D02*
X167000000Y-133995000D01*
X167000000Y-133995000D02*
X162480000Y-133995000D01*
%TO.C,C3014*%
X163216000Y-123673718D02*
X163216000Y-123889390D01*
X163936000Y-123673718D02*
X163936000Y-123889390D01*
%TO.C,R6016*%
X171904641Y-109111000D02*
X171597359Y-109111000D01*
X171904641Y-109871000D02*
X171597359Y-109871000D01*
%TO.C,C5005*%
X157253164Y-76141000D02*
X157468836Y-76141000D01*
X157253164Y-76861000D02*
X157468836Y-76861000D01*
%TO.C,R5036*%
X145208000Y-74639641D02*
X145208000Y-74332359D01*
X145968000Y-74639641D02*
X145968000Y-74332359D01*
%TO.C,C3013*%
X162941000Y-114833836D02*
X162941000Y-114618164D01*
X163661000Y-114833836D02*
X163661000Y-114618164D01*
%TO.C,R1053*%
X109241000Y-101047359D02*
X109241000Y-101354641D01*
X110001000Y-101047359D02*
X110001000Y-101354641D01*
%TO.C,C3082*%
X110021000Y-116608164D02*
X110021000Y-116823836D01*
X110741000Y-116608164D02*
X110741000Y-116823836D01*
%TO.C,FB3002*%
X140521000Y-106595759D02*
X140521000Y-106903041D01*
X141281000Y-106595759D02*
X141281000Y-106903041D01*
%TO.C,TP1003*%
X104610000Y-120121000D02*
X104610000Y-121521000D01*
X104610000Y-121521000D02*
X106010000Y-121521000D01*
X106010000Y-120121000D02*
X104610000Y-120121000D01*
X106010000Y-121521000D02*
X106010000Y-120121000D01*
%TO.C,C5009*%
X154588836Y-82351000D02*
X154373164Y-82351000D01*
X154588836Y-83071000D02*
X154373164Y-83071000D01*
%TO.C,VDD_2V5*%
X158020000Y-125675000D02*
X158020000Y-127075000D01*
X158020000Y-127075000D02*
X159420000Y-127075000D01*
X159420000Y-125675000D02*
X158020000Y-125675000D01*
X159420000Y-127075000D02*
X159420000Y-125675000D01*
%TO.C,X1002*%
X106541000Y-103811000D02*
X108841000Y-103811000D01*
X108841000Y-103811000D02*
X108841000Y-106511000D01*
%TO.C,R1059*%
X109031000Y-136727359D02*
X109031000Y-137034641D01*
X109791000Y-136727359D02*
X109791000Y-137034641D01*
%TO.C,C3033*%
X134013164Y-104901000D02*
X134228836Y-104901000D01*
X134013164Y-105621000D02*
X134228836Y-105621000D01*
%TO.C,C6003*%
X139203164Y-125826000D02*
X139418836Y-125826000D01*
X139203164Y-126546000D02*
X139418836Y-126546000D01*
%TO.C,R3014*%
X164345266Y-98281000D02*
X164037984Y-98281000D01*
X164345266Y-99041000D02*
X164037984Y-99041000D01*
%TO.C,C5008*%
X148933164Y-80001000D02*
X149148836Y-80001000D01*
X148933164Y-80721000D02*
X149148836Y-80721000D01*
D14*
%TO.C,U3001*%
X158726000Y-116251000D02*
G75*
G02*
X158476000Y-116251000I-125000J0D01*
G01*
X158476000Y-116251000D02*
G75*
G02*
X158726000Y-116251000I125000J0D01*
G01*
D11*
%TO.C,C3096*%
X139416000Y-100723164D02*
X139416000Y-100938836D01*
X140136000Y-100723164D02*
X140136000Y-100938836D01*
%TO.C,FB3009*%
X108237359Y-88451000D02*
X108544641Y-88451000D01*
X108237359Y-89211000D02*
X108544641Y-89211000D01*
%TO.C,R6030*%
X124621000Y-85289641D02*
X124621000Y-84982359D01*
X125381000Y-85289641D02*
X125381000Y-84982359D01*
%TO.C,FB5001*%
X155396000Y-77439641D02*
X155396000Y-77132359D01*
X156156000Y-77439641D02*
X156156000Y-77132359D01*
%TO.C,C3114*%
X108498836Y-89541000D02*
X108283164Y-89541000D01*
X108498836Y-90261000D02*
X108283164Y-90261000D01*
%TO.C,D6003*%
X133251000Y-124226000D02*
X133251000Y-123026000D01*
X135211000Y-123026000D02*
X133251000Y-123026000D01*
X135211000Y-124226000D02*
X133251000Y-124226000D01*
%TO.C,FB3004*%
X140521000Y-102681559D02*
X140521000Y-102988841D01*
X141281000Y-102681559D02*
X141281000Y-102988841D01*
%TO.C,C3083*%
X108731000Y-116618164D02*
X108731000Y-116833836D01*
X109451000Y-116618164D02*
X109451000Y-116833836D01*
%TO.C,C5014*%
X152721000Y-86843164D02*
X152721000Y-87058836D01*
X153441000Y-86843164D02*
X153441000Y-87058836D01*
%TO.C,D5003*%
X148401000Y-70501000D02*
X148401000Y-72461000D01*
X149601000Y-70501000D02*
X149601000Y-72461000D01*
X149601000Y-72461000D02*
X148401000Y-72461000D01*
%TO.C,R6015*%
X129744641Y-103186000D02*
X129437359Y-103186000D01*
X129744641Y-103946000D02*
X129437359Y-103946000D01*
%TO.C,C5015*%
X148950164Y-82353000D02*
X149165836Y-82353000D01*
X148950164Y-83073000D02*
X149165836Y-83073000D01*
%TO.C,R6012*%
X140691000Y-126809641D02*
X140691000Y-126502359D01*
X141451000Y-126809641D02*
X141451000Y-126502359D01*
%TO.C,C6006*%
X170891000Y-112385420D02*
X170891000Y-112666580D01*
X171911000Y-112385420D02*
X171911000Y-112666580D01*
%TO.C,C6008*%
X135971000Y-119783836D02*
X135971000Y-119568164D01*
X136691000Y-119783836D02*
X136691000Y-119568164D01*
%TO.C,R5007*%
X142064641Y-80159000D02*
X141757359Y-80159000D01*
X142064641Y-80919000D02*
X141757359Y-80919000D01*
%TO.C,C3017*%
X165548164Y-119041000D02*
X165763836Y-119041000D01*
X165548164Y-119761000D02*
X165763836Y-119761000D01*
%TO.C,FB3001*%
X140521000Y-98727359D02*
X140521000Y-99034641D01*
X141281000Y-98727359D02*
X141281000Y-99034641D01*
%TO.C,C3003*%
X157812252Y-109266000D02*
X157289748Y-109266000D01*
X157812252Y-110736000D02*
X157289748Y-110736000D01*
%TO.C,C6007*%
X169591000Y-112293164D02*
X169591000Y-112508836D01*
X170311000Y-112293164D02*
X170311000Y-112508836D01*
%TO.C,Q5002*%
X154621000Y-69801000D02*
X155921000Y-69801000D01*
X154621000Y-71601000D02*
X155921000Y-71601000D01*
D10*
X156596000Y-70191000D02*
G75*
G02*
X156446000Y-70191000I-75000J0D01*
G01*
X156446000Y-70191000D02*
G75*
G02*
X156596000Y-70191000I75000J0D01*
G01*
D11*
%TO.C,C5013*%
X151621000Y-86843164D02*
X151621000Y-87058836D01*
X152341000Y-86843164D02*
X152341000Y-87058836D01*
%TO.C,C5017*%
X149153164Y-83631000D02*
X149368836Y-83631000D01*
X149153164Y-84351000D02*
X149368836Y-84351000D01*
%TO.C,C5016*%
X147701000Y-85393164D02*
X147701000Y-85608836D01*
X148421000Y-85393164D02*
X148421000Y-85608836D01*
%TO.C,C3061*%
X140541000Y-92118836D02*
X140541000Y-91903164D01*
X141261000Y-92118836D02*
X141261000Y-91903164D01*
%TO.C,C1009*%
X136334836Y-133941000D02*
X136119164Y-133941000D01*
X136334836Y-134661000D02*
X136119164Y-134661000D01*
%TO.C,C3105*%
X139416000Y-96793164D02*
X139416000Y-97008836D01*
X140136000Y-96793164D02*
X140136000Y-97008836D01*
%TO.C,C3011*%
X161898164Y-123111000D02*
X162113836Y-123111000D01*
X161898164Y-123831000D02*
X162113836Y-123831000D01*
%TO.C,C5003*%
X157243164Y-79041000D02*
X157458836Y-79041000D01*
X157243164Y-79761000D02*
X157458836Y-79761000D01*
%TO.C,C3018*%
X164876000Y-120943164D02*
X164876000Y-121158836D01*
X165596000Y-120943164D02*
X165596000Y-121158836D01*
%TO.C,R1056*%
X136829000Y-140324641D02*
X136829000Y-140017359D01*
X137589000Y-140324641D02*
X137589000Y-140017359D01*
%TO.C,R6018*%
X125084641Y-104806000D02*
X124777359Y-104806000D01*
X125084641Y-105566000D02*
X124777359Y-105566000D01*
%TO.C,R3008*%
X113324641Y-103201000D02*
X113017359Y-103201000D01*
X113324641Y-103961000D02*
X113017359Y-103961000D01*
%TO.C,R3007*%
X156521000Y-125374641D02*
X156521000Y-125067359D01*
X157281000Y-125374641D02*
X157281000Y-125067359D01*
%TO.C,R1052*%
X110521000Y-103437359D02*
X110521000Y-103744641D01*
X111281000Y-103437359D02*
X111281000Y-103744641D01*
D13*
%TO.C,D6012*%
X124601000Y-83797500D02*
X124601000Y-82737500D01*
X125401000Y-82737500D02*
X125401000Y-83797500D01*
X125401000Y-83797500D02*
X124601000Y-83797500D01*
D11*
%TO.C,C6002*%
X141461000Y-122813836D02*
X141461000Y-122598164D01*
X142181000Y-122813836D02*
X142181000Y-122598164D01*
%TO.C,R5027*%
X177491000Y-92173936D02*
X177491000Y-93628064D01*
X179311000Y-92173936D02*
X179311000Y-93628064D01*
%TO.C,VDD_CORE*%
X161088500Y-109701000D02*
X161088500Y-111101000D01*
X161088500Y-111101000D02*
X162488500Y-111101000D01*
X162488500Y-109701000D02*
X161088500Y-109701000D01*
X162488500Y-111101000D02*
X162488500Y-109701000D01*
%TO.C,C5021*%
X174666000Y-92189748D02*
X174666000Y-93612252D01*
X176486000Y-92189748D02*
X176486000Y-93612252D01*
%TO.C,R3012*%
X164345266Y-97146000D02*
X164037984Y-97146000D01*
X164345266Y-97906000D02*
X164037984Y-97906000D01*
%TO.C,R1055*%
X138217000Y-140324641D02*
X138217000Y-140017359D01*
X138977000Y-140324641D02*
X138977000Y-140017359D01*
%TO.C,C3108*%
X106518836Y-89541000D02*
X106303164Y-89541000D01*
X106518836Y-90261000D02*
X106303164Y-90261000D01*
%TO.C,R6017*%
X171904641Y-106691000D02*
X171597359Y-106691000D01*
X171904641Y-107451000D02*
X171597359Y-107451000D01*
%TO.C,L3002*%
X153462252Y-116385446D02*
X152939748Y-116385446D01*
X153462252Y-118605446D02*
X152939748Y-118605446D01*
%TO.C,C6009*%
X134901000Y-119783836D02*
X134901000Y-119568164D01*
X135621000Y-119783836D02*
X135621000Y-119568164D01*
%TO.C,C4001*%
X126104492Y-131548820D02*
X126104492Y-131333148D01*
X126824492Y-131548820D02*
X126824492Y-131333148D01*
%TO.C,R5031*%
X153046000Y-70804641D02*
X153046000Y-70497359D01*
X153806000Y-70804641D02*
X153806000Y-70497359D01*
%TO.C,C3111*%
X110478836Y-89541000D02*
X110263164Y-89541000D01*
X110478836Y-90261000D02*
X110263164Y-90261000D01*
%TO.C,Q5001*%
X154621000Y-72141000D02*
X155921000Y-72141000D01*
X154621000Y-73941000D02*
X155921000Y-73941000D01*
D10*
X156596000Y-72531000D02*
G75*
G02*
X156446000Y-72531000I-75000J0D01*
G01*
X156446000Y-72531000D02*
G75*
G02*
X156596000Y-72531000I75000J0D01*
G01*
D11*
%TO.C,C3009*%
X151491000Y-124339748D02*
X151491000Y-124862252D01*
X152961000Y-124339748D02*
X152961000Y-124862252D01*
%TO.C,VDD_1V2*%
X148926000Y-122926000D02*
X148926000Y-124326000D01*
X148926000Y-124326000D02*
X150326000Y-124326000D01*
X150326000Y-122926000D02*
X148926000Y-122926000D01*
X150326000Y-124326000D02*
X150326000Y-122926000D01*
%TO.C,U3002*%
D15*
X165567625Y-98703000D02*
X167067625Y-98703000D01*
X167067625Y-100803000D01*
X165567625Y-100803000D01*
X165567625Y-98703000D01*
D13*
X165867625Y-98403000D02*
G75*
G02*
X165767625Y-98403000I-50000J0D01*
G01*
X165767625Y-98403000D02*
G75*
G02*
X165867625Y-98403000I50000J0D01*
G01*
D11*
%TO.C,R1054*%
X135441000Y-140324641D02*
X135441000Y-140017359D01*
X136201000Y-140324641D02*
X136201000Y-140017359D01*
%TO.C,R5028*%
X156746000Y-72882359D02*
X156746000Y-73189641D01*
X157506000Y-72882359D02*
X157506000Y-73189641D01*
%TO.C,C3051*%
X134343164Y-100771000D02*
X134558836Y-100771000D01*
X134343164Y-101491000D02*
X134558836Y-101491000D01*
%TO.C,C4005*%
X114100492Y-131446564D02*
X114100492Y-131165404D01*
X115120492Y-131446564D02*
X115120492Y-131165404D01*
%TO.C,FB4001*%
X128368133Y-131550984D02*
X128060851Y-131550984D01*
X128368133Y-132310984D02*
X128060851Y-132310984D01*
%TO.C,FB5002*%
X151027359Y-84971000D02*
X151334641Y-84971000D01*
X151027359Y-85731000D02*
X151334641Y-85731000D01*
%TO.C,C3010*%
X161841000Y-114828836D02*
X161841000Y-114613164D01*
X162561000Y-114828836D02*
X162561000Y-114613164D01*
%TO.C,R3011*%
X169014641Y-97141000D02*
X168707359Y-97141000D01*
X169014641Y-97901000D02*
X168707359Y-97901000D01*
%TO.C,D5002*%
X146801000Y-70501000D02*
X146801000Y-72461000D01*
X148001000Y-70501000D02*
X148001000Y-72461000D01*
X148001000Y-72461000D02*
X146801000Y-72461000D01*
%TO.C,R1018*%
X105071000Y-117394641D02*
X105071000Y-117087359D01*
X105831000Y-117394641D02*
X105831000Y-117087359D01*
%TO.C,C5012*%
X150021000Y-86843164D02*
X150021000Y-87058836D01*
X150741000Y-86843164D02*
X150741000Y-87058836D01*
%TO.C,R5006*%
X142064641Y-81622000D02*
X141757359Y-81622000D01*
X142064641Y-82382000D02*
X141757359Y-82382000D01*
%TO.C,L3001*%
X157991000Y-113587252D02*
X157991000Y-113064748D01*
X160211000Y-113587252D02*
X160211000Y-113064748D01*
%TO.C,R3010*%
X166994641Y-97146000D02*
X166687359Y-97146000D01*
X166994641Y-97906000D02*
X166687359Y-97906000D01*
%TO.C,VDDR_CORE*%
X165667000Y-123384000D02*
X165667000Y-124784000D01*
X165667000Y-124784000D02*
X167067000Y-124784000D01*
X167067000Y-123384000D02*
X165667000Y-123384000D01*
X167067000Y-124784000D02*
X167067000Y-123384000D01*
%TO.C,VDD_1V8*%
X148951000Y-114476000D02*
X148951000Y-115876000D01*
X148951000Y-115876000D02*
X150351000Y-115876000D01*
X150351000Y-114476000D02*
X148951000Y-114476000D01*
X150351000Y-115876000D02*
X150351000Y-114476000D01*
%TO.C,R6019*%
X141921000Y-126804641D02*
X141921000Y-126497359D01*
X142681000Y-126804641D02*
X142681000Y-126497359D01*
%TO.C,FB3007*%
X106257359Y-88451000D02*
X106564641Y-88451000D01*
X106257359Y-89211000D02*
X106564641Y-89211000D01*
%TO.C,C6004*%
X139328836Y-120286000D02*
X139113164Y-120286000D01*
X139328836Y-121006000D02*
X139113164Y-121006000D01*
%TO.C,R6020*%
X140004641Y-122716000D02*
X139697359Y-122716000D01*
X140004641Y-123476000D02*
X139697359Y-123476000D01*
%TO.C,D6005*%
X133251000Y-127666000D02*
X133251000Y-126466000D01*
X135211000Y-126466000D02*
X133251000Y-126466000D01*
X135211000Y-127666000D02*
X133251000Y-127666000D01*
%TO.C,C5010*%
X154588836Y-80361000D02*
X154373164Y-80361000D01*
X154588836Y-81081000D02*
X154373164Y-81081000D01*
%TO.C,C3073*%
X119371000Y-85378836D02*
X119371000Y-85163164D01*
X120091000Y-85378836D02*
X120091000Y-85163164D01*
%TO.C,L3003*%
X153462252Y-120185446D02*
X152939748Y-120185446D01*
X153462252Y-122405446D02*
X152939748Y-122405446D01*
%TO.C,C3020*%
X164299461Y-96041000D02*
X164083789Y-96041000D01*
X164299461Y-96761000D02*
X164083789Y-96761000D01*
%TO.C,C3006*%
X151491000Y-114481698D02*
X151491000Y-113959194D01*
X152961000Y-114481698D02*
X152961000Y-113959194D01*
%TO.C,D6004*%
X133251000Y-125946000D02*
X133251000Y-124746000D01*
X135211000Y-124746000D02*
X133251000Y-124746000D01*
X135211000Y-125946000D02*
X133251000Y-125946000D01*
%TO.C,R1058*%
X131277000Y-140324641D02*
X131277000Y-140017359D01*
X132037000Y-140324641D02*
X132037000Y-140017359D01*
%TO.C,C3090*%
X139416000Y-99013836D02*
X139416000Y-98798164D01*
X140136000Y-99013836D02*
X140136000Y-98798164D01*
%TO.C,R5030*%
X156746000Y-70547359D02*
X156746000Y-70854641D01*
X157506000Y-70547359D02*
X157506000Y-70854641D01*
%TO.C,C3052*%
X134353164Y-99721000D02*
X134568836Y-99721000D01*
X134353164Y-100441000D02*
X134568836Y-100441000D01*
%TO.C,C1005*%
X109261000Y-105533164D02*
X109261000Y-105748836D01*
X109981000Y-105533164D02*
X109981000Y-105748836D01*
%TO.C,VDD_SD*%
X164331000Y-112883000D02*
X164331000Y-114283000D01*
X164331000Y-114283000D02*
X165731000Y-114283000D01*
X165731000Y-112883000D02*
X164331000Y-112883000D01*
X165731000Y-114283000D02*
X165731000Y-112883000D01*
%TO.C,C1006*%
X109261000Y-103698836D02*
X109261000Y-103483164D01*
X109981000Y-103698836D02*
X109981000Y-103483164D01*
%TO.C,L3004*%
X165427877Y-103251000D02*
X164905373Y-103251000D01*
X165427877Y-105471000D02*
X164905373Y-105471000D01*
%TO.C,C3022*%
X160580625Y-101312252D02*
X160580625Y-100789748D01*
X162050625Y-101312252D02*
X162050625Y-100789748D01*
%TO.C,C3021*%
X162896625Y-101312252D02*
X162896625Y-100789748D01*
X164366625Y-101312252D02*
X164366625Y-100789748D01*
%TO.C,C3032*%
X134013164Y-103901000D02*
X134228836Y-103901000D01*
X134013164Y-104621000D02*
X134228836Y-104621000D01*
%TO.C,D5001*%
X150001000Y-70501000D02*
X150001000Y-72461000D01*
X151201000Y-70501000D02*
X151201000Y-72461000D01*
X151201000Y-72461000D02*
X150001000Y-72461000D01*
%TO.C,C3016*%
X158768164Y-124181000D02*
X158983836Y-124181000D01*
X158768164Y-124901000D02*
X158983836Y-124901000D01*
%TO.C,FB3005*%
X140521000Y-95114641D02*
X140521000Y-94807359D01*
X141281000Y-95114641D02*
X141281000Y-94807359D01*
%TO.C,TP3008*%
X165639000Y-95153000D02*
X165639000Y-96553000D01*
X165639000Y-96553000D02*
X167039000Y-96553000D01*
X167039000Y-95153000D02*
X165639000Y-95153000D01*
X167039000Y-96553000D02*
X167039000Y-95153000D01*
%TO.C,R6013*%
X134547359Y-121846000D02*
X134854641Y-121846000D01*
X134547359Y-122606000D02*
X134854641Y-122606000D01*
%TO.C,TP1004*%
X112178000Y-92993000D02*
X112178000Y-94393000D01*
X112178000Y-94393000D02*
X113578000Y-94393000D01*
X113578000Y-92993000D02*
X112178000Y-92993000D01*
X113578000Y-94393000D02*
X113578000Y-92993000D01*
%TO.C,C5011*%
X148921000Y-86843164D02*
X148921000Y-87058836D01*
X149641000Y-86843164D02*
X149641000Y-87058836D01*
%TO.C,R1047*%
X110521000Y-105814641D02*
X110521000Y-105507359D01*
X111281000Y-105814641D02*
X111281000Y-105507359D01*
%TO.C,C5007*%
X152761000Y-84488836D02*
X152761000Y-84273164D01*
X153481000Y-84488836D02*
X153481000Y-84273164D01*
%TO.C,C3008*%
X156703836Y-120541000D02*
X156488164Y-120541000D01*
X156703836Y-121261000D02*
X156488164Y-121261000D01*
%TO.C,R1045*%
X110551000Y-101354641D02*
X110551000Y-101047359D01*
X111311000Y-101354641D02*
X111311000Y-101047359D01*
%TO.C,FB3010*%
X140521000Y-104637359D02*
X140521000Y-104944641D01*
X141281000Y-104637359D02*
X141281000Y-104944641D01*
%TO.C,FB3008*%
X110217359Y-88451000D02*
X110524641Y-88451000D01*
X110217359Y-89211000D02*
X110524641Y-89211000D01*
%TO.C,R5029*%
X153046000Y-72937359D02*
X153046000Y-73244641D01*
X153806000Y-72937359D02*
X153806000Y-73244641D01*
%TO.C,C6001*%
X139683164Y-121306000D02*
X139898836Y-121306000D01*
X139683164Y-122026000D02*
X139898836Y-122026000D01*
%TD*%
M02*
