M48
; DRILL file {KiCad 9.0.1} date 2026-05-05T13:28:42-0400
; FORMAT={-:-/ absolute / metric / decimal}
; #@! TF.CreationDate,2026-05-05T13:28:42-04:00
; #@! TF.GenerationSoftware,Kicad,Pcbnew,9.0.1
; #@! TF.FileFunction,MixedPlating,1,8
FMAT,2
METRIC
; #@! TA.AperFunction,Plated,PTH,ViaDrill
T1C0.200
; #@! TA.AperFunction,Plated,PTH,ViaDrill
T2C0.203
; #@! TA.AperFunction,Plated,PTH,ViaDrill
T3C0.300
; #@! TA.AperFunction,Plated,PTH,ComponentDrill
T4C0.600
; #@! TA.AperFunction,Plated,PTH,ComponentDrill
T5C0.900
; #@! TA.AperFunction,Plated,PTH,ComponentDrill
T6C0.990
; #@! TA.AperFunction,Plated,PTH,ComponentDrill
T7C1.000
; #@! TA.AperFunction,Plated,PTH,ComponentDrill
T8C1.020
; #@! TA.AperFunction,Plated,PTH,ComponentDrill
T9C1.630
; #@! TA.AperFunction,Plated,PTH,ComponentDrill
T10C2.100
; #@! TA.AperFunction,NonPlated,NPTH,ComponentDrill
T11C0.650
; #@! TA.AperFunction,NonPlated,NPTH,ComponentDrill
T12C0.991
; #@! TA.AperFunction,NonPlated,NPTH,ComponentDrill
T13C2.375
; #@! TA.AperFunction,NonPlated,NPTH,ComponentDrill
T14C3.250
%
G90
G05
T1
X99.901Y-69.451
X99.901Y-83.951
X100.901Y-69.451
X100.901Y-83.951
X101.421Y-119.291
X101.501Y-94.101
X101.501Y-96.701
X101.679Y-138.238
X101.901Y-69.451
X102.201Y-119.301
X102.43Y-83.96
X102.89Y-69.45
X103.4Y-83.96
X103.901Y-69.451
X103.904Y-84.6
X103.92Y-92.14
X104.41Y-83.96
X104.481Y-91.601
X104.52Y-102.36
X104.638Y-120.339
X104.651Y-134.611
X104.652Y-119.58
X104.707Y-115.808
X104.72Y-116.523
X104.72Y-117.213
X104.76Y-86.651
X104.901Y-72.951
X104.901Y-74.201
X104.901Y-75.451
X104.901Y-76.701
X104.901Y-77.951
X104.901Y-79.201
X104.901Y-80.451
X105.061Y-133.891
X105.151Y-102.211
X105.401Y-65.201
X105.401Y-139.901
X105.401Y-143.471
X105.409Y-86.644
X105.413Y-112.517
X105.48Y-99.98
X105.541Y-122.201
X105.541Y-125.201
X105.541Y-127.31
X105.601Y-133.891
X105.611Y-134.611
X105.641Y-115.821
X105.7Y-102.4
X105.858Y-90.499
X105.901Y-88.831
X106.001Y-85.361
X106.021Y-87.161
X106.021Y-88.041
X106.024Y-86.304
X106.323Y-102.483
X106.391Y-134.801
X106.401Y-80.951
X106.401Y-83.951
X106.451Y-109.301
X106.451Y-110.401
X106.471Y-91.391
X106.701Y-104.861
X106.721Y-92.051
X106.82Y-108.21
X106.894Y-80.378
X106.901Y-107.001
X106.941Y-134.801
X106.981Y-91.391
X107.06Y-100.04
X107.401Y-72.451
X107.401Y-80.951
X107.401Y-139.001
X107.43Y-104.004
X107.571Y-80.378
X107.664Y-90.685
X107.701Y-107.001
X107.781Y-97.395
X107.861Y-134.631
X107.881Y-88.831
X107.901Y-67.951
X107.902Y-72.836
X107.99Y-129.41
X108.151Y-105.781
X108.201Y-136.901
X108.241Y-103.031
X108.301Y-141.101
X108.401Y-72.451
X108.451Y-91.401
X108.501Y-107.001
X108.511Y-106.161
X108.541Y-115.456
X108.541Y-118.176
X108.571Y-114.821
X108.691Y-92.041
X108.911Y-72.836
X108.911Y-103.031
X108.961Y-91.391
X109.151Y-67.951
X109.301Y-107.001
X109.327Y-80.321
X109.401Y-72.451
X109.401Y-80.951
X109.401Y-83.951
X109.411Y-138.091
X109.472Y-128.559
X109.626Y-100.001
X109.652Y-90.623
X109.861Y-88.831
X110.15Y-137.5
X110.2Y-138.45
X110.28Y-86.53
X110.341Y-92.001
X110.371Y-126.001
X110.401Y-65.201
X110.401Y-72.451
X110.401Y-80.951
X110.401Y-115.396
X110.401Y-143.471
X110.411Y-91.421
X110.431Y-118.081
X110.45Y-131.6
X110.9Y-85.9
X110.925Y-78.264
X110.931Y-91.421
X111.051Y-79.551
X111.051Y-80.201
X111.185Y-99.68
X111.189Y-107.432
X111.371Y-115.586
X111.371Y-116.246
X111.371Y-125.301
X111.401Y-72.451
X111.401Y-117.451
X111.451Y-111.401
X111.458Y-77.797
X111.458Y-78.74
X111.701Y-79.551
X111.701Y-80.201
X111.825Y-97.546
X111.881Y-107.591
X111.9Y-85.9
X112.1Y-131.59
X112.271Y-125.311
X112.281Y-107.171
X112.51Y-86.51
X112.516Y-102.534
X112.661Y-104.551
X112.661Y-106.691
X112.761Y-96.681
X113.161Y-125.301
X113.401Y-95.066
X113.541Y-71.051
X113.541Y-88.501
X113.561Y-82.351
X113.75Y-131.58
X114.077Y-95.057
X114.318Y-103.499
X114.318Y-102.333
X114.339Y-104.921
X114.341Y-99.281
X114.348Y-101.363
X114.351Y-100.431
X114.501Y-133.501
X114.511Y-110.131
X114.761Y-111.156
X114.826Y-101.899
X114.852Y-100.965
X114.861Y-87.081
X114.888Y-104.947
X114.891Y-104.386
X114.894Y-97.916
X114.904Y-102.88
X114.92Y-83.12
X115.116Y-110.193
X115.221Y-110.746
X115.342Y-99.857
X115.397Y-97.414
X115.401Y-65.201
X115.401Y-106.411
X115.401Y-143.471
X115.416Y-101.902
X115.483Y-82.347
X115.601Y-91.801
X115.611Y-93.781
X115.84Y-98.034
X115.841Y-103.346
X115.852Y-102.476
X115.861Y-104.921
X115.861Y-100.464
X115.892Y-98.876
X115.899Y-103.923
X115.899Y-101.415
X115.911Y-105.911
X115.95Y-99.867
X115.976Y-111.736
X116.001Y-126.501
X116.071Y-93.311
X116.13Y-81.68
X116.131Y-111.106
X116.14Y-83.12
X116.181Y-91.291
X116.221Y-85.651
X116.342Y-105.475
X116.378Y-99.429
X116.391Y-96.911
X116.391Y-106.381
X116.401Y-106.951
X116.411Y-102.911
X116.441Y-98.491
X116.515Y-100.851
X116.526Y-104.484
X116.581Y-111.456
X116.604Y-119.69
X116.771Y-133.781
X116.789Y-82.398
X116.848Y-104.958
X116.886Y-101.501
X116.931Y-102.376
X116.946Y-98.867
X116.95Y-113.156
X116.951Y-106.376
X116.969Y-97.291
X117.001Y-110.346
X117.001Y-113.776
X117.031Y-109.766
X117.076Y-96.803
X117.288Y-111.093
X117.3Y-72.185
X117.306Y-103.391
X117.311Y-127.946
X117.323Y-99.838
X117.331Y-131.866
X117.348Y-100.969
X117.363Y-132.648
X117.371Y-130.286
X117.381Y-112.216
X117.381Y-127.066
X117.396Y-120.537
X117.401Y-98.436
X117.415Y-119.691
X117.417Y-123.67
X117.433Y-121.381
X117.434Y-122.976
X117.434Y-129.376
X117.434Y-130.976
X117.444Y-105.208
X117.461Y-103.96
X117.493Y-97.869
X117.521Y-100.376
X117.537Y-109.067
X117.588Y-82.391
X117.658Y-101.533
X117.664Y-104.439
X117.851Y-86.261
X117.901Y-135.001
X117.94Y-83.1
X117.945Y-102.925
X117.95Y-105.965
X117.951Y-102.362
X117.961Y-98.451
X118.053Y-84.57
X118.22Y-124.507
X118.221Y-129.411
X118.223Y-130.277
X118.228Y-127.059
X118.231Y-128.601
X118.234Y-123.69
X118.234Y-119.776
X118.234Y-121.376
X118.234Y-127.776
X118.234Y-131.776
X118.234Y-132.576
X118.234Y-131.062
X118.242Y-122.247
X118.261Y-110.256
X118.355Y-103.416
X118.361Y-100.433
X118.362Y-106.953
X118.372Y-101.916
X118.39Y-104.165
X118.391Y-86.281
X118.391Y-111.356
X118.401Y-94.401
X118.41Y-97.414
X118.441Y-99.876
X118.441Y-104.876
X118.45Y-106.371
X118.453Y-109.72
X118.481Y-98.874
X118.551Y-95.401
X118.771Y-88.751
X118.811Y-110.171
X118.851Y-93.701
X118.854Y-112.609
X118.881Y-100.871
X118.891Y-105.411
X118.901Y-98.376
X118.901Y-102.87
X118.912Y-96.912
X118.917Y-101.447
X118.924Y-121.362
X118.932Y-106.979
X118.961Y-86.281
X118.98Y-114.911
X118.995Y-120.54
X119.031Y-94.228
X119.031Y-109.026
X119.034Y-126.976
X119.034Y-129.376
X119.034Y-130.176
X119.034Y-130.976
X119.034Y-124.49
X119.034Y-128.662
X119.046Y-127.848
X119.047Y-123.047
X119.092Y-122.2
X119.276Y-112.061
X119.341Y-83.881
X119.352Y-98.867
X119.361Y-97.376
X119.367Y-106.391
X119.401Y-104.1
X119.411Y-97.956
X119.416Y-104.966
X119.433Y-100.465
X119.436Y-103.415
X119.441Y-99.869
X119.467Y-105.859
X119.541Y-86.291
X119.558Y-92.486
X119.82Y-80.72
X119.82Y-81.3
X119.82Y-81.89
X119.834Y-121.376
X119.834Y-123.776
X119.834Y-131.776
X119.834Y-132.576
X119.835Y-120.55
X119.852Y-96.867
X119.881Y-124.496
X119.884Y-123.025
X119.891Y-106.911
X119.901Y-102.906
X119.91Y-102.341
X119.941Y-104.376
X119.95Y-101.454
X119.951Y-105.472
X119.951Y-92.101
X119.954Y-100.853
X119.96Y-69.54
X119.96Y-71.02
X119.98Y-68.16
X119.98Y-72.46
X120.012Y-113.337
X120.031Y-85.751
X120.101Y-93.447
X120.201Y-112.336
X120.254Y-113.931
X120.26Y-130.07
X120.28Y-94.734
X120.344Y-104.877
X120.35Y-103.387
X120.39Y-80.72
X120.39Y-81.3
X120.39Y-81.89
X120.394Y-98.869
X120.401Y-65.201
X120.401Y-106.411
X120.401Y-143.471
X120.402Y-125.929
X120.421Y-111.666
X120.441Y-97.376
X120.441Y-99.851
X120.441Y-100.431
X120.461Y-103.964
X120.543Y-142.065
X120.551Y-110.936
X120.566Y-114.816
X120.566Y-115.596
X120.606Y-110.156
X120.615Y-140.999
X120.737Y-130.764
X120.751Y-126.926
X120.854Y-105.368
X120.861Y-105.964
X120.891Y-98.326
X120.901Y-106.921
X120.901Y-131.571
X120.905Y-96.912
X120.906Y-100.916
X120.945Y-102.965
X120.951Y-93.501
X120.954Y-125.041
X120.956Y-102.329
X120.96Y-80.72
X120.96Y-81.3
X120.96Y-81.89
X121.131Y-130.073
X121.261Y-89.601
X121.271Y-90.416
X121.277Y-132.093
X121.311Y-135.991
X121.351Y-94.201
X121.376Y-126.526
X121.383Y-99.869
X121.418Y-100.367
X121.436Y-103.991
X121.437Y-105.964
X121.447Y-103.377
X121.448Y-105.407
X121.449Y-101.957
X121.45Y-98.46
X121.614Y-127.636
X121.624Y-128.436
X121.852Y-102.481
X121.861Y-93.811
X121.861Y-96.896
X121.866Y-106.964
X121.868Y-94.408
X121.87Y-86.25
X121.881Y-106.396
X121.947Y-98.942
X121.949Y-101.451
X122.001Y-92.201
X122.051Y-95.001
X122.061Y-97.456
X122.211Y-111.636
X122.221Y-110.146
X122.221Y-110.782
X122.234Y-119.776
X122.234Y-120.576
X122.234Y-121.376
X122.234Y-122.176
X122.234Y-122.976
X122.234Y-123.776
X122.234Y-126.976
X122.387Y-104.491
X122.391Y-98.406
X122.401Y-100.911
X122.411Y-102.866
X122.429Y-106.961
X122.448Y-106.404
X122.5Y-77.86
X122.52Y-78.94
X122.601Y-92.151
X122.68Y-81.44
X122.68Y-82.1
X122.68Y-82.74
X122.726Y-105.001
X122.846Y-93.165
X122.846Y-99.866
X122.851Y-100.465
X122.871Y-103.401
X122.897Y-98.921
X122.95Y-102.465
X122.954Y-101.469
X122.971Y-131.766
X122.979Y-105.866
X122.991Y-130.956
X123.001Y-132.556
X123.034Y-124.576
X123.034Y-125.376
X123.034Y-127.776
X123.034Y-130.176
X123.051Y-110.146
X123.051Y-111.596
X123.051Y-110.836
X123.054Y-121.381
X123.092Y-122.978
X123.145Y-126.958
X123.201Y-92.161
X123.281Y-85.791
X123.371Y-135.981
X123.381Y-106.406
X123.399Y-98.435
X123.417Y-109.146
X123.428Y-103.379
X123.45Y-99.867
X123.454Y-100.368
X123.811Y-110.826
X123.811Y-111.536
X123.813Y-128.56
X123.834Y-130.262
X123.834Y-120.576
X123.834Y-122.176
X123.834Y-123.776
X123.834Y-124.576
X123.834Y-125.376
X123.834Y-129.376
X123.834Y-131.776
X123.834Y-132.576
X123.841Y-131.006
X123.851Y-123.043
X123.866Y-104.52
X123.871Y-106.926
X123.876Y-99.425
X123.891Y-92.161
X123.901Y-102.911
X123.901Y-119.68
X123.91Y-121.368
X123.954Y-100.966
X124.06Y-112.027
X124.141Y-96.881
X124.301Y-87.201
X124.394Y-97.418
X124.401Y-100.416
X124.401Y-103.371
X124.404Y-102.42
X124.421Y-104.476
X124.433Y-99.416
X124.438Y-106.927
X124.634Y-121.376
X124.634Y-122.176
X124.634Y-123.776
X124.634Y-124.576
X124.634Y-125.376
X124.634Y-126.976
X124.634Y-128.576
X124.634Y-132.576
X124.654Y-131.001
X124.672Y-129.427
X124.681Y-127.686
X124.698Y-131.839
X124.721Y-130.256
X124.752Y-120.541
X124.816Y-80.584
X124.901Y-86.491
X125.371Y-135.951
X125.401Y-65.201
X125.401Y-95.066
X125.401Y-143.471
X125.571Y-132.201
X125.66Y-137.6
X125.901Y-94.051
X126.083Y-89.635
X126.09Y-80.559
X126.128Y-84.53
X126.18Y-135.86
X126.18Y-138.17
X126.261Y-102.026
X126.269Y-104.46
X126.281Y-101.091
X126.281Y-107.486
X126.3Y-137.181
X126.361Y-92.161
X126.361Y-105.186
X126.58Y-137.66
X126.791Y-135.961
X126.88Y-139.05
X127.001Y-92.151
X127.06Y-137.34
X127.331Y-101.241
X127.341Y-76.611
X127.346Y-80.644
X127.431Y-95.591
X127.521Y-107.481
X127.532Y-104.752
X127.57Y-136.916
X127.571Y-87.031
X127.751Y-96.821
X127.861Y-135.901
X128.076Y-98.211
X128.081Y-95.421
X128.081Y-134.521
X128.109Y-104.752
X128.111Y-101.231
X128.301Y-107.491
X128.331Y-96.821
X128.481Y-102.196
X128.491Y-103.427
X128.531Y-87.241
X128.633Y-80.643
X128.652Y-75.938
X128.826Y-98.213
X129.001Y-133.601
X129.151Y-86.471
X129.251Y-110.126
X129.826Y-95.401
X129.851Y-94.101
X129.851Y-98.201
X129.863Y-92.551
X129.926Y-96.801
X130.08Y-137.15
X130.151Y-108.301
X130.241Y-105.331
X130.251Y-109.596
X130.401Y-65.201
X130.401Y-96.301
X130.401Y-97.601
X130.401Y-143.471
X130.451Y-110.676
X130.641Y-85.511
X130.751Y-94.951
X130.751Y-110.076
X130.791Y-109.146
X130.911Y-86.861
X131.001Y-131.751
X131.001Y-132.301
X131.01Y-140.51
X131.211Y-85.511
X131.359Y-102.502
X131.359Y-103.079
X131.491Y-111.274
X131.61Y-88.585
X131.711Y-105.341
X131.943Y-110.843
X132.301Y-130.301
X132.321Y-105.331
X132.331Y-105.911
X132.426Y-108.926
X132.601Y-126.101
X132.601Y-128.301
X132.681Y-100.341
X132.681Y-101.461
X132.826Y-125.351
X132.831Y-106.541
X132.911Y-105.316
X133.151Y-99.771
X133.221Y-106.171
X133.271Y-108.911
X133.321Y-108.284
X133.391Y-106.941
X133.4Y-142.45
X133.461Y-100.671
X133.481Y-122.246
X133.511Y-99.411
X133.551Y-100.141
X133.614Y-109.401
X133.641Y-105.631
X133.751Y-112.416
X133.801Y-128.176
X134.063Y-85.188
X134.48Y-139.84
X134.49Y-136.25
X134.841Y-112.406
X135.171Y-99.051
X135.221Y-106.841
X135.231Y-105.331
X135.231Y-106.031
X135.3Y-139.83
X135.33Y-135.71
X135.371Y-99.741
X135.401Y-65.201
X135.523Y-101.381
X135.641Y-118.011
X135.933Y-83.844
X135.951Y-112.406
X136.031Y-121.341
X136.14Y-136.24
X136.15Y-139.84
X136.301Y-120.166
X136.301Y-125.176
X136.531Y-116.536
X136.531Y-117.516
X136.555Y-68.135
X136.701Y-79.611
X136.811Y-96.968
X136.816Y-106.17
X136.816Y-109.851
X136.821Y-98.809
X136.821Y-100.649
X136.821Y-102.489
X136.821Y-104.33
X136.821Y-108.011
X136.92Y-135.88
X137.03Y-139.84
X137.13Y-134.86
X137.361Y-114.971
X137.441Y-116.536
X137.441Y-117.516
X137.451Y-126.196
X137.651Y-83.311
X138.02Y-68.14
X138.181Y-126.426
X138.29Y-142.45
X138.291Y-122.176
X138.301Y-116.536
X138.301Y-117.516
X138.312Y-123.115
X138.321Y-123.676
X138.341Y-99.381
X138.351Y-98.927
X138.371Y-96.823
X138.389Y-96.352
X138.405Y-100.102
X138.405Y-100.572
X138.409Y-93.332
X138.411Y-94.401
X138.411Y-94.861
X138.422Y-106.716
X138.422Y-107.267
X138.438Y-103.236
X138.438Y-103.706
X138.486Y-104.821
X138.486Y-105.301
X138.751Y-124.176
X138.76Y-120.676
X138.781Y-111.592
X138.801Y-126.176
X138.831Y-106.071
X138.876Y-101.036
X138.961Y-97.101
X138.971Y-98.381
X139.116Y-106.618
X139.231Y-116.536
X139.231Y-117.516
X139.261Y-112.416
X139.301Y-95.091
X139.301Y-121.676
X139.321Y-124.186
X139.341Y-122.596
X139.511Y-118.726
X139.521Y-111.711
X139.531Y-92.491
X139.541Y-76.631
X139.681Y-120.656
X139.691Y-97.691
X139.761Y-93.001
X139.776Y-98.426
X139.776Y-101.311
X139.791Y-126.186
X139.971Y-91.801
X140.021Y-95.091
X140.221Y-117.981
X140.231Y-116.901
X140.241Y-121.676
X140.301Y-124.146
X140.311Y-93.001
X140.351Y-112.406
X140.401Y-65.201
X140.401Y-143.471
X140.641Y-91.531
X140.676Y-79.051
X140.676Y-80.526
X140.831Y-110.691
X140.841Y-93.001
X140.901Y-101.526
X140.911Y-97.761
X141.014Y-108.936
X141.071Y-127.166
X141.181Y-91.531
X141.451Y-111.821
X141.451Y-112.396
X141.551Y-74.681
X141.597Y-108.92
X141.678Y-104.578
X141.678Y-105.344
X141.678Y-106.11
X141.678Y-106.876
X141.694Y-108.158
X141.801Y-123.176
X141.821Y-122.266
X142.18Y-108.92
X142.301Y-127.161
X142.421Y-78.291
X142.421Y-79.801
X142.421Y-81.271
X143.101Y-78.301
X143.101Y-79.801
X143.4Y-84.52
X143.5Y-83.08
X143.5Y-83.59
X143.551Y-88.791
X143.601Y-112.431
X143.82Y-85.08
X143.82Y-85.66
X143.88Y-87.02
X144.026Y-107.998
X144.026Y-109.84
X144.03Y-83.08
X144.03Y-83.59
X144.033Y-104.334
X144.036Y-106.157
X144.051Y-96.951
X144.051Y-98.792
X144.051Y-100.633
X144.051Y-102.475
X144.071Y-113.901
X144.141Y-75.201
X144.191Y-111.941
X144.511Y-113.361
X144.811Y-73.971
X144.841Y-74.991
X144.88Y-85.06
X144.88Y-85.66
X145.4Y-65.2
X145.5Y-87.14
X146.047Y-99.72
X146.311Y-74.071
X146.321Y-74.991
X146.376Y-71.901
X146.401Y-71.241
X146.701Y-97.001
X146.701Y-99.301
X146.711Y-100.311
X146.711Y-100.861
X147.271Y-100.311
X147.271Y-100.861
X147.401Y-99.301
X147.586Y-86.566
X147.781Y-74.991
X147.791Y-74.071
X147.901Y-130.471
X147.901Y-131.201
X148.061Y-108.641
X148.09Y-106.45
X148.101Y-79.865
X148.28Y-82.713
X148.441Y-84.031
X148.73Y-88.19
X148.901Y-108.701
X149.001Y-72.851
X149.201Y-118.401
X149.226Y-78.276
X149.281Y-73.971
X149.33Y-88.19
X149.41Y-79.31
X149.45Y-77.77
X149.47Y-85.515
X149.661Y-108.691
X149.801Y-75.001
X149.801Y-118.901
X149.811Y-72.921
X149.901Y-127.201
X149.901Y-127.901
X150.026Y-77.626
X150.1Y-82.3
X150.1Y-83.3
X150.14Y-88.14
X150.19Y-75.977
X150.201Y-77.026
X150.376Y-101.946
X150.4Y-65.2
X150.471Y-88.671
X150.511Y-80.49
X150.511Y-81.701
X150.511Y-82.911
X150.601Y-72.851
X150.601Y-127.201
X150.601Y-127.901
X150.721Y-108.691
X150.871Y-131.661
X150.876Y-76.551
X150.881Y-75.091
X151.101Y-75.726
X151.22Y-88.246
X151.651Y-70.071
X151.676Y-75.201
X151.711Y-80.501
X151.711Y-81.712
X151.711Y-82.911
X151.716Y-98.572
X151.726Y-112.97
X151.726Y-113.57
X151.726Y-125.251
X151.726Y-125.851
X152.101Y-100.131
X152.151Y-91.121
X152.201Y-123.051
X152.201Y-123.626
X152.201Y-124.201
X152.221Y-88.201
X152.226Y-113.27
X152.226Y-125.551
X152.318Y-78.251
X152.376Y-102.596
X152.401Y-99.571
X152.476Y-114.595
X152.476Y-115.17
X152.476Y-115.745
X152.491Y-70.151
X152.676Y-71.151
X152.726Y-112.97
X152.726Y-113.57
X152.726Y-125.251
X152.726Y-125.851
X152.729Y-77.779
X152.776Y-123.051
X152.776Y-123.626
X152.776Y-124.201
X152.931Y-80.501
X152.931Y-81.712
X152.931Y-82.911
X153.051Y-114.595
X153.051Y-115.17
X153.051Y-115.745
X153.121Y-85.471
X153.351Y-123.051
X153.351Y-123.626
X153.351Y-124.201
X153.426Y-76.276
X153.541Y-78.281
X153.601Y-88.201
X153.626Y-114.595
X153.626Y-115.17
X153.626Y-115.745
X153.871Y-129.221
X153.901Y-130.001
X153.926Y-123.051
X153.951Y-123.626
X153.951Y-124.201
X154.201Y-115.745
X154.226Y-114.595
X154.226Y-115.17
X154.341Y-86.491
X154.341Y-100.251
X154.401Y-99.451
X154.481Y-94.821
X154.571Y-84.166
X154.601Y-85.126
X154.976Y-78.126
X155.001Y-79.076
X155.011Y-100.251
X155.011Y-100.886
X155.071Y-102.946
X155.071Y-104.056
X155.381Y-121.481
X155.4Y-65.2
X155.401Y-120.971
X155.561Y-80.708
X155.571Y-82.711
X155.626Y-126.82
X155.801Y-119.451
X155.901Y-100.501
X155.901Y-130.001
X155.931Y-129.226
X156.001Y-116.026
X156.001Y-116.526
X156.001Y-122.526
X156.001Y-123.026
X156.171Y-125.731
X156.301Y-109.501
X156.301Y-110.501
X156.501Y-116.026
X156.501Y-116.526
X156.501Y-122.526
X156.501Y-123.026
X156.601Y-110.001
X156.901Y-109.501
X156.901Y-110.501
X156.901Y-124.711
X157.081Y-118.101
X157.101Y-117.526
X157.201Y-120.776
X157.201Y-121.401
X157.27Y-131.101
X157.27Y-131.891
X157.741Y-80.126
X157.741Y-83.301
X157.75Y-78.37
X157.75Y-85.0
X157.751Y-122.011
X157.751Y-124.251
X157.751Y-124.831
X157.801Y-117.901
X157.841Y-74.461
X157.896Y-71.216
X157.901Y-72.531
X158.01Y-131.101
X158.01Y-131.881
X158.261Y-124.541
X158.351Y-108.041
X158.351Y-108.801
X158.351Y-109.601
X158.351Y-110.351
X158.351Y-111.101
X158.641Y-97.831
X158.641Y-98.541
X158.75Y-78.37
X158.75Y-85.0
X158.87Y-80.13
X158.87Y-83.3
X158.901Y-115.701
X158.99Y-132.576
X159.076Y-108.041
X159.076Y-108.801
X159.076Y-109.601
X159.076Y-110.351
X159.076Y-111.101
X159.291Y-123.311
X159.43Y-130.185
X159.431Y-97.831
X159.431Y-98.531
X159.461Y-124.531
X159.5Y-86.0
X159.565Y-132.576
X159.571Y-123.781
X159.801Y-108.041
X159.801Y-108.801
X159.801Y-109.601
X159.801Y-110.351
X159.801Y-111.101
X159.876Y-117.926
X159.876Y-119.151
X159.876Y-120.326
X160.0Y-77.5
X160.111Y-126.019
X160.191Y-124.221
X160.191Y-124.791
X160.206Y-123.471
X160.34Y-130.181
X160.4Y-65.201
X160.43Y-132.591
X160.5Y-87.0
X160.83Y-133.611
X160.851Y-124.461
X160.851Y-126.021
X161.0Y-76.5
X161.0Y-88.5
X161.015Y-130.176
X161.101Y-117.926
X161.101Y-119.151
X161.101Y-120.326
X161.151Y-115.201
X161.151Y-115.801
X161.305Y-100.604
X161.305Y-101.204
X161.385Y-96.103
X161.385Y-96.903
X161.385Y-97.703
X161.51Y-133.611
X161.526Y-123.471
X161.601Y-71.051
X161.68Y-130.181
X161.805Y-100.904
X162.185Y-96.103
X162.185Y-96.903
X162.185Y-97.703
X162.201Y-114.241
X162.201Y-115.201
X162.305Y-100.604
X162.305Y-101.204
X162.326Y-117.926
X162.326Y-119.151
X162.326Y-120.326
X162.334Y-126.412
X162.334Y-126.989
X162.376Y-123.352
X162.411Y-122.256
X162.481Y-125.181
X162.5Y-76.0
X162.5Y-89.5
X162.881Y-123.601
X162.985Y-96.103
X162.985Y-96.903
X162.985Y-97.703
X163.301Y-115.211
X163.316Y-114.25
X163.601Y-104.253
X163.615Y-100.604
X163.615Y-101.204
X163.891Y-115.221
X163.901Y-115.821
X163.911Y-125.131
X163.931Y-124.521
X164.0Y-75.0
X164.0Y-89.5
X164.026Y-122.376
X164.115Y-100.904
X164.144Y-102.259
X164.226Y-123.001
X164.226Y-123.551
X164.5Y-88.0
X164.615Y-100.604
X164.615Y-101.204
X164.74Y-131.92
X164.74Y-132.7
X164.776Y-123.001
X164.776Y-123.551
X165.021Y-121.911
X165.076Y-115.17
X165.101Y-116.226
X165.101Y-117.026
X165.101Y-117.951
X165.101Y-118.651
X165.176Y-119.401
X165.4Y-65.201
X165.431Y-100.312
X165.431Y-100.862
X165.431Y-101.412
X165.63Y-131.93
X165.63Y-132.7
X165.631Y-121.621
X166.126Y-120.195
X166.529Y-107.191
X166.529Y-107.851
X167.401Y-71.4
X167.431Y-114.501
X167.901Y-88.201
X167.935Y-99.653
X167.935Y-100.253
X167.935Y-100.853
X167.935Y-101.453
X168.05Y-105.05
X168.55Y-104.0
X168.635Y-99.653
X168.635Y-100.253
X168.635Y-100.853
X168.635Y-101.453
X168.901Y-75.951
X168.901Y-77.451
X168.901Y-79.451
X168.901Y-81.451
X168.901Y-83.451
X168.901Y-85.451
X168.901Y-87.451
X169.151Y-88.451
X169.401Y-71.4
X169.651Y-78.201
X169.651Y-85.951
X169.901Y-110.501
X169.901Y-111.201
X169.926Y-105.576
X169.951Y-112.881
X170.351Y-113.776
X170.4Y-65.201
X170.401Y-90.451
X170.401Y-91.451
X170.551Y-112.881
X170.651Y-73.951
X170.651Y-110.501
X170.651Y-111.201
X170.66Y-94.47
X170.661Y-93.501
X170.681Y-106.521
X170.681Y-108.431
X170.776Y-105.576
X170.901Y-78.701
X170.901Y-85.451
X171.001Y-113.776
X171.121Y-112.881
X171.401Y-71.4
X171.401Y-110.501
X171.401Y-111.201
X171.626Y-105.576
X171.651Y-113.776
X171.731Y-112.881
X171.901Y-73.951
X171.901Y-143.471
X172.151Y-110.501
X172.151Y-111.201
X172.341Y-112.881
X172.401Y-78.701
X172.401Y-85.451
X172.401Y-90.451
X172.401Y-91.451
X172.476Y-105.576
X172.871Y-104.661
X172.991Y-106.351
X173.001Y-109.271
X173.151Y-74.451
X173.151Y-77.951
X173.151Y-86.201
X173.191Y-93.501
X173.2Y-94.47
X173.241Y-112.751
X173.401Y-71.4
X173.401Y-89.201
X173.521Y-111.981
X173.531Y-103.861
X173.651Y-75.451
X173.651Y-76.951
X173.651Y-87.451
X174.651Y-97.951
X175.4Y-65.201
X175.401Y-71.4
X175.901Y-106.051
X175.901Y-107.051
X175.901Y-108.051
X175.901Y-109.051
X175.901Y-110.051
X176.401Y-96.201
X176.901Y-143.471
X177.401Y-71.4
X179.401Y-71.4
X179.401Y-73.451
X179.401Y-87.451
X179.401Y-89.451
X179.401Y-96.201
X180.401Y-91.451
X180.901Y-98.201
X180.901Y-104.201
X180.901Y-110.201
X180.901Y-115.701
X180.901Y-121.201
X180.901Y-126.701
X180.901Y-132.201
X180.901Y-137.701
X181.401Y-71.4
X181.401Y-73.451
X181.401Y-75.451
X181.401Y-77.451
X181.401Y-79.451
X181.401Y-81.451
X181.401Y-83.451
X181.401Y-85.451
X181.401Y-87.451
X181.401Y-89.451
T2
X126.354Y-91.502
X146.9Y-86.82
X157.89Y-76.39
T3
X135.501Y-130.901
X140.381Y-130.921
X143.401Y-138.201
X145.721Y-131.071
X145.901Y-138.201
X150.901Y-138.201
X153.401Y-138.201
X157.901Y-138.201
X160.901Y-138.201
X165.401Y-138.201
X168.401Y-138.201
T5
X169.236Y-123.201
X169.236Y-125.701
X169.236Y-127.701
X169.236Y-130.201
T6
X142.181Y-136.376
X142.181Y-142.876
X146.681Y-136.376
X146.681Y-142.876
X149.681Y-136.376
X149.681Y-142.876
X154.181Y-136.376
X154.181Y-142.876
X157.201Y-136.376
X157.201Y-142.876
X161.701Y-136.376
X161.701Y-142.876
X162.461Y-77.521
X162.461Y-80.061
X162.461Y-82.601
X162.461Y-85.141
X162.461Y-87.681
X164.599Y-136.376
X164.599Y-142.876
X165.001Y-76.251
X165.001Y-78.791
X165.001Y-81.331
X165.001Y-83.871
X165.001Y-86.411
X169.099Y-136.376
X169.099Y-142.876
T7
X102.24Y-101.06
X102.24Y-103.6
X102.24Y-106.14
X102.24Y-108.68
X102.24Y-111.22
X102.24Y-113.76
X104.78Y-101.06
X104.78Y-103.6
X104.78Y-106.14
X104.78Y-108.68
X104.78Y-111.22
X104.78Y-113.76
X112.081Y-138.991
X114.621Y-138.991
X117.161Y-138.991
X122.04Y-68.87
X122.04Y-71.41
X124.58Y-68.87
X124.58Y-71.41
X127.12Y-68.87
X127.12Y-71.41
X129.66Y-68.87
X129.66Y-71.41
X132.2Y-68.87
X132.2Y-71.41
X134.74Y-68.87
X134.74Y-71.41
T8
X176.251Y-75.341
X176.251Y-77.881
X176.251Y-86.051
X176.251Y-88.591
T9
X168.301Y-73.916
X168.301Y-90.016
T10
X171.946Y-119.701
X171.946Y-133.701
T11
X175.576Y-105.131
X175.576Y-110.911
T12
X131.059Y-137.051
X131.059Y-139.083
X138.679Y-138.067
T13
X132.964Y-135.527
X132.964Y-140.607
X138.679Y-135.527
X138.679Y-140.607
T14
X171.351Y-76.251
X171.351Y-87.681
T4
G00X174.496Y-103.701
M15
G01X175.596Y-103.701
M16
G05
G00X174.496Y-112.341
M15
G01X175.596Y-112.341
M16
G05
G00X178.926Y-103.701
M15
G01X179.526Y-103.701
M16
G05
G00X178.926Y-112.341
M15
G01X179.526Y-112.341
M16
G05
M30
