%TF.GenerationSoftware,KiCad,Pcbnew,9.0.1*%
%TF.CreationDate,2026-02-07T17:07:50-05:00*%
%TF.ProjectId,Leonhart,4c656f6e-6861-4727-942e-6b696361645f,rev?*%
%TF.SameCoordinates,Original*%
%TF.FileFunction,Legend,Bot*%
%TF.FilePolarity,Positive*%
%FSLAX46Y46*%
G04 Gerber Fmt 4.6, Leading zero omitted, Abs format (unit mm)*
G04 Created by KiCad (PCBNEW 9.0.1) date 2026-02-07 17:07:50*
%MOMM*%
%LPD*%
G01*
G04 APERTURE LIST*
%ADD10C,0.150000*%
%ADD11C,0.120000*%
%ADD12C,0.250000*%
%ADD13C,0.100000*%
%ADD14C,0.200000*%
%ADD15C,0.050000*%
G04 APERTURE END LIST*
D10*
X162060475Y-128984819D02*
X161489047Y-128984819D01*
X161774761Y-129984819D02*
X161774761Y-128984819D01*
X161155713Y-129984819D02*
X161155713Y-128984819D01*
X161155713Y-128984819D02*
X160774761Y-128984819D01*
X160774761Y-128984819D02*
X160679523Y-129032438D01*
X160679523Y-129032438D02*
X160631904Y-129080057D01*
X160631904Y-129080057D02*
X160584285Y-129175295D01*
X160584285Y-129175295D02*
X160584285Y-129318152D01*
X160584285Y-129318152D02*
X160631904Y-129413390D01*
X160631904Y-129413390D02*
X160679523Y-129461009D01*
X160679523Y-129461009D02*
X160774761Y-129508628D01*
X160774761Y-129508628D02*
X161155713Y-129508628D01*
X160250951Y-128984819D02*
X159631904Y-128984819D01*
X159631904Y-128984819D02*
X159965237Y-129365771D01*
X159965237Y-129365771D02*
X159822380Y-129365771D01*
X159822380Y-129365771D02*
X159727142Y-129413390D01*
X159727142Y-129413390D02*
X159679523Y-129461009D01*
X159679523Y-129461009D02*
X159631904Y-129556247D01*
X159631904Y-129556247D02*
X159631904Y-129794342D01*
X159631904Y-129794342D02*
X159679523Y-129889580D01*
X159679523Y-129889580D02*
X159727142Y-129937200D01*
X159727142Y-129937200D02*
X159822380Y-129984819D01*
X159822380Y-129984819D02*
X160108094Y-129984819D01*
X160108094Y-129984819D02*
X160203332Y-129937200D01*
X160203332Y-129937200D02*
X160250951Y-129889580D01*
X159012856Y-128984819D02*
X158917618Y-128984819D01*
X158917618Y-128984819D02*
X158822380Y-129032438D01*
X158822380Y-129032438D02*
X158774761Y-129080057D01*
X158774761Y-129080057D02*
X158727142Y-129175295D01*
X158727142Y-129175295D02*
X158679523Y-129365771D01*
X158679523Y-129365771D02*
X158679523Y-129603866D01*
X158679523Y-129603866D02*
X158727142Y-129794342D01*
X158727142Y-129794342D02*
X158774761Y-129889580D01*
X158774761Y-129889580D02*
X158822380Y-129937200D01*
X158822380Y-129937200D02*
X158917618Y-129984819D01*
X158917618Y-129984819D02*
X159012856Y-129984819D01*
X159012856Y-129984819D02*
X159108094Y-129937200D01*
X159108094Y-129937200D02*
X159155713Y-129889580D01*
X159155713Y-129889580D02*
X159203332Y-129794342D01*
X159203332Y-129794342D02*
X159250951Y-129603866D01*
X159250951Y-129603866D02*
X159250951Y-129365771D01*
X159250951Y-129365771D02*
X159203332Y-129175295D01*
X159203332Y-129175295D02*
X159155713Y-129080057D01*
X159155713Y-129080057D02*
X159108094Y-129032438D01*
X159108094Y-129032438D02*
X159012856Y-128984819D01*
X158060475Y-128984819D02*
X157965237Y-128984819D01*
X157965237Y-128984819D02*
X157869999Y-129032438D01*
X157869999Y-129032438D02*
X157822380Y-129080057D01*
X157822380Y-129080057D02*
X157774761Y-129175295D01*
X157774761Y-129175295D02*
X157727142Y-129365771D01*
X157727142Y-129365771D02*
X157727142Y-129603866D01*
X157727142Y-129603866D02*
X157774761Y-129794342D01*
X157774761Y-129794342D02*
X157822380Y-129889580D01*
X157822380Y-129889580D02*
X157869999Y-129937200D01*
X157869999Y-129937200D02*
X157965237Y-129984819D01*
X157965237Y-129984819D02*
X158060475Y-129984819D01*
X158060475Y-129984819D02*
X158155713Y-129937200D01*
X158155713Y-129937200D02*
X158203332Y-129889580D01*
X158203332Y-129889580D02*
X158250951Y-129794342D01*
X158250951Y-129794342D02*
X158298570Y-129603866D01*
X158298570Y-129603866D02*
X158298570Y-129365771D01*
X158298570Y-129365771D02*
X158250951Y-129175295D01*
X158250951Y-129175295D02*
X158203332Y-129080057D01*
X158203332Y-129080057D02*
X158155713Y-129032438D01*
X158155713Y-129032438D02*
X158060475Y-128984819D01*
X156869999Y-128984819D02*
X157060475Y-128984819D01*
X157060475Y-128984819D02*
X157155713Y-129032438D01*
X157155713Y-129032438D02*
X157203332Y-129080057D01*
X157203332Y-129080057D02*
X157298570Y-129222914D01*
X157298570Y-129222914D02*
X157346189Y-129413390D01*
X157346189Y-129413390D02*
X157346189Y-129794342D01*
X157346189Y-129794342D02*
X157298570Y-129889580D01*
X157298570Y-129889580D02*
X157250951Y-129937200D01*
X157250951Y-129937200D02*
X157155713Y-129984819D01*
X157155713Y-129984819D02*
X156965237Y-129984819D01*
X156965237Y-129984819D02*
X156869999Y-129937200D01*
X156869999Y-129937200D02*
X156822380Y-129889580D01*
X156822380Y-129889580D02*
X156774761Y-129794342D01*
X156774761Y-129794342D02*
X156774761Y-129556247D01*
X156774761Y-129556247D02*
X156822380Y-129461009D01*
X156822380Y-129461009D02*
X156869999Y-129413390D01*
X156869999Y-129413390D02*
X156965237Y-129365771D01*
X156965237Y-129365771D02*
X157155713Y-129365771D01*
X157155713Y-129365771D02*
X157250951Y-129413390D01*
X157250951Y-129413390D02*
X157298570Y-129461009D01*
X157298570Y-129461009D02*
X157346189Y-129556247D01*
X157490475Y-127374819D02*
X156919047Y-127374819D01*
X157204761Y-128374819D02*
X157204761Y-127374819D01*
X156585713Y-128374819D02*
X156585713Y-127374819D01*
X156585713Y-127374819D02*
X156204761Y-127374819D01*
X156204761Y-127374819D02*
X156109523Y-127422438D01*
X156109523Y-127422438D02*
X156061904Y-127470057D01*
X156061904Y-127470057D02*
X156014285Y-127565295D01*
X156014285Y-127565295D02*
X156014285Y-127708152D01*
X156014285Y-127708152D02*
X156061904Y-127803390D01*
X156061904Y-127803390D02*
X156109523Y-127851009D01*
X156109523Y-127851009D02*
X156204761Y-127898628D01*
X156204761Y-127898628D02*
X156585713Y-127898628D01*
X155680951Y-127374819D02*
X155061904Y-127374819D01*
X155061904Y-127374819D02*
X155395237Y-127755771D01*
X155395237Y-127755771D02*
X155252380Y-127755771D01*
X155252380Y-127755771D02*
X155157142Y-127803390D01*
X155157142Y-127803390D02*
X155109523Y-127851009D01*
X155109523Y-127851009D02*
X155061904Y-127946247D01*
X155061904Y-127946247D02*
X155061904Y-128184342D01*
X155061904Y-128184342D02*
X155109523Y-128279580D01*
X155109523Y-128279580D02*
X155157142Y-128327200D01*
X155157142Y-128327200D02*
X155252380Y-128374819D01*
X155252380Y-128374819D02*
X155538094Y-128374819D01*
X155538094Y-128374819D02*
X155633332Y-128327200D01*
X155633332Y-128327200D02*
X155680951Y-128279580D01*
X154442856Y-127374819D02*
X154347618Y-127374819D01*
X154347618Y-127374819D02*
X154252380Y-127422438D01*
X154252380Y-127422438D02*
X154204761Y-127470057D01*
X154204761Y-127470057D02*
X154157142Y-127565295D01*
X154157142Y-127565295D02*
X154109523Y-127755771D01*
X154109523Y-127755771D02*
X154109523Y-127993866D01*
X154109523Y-127993866D02*
X154157142Y-128184342D01*
X154157142Y-128184342D02*
X154204761Y-128279580D01*
X154204761Y-128279580D02*
X154252380Y-128327200D01*
X154252380Y-128327200D02*
X154347618Y-128374819D01*
X154347618Y-128374819D02*
X154442856Y-128374819D01*
X154442856Y-128374819D02*
X154538094Y-128327200D01*
X154538094Y-128327200D02*
X154585713Y-128279580D01*
X154585713Y-128279580D02*
X154633332Y-128184342D01*
X154633332Y-128184342D02*
X154680951Y-127993866D01*
X154680951Y-127993866D02*
X154680951Y-127755771D01*
X154680951Y-127755771D02*
X154633332Y-127565295D01*
X154633332Y-127565295D02*
X154585713Y-127470057D01*
X154585713Y-127470057D02*
X154538094Y-127422438D01*
X154538094Y-127422438D02*
X154442856Y-127374819D01*
X153490475Y-127374819D02*
X153395237Y-127374819D01*
X153395237Y-127374819D02*
X153299999Y-127422438D01*
X153299999Y-127422438D02*
X153252380Y-127470057D01*
X153252380Y-127470057D02*
X153204761Y-127565295D01*
X153204761Y-127565295D02*
X153157142Y-127755771D01*
X153157142Y-127755771D02*
X153157142Y-127993866D01*
X153157142Y-127993866D02*
X153204761Y-128184342D01*
X153204761Y-128184342D02*
X153252380Y-128279580D01*
X153252380Y-128279580D02*
X153299999Y-128327200D01*
X153299999Y-128327200D02*
X153395237Y-128374819D01*
X153395237Y-128374819D02*
X153490475Y-128374819D01*
X153490475Y-128374819D02*
X153585713Y-128327200D01*
X153585713Y-128327200D02*
X153633332Y-128279580D01*
X153633332Y-128279580D02*
X153680951Y-128184342D01*
X153680951Y-128184342D02*
X153728570Y-127993866D01*
X153728570Y-127993866D02*
X153728570Y-127755771D01*
X153728570Y-127755771D02*
X153680951Y-127565295D01*
X153680951Y-127565295D02*
X153633332Y-127470057D01*
X153633332Y-127470057D02*
X153585713Y-127422438D01*
X153585713Y-127422438D02*
X153490475Y-127374819D01*
X152823808Y-127374819D02*
X152157142Y-127374819D01*
X152157142Y-127374819D02*
X152585713Y-128374819D01*
X165999475Y-108198819D02*
X165428047Y-108198819D01*
X165713761Y-109198819D02*
X165713761Y-108198819D01*
X165094713Y-109198819D02*
X165094713Y-108198819D01*
X165094713Y-108198819D02*
X164713761Y-108198819D01*
X164713761Y-108198819D02*
X164618523Y-108246438D01*
X164618523Y-108246438D02*
X164570904Y-108294057D01*
X164570904Y-108294057D02*
X164523285Y-108389295D01*
X164523285Y-108389295D02*
X164523285Y-108532152D01*
X164523285Y-108532152D02*
X164570904Y-108627390D01*
X164570904Y-108627390D02*
X164618523Y-108675009D01*
X164618523Y-108675009D02*
X164713761Y-108722628D01*
X164713761Y-108722628D02*
X165094713Y-108722628D01*
X164189951Y-108198819D02*
X163570904Y-108198819D01*
X163570904Y-108198819D02*
X163904237Y-108579771D01*
X163904237Y-108579771D02*
X163761380Y-108579771D01*
X163761380Y-108579771D02*
X163666142Y-108627390D01*
X163666142Y-108627390D02*
X163618523Y-108675009D01*
X163618523Y-108675009D02*
X163570904Y-108770247D01*
X163570904Y-108770247D02*
X163570904Y-109008342D01*
X163570904Y-109008342D02*
X163618523Y-109103580D01*
X163618523Y-109103580D02*
X163666142Y-109151200D01*
X163666142Y-109151200D02*
X163761380Y-109198819D01*
X163761380Y-109198819D02*
X164047094Y-109198819D01*
X164047094Y-109198819D02*
X164142332Y-109151200D01*
X164142332Y-109151200D02*
X164189951Y-109103580D01*
X162951856Y-108198819D02*
X162856618Y-108198819D01*
X162856618Y-108198819D02*
X162761380Y-108246438D01*
X162761380Y-108246438D02*
X162713761Y-108294057D01*
X162713761Y-108294057D02*
X162666142Y-108389295D01*
X162666142Y-108389295D02*
X162618523Y-108579771D01*
X162618523Y-108579771D02*
X162618523Y-108817866D01*
X162618523Y-108817866D02*
X162666142Y-109008342D01*
X162666142Y-109008342D02*
X162713761Y-109103580D01*
X162713761Y-109103580D02*
X162761380Y-109151200D01*
X162761380Y-109151200D02*
X162856618Y-109198819D01*
X162856618Y-109198819D02*
X162951856Y-109198819D01*
X162951856Y-109198819D02*
X163047094Y-109151200D01*
X163047094Y-109151200D02*
X163094713Y-109103580D01*
X163094713Y-109103580D02*
X163142332Y-109008342D01*
X163142332Y-109008342D02*
X163189951Y-108817866D01*
X163189951Y-108817866D02*
X163189951Y-108579771D01*
X163189951Y-108579771D02*
X163142332Y-108389295D01*
X163142332Y-108389295D02*
X163094713Y-108294057D01*
X163094713Y-108294057D02*
X163047094Y-108246438D01*
X163047094Y-108246438D02*
X162951856Y-108198819D01*
X161999475Y-108198819D02*
X161904237Y-108198819D01*
X161904237Y-108198819D02*
X161808999Y-108246438D01*
X161808999Y-108246438D02*
X161761380Y-108294057D01*
X161761380Y-108294057D02*
X161713761Y-108389295D01*
X161713761Y-108389295D02*
X161666142Y-108579771D01*
X161666142Y-108579771D02*
X161666142Y-108817866D01*
X161666142Y-108817866D02*
X161713761Y-109008342D01*
X161713761Y-109008342D02*
X161761380Y-109103580D01*
X161761380Y-109103580D02*
X161808999Y-109151200D01*
X161808999Y-109151200D02*
X161904237Y-109198819D01*
X161904237Y-109198819D02*
X161999475Y-109198819D01*
X161999475Y-109198819D02*
X162094713Y-109151200D01*
X162094713Y-109151200D02*
X162142332Y-109103580D01*
X162142332Y-109103580D02*
X162189951Y-109008342D01*
X162189951Y-109008342D02*
X162237570Y-108817866D01*
X162237570Y-108817866D02*
X162237570Y-108579771D01*
X162237570Y-108579771D02*
X162189951Y-108389295D01*
X162189951Y-108389295D02*
X162142332Y-108294057D01*
X162142332Y-108294057D02*
X162094713Y-108246438D01*
X162094713Y-108246438D02*
X161999475Y-108198819D01*
X160713761Y-109198819D02*
X161285189Y-109198819D01*
X160999475Y-109198819D02*
X160999475Y-108198819D01*
X160999475Y-108198819D02*
X161094713Y-108341676D01*
X161094713Y-108341676D02*
X161189951Y-108436914D01*
X161189951Y-108436914D02*
X161285189Y-108484533D01*
X147355819Y-120935524D02*
X147355819Y-121506952D01*
X148355819Y-121221238D02*
X147355819Y-121221238D01*
X148355819Y-121840286D02*
X147355819Y-121840286D01*
X147355819Y-121840286D02*
X147355819Y-122221238D01*
X147355819Y-122221238D02*
X147403438Y-122316476D01*
X147403438Y-122316476D02*
X147451057Y-122364095D01*
X147451057Y-122364095D02*
X147546295Y-122411714D01*
X147546295Y-122411714D02*
X147689152Y-122411714D01*
X147689152Y-122411714D02*
X147784390Y-122364095D01*
X147784390Y-122364095D02*
X147832009Y-122316476D01*
X147832009Y-122316476D02*
X147879628Y-122221238D01*
X147879628Y-122221238D02*
X147879628Y-121840286D01*
X147355819Y-122745048D02*
X147355819Y-123364095D01*
X147355819Y-123364095D02*
X147736771Y-123030762D01*
X147736771Y-123030762D02*
X147736771Y-123173619D01*
X147736771Y-123173619D02*
X147784390Y-123268857D01*
X147784390Y-123268857D02*
X147832009Y-123316476D01*
X147832009Y-123316476D02*
X147927247Y-123364095D01*
X147927247Y-123364095D02*
X148165342Y-123364095D01*
X148165342Y-123364095D02*
X148260580Y-123316476D01*
X148260580Y-123316476D02*
X148308200Y-123268857D01*
X148308200Y-123268857D02*
X148355819Y-123173619D01*
X148355819Y-123173619D02*
X148355819Y-122887905D01*
X148355819Y-122887905D02*
X148308200Y-122792667D01*
X148308200Y-122792667D02*
X148260580Y-122745048D01*
X147355819Y-123983143D02*
X147355819Y-124078381D01*
X147355819Y-124078381D02*
X147403438Y-124173619D01*
X147403438Y-124173619D02*
X147451057Y-124221238D01*
X147451057Y-124221238D02*
X147546295Y-124268857D01*
X147546295Y-124268857D02*
X147736771Y-124316476D01*
X147736771Y-124316476D02*
X147974866Y-124316476D01*
X147974866Y-124316476D02*
X148165342Y-124268857D01*
X148165342Y-124268857D02*
X148260580Y-124221238D01*
X148260580Y-124221238D02*
X148308200Y-124173619D01*
X148308200Y-124173619D02*
X148355819Y-124078381D01*
X148355819Y-124078381D02*
X148355819Y-123983143D01*
X148355819Y-123983143D02*
X148308200Y-123887905D01*
X148308200Y-123887905D02*
X148260580Y-123840286D01*
X148260580Y-123840286D02*
X148165342Y-123792667D01*
X148165342Y-123792667D02*
X147974866Y-123745048D01*
X147974866Y-123745048D02*
X147736771Y-123745048D01*
X147736771Y-123745048D02*
X147546295Y-123792667D01*
X147546295Y-123792667D02*
X147451057Y-123840286D01*
X147451057Y-123840286D02*
X147403438Y-123887905D01*
X147403438Y-123887905D02*
X147355819Y-123983143D01*
X147355819Y-124935524D02*
X147355819Y-125030762D01*
X147355819Y-125030762D02*
X147403438Y-125126000D01*
X147403438Y-125126000D02*
X147451057Y-125173619D01*
X147451057Y-125173619D02*
X147546295Y-125221238D01*
X147546295Y-125221238D02*
X147736771Y-125268857D01*
X147736771Y-125268857D02*
X147974866Y-125268857D01*
X147974866Y-125268857D02*
X148165342Y-125221238D01*
X148165342Y-125221238D02*
X148260580Y-125173619D01*
X148260580Y-125173619D02*
X148308200Y-125126000D01*
X148308200Y-125126000D02*
X148355819Y-125030762D01*
X148355819Y-125030762D02*
X148355819Y-124935524D01*
X148355819Y-124935524D02*
X148308200Y-124840286D01*
X148308200Y-124840286D02*
X148260580Y-124792667D01*
X148260580Y-124792667D02*
X148165342Y-124745048D01*
X148165342Y-124745048D02*
X147974866Y-124697429D01*
X147974866Y-124697429D02*
X147736771Y-124697429D01*
X147736771Y-124697429D02*
X147546295Y-124745048D01*
X147546295Y-124745048D02*
X147451057Y-124792667D01*
X147451057Y-124792667D02*
X147403438Y-124840286D01*
X147403438Y-124840286D02*
X147355819Y-124935524D01*
X147355819Y-125602191D02*
X147355819Y-126221238D01*
X147355819Y-126221238D02*
X147736771Y-125887905D01*
X147736771Y-125887905D02*
X147736771Y-126030762D01*
X147736771Y-126030762D02*
X147784390Y-126126000D01*
X147784390Y-126126000D02*
X147832009Y-126173619D01*
X147832009Y-126173619D02*
X147927247Y-126221238D01*
X147927247Y-126221238D02*
X148165342Y-126221238D01*
X148165342Y-126221238D02*
X148260580Y-126173619D01*
X148260580Y-126173619D02*
X148308200Y-126126000D01*
X148308200Y-126126000D02*
X148355819Y-126030762D01*
X148355819Y-126030762D02*
X148355819Y-125745048D01*
X148355819Y-125745048D02*
X148308200Y-125649810D01*
X148308200Y-125649810D02*
X148260580Y-125602191D01*
X167269819Y-121393524D02*
X167269819Y-121964952D01*
X168269819Y-121679238D02*
X167269819Y-121679238D01*
X168269819Y-122298286D02*
X167269819Y-122298286D01*
X167269819Y-122298286D02*
X167269819Y-122679238D01*
X167269819Y-122679238D02*
X167317438Y-122774476D01*
X167317438Y-122774476D02*
X167365057Y-122822095D01*
X167365057Y-122822095D02*
X167460295Y-122869714D01*
X167460295Y-122869714D02*
X167603152Y-122869714D01*
X167603152Y-122869714D02*
X167698390Y-122822095D01*
X167698390Y-122822095D02*
X167746009Y-122774476D01*
X167746009Y-122774476D02*
X167793628Y-122679238D01*
X167793628Y-122679238D02*
X167793628Y-122298286D01*
X167269819Y-123203048D02*
X167269819Y-123822095D01*
X167269819Y-123822095D02*
X167650771Y-123488762D01*
X167650771Y-123488762D02*
X167650771Y-123631619D01*
X167650771Y-123631619D02*
X167698390Y-123726857D01*
X167698390Y-123726857D02*
X167746009Y-123774476D01*
X167746009Y-123774476D02*
X167841247Y-123822095D01*
X167841247Y-123822095D02*
X168079342Y-123822095D01*
X168079342Y-123822095D02*
X168174580Y-123774476D01*
X168174580Y-123774476D02*
X168222200Y-123726857D01*
X168222200Y-123726857D02*
X168269819Y-123631619D01*
X168269819Y-123631619D02*
X168269819Y-123345905D01*
X168269819Y-123345905D02*
X168222200Y-123250667D01*
X168222200Y-123250667D02*
X168174580Y-123203048D01*
X167269819Y-124441143D02*
X167269819Y-124536381D01*
X167269819Y-124536381D02*
X167317438Y-124631619D01*
X167317438Y-124631619D02*
X167365057Y-124679238D01*
X167365057Y-124679238D02*
X167460295Y-124726857D01*
X167460295Y-124726857D02*
X167650771Y-124774476D01*
X167650771Y-124774476D02*
X167888866Y-124774476D01*
X167888866Y-124774476D02*
X168079342Y-124726857D01*
X168079342Y-124726857D02*
X168174580Y-124679238D01*
X168174580Y-124679238D02*
X168222200Y-124631619D01*
X168222200Y-124631619D02*
X168269819Y-124536381D01*
X168269819Y-124536381D02*
X168269819Y-124441143D01*
X168269819Y-124441143D02*
X168222200Y-124345905D01*
X168222200Y-124345905D02*
X168174580Y-124298286D01*
X168174580Y-124298286D02*
X168079342Y-124250667D01*
X168079342Y-124250667D02*
X167888866Y-124203048D01*
X167888866Y-124203048D02*
X167650771Y-124203048D01*
X167650771Y-124203048D02*
X167460295Y-124250667D01*
X167460295Y-124250667D02*
X167365057Y-124298286D01*
X167365057Y-124298286D02*
X167317438Y-124345905D01*
X167317438Y-124345905D02*
X167269819Y-124441143D01*
X167269819Y-125393524D02*
X167269819Y-125488762D01*
X167269819Y-125488762D02*
X167317438Y-125584000D01*
X167317438Y-125584000D02*
X167365057Y-125631619D01*
X167365057Y-125631619D02*
X167460295Y-125679238D01*
X167460295Y-125679238D02*
X167650771Y-125726857D01*
X167650771Y-125726857D02*
X167888866Y-125726857D01*
X167888866Y-125726857D02*
X168079342Y-125679238D01*
X168079342Y-125679238D02*
X168174580Y-125631619D01*
X168174580Y-125631619D02*
X168222200Y-125584000D01*
X168222200Y-125584000D02*
X168269819Y-125488762D01*
X168269819Y-125488762D02*
X168269819Y-125393524D01*
X168269819Y-125393524D02*
X168222200Y-125298286D01*
X168222200Y-125298286D02*
X168174580Y-125250667D01*
X168174580Y-125250667D02*
X168079342Y-125203048D01*
X168079342Y-125203048D02*
X167888866Y-125155429D01*
X167888866Y-125155429D02*
X167650771Y-125155429D01*
X167650771Y-125155429D02*
X167460295Y-125203048D01*
X167460295Y-125203048D02*
X167365057Y-125250667D01*
X167365057Y-125250667D02*
X167317438Y-125298286D01*
X167317438Y-125298286D02*
X167269819Y-125393524D01*
X167269819Y-126631619D02*
X167269819Y-126155429D01*
X167269819Y-126155429D02*
X167746009Y-126107810D01*
X167746009Y-126107810D02*
X167698390Y-126155429D01*
X167698390Y-126155429D02*
X167650771Y-126250667D01*
X167650771Y-126250667D02*
X167650771Y-126488762D01*
X167650771Y-126488762D02*
X167698390Y-126584000D01*
X167698390Y-126584000D02*
X167746009Y-126631619D01*
X167746009Y-126631619D02*
X167841247Y-126679238D01*
X167841247Y-126679238D02*
X168079342Y-126679238D01*
X168079342Y-126679238D02*
X168174580Y-126631619D01*
X168174580Y-126631619D02*
X168222200Y-126584000D01*
X168222200Y-126584000D02*
X168269819Y-126488762D01*
X168269819Y-126488762D02*
X168269819Y-126250667D01*
X168269819Y-126250667D02*
X168222200Y-126155429D01*
X168222200Y-126155429D02*
X168174580Y-126107810D01*
X147355819Y-112485524D02*
X147355819Y-113056952D01*
X148355819Y-112771238D02*
X147355819Y-112771238D01*
X148355819Y-113390286D02*
X147355819Y-113390286D01*
X147355819Y-113390286D02*
X147355819Y-113771238D01*
X147355819Y-113771238D02*
X147403438Y-113866476D01*
X147403438Y-113866476D02*
X147451057Y-113914095D01*
X147451057Y-113914095D02*
X147546295Y-113961714D01*
X147546295Y-113961714D02*
X147689152Y-113961714D01*
X147689152Y-113961714D02*
X147784390Y-113914095D01*
X147784390Y-113914095D02*
X147832009Y-113866476D01*
X147832009Y-113866476D02*
X147879628Y-113771238D01*
X147879628Y-113771238D02*
X147879628Y-113390286D01*
X147355819Y-114295048D02*
X147355819Y-114914095D01*
X147355819Y-114914095D02*
X147736771Y-114580762D01*
X147736771Y-114580762D02*
X147736771Y-114723619D01*
X147736771Y-114723619D02*
X147784390Y-114818857D01*
X147784390Y-114818857D02*
X147832009Y-114866476D01*
X147832009Y-114866476D02*
X147927247Y-114914095D01*
X147927247Y-114914095D02*
X148165342Y-114914095D01*
X148165342Y-114914095D02*
X148260580Y-114866476D01*
X148260580Y-114866476D02*
X148308200Y-114818857D01*
X148308200Y-114818857D02*
X148355819Y-114723619D01*
X148355819Y-114723619D02*
X148355819Y-114437905D01*
X148355819Y-114437905D02*
X148308200Y-114342667D01*
X148308200Y-114342667D02*
X148260580Y-114295048D01*
X147355819Y-115533143D02*
X147355819Y-115628381D01*
X147355819Y-115628381D02*
X147403438Y-115723619D01*
X147403438Y-115723619D02*
X147451057Y-115771238D01*
X147451057Y-115771238D02*
X147546295Y-115818857D01*
X147546295Y-115818857D02*
X147736771Y-115866476D01*
X147736771Y-115866476D02*
X147974866Y-115866476D01*
X147974866Y-115866476D02*
X148165342Y-115818857D01*
X148165342Y-115818857D02*
X148260580Y-115771238D01*
X148260580Y-115771238D02*
X148308200Y-115723619D01*
X148308200Y-115723619D02*
X148355819Y-115628381D01*
X148355819Y-115628381D02*
X148355819Y-115533143D01*
X148355819Y-115533143D02*
X148308200Y-115437905D01*
X148308200Y-115437905D02*
X148260580Y-115390286D01*
X148260580Y-115390286D02*
X148165342Y-115342667D01*
X148165342Y-115342667D02*
X147974866Y-115295048D01*
X147974866Y-115295048D02*
X147736771Y-115295048D01*
X147736771Y-115295048D02*
X147546295Y-115342667D01*
X147546295Y-115342667D02*
X147451057Y-115390286D01*
X147451057Y-115390286D02*
X147403438Y-115437905D01*
X147403438Y-115437905D02*
X147355819Y-115533143D01*
X147355819Y-116485524D02*
X147355819Y-116580762D01*
X147355819Y-116580762D02*
X147403438Y-116676000D01*
X147403438Y-116676000D02*
X147451057Y-116723619D01*
X147451057Y-116723619D02*
X147546295Y-116771238D01*
X147546295Y-116771238D02*
X147736771Y-116818857D01*
X147736771Y-116818857D02*
X147974866Y-116818857D01*
X147974866Y-116818857D02*
X148165342Y-116771238D01*
X148165342Y-116771238D02*
X148260580Y-116723619D01*
X148260580Y-116723619D02*
X148308200Y-116676000D01*
X148308200Y-116676000D02*
X148355819Y-116580762D01*
X148355819Y-116580762D02*
X148355819Y-116485524D01*
X148355819Y-116485524D02*
X148308200Y-116390286D01*
X148308200Y-116390286D02*
X148260580Y-116342667D01*
X148260580Y-116342667D02*
X148165342Y-116295048D01*
X148165342Y-116295048D02*
X147974866Y-116247429D01*
X147974866Y-116247429D02*
X147736771Y-116247429D01*
X147736771Y-116247429D02*
X147546295Y-116295048D01*
X147546295Y-116295048D02*
X147451057Y-116342667D01*
X147451057Y-116342667D02*
X147403438Y-116390286D01*
X147403438Y-116390286D02*
X147355819Y-116485524D01*
X147451057Y-117199810D02*
X147403438Y-117247429D01*
X147403438Y-117247429D02*
X147355819Y-117342667D01*
X147355819Y-117342667D02*
X147355819Y-117580762D01*
X147355819Y-117580762D02*
X147403438Y-117676000D01*
X147403438Y-117676000D02*
X147451057Y-117723619D01*
X147451057Y-117723619D02*
X147546295Y-117771238D01*
X147546295Y-117771238D02*
X147641533Y-117771238D01*
X147641533Y-117771238D02*
X147784390Y-117723619D01*
X147784390Y-117723619D02*
X148355819Y-117152191D01*
X148355819Y-117152191D02*
X148355819Y-117771238D01*
X167721475Y-111429819D02*
X167150047Y-111429819D01*
X167435761Y-112429819D02*
X167435761Y-111429819D01*
X166816713Y-112429819D02*
X166816713Y-111429819D01*
X166816713Y-111429819D02*
X166435761Y-111429819D01*
X166435761Y-111429819D02*
X166340523Y-111477438D01*
X166340523Y-111477438D02*
X166292904Y-111525057D01*
X166292904Y-111525057D02*
X166245285Y-111620295D01*
X166245285Y-111620295D02*
X166245285Y-111763152D01*
X166245285Y-111763152D02*
X166292904Y-111858390D01*
X166292904Y-111858390D02*
X166340523Y-111906009D01*
X166340523Y-111906009D02*
X166435761Y-111953628D01*
X166435761Y-111953628D02*
X166816713Y-111953628D01*
X165911951Y-111429819D02*
X165292904Y-111429819D01*
X165292904Y-111429819D02*
X165626237Y-111810771D01*
X165626237Y-111810771D02*
X165483380Y-111810771D01*
X165483380Y-111810771D02*
X165388142Y-111858390D01*
X165388142Y-111858390D02*
X165340523Y-111906009D01*
X165340523Y-111906009D02*
X165292904Y-112001247D01*
X165292904Y-112001247D02*
X165292904Y-112239342D01*
X165292904Y-112239342D02*
X165340523Y-112334580D01*
X165340523Y-112334580D02*
X165388142Y-112382200D01*
X165388142Y-112382200D02*
X165483380Y-112429819D01*
X165483380Y-112429819D02*
X165769094Y-112429819D01*
X165769094Y-112429819D02*
X165864332Y-112382200D01*
X165864332Y-112382200D02*
X165911951Y-112334580D01*
X164673856Y-111429819D02*
X164578618Y-111429819D01*
X164578618Y-111429819D02*
X164483380Y-111477438D01*
X164483380Y-111477438D02*
X164435761Y-111525057D01*
X164435761Y-111525057D02*
X164388142Y-111620295D01*
X164388142Y-111620295D02*
X164340523Y-111810771D01*
X164340523Y-111810771D02*
X164340523Y-112048866D01*
X164340523Y-112048866D02*
X164388142Y-112239342D01*
X164388142Y-112239342D02*
X164435761Y-112334580D01*
X164435761Y-112334580D02*
X164483380Y-112382200D01*
X164483380Y-112382200D02*
X164578618Y-112429819D01*
X164578618Y-112429819D02*
X164673856Y-112429819D01*
X164673856Y-112429819D02*
X164769094Y-112382200D01*
X164769094Y-112382200D02*
X164816713Y-112334580D01*
X164816713Y-112334580D02*
X164864332Y-112239342D01*
X164864332Y-112239342D02*
X164911951Y-112048866D01*
X164911951Y-112048866D02*
X164911951Y-111810771D01*
X164911951Y-111810771D02*
X164864332Y-111620295D01*
X164864332Y-111620295D02*
X164816713Y-111525057D01*
X164816713Y-111525057D02*
X164769094Y-111477438D01*
X164769094Y-111477438D02*
X164673856Y-111429819D01*
X163721475Y-111429819D02*
X163626237Y-111429819D01*
X163626237Y-111429819D02*
X163530999Y-111477438D01*
X163530999Y-111477438D02*
X163483380Y-111525057D01*
X163483380Y-111525057D02*
X163435761Y-111620295D01*
X163435761Y-111620295D02*
X163388142Y-111810771D01*
X163388142Y-111810771D02*
X163388142Y-112048866D01*
X163388142Y-112048866D02*
X163435761Y-112239342D01*
X163435761Y-112239342D02*
X163483380Y-112334580D01*
X163483380Y-112334580D02*
X163530999Y-112382200D01*
X163530999Y-112382200D02*
X163626237Y-112429819D01*
X163626237Y-112429819D02*
X163721475Y-112429819D01*
X163721475Y-112429819D02*
X163816713Y-112382200D01*
X163816713Y-112382200D02*
X163864332Y-112334580D01*
X163864332Y-112334580D02*
X163911951Y-112239342D01*
X163911951Y-112239342D02*
X163959570Y-112048866D01*
X163959570Y-112048866D02*
X163959570Y-111810771D01*
X163959570Y-111810771D02*
X163911951Y-111620295D01*
X163911951Y-111620295D02*
X163864332Y-111525057D01*
X163864332Y-111525057D02*
X163816713Y-111477438D01*
X163816713Y-111477438D02*
X163721475Y-111429819D01*
X162530999Y-111763152D02*
X162530999Y-112429819D01*
X162769094Y-111382200D02*
X163007189Y-112096485D01*
X163007189Y-112096485D02*
X162388142Y-112096485D01*
X169029475Y-93859819D02*
X168458047Y-93859819D01*
X168743761Y-94859819D02*
X168743761Y-93859819D01*
X168124713Y-94859819D02*
X168124713Y-93859819D01*
X168124713Y-93859819D02*
X167743761Y-93859819D01*
X167743761Y-93859819D02*
X167648523Y-93907438D01*
X167648523Y-93907438D02*
X167600904Y-93955057D01*
X167600904Y-93955057D02*
X167553285Y-94050295D01*
X167553285Y-94050295D02*
X167553285Y-94193152D01*
X167553285Y-94193152D02*
X167600904Y-94288390D01*
X167600904Y-94288390D02*
X167648523Y-94336009D01*
X167648523Y-94336009D02*
X167743761Y-94383628D01*
X167743761Y-94383628D02*
X168124713Y-94383628D01*
X167219951Y-93859819D02*
X166600904Y-93859819D01*
X166600904Y-93859819D02*
X166934237Y-94240771D01*
X166934237Y-94240771D02*
X166791380Y-94240771D01*
X166791380Y-94240771D02*
X166696142Y-94288390D01*
X166696142Y-94288390D02*
X166648523Y-94336009D01*
X166648523Y-94336009D02*
X166600904Y-94431247D01*
X166600904Y-94431247D02*
X166600904Y-94669342D01*
X166600904Y-94669342D02*
X166648523Y-94764580D01*
X166648523Y-94764580D02*
X166696142Y-94812200D01*
X166696142Y-94812200D02*
X166791380Y-94859819D01*
X166791380Y-94859819D02*
X167077094Y-94859819D01*
X167077094Y-94859819D02*
X167172332Y-94812200D01*
X167172332Y-94812200D02*
X167219951Y-94764580D01*
X165981856Y-93859819D02*
X165886618Y-93859819D01*
X165886618Y-93859819D02*
X165791380Y-93907438D01*
X165791380Y-93907438D02*
X165743761Y-93955057D01*
X165743761Y-93955057D02*
X165696142Y-94050295D01*
X165696142Y-94050295D02*
X165648523Y-94240771D01*
X165648523Y-94240771D02*
X165648523Y-94478866D01*
X165648523Y-94478866D02*
X165696142Y-94669342D01*
X165696142Y-94669342D02*
X165743761Y-94764580D01*
X165743761Y-94764580D02*
X165791380Y-94812200D01*
X165791380Y-94812200D02*
X165886618Y-94859819D01*
X165886618Y-94859819D02*
X165981856Y-94859819D01*
X165981856Y-94859819D02*
X166077094Y-94812200D01*
X166077094Y-94812200D02*
X166124713Y-94764580D01*
X166124713Y-94764580D02*
X166172332Y-94669342D01*
X166172332Y-94669342D02*
X166219951Y-94478866D01*
X166219951Y-94478866D02*
X166219951Y-94240771D01*
X166219951Y-94240771D02*
X166172332Y-94050295D01*
X166172332Y-94050295D02*
X166124713Y-93955057D01*
X166124713Y-93955057D02*
X166077094Y-93907438D01*
X166077094Y-93907438D02*
X165981856Y-93859819D01*
X165029475Y-93859819D02*
X164934237Y-93859819D01*
X164934237Y-93859819D02*
X164838999Y-93907438D01*
X164838999Y-93907438D02*
X164791380Y-93955057D01*
X164791380Y-93955057D02*
X164743761Y-94050295D01*
X164743761Y-94050295D02*
X164696142Y-94240771D01*
X164696142Y-94240771D02*
X164696142Y-94478866D01*
X164696142Y-94478866D02*
X164743761Y-94669342D01*
X164743761Y-94669342D02*
X164791380Y-94764580D01*
X164791380Y-94764580D02*
X164838999Y-94812200D01*
X164838999Y-94812200D02*
X164934237Y-94859819D01*
X164934237Y-94859819D02*
X165029475Y-94859819D01*
X165029475Y-94859819D02*
X165124713Y-94812200D01*
X165124713Y-94812200D02*
X165172332Y-94764580D01*
X165172332Y-94764580D02*
X165219951Y-94669342D01*
X165219951Y-94669342D02*
X165267570Y-94478866D01*
X165267570Y-94478866D02*
X165267570Y-94240771D01*
X165267570Y-94240771D02*
X165219951Y-94050295D01*
X165219951Y-94050295D02*
X165172332Y-93955057D01*
X165172332Y-93955057D02*
X165124713Y-93907438D01*
X165124713Y-93907438D02*
X165029475Y-93859819D01*
X164124713Y-94288390D02*
X164219951Y-94240771D01*
X164219951Y-94240771D02*
X164267570Y-94193152D01*
X164267570Y-94193152D02*
X164315189Y-94097914D01*
X164315189Y-94097914D02*
X164315189Y-94050295D01*
X164315189Y-94050295D02*
X164267570Y-93955057D01*
X164267570Y-93955057D02*
X164219951Y-93907438D01*
X164219951Y-93907438D02*
X164124713Y-93859819D01*
X164124713Y-93859819D02*
X163934237Y-93859819D01*
X163934237Y-93859819D02*
X163838999Y-93907438D01*
X163838999Y-93907438D02*
X163791380Y-93955057D01*
X163791380Y-93955057D02*
X163743761Y-94050295D01*
X163743761Y-94050295D02*
X163743761Y-94097914D01*
X163743761Y-94097914D02*
X163791380Y-94193152D01*
X163791380Y-94193152D02*
X163838999Y-94240771D01*
X163838999Y-94240771D02*
X163934237Y-94288390D01*
X163934237Y-94288390D02*
X164124713Y-94288390D01*
X164124713Y-94288390D02*
X164219951Y-94336009D01*
X164219951Y-94336009D02*
X164267570Y-94383628D01*
X164267570Y-94383628D02*
X164315189Y-94478866D01*
X164315189Y-94478866D02*
X164315189Y-94669342D01*
X164315189Y-94669342D02*
X164267570Y-94764580D01*
X164267570Y-94764580D02*
X164219951Y-94812200D01*
X164219951Y-94812200D02*
X164124713Y-94859819D01*
X164124713Y-94859819D02*
X163934237Y-94859819D01*
X163934237Y-94859819D02*
X163838999Y-94812200D01*
X163838999Y-94812200D02*
X163791380Y-94764580D01*
X163791380Y-94764580D02*
X163743761Y-94669342D01*
X163743761Y-94669342D02*
X163743761Y-94478866D01*
X163743761Y-94478866D02*
X163791380Y-94383628D01*
X163791380Y-94383628D02*
X163838999Y-94336009D01*
X163838999Y-94336009D02*
X163934237Y-94288390D01*
D11*
%TO.C,R1061*%
X134053000Y-140017359D02*
X134053000Y-140324641D01*
X134813000Y-140017359D02*
X134813000Y-140324641D01*
%TO.C,D1004*%
X108811000Y-133711000D02*
X108811000Y-135671000D01*
X110011000Y-133711000D02*
X110011000Y-135671000D01*
X110011000Y-135671000D02*
X108811000Y-135671000D01*
%TO.C,C3002*%
X160791000Y-114838836D02*
X160791000Y-114623164D01*
X161511000Y-114838836D02*
X161511000Y-114623164D01*
%TO.C,R1019*%
X114181000Y-93027359D02*
X114181000Y-93334641D01*
X114941000Y-93027359D02*
X114941000Y-93334641D01*
%TO.C,R6026*%
X134461000Y-85289641D02*
X134461000Y-84982359D01*
X135221000Y-85289641D02*
X135221000Y-84982359D01*
%TO.C,C3015*%
X160491000Y-124833164D02*
X160491000Y-125048836D01*
X161211000Y-124833164D02*
X161211000Y-125048836D01*
%TO.C,R3013*%
X162211625Y-97114641D02*
X162211625Y-96807359D01*
X162971625Y-97114641D02*
X162971625Y-96807359D01*
%TO.C,C3012*%
X159833836Y-123111000D02*
X159618164Y-123111000D01*
X159833836Y-123831000D02*
X159618164Y-123831000D01*
%TO.C,C3099*%
X139416000Y-102961036D02*
X139416000Y-102745364D01*
X140136000Y-102961036D02*
X140136000Y-102745364D01*
%TO.C,C6005*%
X137078836Y-125836000D02*
X136863164Y-125836000D01*
X137078836Y-126556000D02*
X136863164Y-126556000D01*
%TO.C,TP3006*%
X160364000Y-126474000D02*
X160364000Y-127874000D01*
X160364000Y-127874000D02*
X161764000Y-127874000D01*
X161764000Y-126474000D02*
X160364000Y-126474000D01*
X161764000Y-127874000D02*
X161764000Y-126474000D01*
%TO.C,FB3003*%
X140521000Y-101019641D02*
X140521000Y-100712359D01*
X141281000Y-101019641D02*
X141281000Y-100712359D01*
%TO.C,C5006*%
X157253164Y-74866000D02*
X157468836Y-74866000D01*
X157253164Y-75586000D02*
X157468836Y-75586000D01*
%TO.C,C3005*%
X156708836Y-117741000D02*
X156493164Y-117741000D01*
X156708836Y-118461000D02*
X156493164Y-118461000D01*
%TO.C,R1057*%
X132665000Y-140324641D02*
X132665000Y-140017359D01*
X133425000Y-140324641D02*
X133425000Y-140017359D01*
%TO.C,C5004*%
X157253164Y-77741000D02*
X157468836Y-77741000D01*
X157253164Y-78461000D02*
X157468836Y-78461000D01*
%TO.C,R3009*%
X113017359Y-104171000D02*
X113324641Y-104171000D01*
X113017359Y-104931000D02*
X113324641Y-104931000D01*
%TO.C,FB3006*%
X140521000Y-97074641D02*
X140521000Y-96767359D01*
X141281000Y-97074641D02*
X141281000Y-96767359D01*
%TO.C,C6012*%
X162480000Y-133995000D02*
X162480000Y-125930000D01*
X167000000Y-125930000D02*
X167000000Y-133995000D01*
X167000000Y-133995000D02*
X162480000Y-133995000D01*
%TO.C,C3014*%
X163216000Y-123673718D02*
X163216000Y-123889390D01*
X163936000Y-123673718D02*
X163936000Y-123889390D01*
%TO.C,R6016*%
X171904641Y-109111000D02*
X171597359Y-109111000D01*
X171904641Y-109871000D02*
X171597359Y-109871000D01*
%TO.C,C5005*%
X157253164Y-76141000D02*
X157468836Y-76141000D01*
X157253164Y-76861000D02*
X157468836Y-76861000D01*
%TO.C,C3013*%
X162941000Y-114833836D02*
X162941000Y-114618164D01*
X163661000Y-114833836D02*
X163661000Y-114618164D01*
%TO.C,R1053*%
X109241000Y-101047359D02*
X109241000Y-101354641D01*
X110001000Y-101047359D02*
X110001000Y-101354641D01*
%TO.C,C3082*%
X110021000Y-116608164D02*
X110021000Y-116823836D01*
X110741000Y-116608164D02*
X110741000Y-116823836D01*
%TO.C,FB3002*%
X140521000Y-106595759D02*
X140521000Y-106903041D01*
X141281000Y-106595759D02*
X141281000Y-106903041D01*
%TO.C,C5009*%
X154588836Y-82351000D02*
X154373164Y-82351000D01*
X154588836Y-83071000D02*
X154373164Y-83071000D01*
%TO.C,TP3007*%
X158020000Y-125675000D02*
X158020000Y-127075000D01*
X158020000Y-127075000D02*
X159420000Y-127075000D01*
X159420000Y-125675000D02*
X158020000Y-125675000D01*
X159420000Y-127075000D02*
X159420000Y-125675000D01*
%TO.C,X1002*%
X106541000Y-103811000D02*
X108841000Y-103811000D01*
X108841000Y-103811000D02*
X108841000Y-106511000D01*
%TO.C,R1059*%
X109031000Y-136727359D02*
X109031000Y-137034641D01*
X109791000Y-136727359D02*
X109791000Y-137034641D01*
%TO.C,C3033*%
X134013164Y-104901000D02*
X134228836Y-104901000D01*
X134013164Y-105621000D02*
X134228836Y-105621000D01*
%TO.C,C6003*%
X139203164Y-125826000D02*
X139418836Y-125826000D01*
X139203164Y-126546000D02*
X139418836Y-126546000D01*
%TO.C,R3014*%
X164345266Y-98281000D02*
X164037984Y-98281000D01*
X164345266Y-99041000D02*
X164037984Y-99041000D01*
%TO.C,C6014*%
X131271000Y-83673164D02*
X131271000Y-83888836D01*
X131991000Y-83673164D02*
X131991000Y-83888836D01*
%TO.C,C5008*%
X148933164Y-80001000D02*
X149148836Y-80001000D01*
X148933164Y-80721000D02*
X149148836Y-80721000D01*
D12*
%TO.C,U3001*%
X158726000Y-116251000D02*
G75*
G02*
X158476000Y-116251000I-125000J0D01*
G01*
X158476000Y-116251000D02*
G75*
G02*
X158726000Y-116251000I125000J0D01*
G01*
D11*
%TO.C,C3096*%
X139416000Y-100723164D02*
X139416000Y-100938836D01*
X140136000Y-100723164D02*
X140136000Y-100938836D01*
%TO.C,FB3009*%
X108237359Y-88451000D02*
X108544641Y-88451000D01*
X108237359Y-89211000D02*
X108544641Y-89211000D01*
%TO.C,R6028*%
X126821000Y-85289641D02*
X126821000Y-84982359D01*
X127581000Y-85289641D02*
X127581000Y-84982359D01*
%TO.C,R6030*%
X124621000Y-85289641D02*
X124621000Y-84982359D01*
X125381000Y-85289641D02*
X125381000Y-84982359D01*
%TO.C,FB5001*%
X155396000Y-77439641D02*
X155396000Y-77132359D01*
X156156000Y-77439641D02*
X156156000Y-77132359D01*
%TO.C,C3114*%
X108498836Y-89541000D02*
X108283164Y-89541000D01*
X108498836Y-90261000D02*
X108283164Y-90261000D01*
%TO.C,D6003*%
X133251000Y-124226000D02*
X133251000Y-123026000D01*
X135211000Y-123026000D02*
X133251000Y-123026000D01*
X135211000Y-124226000D02*
X133251000Y-124226000D01*
%TO.C,FB3004*%
X140521000Y-102681559D02*
X140521000Y-102988841D01*
X141281000Y-102681559D02*
X141281000Y-102988841D01*
%TO.C,C3083*%
X108731000Y-116618164D02*
X108731000Y-116833836D01*
X109451000Y-116618164D02*
X109451000Y-116833836D01*
%TO.C,R6024*%
X136661000Y-85289641D02*
X136661000Y-84982359D01*
X137421000Y-85289641D02*
X137421000Y-84982359D01*
%TO.C,C5014*%
X152721000Y-86843164D02*
X152721000Y-87058836D01*
X153441000Y-86843164D02*
X153441000Y-87058836D01*
%TO.C,D5003*%
X148401000Y-70501000D02*
X148401000Y-72461000D01*
X149601000Y-70501000D02*
X149601000Y-72461000D01*
X149601000Y-72461000D02*
X148401000Y-72461000D01*
%TO.C,R6015*%
X129744641Y-103186000D02*
X129437359Y-103186000D01*
X129744641Y-103946000D02*
X129437359Y-103946000D01*
%TO.C,C6015*%
X130181000Y-83673164D02*
X130181000Y-83888836D01*
X130901000Y-83673164D02*
X130901000Y-83888836D01*
%TO.C,C5015*%
X148950164Y-82353000D02*
X149165836Y-82353000D01*
X148950164Y-83073000D02*
X149165836Y-83073000D01*
%TO.C,R6012*%
X140691000Y-126809641D02*
X140691000Y-126502359D01*
X141451000Y-126809641D02*
X141451000Y-126502359D01*
%TO.C,C6006*%
X170891000Y-112385420D02*
X170891000Y-112666580D01*
X171911000Y-112385420D02*
X171911000Y-112666580D01*
%TO.C,C6008*%
X135971000Y-119783836D02*
X135971000Y-119568164D01*
X136691000Y-119783836D02*
X136691000Y-119568164D01*
%TO.C,C3017*%
X165548164Y-119041000D02*
X165763836Y-119041000D01*
X165548164Y-119761000D02*
X165763836Y-119761000D01*
D13*
%TO.C,D6008*%
X134441000Y-83716000D02*
X134441000Y-82656000D01*
X135241000Y-82656000D02*
X135241000Y-83716000D01*
X135241000Y-83716000D02*
X134441000Y-83716000D01*
D11*
%TO.C,FB3001*%
X140521000Y-98727359D02*
X140521000Y-99034641D01*
X141281000Y-98727359D02*
X141281000Y-99034641D01*
%TO.C,C3003*%
X157812252Y-109266000D02*
X157289748Y-109266000D01*
X157812252Y-110736000D02*
X157289748Y-110736000D01*
%TO.C,C6007*%
X169591000Y-112293164D02*
X169591000Y-112508836D01*
X170311000Y-112293164D02*
X170311000Y-112508836D01*
%TO.C,Q5002*%
X154621000Y-69801000D02*
X155921000Y-69801000D01*
X154621000Y-71601000D02*
X155921000Y-71601000D01*
D10*
X156596000Y-70191000D02*
G75*
G02*
X156446000Y-70191000I-75000J0D01*
G01*
X156446000Y-70191000D02*
G75*
G02*
X156596000Y-70191000I75000J0D01*
G01*
D11*
%TO.C,C5013*%
X151621000Y-86843164D02*
X151621000Y-87058836D01*
X152341000Y-86843164D02*
X152341000Y-87058836D01*
%TO.C,C5017*%
X149153164Y-83631000D02*
X149368836Y-83631000D01*
X149153164Y-84351000D02*
X149368836Y-84351000D01*
%TO.C,C5016*%
X147701000Y-85393164D02*
X147701000Y-85608836D01*
X148421000Y-85393164D02*
X148421000Y-85608836D01*
%TO.C,C3061*%
X140541000Y-92118836D02*
X140541000Y-91903164D01*
X141261000Y-92118836D02*
X141261000Y-91903164D01*
%TO.C,C1009*%
X136334836Y-133941000D02*
X136119164Y-133941000D01*
X136334836Y-134661000D02*
X136119164Y-134661000D01*
%TO.C,C3105*%
X139416000Y-96793164D02*
X139416000Y-97008836D01*
X140136000Y-96793164D02*
X140136000Y-97008836D01*
D13*
%TO.C,D6009*%
X129001000Y-83716000D02*
X129001000Y-82656000D01*
X129801000Y-82656000D02*
X129801000Y-83716000D01*
X129801000Y-83716000D02*
X129001000Y-83716000D01*
D11*
%TO.C,C6013*%
X132461000Y-84210420D02*
X132461000Y-84491580D01*
X133481000Y-84210420D02*
X133481000Y-84491580D01*
%TO.C,C3011*%
X161898164Y-123111000D02*
X162113836Y-123111000D01*
X161898164Y-123831000D02*
X162113836Y-123831000D01*
%TO.C,C5003*%
X157243164Y-79041000D02*
X157458836Y-79041000D01*
X157243164Y-79761000D02*
X157458836Y-79761000D01*
%TO.C,C3018*%
X164876000Y-120943164D02*
X164876000Y-121158836D01*
X165596000Y-120943164D02*
X165596000Y-121158836D01*
%TO.C,R1056*%
X136829000Y-140324641D02*
X136829000Y-140017359D01*
X137589000Y-140324641D02*
X137589000Y-140017359D01*
%TO.C,R6018*%
X125084641Y-104806000D02*
X124777359Y-104806000D01*
X125084641Y-105566000D02*
X124777359Y-105566000D01*
%TO.C,R3008*%
X113324641Y-103201000D02*
X113017359Y-103201000D01*
X113324641Y-103961000D02*
X113017359Y-103961000D01*
%TO.C,R3007*%
X156521000Y-125374641D02*
X156521000Y-125067359D01*
X157281000Y-125374641D02*
X157281000Y-125067359D01*
D13*
%TO.C,J6003*%
X124176000Y-65701000D02*
X138926000Y-65701000D01*
X124176000Y-68801000D02*
X124176000Y-65701000D01*
X124176000Y-78701000D02*
X124176000Y-71501000D01*
D14*
X133726000Y-81501000D02*
X133726000Y-81501000D01*
X133926000Y-81501000D02*
X133926000Y-81501000D01*
D13*
X137426000Y-80201000D02*
X134426000Y-80201000D01*
X138926000Y-65701000D02*
X138926000Y-68801000D01*
X138926000Y-71501000D02*
X138926000Y-78701000D01*
D14*
X133726000Y-81501000D02*
G75*
G02*
X133926000Y-81501000I100000J0D01*
G01*
X133926000Y-81501000D02*
G75*
G02*
X133726000Y-81501000I-100000J0D01*
G01*
D11*
%TO.C,R6029*%
X125721000Y-85289641D02*
X125721000Y-84982359D01*
X126481000Y-85289641D02*
X126481000Y-84982359D01*
%TO.C,R1052*%
X110521000Y-103437359D02*
X110521000Y-103744641D01*
X111281000Y-103437359D02*
X111281000Y-103744641D01*
D13*
%TO.C,D6012*%
X124601000Y-83716000D02*
X124601000Y-82656000D01*
X125401000Y-82656000D02*
X125401000Y-83716000D01*
X125401000Y-83716000D02*
X124601000Y-83716000D01*
D11*
%TO.C,C6002*%
X141461000Y-122813836D02*
X141461000Y-122598164D01*
X142181000Y-122813836D02*
X142181000Y-122598164D01*
%TO.C,R5027*%
X177491000Y-92173936D02*
X177491000Y-93628064D01*
X179311000Y-92173936D02*
X179311000Y-93628064D01*
D13*
%TO.C,D6006*%
X136641000Y-83716000D02*
X136641000Y-82656000D01*
X137441000Y-82656000D02*
X137441000Y-83716000D01*
X137441000Y-83716000D02*
X136641000Y-83716000D01*
D11*
%TO.C,TP3001*%
X161088500Y-109701000D02*
X161088500Y-111101000D01*
X161088500Y-111101000D02*
X162488500Y-111101000D01*
X162488500Y-109701000D02*
X161088500Y-109701000D01*
X162488500Y-111101000D02*
X162488500Y-109701000D01*
%TO.C,C5021*%
X174666000Y-92189748D02*
X174666000Y-93612252D01*
X176486000Y-92189748D02*
X176486000Y-93612252D01*
%TO.C,R3012*%
X164345266Y-97146000D02*
X164037984Y-97146000D01*
X164345266Y-97906000D02*
X164037984Y-97906000D01*
%TO.C,R1055*%
X138217000Y-140324641D02*
X138217000Y-140017359D01*
X138977000Y-140324641D02*
X138977000Y-140017359D01*
%TO.C,C3108*%
X106518836Y-89541000D02*
X106303164Y-89541000D01*
X106518836Y-90261000D02*
X106303164Y-90261000D01*
%TO.C,R6017*%
X171904641Y-106691000D02*
X171597359Y-106691000D01*
X171904641Y-107451000D02*
X171597359Y-107451000D01*
%TO.C,L3002*%
X153462252Y-116385446D02*
X152939748Y-116385446D01*
X153462252Y-118605446D02*
X152939748Y-118605446D01*
%TO.C,C6009*%
X134901000Y-119783836D02*
X134901000Y-119568164D01*
X135621000Y-119783836D02*
X135621000Y-119568164D01*
%TO.C,C4001*%
X126104492Y-131548820D02*
X126104492Y-131333148D01*
X126824492Y-131548820D02*
X126824492Y-131333148D01*
%TO.C,R5031*%
X153046000Y-70804641D02*
X153046000Y-70497359D01*
X153806000Y-70804641D02*
X153806000Y-70497359D01*
%TO.C,C3111*%
X110478836Y-89541000D02*
X110263164Y-89541000D01*
X110478836Y-90261000D02*
X110263164Y-90261000D01*
%TO.C,Q5001*%
X154621000Y-72141000D02*
X155921000Y-72141000D01*
X154621000Y-73941000D02*
X155921000Y-73941000D01*
D10*
X156596000Y-72531000D02*
G75*
G02*
X156446000Y-72531000I-75000J0D01*
G01*
X156446000Y-72531000D02*
G75*
G02*
X156596000Y-72531000I75000J0D01*
G01*
D11*
%TO.C,C3009*%
X151491000Y-124339748D02*
X151491000Y-124862252D01*
X152961000Y-124339748D02*
X152961000Y-124862252D01*
%TO.C,TP3003*%
X148926000Y-122926000D02*
X148926000Y-124326000D01*
X148926000Y-124326000D02*
X150326000Y-124326000D01*
X150326000Y-122926000D02*
X148926000Y-122926000D01*
X150326000Y-124326000D02*
X150326000Y-122926000D01*
%TO.C,U3002*%
D15*
X165567625Y-98703000D02*
X167067625Y-98703000D01*
X167067625Y-100803000D01*
X165567625Y-100803000D01*
X165567625Y-98703000D01*
D13*
X165867625Y-98403000D02*
G75*
G02*
X165767625Y-98403000I-50000J0D01*
G01*
X165767625Y-98403000D02*
G75*
G02*
X165867625Y-98403000I50000J0D01*
G01*
D11*
%TO.C,R1054*%
X135441000Y-140324641D02*
X135441000Y-140017359D01*
X136201000Y-140324641D02*
X136201000Y-140017359D01*
%TO.C,R5028*%
X156746000Y-72882359D02*
X156746000Y-73189641D01*
X157506000Y-72882359D02*
X157506000Y-73189641D01*
%TO.C,C3051*%
X134343164Y-100771000D02*
X134558836Y-100771000D01*
X134343164Y-101491000D02*
X134558836Y-101491000D01*
%TO.C,C4005*%
X114100492Y-131446564D02*
X114100492Y-131165404D01*
X115120492Y-131446564D02*
X115120492Y-131165404D01*
%TO.C,FB4001*%
X128368133Y-131550984D02*
X128060851Y-131550984D01*
X128368133Y-132310984D02*
X128060851Y-132310984D01*
%TO.C,FB5002*%
X151027359Y-84971000D02*
X151334641Y-84971000D01*
X151027359Y-85731000D02*
X151334641Y-85731000D01*
%TO.C,C3010*%
X161841000Y-114828836D02*
X161841000Y-114613164D01*
X162561000Y-114828836D02*
X162561000Y-114613164D01*
%TO.C,R3011*%
X169014641Y-97141000D02*
X168707359Y-97141000D01*
X169014641Y-97901000D02*
X168707359Y-97901000D01*
%TO.C,R6027*%
X129021000Y-85289641D02*
X129021000Y-84982359D01*
X129781000Y-85289641D02*
X129781000Y-84982359D01*
%TO.C,D5002*%
X146801000Y-70501000D02*
X146801000Y-72461000D01*
X148001000Y-70501000D02*
X148001000Y-72461000D01*
X148001000Y-72461000D02*
X146801000Y-72461000D01*
%TO.C,R1018*%
X105071000Y-117394641D02*
X105071000Y-117087359D01*
X105831000Y-117394641D02*
X105831000Y-117087359D01*
%TO.C,C5012*%
X150021000Y-86843164D02*
X150021000Y-87058836D01*
X150741000Y-86843164D02*
X150741000Y-87058836D01*
%TO.C,L3001*%
X157991000Y-113587252D02*
X157991000Y-113064748D01*
X160211000Y-113587252D02*
X160211000Y-113064748D01*
%TO.C,R3010*%
X166994641Y-97146000D02*
X166687359Y-97146000D01*
X166994641Y-97906000D02*
X166687359Y-97906000D01*
%TO.C,TP3005*%
X165667000Y-123384000D02*
X165667000Y-124784000D01*
X165667000Y-124784000D02*
X167067000Y-124784000D01*
X167067000Y-123384000D02*
X165667000Y-123384000D01*
X167067000Y-124784000D02*
X167067000Y-123384000D01*
%TO.C,TP3002*%
X148951000Y-114476000D02*
X148951000Y-115876000D01*
X148951000Y-115876000D02*
X150351000Y-115876000D01*
X150351000Y-114476000D02*
X148951000Y-114476000D01*
X150351000Y-115876000D02*
X150351000Y-114476000D01*
%TO.C,R6019*%
X141921000Y-126804641D02*
X141921000Y-126497359D01*
X142681000Y-126804641D02*
X142681000Y-126497359D01*
%TO.C,FB3007*%
X106257359Y-88451000D02*
X106564641Y-88451000D01*
X106257359Y-89211000D02*
X106564641Y-89211000D01*
%TO.C,C6004*%
X139328836Y-120286000D02*
X139113164Y-120286000D01*
X139328836Y-121006000D02*
X139113164Y-121006000D01*
%TO.C,R6020*%
X140004641Y-122716000D02*
X139697359Y-122716000D01*
X140004641Y-123476000D02*
X139697359Y-123476000D01*
%TO.C,D6005*%
X133251000Y-127666000D02*
X133251000Y-126466000D01*
X135211000Y-126466000D02*
X133251000Y-126466000D01*
X135211000Y-127666000D02*
X133251000Y-127666000D01*
%TO.C,C5010*%
X154588836Y-80361000D02*
X154373164Y-80361000D01*
X154588836Y-81081000D02*
X154373164Y-81081000D01*
%TO.C,C3073*%
X119371000Y-85378836D02*
X119371000Y-85163164D01*
X120091000Y-85378836D02*
X120091000Y-85163164D01*
%TO.C,L3003*%
X153462252Y-120185446D02*
X152939748Y-120185446D01*
X153462252Y-122405446D02*
X152939748Y-122405446D01*
%TO.C,C3020*%
X164299461Y-96041000D02*
X164083789Y-96041000D01*
X164299461Y-96761000D02*
X164083789Y-96761000D01*
%TO.C,C3006*%
X151491000Y-114481698D02*
X151491000Y-113959194D01*
X152961000Y-114481698D02*
X152961000Y-113959194D01*
%TO.C,D6004*%
X133251000Y-125946000D02*
X133251000Y-124746000D01*
X135211000Y-124746000D02*
X133251000Y-124746000D01*
X135211000Y-125946000D02*
X133251000Y-125946000D01*
%TO.C,R1058*%
X131277000Y-140324641D02*
X131277000Y-140017359D01*
X132037000Y-140324641D02*
X132037000Y-140017359D01*
%TO.C,C3090*%
X139416000Y-99013836D02*
X139416000Y-98798164D01*
X140136000Y-99013836D02*
X140136000Y-98798164D01*
%TO.C,R5030*%
X156746000Y-70547359D02*
X156746000Y-70854641D01*
X157506000Y-70547359D02*
X157506000Y-70854641D01*
%TO.C,C3052*%
X134353164Y-99721000D02*
X134568836Y-99721000D01*
X134353164Y-100441000D02*
X134568836Y-100441000D01*
D13*
%TO.C,D6011*%
X125701000Y-83716000D02*
X125701000Y-82656000D01*
X126501000Y-82656000D02*
X126501000Y-83716000D01*
X126501000Y-83716000D02*
X125701000Y-83716000D01*
D11*
%TO.C,C1005*%
X109261000Y-105533164D02*
X109261000Y-105748836D01*
X109981000Y-105533164D02*
X109981000Y-105748836D01*
%TO.C,TP3004*%
X164331000Y-112883000D02*
X164331000Y-114283000D01*
X164331000Y-114283000D02*
X165731000Y-114283000D01*
X165731000Y-112883000D02*
X164331000Y-112883000D01*
X165731000Y-114283000D02*
X165731000Y-112883000D01*
%TO.C,C1006*%
X109261000Y-103698836D02*
X109261000Y-103483164D01*
X109981000Y-103698836D02*
X109981000Y-103483164D01*
%TO.C,L3004*%
X165427877Y-103251000D02*
X164905373Y-103251000D01*
X165427877Y-105471000D02*
X164905373Y-105471000D01*
%TO.C,C3022*%
X160580625Y-101312252D02*
X160580625Y-100789748D01*
X162050625Y-101312252D02*
X162050625Y-100789748D01*
%TO.C,C3021*%
X162896625Y-101312252D02*
X162896625Y-100789748D01*
X164366625Y-101312252D02*
X164366625Y-100789748D01*
%TO.C,C3032*%
X134013164Y-103901000D02*
X134228836Y-103901000D01*
X134013164Y-104621000D02*
X134228836Y-104621000D01*
%TO.C,D5001*%
X150001000Y-70501000D02*
X150001000Y-72461000D01*
X151201000Y-70501000D02*
X151201000Y-72461000D01*
X151201000Y-72461000D02*
X150001000Y-72461000D01*
%TO.C,C3016*%
X158768164Y-124181000D02*
X158983836Y-124181000D01*
X158768164Y-124901000D02*
X158983836Y-124901000D01*
D13*
%TO.C,D6010*%
X126801000Y-83716000D02*
X126801000Y-82656000D01*
X127601000Y-82656000D02*
X127601000Y-83716000D01*
X127601000Y-83716000D02*
X126801000Y-83716000D01*
%TO.C,D6007*%
X135541000Y-83716000D02*
X135541000Y-82656000D01*
X136341000Y-82656000D02*
X136341000Y-83716000D01*
X136341000Y-83716000D02*
X135541000Y-83716000D01*
D11*
%TO.C,FB3005*%
X140521000Y-95114641D02*
X140521000Y-94807359D01*
X141281000Y-95114641D02*
X141281000Y-94807359D01*
%TO.C,TP3008*%
X165639000Y-95153000D02*
X165639000Y-96553000D01*
X165639000Y-96553000D02*
X167039000Y-96553000D01*
X167039000Y-95153000D02*
X165639000Y-95153000D01*
X167039000Y-96553000D02*
X167039000Y-95153000D01*
%TO.C,R6025*%
X135561000Y-85289641D02*
X135561000Y-84982359D01*
X136321000Y-85289641D02*
X136321000Y-84982359D01*
%TO.C,R6013*%
X134547359Y-121846000D02*
X134854641Y-121846000D01*
X134547359Y-122606000D02*
X134854641Y-122606000D01*
%TO.C,C5011*%
X148921000Y-86843164D02*
X148921000Y-87058836D01*
X149641000Y-86843164D02*
X149641000Y-87058836D01*
%TO.C,R1047*%
X110521000Y-105814641D02*
X110521000Y-105507359D01*
X111281000Y-105814641D02*
X111281000Y-105507359D01*
%TO.C,C5007*%
X152761000Y-84488836D02*
X152761000Y-84273164D01*
X153481000Y-84488836D02*
X153481000Y-84273164D01*
%TO.C,C3008*%
X156703836Y-120541000D02*
X156488164Y-120541000D01*
X156703836Y-121261000D02*
X156488164Y-121261000D01*
%TO.C,R1045*%
X110551000Y-101354641D02*
X110551000Y-101047359D01*
X111311000Y-101354641D02*
X111311000Y-101047359D01*
%TO.C,FB3010*%
X140521000Y-104637359D02*
X140521000Y-104944641D01*
X141281000Y-104637359D02*
X141281000Y-104944641D01*
%TO.C,FB3008*%
X110217359Y-88451000D02*
X110524641Y-88451000D01*
X110217359Y-89211000D02*
X110524641Y-89211000D01*
%TO.C,R5029*%
X153046000Y-72937359D02*
X153046000Y-73244641D01*
X153806000Y-72937359D02*
X153806000Y-73244641D01*
%TO.C,C6001*%
X139683164Y-121306000D02*
X139898836Y-121306000D01*
X139683164Y-122026000D02*
X139898836Y-122026000D01*
%TD*%
M02*
