%TF.GenerationSoftware,KiCad,Pcbnew,9.0.1*%
%TF.CreationDate,2026-01-05T16:28:52-05:00*%
%TF.ProjectId,Leonhart,4c656f6e-6861-4727-942e-6b696361645f,rev?*%
%TF.SameCoordinates,Original*%
%TF.FileFunction,Legend,Bot*%
%TF.FilePolarity,Positive*%
%FSLAX46Y46*%
G04 Gerber Fmt 4.6, Leading zero omitted, Abs format (unit mm)*
G04 Created by KiCad (PCBNEW 9.0.1) date 2026-01-05 16:28:52*
%MOMM*%
%LPD*%
G01*
G04 APERTURE LIST*
%ADD10C,0.150000*%
%ADD11C,0.120000*%
%ADD12C,0.250000*%
%ADD13C,0.100000*%
%ADD14C,0.200000*%
%ADD15C,0.050000*%
G04 APERTURE END LIST*
D10*
X190711475Y-146916819D02*
X190140047Y-146916819D01*
X190425761Y-147916819D02*
X190425761Y-146916819D01*
X189806713Y-147916819D02*
X189806713Y-146916819D01*
X189806713Y-146916819D02*
X189425761Y-146916819D01*
X189425761Y-146916819D02*
X189330523Y-146964438D01*
X189330523Y-146964438D02*
X189282904Y-147012057D01*
X189282904Y-147012057D02*
X189235285Y-147107295D01*
X189235285Y-147107295D02*
X189235285Y-147250152D01*
X189235285Y-147250152D02*
X189282904Y-147345390D01*
X189282904Y-147345390D02*
X189330523Y-147393009D01*
X189330523Y-147393009D02*
X189425761Y-147440628D01*
X189425761Y-147440628D02*
X189806713Y-147440628D01*
X188901951Y-146916819D02*
X188282904Y-146916819D01*
X188282904Y-146916819D02*
X188616237Y-147297771D01*
X188616237Y-147297771D02*
X188473380Y-147297771D01*
X188473380Y-147297771D02*
X188378142Y-147345390D01*
X188378142Y-147345390D02*
X188330523Y-147393009D01*
X188330523Y-147393009D02*
X188282904Y-147488247D01*
X188282904Y-147488247D02*
X188282904Y-147726342D01*
X188282904Y-147726342D02*
X188330523Y-147821580D01*
X188330523Y-147821580D02*
X188378142Y-147869200D01*
X188378142Y-147869200D02*
X188473380Y-147916819D01*
X188473380Y-147916819D02*
X188759094Y-147916819D01*
X188759094Y-147916819D02*
X188854332Y-147869200D01*
X188854332Y-147869200D02*
X188901951Y-147821580D01*
X187663856Y-146916819D02*
X187568618Y-146916819D01*
X187568618Y-146916819D02*
X187473380Y-146964438D01*
X187473380Y-146964438D02*
X187425761Y-147012057D01*
X187425761Y-147012057D02*
X187378142Y-147107295D01*
X187378142Y-147107295D02*
X187330523Y-147297771D01*
X187330523Y-147297771D02*
X187330523Y-147535866D01*
X187330523Y-147535866D02*
X187378142Y-147726342D01*
X187378142Y-147726342D02*
X187425761Y-147821580D01*
X187425761Y-147821580D02*
X187473380Y-147869200D01*
X187473380Y-147869200D02*
X187568618Y-147916819D01*
X187568618Y-147916819D02*
X187663856Y-147916819D01*
X187663856Y-147916819D02*
X187759094Y-147869200D01*
X187759094Y-147869200D02*
X187806713Y-147821580D01*
X187806713Y-147821580D02*
X187854332Y-147726342D01*
X187854332Y-147726342D02*
X187901951Y-147535866D01*
X187901951Y-147535866D02*
X187901951Y-147297771D01*
X187901951Y-147297771D02*
X187854332Y-147107295D01*
X187854332Y-147107295D02*
X187806713Y-147012057D01*
X187806713Y-147012057D02*
X187759094Y-146964438D01*
X187759094Y-146964438D02*
X187663856Y-146916819D01*
X186711475Y-146916819D02*
X186616237Y-146916819D01*
X186616237Y-146916819D02*
X186520999Y-146964438D01*
X186520999Y-146964438D02*
X186473380Y-147012057D01*
X186473380Y-147012057D02*
X186425761Y-147107295D01*
X186425761Y-147107295D02*
X186378142Y-147297771D01*
X186378142Y-147297771D02*
X186378142Y-147535866D01*
X186378142Y-147535866D02*
X186425761Y-147726342D01*
X186425761Y-147726342D02*
X186473380Y-147821580D01*
X186473380Y-147821580D02*
X186520999Y-147869200D01*
X186520999Y-147869200D02*
X186616237Y-147916819D01*
X186616237Y-147916819D02*
X186711475Y-147916819D01*
X186711475Y-147916819D02*
X186806713Y-147869200D01*
X186806713Y-147869200D02*
X186854332Y-147821580D01*
X186854332Y-147821580D02*
X186901951Y-147726342D01*
X186901951Y-147726342D02*
X186949570Y-147535866D01*
X186949570Y-147535866D02*
X186949570Y-147297771D01*
X186949570Y-147297771D02*
X186901951Y-147107295D01*
X186901951Y-147107295D02*
X186854332Y-147012057D01*
X186854332Y-147012057D02*
X186806713Y-146964438D01*
X186806713Y-146964438D02*
X186711475Y-146916819D01*
X185520999Y-146916819D02*
X185711475Y-146916819D01*
X185711475Y-146916819D02*
X185806713Y-146964438D01*
X185806713Y-146964438D02*
X185854332Y-147012057D01*
X185854332Y-147012057D02*
X185949570Y-147154914D01*
X185949570Y-147154914D02*
X185997189Y-147345390D01*
X185997189Y-147345390D02*
X185997189Y-147726342D01*
X185997189Y-147726342D02*
X185949570Y-147821580D01*
X185949570Y-147821580D02*
X185901951Y-147869200D01*
X185901951Y-147869200D02*
X185806713Y-147916819D01*
X185806713Y-147916819D02*
X185616237Y-147916819D01*
X185616237Y-147916819D02*
X185520999Y-147869200D01*
X185520999Y-147869200D02*
X185473380Y-147821580D01*
X185473380Y-147821580D02*
X185425761Y-147726342D01*
X185425761Y-147726342D02*
X185425761Y-147488247D01*
X185425761Y-147488247D02*
X185473380Y-147393009D01*
X185473380Y-147393009D02*
X185520999Y-147345390D01*
X185520999Y-147345390D02*
X185616237Y-147297771D01*
X185616237Y-147297771D02*
X185806713Y-147297771D01*
X185806713Y-147297771D02*
X185901951Y-147345390D01*
X185901951Y-147345390D02*
X185949570Y-147393009D01*
X185949570Y-147393009D02*
X185997189Y-147488247D01*
X183499475Y-145953819D02*
X182928047Y-145953819D01*
X183213761Y-146953819D02*
X183213761Y-145953819D01*
X182594713Y-146953819D02*
X182594713Y-145953819D01*
X182594713Y-145953819D02*
X182213761Y-145953819D01*
X182213761Y-145953819D02*
X182118523Y-146001438D01*
X182118523Y-146001438D02*
X182070904Y-146049057D01*
X182070904Y-146049057D02*
X182023285Y-146144295D01*
X182023285Y-146144295D02*
X182023285Y-146287152D01*
X182023285Y-146287152D02*
X182070904Y-146382390D01*
X182070904Y-146382390D02*
X182118523Y-146430009D01*
X182118523Y-146430009D02*
X182213761Y-146477628D01*
X182213761Y-146477628D02*
X182594713Y-146477628D01*
X181689951Y-145953819D02*
X181070904Y-145953819D01*
X181070904Y-145953819D02*
X181404237Y-146334771D01*
X181404237Y-146334771D02*
X181261380Y-146334771D01*
X181261380Y-146334771D02*
X181166142Y-146382390D01*
X181166142Y-146382390D02*
X181118523Y-146430009D01*
X181118523Y-146430009D02*
X181070904Y-146525247D01*
X181070904Y-146525247D02*
X181070904Y-146763342D01*
X181070904Y-146763342D02*
X181118523Y-146858580D01*
X181118523Y-146858580D02*
X181166142Y-146906200D01*
X181166142Y-146906200D02*
X181261380Y-146953819D01*
X181261380Y-146953819D02*
X181547094Y-146953819D01*
X181547094Y-146953819D02*
X181642332Y-146906200D01*
X181642332Y-146906200D02*
X181689951Y-146858580D01*
X180451856Y-145953819D02*
X180356618Y-145953819D01*
X180356618Y-145953819D02*
X180261380Y-146001438D01*
X180261380Y-146001438D02*
X180213761Y-146049057D01*
X180213761Y-146049057D02*
X180166142Y-146144295D01*
X180166142Y-146144295D02*
X180118523Y-146334771D01*
X180118523Y-146334771D02*
X180118523Y-146572866D01*
X180118523Y-146572866D02*
X180166142Y-146763342D01*
X180166142Y-146763342D02*
X180213761Y-146858580D01*
X180213761Y-146858580D02*
X180261380Y-146906200D01*
X180261380Y-146906200D02*
X180356618Y-146953819D01*
X180356618Y-146953819D02*
X180451856Y-146953819D01*
X180451856Y-146953819D02*
X180547094Y-146906200D01*
X180547094Y-146906200D02*
X180594713Y-146858580D01*
X180594713Y-146858580D02*
X180642332Y-146763342D01*
X180642332Y-146763342D02*
X180689951Y-146572866D01*
X180689951Y-146572866D02*
X180689951Y-146334771D01*
X180689951Y-146334771D02*
X180642332Y-146144295D01*
X180642332Y-146144295D02*
X180594713Y-146049057D01*
X180594713Y-146049057D02*
X180547094Y-146001438D01*
X180547094Y-146001438D02*
X180451856Y-145953819D01*
X179499475Y-145953819D02*
X179404237Y-145953819D01*
X179404237Y-145953819D02*
X179308999Y-146001438D01*
X179308999Y-146001438D02*
X179261380Y-146049057D01*
X179261380Y-146049057D02*
X179213761Y-146144295D01*
X179213761Y-146144295D02*
X179166142Y-146334771D01*
X179166142Y-146334771D02*
X179166142Y-146572866D01*
X179166142Y-146572866D02*
X179213761Y-146763342D01*
X179213761Y-146763342D02*
X179261380Y-146858580D01*
X179261380Y-146858580D02*
X179308999Y-146906200D01*
X179308999Y-146906200D02*
X179404237Y-146953819D01*
X179404237Y-146953819D02*
X179499475Y-146953819D01*
X179499475Y-146953819D02*
X179594713Y-146906200D01*
X179594713Y-146906200D02*
X179642332Y-146858580D01*
X179642332Y-146858580D02*
X179689951Y-146763342D01*
X179689951Y-146763342D02*
X179737570Y-146572866D01*
X179737570Y-146572866D02*
X179737570Y-146334771D01*
X179737570Y-146334771D02*
X179689951Y-146144295D01*
X179689951Y-146144295D02*
X179642332Y-146049057D01*
X179642332Y-146049057D02*
X179594713Y-146001438D01*
X179594713Y-146001438D02*
X179499475Y-145953819D01*
X178832808Y-145953819D02*
X178166142Y-145953819D01*
X178166142Y-145953819D02*
X178594713Y-146953819D01*
X190598475Y-126497819D02*
X190027047Y-126497819D01*
X190312761Y-127497819D02*
X190312761Y-126497819D01*
X189693713Y-127497819D02*
X189693713Y-126497819D01*
X189693713Y-126497819D02*
X189312761Y-126497819D01*
X189312761Y-126497819D02*
X189217523Y-126545438D01*
X189217523Y-126545438D02*
X189169904Y-126593057D01*
X189169904Y-126593057D02*
X189122285Y-126688295D01*
X189122285Y-126688295D02*
X189122285Y-126831152D01*
X189122285Y-126831152D02*
X189169904Y-126926390D01*
X189169904Y-126926390D02*
X189217523Y-126974009D01*
X189217523Y-126974009D02*
X189312761Y-127021628D01*
X189312761Y-127021628D02*
X189693713Y-127021628D01*
X188788951Y-126497819D02*
X188169904Y-126497819D01*
X188169904Y-126497819D02*
X188503237Y-126878771D01*
X188503237Y-126878771D02*
X188360380Y-126878771D01*
X188360380Y-126878771D02*
X188265142Y-126926390D01*
X188265142Y-126926390D02*
X188217523Y-126974009D01*
X188217523Y-126974009D02*
X188169904Y-127069247D01*
X188169904Y-127069247D02*
X188169904Y-127307342D01*
X188169904Y-127307342D02*
X188217523Y-127402580D01*
X188217523Y-127402580D02*
X188265142Y-127450200D01*
X188265142Y-127450200D02*
X188360380Y-127497819D01*
X188360380Y-127497819D02*
X188646094Y-127497819D01*
X188646094Y-127497819D02*
X188741332Y-127450200D01*
X188741332Y-127450200D02*
X188788951Y-127402580D01*
X187550856Y-126497819D02*
X187455618Y-126497819D01*
X187455618Y-126497819D02*
X187360380Y-126545438D01*
X187360380Y-126545438D02*
X187312761Y-126593057D01*
X187312761Y-126593057D02*
X187265142Y-126688295D01*
X187265142Y-126688295D02*
X187217523Y-126878771D01*
X187217523Y-126878771D02*
X187217523Y-127116866D01*
X187217523Y-127116866D02*
X187265142Y-127307342D01*
X187265142Y-127307342D02*
X187312761Y-127402580D01*
X187312761Y-127402580D02*
X187360380Y-127450200D01*
X187360380Y-127450200D02*
X187455618Y-127497819D01*
X187455618Y-127497819D02*
X187550856Y-127497819D01*
X187550856Y-127497819D02*
X187646094Y-127450200D01*
X187646094Y-127450200D02*
X187693713Y-127402580D01*
X187693713Y-127402580D02*
X187741332Y-127307342D01*
X187741332Y-127307342D02*
X187788951Y-127116866D01*
X187788951Y-127116866D02*
X187788951Y-126878771D01*
X187788951Y-126878771D02*
X187741332Y-126688295D01*
X187741332Y-126688295D02*
X187693713Y-126593057D01*
X187693713Y-126593057D02*
X187646094Y-126545438D01*
X187646094Y-126545438D02*
X187550856Y-126497819D01*
X186598475Y-126497819D02*
X186503237Y-126497819D01*
X186503237Y-126497819D02*
X186407999Y-126545438D01*
X186407999Y-126545438D02*
X186360380Y-126593057D01*
X186360380Y-126593057D02*
X186312761Y-126688295D01*
X186312761Y-126688295D02*
X186265142Y-126878771D01*
X186265142Y-126878771D02*
X186265142Y-127116866D01*
X186265142Y-127116866D02*
X186312761Y-127307342D01*
X186312761Y-127307342D02*
X186360380Y-127402580D01*
X186360380Y-127402580D02*
X186407999Y-127450200D01*
X186407999Y-127450200D02*
X186503237Y-127497819D01*
X186503237Y-127497819D02*
X186598475Y-127497819D01*
X186598475Y-127497819D02*
X186693713Y-127450200D01*
X186693713Y-127450200D02*
X186741332Y-127402580D01*
X186741332Y-127402580D02*
X186788951Y-127307342D01*
X186788951Y-127307342D02*
X186836570Y-127116866D01*
X186836570Y-127116866D02*
X186836570Y-126878771D01*
X186836570Y-126878771D02*
X186788951Y-126688295D01*
X186788951Y-126688295D02*
X186741332Y-126593057D01*
X186741332Y-126593057D02*
X186693713Y-126545438D01*
X186693713Y-126545438D02*
X186598475Y-126497819D01*
X185312761Y-127497819D02*
X185884189Y-127497819D01*
X185598475Y-127497819D02*
X185598475Y-126497819D01*
X185598475Y-126497819D02*
X185693713Y-126640676D01*
X185693713Y-126640676D02*
X185788951Y-126735914D01*
X185788951Y-126735914D02*
X185884189Y-126783533D01*
X171954819Y-139234524D02*
X171954819Y-139805952D01*
X172954819Y-139520238D02*
X171954819Y-139520238D01*
X172954819Y-140139286D02*
X171954819Y-140139286D01*
X171954819Y-140139286D02*
X171954819Y-140520238D01*
X171954819Y-140520238D02*
X172002438Y-140615476D01*
X172002438Y-140615476D02*
X172050057Y-140663095D01*
X172050057Y-140663095D02*
X172145295Y-140710714D01*
X172145295Y-140710714D02*
X172288152Y-140710714D01*
X172288152Y-140710714D02*
X172383390Y-140663095D01*
X172383390Y-140663095D02*
X172431009Y-140615476D01*
X172431009Y-140615476D02*
X172478628Y-140520238D01*
X172478628Y-140520238D02*
X172478628Y-140139286D01*
X171954819Y-141044048D02*
X171954819Y-141663095D01*
X171954819Y-141663095D02*
X172335771Y-141329762D01*
X172335771Y-141329762D02*
X172335771Y-141472619D01*
X172335771Y-141472619D02*
X172383390Y-141567857D01*
X172383390Y-141567857D02*
X172431009Y-141615476D01*
X172431009Y-141615476D02*
X172526247Y-141663095D01*
X172526247Y-141663095D02*
X172764342Y-141663095D01*
X172764342Y-141663095D02*
X172859580Y-141615476D01*
X172859580Y-141615476D02*
X172907200Y-141567857D01*
X172907200Y-141567857D02*
X172954819Y-141472619D01*
X172954819Y-141472619D02*
X172954819Y-141186905D01*
X172954819Y-141186905D02*
X172907200Y-141091667D01*
X172907200Y-141091667D02*
X172859580Y-141044048D01*
X171954819Y-142282143D02*
X171954819Y-142377381D01*
X171954819Y-142377381D02*
X172002438Y-142472619D01*
X172002438Y-142472619D02*
X172050057Y-142520238D01*
X172050057Y-142520238D02*
X172145295Y-142567857D01*
X172145295Y-142567857D02*
X172335771Y-142615476D01*
X172335771Y-142615476D02*
X172573866Y-142615476D01*
X172573866Y-142615476D02*
X172764342Y-142567857D01*
X172764342Y-142567857D02*
X172859580Y-142520238D01*
X172859580Y-142520238D02*
X172907200Y-142472619D01*
X172907200Y-142472619D02*
X172954819Y-142377381D01*
X172954819Y-142377381D02*
X172954819Y-142282143D01*
X172954819Y-142282143D02*
X172907200Y-142186905D01*
X172907200Y-142186905D02*
X172859580Y-142139286D01*
X172859580Y-142139286D02*
X172764342Y-142091667D01*
X172764342Y-142091667D02*
X172573866Y-142044048D01*
X172573866Y-142044048D02*
X172335771Y-142044048D01*
X172335771Y-142044048D02*
X172145295Y-142091667D01*
X172145295Y-142091667D02*
X172050057Y-142139286D01*
X172050057Y-142139286D02*
X172002438Y-142186905D01*
X172002438Y-142186905D02*
X171954819Y-142282143D01*
X171954819Y-143234524D02*
X171954819Y-143329762D01*
X171954819Y-143329762D02*
X172002438Y-143425000D01*
X172002438Y-143425000D02*
X172050057Y-143472619D01*
X172050057Y-143472619D02*
X172145295Y-143520238D01*
X172145295Y-143520238D02*
X172335771Y-143567857D01*
X172335771Y-143567857D02*
X172573866Y-143567857D01*
X172573866Y-143567857D02*
X172764342Y-143520238D01*
X172764342Y-143520238D02*
X172859580Y-143472619D01*
X172859580Y-143472619D02*
X172907200Y-143425000D01*
X172907200Y-143425000D02*
X172954819Y-143329762D01*
X172954819Y-143329762D02*
X172954819Y-143234524D01*
X172954819Y-143234524D02*
X172907200Y-143139286D01*
X172907200Y-143139286D02*
X172859580Y-143091667D01*
X172859580Y-143091667D02*
X172764342Y-143044048D01*
X172764342Y-143044048D02*
X172573866Y-142996429D01*
X172573866Y-142996429D02*
X172335771Y-142996429D01*
X172335771Y-142996429D02*
X172145295Y-143044048D01*
X172145295Y-143044048D02*
X172050057Y-143091667D01*
X172050057Y-143091667D02*
X172002438Y-143139286D01*
X172002438Y-143139286D02*
X171954819Y-143234524D01*
X171954819Y-143901191D02*
X171954819Y-144520238D01*
X171954819Y-144520238D02*
X172335771Y-144186905D01*
X172335771Y-144186905D02*
X172335771Y-144329762D01*
X172335771Y-144329762D02*
X172383390Y-144425000D01*
X172383390Y-144425000D02*
X172431009Y-144472619D01*
X172431009Y-144472619D02*
X172526247Y-144520238D01*
X172526247Y-144520238D02*
X172764342Y-144520238D01*
X172764342Y-144520238D02*
X172859580Y-144472619D01*
X172859580Y-144472619D02*
X172907200Y-144425000D01*
X172907200Y-144425000D02*
X172954819Y-144329762D01*
X172954819Y-144329762D02*
X172954819Y-144044048D01*
X172954819Y-144044048D02*
X172907200Y-143948810D01*
X172907200Y-143948810D02*
X172859580Y-143901191D01*
X191868819Y-139692524D02*
X191868819Y-140263952D01*
X192868819Y-139978238D02*
X191868819Y-139978238D01*
X192868819Y-140597286D02*
X191868819Y-140597286D01*
X191868819Y-140597286D02*
X191868819Y-140978238D01*
X191868819Y-140978238D02*
X191916438Y-141073476D01*
X191916438Y-141073476D02*
X191964057Y-141121095D01*
X191964057Y-141121095D02*
X192059295Y-141168714D01*
X192059295Y-141168714D02*
X192202152Y-141168714D01*
X192202152Y-141168714D02*
X192297390Y-141121095D01*
X192297390Y-141121095D02*
X192345009Y-141073476D01*
X192345009Y-141073476D02*
X192392628Y-140978238D01*
X192392628Y-140978238D02*
X192392628Y-140597286D01*
X191868819Y-141502048D02*
X191868819Y-142121095D01*
X191868819Y-142121095D02*
X192249771Y-141787762D01*
X192249771Y-141787762D02*
X192249771Y-141930619D01*
X192249771Y-141930619D02*
X192297390Y-142025857D01*
X192297390Y-142025857D02*
X192345009Y-142073476D01*
X192345009Y-142073476D02*
X192440247Y-142121095D01*
X192440247Y-142121095D02*
X192678342Y-142121095D01*
X192678342Y-142121095D02*
X192773580Y-142073476D01*
X192773580Y-142073476D02*
X192821200Y-142025857D01*
X192821200Y-142025857D02*
X192868819Y-141930619D01*
X192868819Y-141930619D02*
X192868819Y-141644905D01*
X192868819Y-141644905D02*
X192821200Y-141549667D01*
X192821200Y-141549667D02*
X192773580Y-141502048D01*
X191868819Y-142740143D02*
X191868819Y-142835381D01*
X191868819Y-142835381D02*
X191916438Y-142930619D01*
X191916438Y-142930619D02*
X191964057Y-142978238D01*
X191964057Y-142978238D02*
X192059295Y-143025857D01*
X192059295Y-143025857D02*
X192249771Y-143073476D01*
X192249771Y-143073476D02*
X192487866Y-143073476D01*
X192487866Y-143073476D02*
X192678342Y-143025857D01*
X192678342Y-143025857D02*
X192773580Y-142978238D01*
X192773580Y-142978238D02*
X192821200Y-142930619D01*
X192821200Y-142930619D02*
X192868819Y-142835381D01*
X192868819Y-142835381D02*
X192868819Y-142740143D01*
X192868819Y-142740143D02*
X192821200Y-142644905D01*
X192821200Y-142644905D02*
X192773580Y-142597286D01*
X192773580Y-142597286D02*
X192678342Y-142549667D01*
X192678342Y-142549667D02*
X192487866Y-142502048D01*
X192487866Y-142502048D02*
X192249771Y-142502048D01*
X192249771Y-142502048D02*
X192059295Y-142549667D01*
X192059295Y-142549667D02*
X191964057Y-142597286D01*
X191964057Y-142597286D02*
X191916438Y-142644905D01*
X191916438Y-142644905D02*
X191868819Y-142740143D01*
X191868819Y-143692524D02*
X191868819Y-143787762D01*
X191868819Y-143787762D02*
X191916438Y-143883000D01*
X191916438Y-143883000D02*
X191964057Y-143930619D01*
X191964057Y-143930619D02*
X192059295Y-143978238D01*
X192059295Y-143978238D02*
X192249771Y-144025857D01*
X192249771Y-144025857D02*
X192487866Y-144025857D01*
X192487866Y-144025857D02*
X192678342Y-143978238D01*
X192678342Y-143978238D02*
X192773580Y-143930619D01*
X192773580Y-143930619D02*
X192821200Y-143883000D01*
X192821200Y-143883000D02*
X192868819Y-143787762D01*
X192868819Y-143787762D02*
X192868819Y-143692524D01*
X192868819Y-143692524D02*
X192821200Y-143597286D01*
X192821200Y-143597286D02*
X192773580Y-143549667D01*
X192773580Y-143549667D02*
X192678342Y-143502048D01*
X192678342Y-143502048D02*
X192487866Y-143454429D01*
X192487866Y-143454429D02*
X192249771Y-143454429D01*
X192249771Y-143454429D02*
X192059295Y-143502048D01*
X192059295Y-143502048D02*
X191964057Y-143549667D01*
X191964057Y-143549667D02*
X191916438Y-143597286D01*
X191916438Y-143597286D02*
X191868819Y-143692524D01*
X191868819Y-144930619D02*
X191868819Y-144454429D01*
X191868819Y-144454429D02*
X192345009Y-144406810D01*
X192345009Y-144406810D02*
X192297390Y-144454429D01*
X192297390Y-144454429D02*
X192249771Y-144549667D01*
X192249771Y-144549667D02*
X192249771Y-144787762D01*
X192249771Y-144787762D02*
X192297390Y-144883000D01*
X192297390Y-144883000D02*
X192345009Y-144930619D01*
X192345009Y-144930619D02*
X192440247Y-144978238D01*
X192440247Y-144978238D02*
X192678342Y-144978238D01*
X192678342Y-144978238D02*
X192773580Y-144930619D01*
X192773580Y-144930619D02*
X192821200Y-144883000D01*
X192821200Y-144883000D02*
X192868819Y-144787762D01*
X192868819Y-144787762D02*
X192868819Y-144549667D01*
X192868819Y-144549667D02*
X192821200Y-144454429D01*
X192821200Y-144454429D02*
X192773580Y-144406810D01*
X171954819Y-130784524D02*
X171954819Y-131355952D01*
X172954819Y-131070238D02*
X171954819Y-131070238D01*
X172954819Y-131689286D02*
X171954819Y-131689286D01*
X171954819Y-131689286D02*
X171954819Y-132070238D01*
X171954819Y-132070238D02*
X172002438Y-132165476D01*
X172002438Y-132165476D02*
X172050057Y-132213095D01*
X172050057Y-132213095D02*
X172145295Y-132260714D01*
X172145295Y-132260714D02*
X172288152Y-132260714D01*
X172288152Y-132260714D02*
X172383390Y-132213095D01*
X172383390Y-132213095D02*
X172431009Y-132165476D01*
X172431009Y-132165476D02*
X172478628Y-132070238D01*
X172478628Y-132070238D02*
X172478628Y-131689286D01*
X171954819Y-132594048D02*
X171954819Y-133213095D01*
X171954819Y-133213095D02*
X172335771Y-132879762D01*
X172335771Y-132879762D02*
X172335771Y-133022619D01*
X172335771Y-133022619D02*
X172383390Y-133117857D01*
X172383390Y-133117857D02*
X172431009Y-133165476D01*
X172431009Y-133165476D02*
X172526247Y-133213095D01*
X172526247Y-133213095D02*
X172764342Y-133213095D01*
X172764342Y-133213095D02*
X172859580Y-133165476D01*
X172859580Y-133165476D02*
X172907200Y-133117857D01*
X172907200Y-133117857D02*
X172954819Y-133022619D01*
X172954819Y-133022619D02*
X172954819Y-132736905D01*
X172954819Y-132736905D02*
X172907200Y-132641667D01*
X172907200Y-132641667D02*
X172859580Y-132594048D01*
X171954819Y-133832143D02*
X171954819Y-133927381D01*
X171954819Y-133927381D02*
X172002438Y-134022619D01*
X172002438Y-134022619D02*
X172050057Y-134070238D01*
X172050057Y-134070238D02*
X172145295Y-134117857D01*
X172145295Y-134117857D02*
X172335771Y-134165476D01*
X172335771Y-134165476D02*
X172573866Y-134165476D01*
X172573866Y-134165476D02*
X172764342Y-134117857D01*
X172764342Y-134117857D02*
X172859580Y-134070238D01*
X172859580Y-134070238D02*
X172907200Y-134022619D01*
X172907200Y-134022619D02*
X172954819Y-133927381D01*
X172954819Y-133927381D02*
X172954819Y-133832143D01*
X172954819Y-133832143D02*
X172907200Y-133736905D01*
X172907200Y-133736905D02*
X172859580Y-133689286D01*
X172859580Y-133689286D02*
X172764342Y-133641667D01*
X172764342Y-133641667D02*
X172573866Y-133594048D01*
X172573866Y-133594048D02*
X172335771Y-133594048D01*
X172335771Y-133594048D02*
X172145295Y-133641667D01*
X172145295Y-133641667D02*
X172050057Y-133689286D01*
X172050057Y-133689286D02*
X172002438Y-133736905D01*
X172002438Y-133736905D02*
X171954819Y-133832143D01*
X171954819Y-134784524D02*
X171954819Y-134879762D01*
X171954819Y-134879762D02*
X172002438Y-134975000D01*
X172002438Y-134975000D02*
X172050057Y-135022619D01*
X172050057Y-135022619D02*
X172145295Y-135070238D01*
X172145295Y-135070238D02*
X172335771Y-135117857D01*
X172335771Y-135117857D02*
X172573866Y-135117857D01*
X172573866Y-135117857D02*
X172764342Y-135070238D01*
X172764342Y-135070238D02*
X172859580Y-135022619D01*
X172859580Y-135022619D02*
X172907200Y-134975000D01*
X172907200Y-134975000D02*
X172954819Y-134879762D01*
X172954819Y-134879762D02*
X172954819Y-134784524D01*
X172954819Y-134784524D02*
X172907200Y-134689286D01*
X172907200Y-134689286D02*
X172859580Y-134641667D01*
X172859580Y-134641667D02*
X172764342Y-134594048D01*
X172764342Y-134594048D02*
X172573866Y-134546429D01*
X172573866Y-134546429D02*
X172335771Y-134546429D01*
X172335771Y-134546429D02*
X172145295Y-134594048D01*
X172145295Y-134594048D02*
X172050057Y-134641667D01*
X172050057Y-134641667D02*
X172002438Y-134689286D01*
X172002438Y-134689286D02*
X171954819Y-134784524D01*
X172050057Y-135498810D02*
X172002438Y-135546429D01*
X172002438Y-135546429D02*
X171954819Y-135641667D01*
X171954819Y-135641667D02*
X171954819Y-135879762D01*
X171954819Y-135879762D02*
X172002438Y-135975000D01*
X172002438Y-135975000D02*
X172050057Y-136022619D01*
X172050057Y-136022619D02*
X172145295Y-136070238D01*
X172145295Y-136070238D02*
X172240533Y-136070238D01*
X172240533Y-136070238D02*
X172383390Y-136022619D01*
X172383390Y-136022619D02*
X172954819Y-135451191D01*
X172954819Y-135451191D02*
X172954819Y-136070238D01*
X192320475Y-129728819D02*
X191749047Y-129728819D01*
X192034761Y-130728819D02*
X192034761Y-129728819D01*
X191415713Y-130728819D02*
X191415713Y-129728819D01*
X191415713Y-129728819D02*
X191034761Y-129728819D01*
X191034761Y-129728819D02*
X190939523Y-129776438D01*
X190939523Y-129776438D02*
X190891904Y-129824057D01*
X190891904Y-129824057D02*
X190844285Y-129919295D01*
X190844285Y-129919295D02*
X190844285Y-130062152D01*
X190844285Y-130062152D02*
X190891904Y-130157390D01*
X190891904Y-130157390D02*
X190939523Y-130205009D01*
X190939523Y-130205009D02*
X191034761Y-130252628D01*
X191034761Y-130252628D02*
X191415713Y-130252628D01*
X190510951Y-129728819D02*
X189891904Y-129728819D01*
X189891904Y-129728819D02*
X190225237Y-130109771D01*
X190225237Y-130109771D02*
X190082380Y-130109771D01*
X190082380Y-130109771D02*
X189987142Y-130157390D01*
X189987142Y-130157390D02*
X189939523Y-130205009D01*
X189939523Y-130205009D02*
X189891904Y-130300247D01*
X189891904Y-130300247D02*
X189891904Y-130538342D01*
X189891904Y-130538342D02*
X189939523Y-130633580D01*
X189939523Y-130633580D02*
X189987142Y-130681200D01*
X189987142Y-130681200D02*
X190082380Y-130728819D01*
X190082380Y-130728819D02*
X190368094Y-130728819D01*
X190368094Y-130728819D02*
X190463332Y-130681200D01*
X190463332Y-130681200D02*
X190510951Y-130633580D01*
X189272856Y-129728819D02*
X189177618Y-129728819D01*
X189177618Y-129728819D02*
X189082380Y-129776438D01*
X189082380Y-129776438D02*
X189034761Y-129824057D01*
X189034761Y-129824057D02*
X188987142Y-129919295D01*
X188987142Y-129919295D02*
X188939523Y-130109771D01*
X188939523Y-130109771D02*
X188939523Y-130347866D01*
X188939523Y-130347866D02*
X188987142Y-130538342D01*
X188987142Y-130538342D02*
X189034761Y-130633580D01*
X189034761Y-130633580D02*
X189082380Y-130681200D01*
X189082380Y-130681200D02*
X189177618Y-130728819D01*
X189177618Y-130728819D02*
X189272856Y-130728819D01*
X189272856Y-130728819D02*
X189368094Y-130681200D01*
X189368094Y-130681200D02*
X189415713Y-130633580D01*
X189415713Y-130633580D02*
X189463332Y-130538342D01*
X189463332Y-130538342D02*
X189510951Y-130347866D01*
X189510951Y-130347866D02*
X189510951Y-130109771D01*
X189510951Y-130109771D02*
X189463332Y-129919295D01*
X189463332Y-129919295D02*
X189415713Y-129824057D01*
X189415713Y-129824057D02*
X189368094Y-129776438D01*
X189368094Y-129776438D02*
X189272856Y-129728819D01*
X188320475Y-129728819D02*
X188225237Y-129728819D01*
X188225237Y-129728819D02*
X188129999Y-129776438D01*
X188129999Y-129776438D02*
X188082380Y-129824057D01*
X188082380Y-129824057D02*
X188034761Y-129919295D01*
X188034761Y-129919295D02*
X187987142Y-130109771D01*
X187987142Y-130109771D02*
X187987142Y-130347866D01*
X187987142Y-130347866D02*
X188034761Y-130538342D01*
X188034761Y-130538342D02*
X188082380Y-130633580D01*
X188082380Y-130633580D02*
X188129999Y-130681200D01*
X188129999Y-130681200D02*
X188225237Y-130728819D01*
X188225237Y-130728819D02*
X188320475Y-130728819D01*
X188320475Y-130728819D02*
X188415713Y-130681200D01*
X188415713Y-130681200D02*
X188463332Y-130633580D01*
X188463332Y-130633580D02*
X188510951Y-130538342D01*
X188510951Y-130538342D02*
X188558570Y-130347866D01*
X188558570Y-130347866D02*
X188558570Y-130109771D01*
X188558570Y-130109771D02*
X188510951Y-129919295D01*
X188510951Y-129919295D02*
X188463332Y-129824057D01*
X188463332Y-129824057D02*
X188415713Y-129776438D01*
X188415713Y-129776438D02*
X188320475Y-129728819D01*
X187129999Y-130062152D02*
X187129999Y-130728819D01*
X187368094Y-129681200D02*
X187606189Y-130395485D01*
X187606189Y-130395485D02*
X186987142Y-130395485D01*
X193628475Y-112158819D02*
X193057047Y-112158819D01*
X193342761Y-113158819D02*
X193342761Y-112158819D01*
X192723713Y-113158819D02*
X192723713Y-112158819D01*
X192723713Y-112158819D02*
X192342761Y-112158819D01*
X192342761Y-112158819D02*
X192247523Y-112206438D01*
X192247523Y-112206438D02*
X192199904Y-112254057D01*
X192199904Y-112254057D02*
X192152285Y-112349295D01*
X192152285Y-112349295D02*
X192152285Y-112492152D01*
X192152285Y-112492152D02*
X192199904Y-112587390D01*
X192199904Y-112587390D02*
X192247523Y-112635009D01*
X192247523Y-112635009D02*
X192342761Y-112682628D01*
X192342761Y-112682628D02*
X192723713Y-112682628D01*
X191818951Y-112158819D02*
X191199904Y-112158819D01*
X191199904Y-112158819D02*
X191533237Y-112539771D01*
X191533237Y-112539771D02*
X191390380Y-112539771D01*
X191390380Y-112539771D02*
X191295142Y-112587390D01*
X191295142Y-112587390D02*
X191247523Y-112635009D01*
X191247523Y-112635009D02*
X191199904Y-112730247D01*
X191199904Y-112730247D02*
X191199904Y-112968342D01*
X191199904Y-112968342D02*
X191247523Y-113063580D01*
X191247523Y-113063580D02*
X191295142Y-113111200D01*
X191295142Y-113111200D02*
X191390380Y-113158819D01*
X191390380Y-113158819D02*
X191676094Y-113158819D01*
X191676094Y-113158819D02*
X191771332Y-113111200D01*
X191771332Y-113111200D02*
X191818951Y-113063580D01*
X190580856Y-112158819D02*
X190485618Y-112158819D01*
X190485618Y-112158819D02*
X190390380Y-112206438D01*
X190390380Y-112206438D02*
X190342761Y-112254057D01*
X190342761Y-112254057D02*
X190295142Y-112349295D01*
X190295142Y-112349295D02*
X190247523Y-112539771D01*
X190247523Y-112539771D02*
X190247523Y-112777866D01*
X190247523Y-112777866D02*
X190295142Y-112968342D01*
X190295142Y-112968342D02*
X190342761Y-113063580D01*
X190342761Y-113063580D02*
X190390380Y-113111200D01*
X190390380Y-113111200D02*
X190485618Y-113158819D01*
X190485618Y-113158819D02*
X190580856Y-113158819D01*
X190580856Y-113158819D02*
X190676094Y-113111200D01*
X190676094Y-113111200D02*
X190723713Y-113063580D01*
X190723713Y-113063580D02*
X190771332Y-112968342D01*
X190771332Y-112968342D02*
X190818951Y-112777866D01*
X190818951Y-112777866D02*
X190818951Y-112539771D01*
X190818951Y-112539771D02*
X190771332Y-112349295D01*
X190771332Y-112349295D02*
X190723713Y-112254057D01*
X190723713Y-112254057D02*
X190676094Y-112206438D01*
X190676094Y-112206438D02*
X190580856Y-112158819D01*
X189628475Y-112158819D02*
X189533237Y-112158819D01*
X189533237Y-112158819D02*
X189437999Y-112206438D01*
X189437999Y-112206438D02*
X189390380Y-112254057D01*
X189390380Y-112254057D02*
X189342761Y-112349295D01*
X189342761Y-112349295D02*
X189295142Y-112539771D01*
X189295142Y-112539771D02*
X189295142Y-112777866D01*
X189295142Y-112777866D02*
X189342761Y-112968342D01*
X189342761Y-112968342D02*
X189390380Y-113063580D01*
X189390380Y-113063580D02*
X189437999Y-113111200D01*
X189437999Y-113111200D02*
X189533237Y-113158819D01*
X189533237Y-113158819D02*
X189628475Y-113158819D01*
X189628475Y-113158819D02*
X189723713Y-113111200D01*
X189723713Y-113111200D02*
X189771332Y-113063580D01*
X189771332Y-113063580D02*
X189818951Y-112968342D01*
X189818951Y-112968342D02*
X189866570Y-112777866D01*
X189866570Y-112777866D02*
X189866570Y-112539771D01*
X189866570Y-112539771D02*
X189818951Y-112349295D01*
X189818951Y-112349295D02*
X189771332Y-112254057D01*
X189771332Y-112254057D02*
X189723713Y-112206438D01*
X189723713Y-112206438D02*
X189628475Y-112158819D01*
X188723713Y-112587390D02*
X188818951Y-112539771D01*
X188818951Y-112539771D02*
X188866570Y-112492152D01*
X188866570Y-112492152D02*
X188914189Y-112396914D01*
X188914189Y-112396914D02*
X188914189Y-112349295D01*
X188914189Y-112349295D02*
X188866570Y-112254057D01*
X188866570Y-112254057D02*
X188818951Y-112206438D01*
X188818951Y-112206438D02*
X188723713Y-112158819D01*
X188723713Y-112158819D02*
X188533237Y-112158819D01*
X188533237Y-112158819D02*
X188437999Y-112206438D01*
X188437999Y-112206438D02*
X188390380Y-112254057D01*
X188390380Y-112254057D02*
X188342761Y-112349295D01*
X188342761Y-112349295D02*
X188342761Y-112396914D01*
X188342761Y-112396914D02*
X188390380Y-112492152D01*
X188390380Y-112492152D02*
X188437999Y-112539771D01*
X188437999Y-112539771D02*
X188533237Y-112587390D01*
X188533237Y-112587390D02*
X188723713Y-112587390D01*
X188723713Y-112587390D02*
X188818951Y-112635009D01*
X188818951Y-112635009D02*
X188866570Y-112682628D01*
X188866570Y-112682628D02*
X188914189Y-112777866D01*
X188914189Y-112777866D02*
X188914189Y-112968342D01*
X188914189Y-112968342D02*
X188866570Y-113063580D01*
X188866570Y-113063580D02*
X188818951Y-113111200D01*
X188818951Y-113111200D02*
X188723713Y-113158819D01*
X188723713Y-113158819D02*
X188533237Y-113158819D01*
X188533237Y-113158819D02*
X188437999Y-113111200D01*
X188437999Y-113111200D02*
X188390380Y-113063580D01*
X188390380Y-113063580D02*
X188342761Y-112968342D01*
X188342761Y-112968342D02*
X188342761Y-112777866D01*
X188342761Y-112777866D02*
X188390380Y-112682628D01*
X188390380Y-112682628D02*
X188437999Y-112635009D01*
X188437999Y-112635009D02*
X188533237Y-112587390D01*
D11*
%TO.C,R1061*%
X158652000Y-158316359D02*
X158652000Y-158623641D01*
X159412000Y-158316359D02*
X159412000Y-158623641D01*
%TO.C,D1004*%
X133410000Y-152010000D02*
X133410000Y-153970000D01*
X134610000Y-152010000D02*
X134610000Y-153970000D01*
X134610000Y-153970000D02*
X133410000Y-153970000D01*
%TO.C,C3002*%
X185390000Y-133137836D02*
X185390000Y-132922164D01*
X186110000Y-133137836D02*
X186110000Y-132922164D01*
%TO.C,R1019*%
X138780000Y-111326359D02*
X138780000Y-111633641D01*
X139540000Y-111326359D02*
X139540000Y-111633641D01*
%TO.C,R6026*%
X159060000Y-103588641D02*
X159060000Y-103281359D01*
X159820000Y-103588641D02*
X159820000Y-103281359D01*
%TO.C,C3015*%
X185090000Y-143132164D02*
X185090000Y-143347836D01*
X185810000Y-143132164D02*
X185810000Y-143347836D01*
%TO.C,R3013*%
X186810625Y-115413641D02*
X186810625Y-115106359D01*
X187570625Y-115413641D02*
X187570625Y-115106359D01*
%TO.C,C3012*%
X184432836Y-141410000D02*
X184217164Y-141410000D01*
X184432836Y-142130000D02*
X184217164Y-142130000D01*
%TO.C,C3099*%
X164015000Y-121260036D02*
X164015000Y-121044364D01*
X164735000Y-121260036D02*
X164735000Y-121044364D01*
%TO.C,C6005*%
X161677836Y-144135000D02*
X161462164Y-144135000D01*
X161677836Y-144855000D02*
X161462164Y-144855000D01*
%TO.C,TP3006*%
X184963000Y-144773000D02*
X184963000Y-146173000D01*
X184963000Y-146173000D02*
X186363000Y-146173000D01*
X186363000Y-144773000D02*
X184963000Y-144773000D01*
X186363000Y-146173000D02*
X186363000Y-144773000D01*
%TO.C,FB3003*%
X165120000Y-119318641D02*
X165120000Y-119011359D01*
X165880000Y-119318641D02*
X165880000Y-119011359D01*
%TO.C,C5006*%
X181852164Y-93165000D02*
X182067836Y-93165000D01*
X181852164Y-93885000D02*
X182067836Y-93885000D01*
%TO.C,C3005*%
X181307836Y-136040000D02*
X181092164Y-136040000D01*
X181307836Y-136760000D02*
X181092164Y-136760000D01*
%TO.C,R1057*%
X157264000Y-158623641D02*
X157264000Y-158316359D01*
X158024000Y-158623641D02*
X158024000Y-158316359D01*
%TO.C,C5004*%
X181852164Y-96040000D02*
X182067836Y-96040000D01*
X181852164Y-96760000D02*
X182067836Y-96760000D01*
%TO.C,R3009*%
X137616359Y-122470000D02*
X137923641Y-122470000D01*
X137616359Y-123230000D02*
X137923641Y-123230000D01*
%TO.C,FB3006*%
X165120000Y-115373641D02*
X165120000Y-115066359D01*
X165880000Y-115373641D02*
X165880000Y-115066359D01*
%TO.C,C3014*%
X187815000Y-141972718D02*
X187815000Y-142188390D01*
X188535000Y-141972718D02*
X188535000Y-142188390D01*
%TO.C,R6016*%
X196503641Y-127410000D02*
X196196359Y-127410000D01*
X196503641Y-128170000D02*
X196196359Y-128170000D01*
%TO.C,C5005*%
X181852164Y-94440000D02*
X182067836Y-94440000D01*
X181852164Y-95160000D02*
X182067836Y-95160000D01*
%TO.C,C3013*%
X187540000Y-133132836D02*
X187540000Y-132917164D01*
X188260000Y-133132836D02*
X188260000Y-132917164D01*
%TO.C,R1053*%
X133840000Y-119346359D02*
X133840000Y-119653641D01*
X134600000Y-119346359D02*
X134600000Y-119653641D01*
%TO.C,C3082*%
X134620000Y-134907164D02*
X134620000Y-135122836D01*
X135340000Y-134907164D02*
X135340000Y-135122836D01*
%TO.C,FB3002*%
X165120000Y-124894759D02*
X165120000Y-125202041D01*
X165880000Y-124894759D02*
X165880000Y-125202041D01*
%TO.C,C5009*%
X179187836Y-100650000D02*
X178972164Y-100650000D01*
X179187836Y-101370000D02*
X178972164Y-101370000D01*
%TO.C,TP3007*%
X182619000Y-143974000D02*
X182619000Y-145374000D01*
X182619000Y-145374000D02*
X184019000Y-145374000D01*
X184019000Y-143974000D02*
X182619000Y-143974000D01*
X184019000Y-145374000D02*
X184019000Y-143974000D01*
%TO.C,X1002*%
X131140000Y-122110000D02*
X133440000Y-122110000D01*
X133440000Y-122110000D02*
X133440000Y-124810000D01*
%TO.C,R1059*%
X133630000Y-155026359D02*
X133630000Y-155333641D01*
X134390000Y-155026359D02*
X134390000Y-155333641D01*
%TO.C,C3033*%
X158612164Y-123570000D02*
X158827836Y-123570000D01*
X158612164Y-124290000D02*
X158827836Y-124290000D01*
%TO.C,C6003*%
X163802164Y-144125000D02*
X164017836Y-144125000D01*
X163802164Y-144845000D02*
X164017836Y-144845000D01*
%TO.C,R3014*%
X188944266Y-116580000D02*
X188636984Y-116580000D01*
X188944266Y-117340000D02*
X188636984Y-117340000D01*
%TO.C,C6014*%
X155870000Y-101972164D02*
X155870000Y-102187836D01*
X156590000Y-101972164D02*
X156590000Y-102187836D01*
%TO.C,C5008*%
X173532164Y-98300000D02*
X173747836Y-98300000D01*
X173532164Y-99020000D02*
X173747836Y-99020000D01*
D12*
%TO.C,U3001*%
X183325000Y-134550000D02*
G75*
G02*
X183075000Y-134550000I-125000J0D01*
G01*
X183075000Y-134550000D02*
G75*
G02*
X183325000Y-134550000I125000J0D01*
G01*
D11*
%TO.C,C3096*%
X164015000Y-119022164D02*
X164015000Y-119237836D01*
X164735000Y-119022164D02*
X164735000Y-119237836D01*
%TO.C,FB3009*%
X132836359Y-106750000D02*
X133143641Y-106750000D01*
X132836359Y-107510000D02*
X133143641Y-107510000D01*
%TO.C,R6028*%
X151420000Y-103588641D02*
X151420000Y-103281359D01*
X152180000Y-103588641D02*
X152180000Y-103281359D01*
%TO.C,R6030*%
X149220000Y-103588641D02*
X149220000Y-103281359D01*
X149980000Y-103588641D02*
X149980000Y-103281359D01*
%TO.C,FB5001*%
X179995000Y-95738641D02*
X179995000Y-95431359D01*
X180755000Y-95738641D02*
X180755000Y-95431359D01*
%TO.C,C3114*%
X133097836Y-107840000D02*
X132882164Y-107840000D01*
X133097836Y-108560000D02*
X132882164Y-108560000D01*
%TO.C,D6003*%
X157850000Y-142525000D02*
X157850000Y-141325000D01*
X159810000Y-141325000D02*
X157850000Y-141325000D01*
X159810000Y-142525000D02*
X157850000Y-142525000D01*
%TO.C,FB3004*%
X165120000Y-120980559D02*
X165120000Y-121287841D01*
X165880000Y-120980559D02*
X165880000Y-121287841D01*
%TO.C,C3083*%
X133330000Y-134917164D02*
X133330000Y-135132836D01*
X134050000Y-134917164D02*
X134050000Y-135132836D01*
%TO.C,R6024*%
X161260000Y-103588641D02*
X161260000Y-103281359D01*
X162020000Y-103588641D02*
X162020000Y-103281359D01*
%TO.C,C5014*%
X177320000Y-105142164D02*
X177320000Y-105357836D01*
X178040000Y-105142164D02*
X178040000Y-105357836D01*
%TO.C,D5003*%
X173000000Y-88800000D02*
X173000000Y-90760000D01*
X174200000Y-88800000D02*
X174200000Y-90760000D01*
X174200000Y-90760000D02*
X173000000Y-90760000D01*
%TO.C,R6015*%
X154343641Y-121485000D02*
X154036359Y-121485000D01*
X154343641Y-122245000D02*
X154036359Y-122245000D01*
%TO.C,C6015*%
X154780000Y-101972164D02*
X154780000Y-102187836D01*
X155500000Y-101972164D02*
X155500000Y-102187836D01*
%TO.C,C5015*%
X173549164Y-100652000D02*
X173764836Y-100652000D01*
X173549164Y-101372000D02*
X173764836Y-101372000D01*
%TO.C,R6012*%
X165290000Y-145108641D02*
X165290000Y-144801359D01*
X166050000Y-145108641D02*
X166050000Y-144801359D01*
%TO.C,C6006*%
X195490000Y-130684420D02*
X195490000Y-130965580D01*
X196510000Y-130684420D02*
X196510000Y-130965580D01*
%TO.C,C6008*%
X160570000Y-138082836D02*
X160570000Y-137867164D01*
X161290000Y-138082836D02*
X161290000Y-137867164D01*
%TO.C,C3017*%
X190147164Y-137340000D02*
X190362836Y-137340000D01*
X190147164Y-138060000D02*
X190362836Y-138060000D01*
D13*
%TO.C,D6008*%
X159040000Y-101915000D02*
X159040000Y-100955000D01*
X159840000Y-100955000D02*
X159840000Y-101915000D01*
X159840000Y-101915000D02*
X159040000Y-101915000D01*
D11*
%TO.C,FB3001*%
X165120000Y-117026359D02*
X165120000Y-117333641D01*
X165880000Y-117026359D02*
X165880000Y-117333641D01*
%TO.C,C3003*%
X182411252Y-127565000D02*
X181888748Y-127565000D01*
X182411252Y-129035000D02*
X181888748Y-129035000D01*
%TO.C,C6007*%
X194190000Y-130592164D02*
X194190000Y-130807836D01*
X194910000Y-130592164D02*
X194910000Y-130807836D01*
%TO.C,Q5002*%
X179220000Y-88100000D02*
X180520000Y-88100000D01*
X179220000Y-89900000D02*
X180520000Y-89900000D01*
D10*
X181195000Y-88490000D02*
G75*
G02*
X181045000Y-88490000I-75000J0D01*
G01*
X181045000Y-88490000D02*
G75*
G02*
X181195000Y-88490000I75000J0D01*
G01*
D11*
%TO.C,C5013*%
X176220000Y-105142164D02*
X176220000Y-105357836D01*
X176940000Y-105142164D02*
X176940000Y-105357836D01*
%TO.C,C5017*%
X173752164Y-101930000D02*
X173967836Y-101930000D01*
X173752164Y-102650000D02*
X173967836Y-102650000D01*
%TO.C,C5016*%
X172300000Y-103692164D02*
X172300000Y-103907836D01*
X173020000Y-103692164D02*
X173020000Y-103907836D01*
%TO.C,C3061*%
X165140000Y-110417836D02*
X165140000Y-110202164D01*
X165860000Y-110417836D02*
X165860000Y-110202164D01*
%TO.C,C1009*%
X160933836Y-152240000D02*
X160718164Y-152240000D01*
X160933836Y-152960000D02*
X160718164Y-152960000D01*
%TO.C,C3105*%
X164015000Y-115092164D02*
X164015000Y-115307836D01*
X164735000Y-115092164D02*
X164735000Y-115307836D01*
D13*
%TO.C,D6009*%
X153600000Y-101915000D02*
X153600000Y-100955000D01*
X154400000Y-100955000D02*
X154400000Y-101915000D01*
X154400000Y-101915000D02*
X153600000Y-101915000D01*
D11*
%TO.C,C6013*%
X157060000Y-102509420D02*
X157060000Y-102790580D01*
X158080000Y-102509420D02*
X158080000Y-102790580D01*
%TO.C,C3011*%
X186497164Y-141410000D02*
X186712836Y-141410000D01*
X186497164Y-142130000D02*
X186712836Y-142130000D01*
%TO.C,C5003*%
X181842164Y-97340000D02*
X182057836Y-97340000D01*
X181842164Y-98060000D02*
X182057836Y-98060000D01*
%TO.C,C3018*%
X189475000Y-139242164D02*
X189475000Y-139457836D01*
X190195000Y-139242164D02*
X190195000Y-139457836D01*
%TO.C,R1056*%
X161428000Y-158623641D02*
X161428000Y-158316359D01*
X162188000Y-158623641D02*
X162188000Y-158316359D01*
%TO.C,R6018*%
X149683641Y-123105000D02*
X149376359Y-123105000D01*
X149683641Y-123865000D02*
X149376359Y-123865000D01*
%TO.C,R3008*%
X137923641Y-121500000D02*
X137616359Y-121500000D01*
X137923641Y-122260000D02*
X137616359Y-122260000D01*
%TO.C,R3007*%
X181120000Y-143673641D02*
X181120000Y-143366359D01*
X181880000Y-143673641D02*
X181880000Y-143366359D01*
D13*
%TO.C,J6003*%
X148775000Y-84000000D02*
X163525000Y-84000000D01*
X148775000Y-87100000D02*
X148775000Y-84000000D01*
X148775000Y-97000000D02*
X148775000Y-89800000D01*
D14*
X158325000Y-99800000D02*
X158325000Y-99800000D01*
X158525000Y-99800000D02*
X158525000Y-99800000D01*
D13*
X162025000Y-98500000D02*
X159025000Y-98500000D01*
X163525000Y-84000000D02*
X163525000Y-87100000D01*
X163525000Y-89800000D02*
X163525000Y-97000000D01*
D14*
X158325000Y-99800000D02*
G75*
G02*
X158525000Y-99800000I100000J0D01*
G01*
X158525000Y-99800000D02*
G75*
G02*
X158325000Y-99800000I-100000J0D01*
G01*
D11*
%TO.C,R6029*%
X150320000Y-103588641D02*
X150320000Y-103281359D01*
X151080000Y-103588641D02*
X151080000Y-103281359D01*
%TO.C,R1052*%
X135120000Y-121736359D02*
X135120000Y-122043641D01*
X135880000Y-121736359D02*
X135880000Y-122043641D01*
D13*
%TO.C,D6012*%
X149200000Y-101915000D02*
X149200000Y-100955000D01*
X150000000Y-100955000D02*
X150000000Y-101915000D01*
X150000000Y-101915000D02*
X149200000Y-101915000D01*
D11*
%TO.C,C6002*%
X166060000Y-141112836D02*
X166060000Y-140897164D01*
X166780000Y-141112836D02*
X166780000Y-140897164D01*
%TO.C,R5027*%
X202090000Y-110472936D02*
X202090000Y-111927064D01*
X203910000Y-110472936D02*
X203910000Y-111927064D01*
D13*
%TO.C,D6006*%
X161240000Y-101915000D02*
X161240000Y-100955000D01*
X162040000Y-100955000D02*
X162040000Y-101915000D01*
X162040000Y-101915000D02*
X161240000Y-101915000D01*
D11*
%TO.C,TP3001*%
X185687500Y-128000000D02*
X185687500Y-129400000D01*
X185687500Y-129400000D02*
X187087500Y-129400000D01*
X187087500Y-128000000D02*
X185687500Y-128000000D01*
X187087500Y-129400000D02*
X187087500Y-128000000D01*
%TO.C,C5021*%
X199265000Y-110488748D02*
X199265000Y-111911252D01*
X201085000Y-110488748D02*
X201085000Y-111911252D01*
%TO.C,R3012*%
X188944266Y-115445000D02*
X188636984Y-115445000D01*
X188944266Y-116205000D02*
X188636984Y-116205000D01*
%TO.C,R1055*%
X162816000Y-158623641D02*
X162816000Y-158316359D01*
X163576000Y-158623641D02*
X163576000Y-158316359D01*
%TO.C,C3108*%
X131117836Y-107840000D02*
X130902164Y-107840000D01*
X131117836Y-108560000D02*
X130902164Y-108560000D01*
%TO.C,R6017*%
X196503641Y-124990000D02*
X196196359Y-124990000D01*
X196503641Y-125750000D02*
X196196359Y-125750000D01*
%TO.C,L3002*%
X178061252Y-134684446D02*
X177538748Y-134684446D01*
X178061252Y-136904446D02*
X177538748Y-136904446D01*
%TO.C,C6009*%
X159500000Y-138082836D02*
X159500000Y-137867164D01*
X160220000Y-138082836D02*
X160220000Y-137867164D01*
%TO.C,C4001*%
X150703492Y-149847820D02*
X150703492Y-149632148D01*
X151423492Y-149847820D02*
X151423492Y-149632148D01*
%TO.C,R5031*%
X177645000Y-89103641D02*
X177645000Y-88796359D01*
X178405000Y-89103641D02*
X178405000Y-88796359D01*
%TO.C,C3111*%
X135077836Y-107840000D02*
X134862164Y-107840000D01*
X135077836Y-108560000D02*
X134862164Y-108560000D01*
%TO.C,Q5001*%
X179220000Y-90440000D02*
X180520000Y-90440000D01*
X179220000Y-92240000D02*
X180520000Y-92240000D01*
D10*
X181195000Y-90830000D02*
G75*
G02*
X181045000Y-90830000I-75000J0D01*
G01*
X181045000Y-90830000D02*
G75*
G02*
X181195000Y-90830000I75000J0D01*
G01*
D11*
%TO.C,C3009*%
X176090000Y-142638748D02*
X176090000Y-143161252D01*
X177560000Y-142638748D02*
X177560000Y-143161252D01*
%TO.C,TP3003*%
X173525000Y-141225000D02*
X173525000Y-142625000D01*
X173525000Y-142625000D02*
X174925000Y-142625000D01*
X174925000Y-141225000D02*
X173525000Y-141225000D01*
X174925000Y-142625000D02*
X174925000Y-141225000D01*
%TO.C,U3002*%
D15*
X190166625Y-117002000D02*
X191666625Y-117002000D01*
X191666625Y-119102000D01*
X190166625Y-119102000D01*
X190166625Y-117002000D01*
D13*
X190466625Y-116702000D02*
G75*
G02*
X190366625Y-116702000I-50000J0D01*
G01*
X190366625Y-116702000D02*
G75*
G02*
X190466625Y-116702000I50000J0D01*
G01*
D11*
%TO.C,R1054*%
X160040000Y-158623641D02*
X160040000Y-158316359D01*
X160800000Y-158623641D02*
X160800000Y-158316359D01*
%TO.C,R5028*%
X181345000Y-91181359D02*
X181345000Y-91488641D01*
X182105000Y-91181359D02*
X182105000Y-91488641D01*
%TO.C,C3051*%
X158942164Y-119070000D02*
X159157836Y-119070000D01*
X158942164Y-119790000D02*
X159157836Y-119790000D01*
%TO.C,C4005*%
X138699492Y-149745564D02*
X138699492Y-149464404D01*
X139719492Y-149745564D02*
X139719492Y-149464404D01*
%TO.C,FB4001*%
X152967133Y-149849984D02*
X152659851Y-149849984D01*
X152967133Y-150609984D02*
X152659851Y-150609984D01*
%TO.C,FB5002*%
X175626359Y-103270000D02*
X175933641Y-103270000D01*
X175626359Y-104030000D02*
X175933641Y-104030000D01*
%TO.C,C3010*%
X186440000Y-133127836D02*
X186440000Y-132912164D01*
X187160000Y-133127836D02*
X187160000Y-132912164D01*
%TO.C,R3011*%
X193613641Y-115440000D02*
X193306359Y-115440000D01*
X193613641Y-116200000D02*
X193306359Y-116200000D01*
%TO.C,R6027*%
X153620000Y-103588641D02*
X153620000Y-103281359D01*
X154380000Y-103588641D02*
X154380000Y-103281359D01*
%TO.C,D5002*%
X171400000Y-88800000D02*
X171400000Y-90760000D01*
X172600000Y-88800000D02*
X172600000Y-90760000D01*
X172600000Y-90760000D02*
X171400000Y-90760000D01*
%TO.C,R1018*%
X129670000Y-135693641D02*
X129670000Y-135386359D01*
X130430000Y-135693641D02*
X130430000Y-135386359D01*
%TO.C,C5012*%
X174620000Y-105142164D02*
X174620000Y-105357836D01*
X175340000Y-105142164D02*
X175340000Y-105357836D01*
%TO.C,L3001*%
X182590000Y-131886252D02*
X182590000Y-131363748D01*
X184810000Y-131886252D02*
X184810000Y-131363748D01*
%TO.C,R3010*%
X191593641Y-115445000D02*
X191286359Y-115445000D01*
X191593641Y-116205000D02*
X191286359Y-116205000D01*
%TO.C,TP3005*%
X190266000Y-141683000D02*
X190266000Y-143083000D01*
X190266000Y-143083000D02*
X191666000Y-143083000D01*
X191666000Y-141683000D02*
X190266000Y-141683000D01*
X191666000Y-143083000D02*
X191666000Y-141683000D01*
%TO.C,TP3002*%
X173550000Y-132775000D02*
X173550000Y-134175000D01*
X173550000Y-134175000D02*
X174950000Y-134175000D01*
X174950000Y-132775000D02*
X173550000Y-132775000D01*
X174950000Y-134175000D02*
X174950000Y-132775000D01*
%TO.C,R6019*%
X166520000Y-145103641D02*
X166520000Y-144796359D01*
X167280000Y-145103641D02*
X167280000Y-144796359D01*
%TO.C,FB3007*%
X130856359Y-106750000D02*
X131163641Y-106750000D01*
X130856359Y-107510000D02*
X131163641Y-107510000D01*
%TO.C,C6004*%
X163927836Y-138585000D02*
X163712164Y-138585000D01*
X163927836Y-139305000D02*
X163712164Y-139305000D01*
%TO.C,R6020*%
X164603641Y-141015000D02*
X164296359Y-141015000D01*
X164603641Y-141775000D02*
X164296359Y-141775000D01*
%TO.C,D6005*%
X157850000Y-145965000D02*
X157850000Y-144765000D01*
X159810000Y-144765000D02*
X157850000Y-144765000D01*
X159810000Y-145965000D02*
X157850000Y-145965000D01*
%TO.C,C5010*%
X179187836Y-98660000D02*
X178972164Y-98660000D01*
X179187836Y-99380000D02*
X178972164Y-99380000D01*
%TO.C,C3073*%
X143570000Y-103677836D02*
X143570000Y-103462164D01*
X144290000Y-103677836D02*
X144290000Y-103462164D01*
%TO.C,L3003*%
X178061252Y-138484446D02*
X177538748Y-138484446D01*
X178061252Y-140704446D02*
X177538748Y-140704446D01*
%TO.C,C3020*%
X188898461Y-114340000D02*
X188682789Y-114340000D01*
X188898461Y-115060000D02*
X188682789Y-115060000D01*
%TO.C,C3006*%
X176090000Y-132780698D02*
X176090000Y-132258194D01*
X177560000Y-132780698D02*
X177560000Y-132258194D01*
%TO.C,D6004*%
X157850000Y-144245000D02*
X157850000Y-143045000D01*
X159810000Y-143045000D02*
X157850000Y-143045000D01*
X159810000Y-144245000D02*
X157850000Y-144245000D01*
%TO.C,R1058*%
X155876000Y-158623641D02*
X155876000Y-158316359D01*
X156636000Y-158623641D02*
X156636000Y-158316359D01*
%TO.C,C3090*%
X164015000Y-117312836D02*
X164015000Y-117097164D01*
X164735000Y-117312836D02*
X164735000Y-117097164D01*
%TO.C,R5030*%
X181345000Y-88846359D02*
X181345000Y-89153641D01*
X182105000Y-88846359D02*
X182105000Y-89153641D01*
%TO.C,C3052*%
X158952164Y-118020000D02*
X159167836Y-118020000D01*
X158952164Y-118740000D02*
X159167836Y-118740000D01*
D13*
%TO.C,D6011*%
X150300000Y-101915000D02*
X150300000Y-100955000D01*
X151100000Y-100955000D02*
X151100000Y-101915000D01*
X151100000Y-101915000D02*
X150300000Y-101915000D01*
D11*
%TO.C,C1005*%
X133860000Y-123832164D02*
X133860000Y-124047836D01*
X134580000Y-123832164D02*
X134580000Y-124047836D01*
%TO.C,TP3004*%
X188930000Y-131182000D02*
X188930000Y-132582000D01*
X188930000Y-132582000D02*
X190330000Y-132582000D01*
X190330000Y-131182000D02*
X188930000Y-131182000D01*
X190330000Y-132582000D02*
X190330000Y-131182000D01*
%TO.C,C1006*%
X133860000Y-121997836D02*
X133860000Y-121782164D01*
X134580000Y-121997836D02*
X134580000Y-121782164D01*
%TO.C,L3004*%
X190026877Y-121550000D02*
X189504373Y-121550000D01*
X190026877Y-123770000D02*
X189504373Y-123770000D01*
%TO.C,C3022*%
X185179625Y-119611252D02*
X185179625Y-119088748D01*
X186649625Y-119611252D02*
X186649625Y-119088748D01*
%TO.C,C3021*%
X187495625Y-119611252D02*
X187495625Y-119088748D01*
X188965625Y-119611252D02*
X188965625Y-119088748D01*
%TO.C,C3032*%
X158612164Y-124690000D02*
X158827836Y-124690000D01*
X158612164Y-125410000D02*
X158827836Y-125410000D01*
%TO.C,D5001*%
X174600000Y-88800000D02*
X174600000Y-90760000D01*
X175800000Y-88800000D02*
X175800000Y-90760000D01*
X175800000Y-90760000D02*
X174600000Y-90760000D01*
%TO.C,C3016*%
X183367164Y-142480000D02*
X183582836Y-142480000D01*
X183367164Y-143200000D02*
X183582836Y-143200000D01*
D13*
%TO.C,D6010*%
X151400000Y-101915000D02*
X151400000Y-100955000D01*
X152200000Y-100955000D02*
X152200000Y-101915000D01*
X152200000Y-101915000D02*
X151400000Y-101915000D01*
%TO.C,D6007*%
X160140000Y-101915000D02*
X160140000Y-100955000D01*
X160940000Y-100955000D02*
X160940000Y-101915000D01*
X160940000Y-101915000D02*
X160140000Y-101915000D01*
D11*
%TO.C,FB3005*%
X165120000Y-113413641D02*
X165120000Y-113106359D01*
X165880000Y-113413641D02*
X165880000Y-113106359D01*
%TO.C,TP3008*%
X190238000Y-113452000D02*
X190238000Y-114852000D01*
X190238000Y-114852000D02*
X191638000Y-114852000D01*
X191638000Y-113452000D02*
X190238000Y-113452000D01*
X191638000Y-114852000D02*
X191638000Y-113452000D01*
%TO.C,R6025*%
X160160000Y-103588641D02*
X160160000Y-103281359D01*
X160920000Y-103588641D02*
X160920000Y-103281359D01*
%TO.C,R6013*%
X159146359Y-140145000D02*
X159453641Y-140145000D01*
X159146359Y-140905000D02*
X159453641Y-140905000D01*
%TO.C,C5011*%
X173520000Y-105142164D02*
X173520000Y-105357836D01*
X174240000Y-105142164D02*
X174240000Y-105357836D01*
%TO.C,R1047*%
X135120000Y-124113641D02*
X135120000Y-123806359D01*
X135880000Y-124113641D02*
X135880000Y-123806359D01*
%TO.C,C5007*%
X177360000Y-102787836D02*
X177360000Y-102572164D01*
X178080000Y-102787836D02*
X178080000Y-102572164D01*
%TO.C,C3008*%
X181302836Y-138840000D02*
X181087164Y-138840000D01*
X181302836Y-139560000D02*
X181087164Y-139560000D01*
%TO.C,R1045*%
X135150000Y-119653641D02*
X135150000Y-119346359D01*
X135910000Y-119653641D02*
X135910000Y-119346359D01*
%TO.C,FB3010*%
X165120000Y-122936359D02*
X165120000Y-123243641D01*
X165880000Y-122936359D02*
X165880000Y-123243641D01*
%TO.C,FB3008*%
X134816359Y-106750000D02*
X135123641Y-106750000D01*
X134816359Y-107510000D02*
X135123641Y-107510000D01*
%TO.C,R5029*%
X177645000Y-91236359D02*
X177645000Y-91543641D01*
X178405000Y-91236359D02*
X178405000Y-91543641D01*
%TO.C,C6001*%
X164282164Y-139605000D02*
X164497836Y-139605000D01*
X164282164Y-140325000D02*
X164497836Y-140325000D01*
%TD*%
M02*
