%TF.GenerationSoftware,KiCad,Pcbnew,9.0.1*%
%TF.CreationDate,2026-02-07T17:07:50-05:00*%
%TF.ProjectId,Leonhart,4c656f6e-6861-4727-942e-6b696361645f,rev?*%
%TF.SameCoordinates,Original*%
%TF.FileFunction,Paste,Bot*%
%TF.FilePolarity,Positive*%
%FSLAX46Y46*%
G04 Gerber Fmt 4.6, Leading zero omitted, Abs format (unit mm)*
G04 Created by KiCad (PCBNEW 9.0.1) date 2026-02-07 17:07:50*
%MOMM*%
%LPD*%
G01*
G04 APERTURE LIST*
G04 Aperture macros list*
%AMRoundRect*
0 Rectangle with rounded corners*
0 $1 Rounding radius*
0 $2 $3 $4 $5 $6 $7 $8 $9 X,Y pos of 4 corners*
0 Add a 4 corners polygon primitive as box body*
4,1,4,$2,$3,$4,$5,$6,$7,$8,$9,$2,$3,0*
0 Add four circle primitives for the rounded corners*
1,1,$1+$1,$2,$3*
1,1,$1+$1,$4,$5*
1,1,$1+$1,$6,$7*
1,1,$1+$1,$8,$9*
0 Add four rect primitives between the rounded corners*
20,1,$1+$1,$2,$3,$4,$5,0*
20,1,$1+$1,$4,$5,$6,$7,0*
20,1,$1+$1,$6,$7,$8,$9,0*
20,1,$1+$1,$8,$9,$2,$3,0*%
G04 Aperture macros list end*
%ADD10RoundRect,0.135000X-0.185000X0.135000X-0.185000X-0.135000X0.185000X-0.135000X0.185000X0.135000X0*%
%ADD11RoundRect,0.150000X-0.200000X0.150000X-0.200000X-0.150000X0.200000X-0.150000X0.200000X0.150000X0*%
%ADD12RoundRect,0.140000X0.170000X-0.140000X0.170000X0.140000X-0.170000X0.140000X-0.170000X-0.140000X0*%
%ADD13RoundRect,0.079500X0.100500X-0.079500X0.100500X0.079500X-0.100500X0.079500X-0.100500X-0.079500X0*%
%ADD14RoundRect,0.135000X0.185000X-0.135000X0.185000X0.135000X-0.185000X0.135000X-0.185000X-0.135000X0*%
%ADD15RoundRect,0.140000X-0.170000X0.140000X-0.170000X-0.140000X0.170000X-0.140000X0.170000X0.140000X0*%
%ADD16RoundRect,0.140000X0.140000X0.170000X-0.140000X0.170000X-0.140000X-0.170000X0.140000X-0.170000X0*%
%ADD17RoundRect,0.079500X-0.100500X0.079500X-0.100500X-0.079500X0.100500X-0.079500X0.100500X0.079500X0*%
%ADD18RoundRect,0.079500X-0.114525X-0.057486X0.029578X-0.124682X0.114525X0.057486X-0.029578X0.124682X0*%
%ADD19RoundRect,0.140000X-0.140000X-0.170000X0.140000X-0.170000X0.140000X0.170000X-0.140000X0.170000X0*%
%ADD20RoundRect,0.135000X-0.135000X-0.185000X0.135000X-0.185000X0.135000X0.185000X-0.135000X0.185000X0*%
%ADD21RoundRect,0.079500X0.079500X0.100500X-0.079500X0.100500X-0.079500X-0.100500X0.079500X-0.100500X0*%
%ADD22RoundRect,0.250000X1.045000X-0.785000X1.045000X0.785000X-1.045000X0.785000X-1.045000X-0.785000X0*%
%ADD23RoundRect,0.135000X0.135000X0.185000X-0.135000X0.185000X-0.135000X-0.185000X0.135000X-0.185000X0*%
%ADD24RoundRect,0.079500X-0.079500X-0.100500X0.079500X-0.100500X0.079500X0.100500X-0.079500X0.100500X0*%
%ADD25R,0.800000X0.900000*%
%ADD26RoundRect,0.079500X0.014849X-0.127279X0.127279X-0.014849X-0.014849X0.127279X-0.127279X0.014849X0*%
%ADD27RoundRect,0.079500X-0.127279X-0.014849X-0.014849X-0.127279X0.127279X0.014849X0.014849X0.127279X0*%
%ADD28R,0.300000X0.800000*%
%ADD29R,0.800000X0.300000*%
%ADD30R,3.800000X3.800000*%
%ADD31RoundRect,0.150000X0.150000X0.200000X-0.150000X0.200000X-0.150000X-0.200000X0.150000X-0.200000X0*%
%ADD32RoundRect,0.079500X0.112778X-0.060841X0.085168X0.095744X-0.112778X0.060841X-0.085168X-0.095744X0*%
%ADD33RoundRect,0.225000X-0.250000X0.225000X-0.250000X-0.225000X0.250000X-0.225000X0.250000X0.225000X0*%
%ADD34RoundRect,0.060000X-0.190000X0.140000X-0.190000X-0.140000X0.190000X-0.140000X0.190000X0.140000X0*%
%ADD35RoundRect,0.250000X0.250000X0.475000X-0.250000X0.475000X-0.250000X-0.475000X0.250000X-0.475000X0*%
%ADD36RoundRect,0.079500X0.087957X0.093189X-0.070438X0.107046X-0.087957X-0.093189X0.070438X-0.107046X0*%
%ADD37RoundRect,0.100000X-0.155000X-0.100000X0.155000X-0.100000X0.155000X0.100000X-0.155000X0.100000X0*%
%ADD38RoundRect,0.079500X-0.127924X0.007478X-0.036725X-0.122767X0.127924X-0.007478X0.036725X0.122767X0*%
%ADD39RoundRect,0.175000X-0.175000X-0.525000X0.175000X-0.525000X0.175000X0.525000X-0.175000X0.525000X0*%
%ADD40RoundRect,0.250000X-0.350000X-0.850000X0.350000X-0.850000X0.350000X0.850000X-0.350000X0.850000X0*%
%ADD41RoundRect,0.250000X-0.550000X0.450000X-0.550000X-0.450000X0.550000X-0.450000X0.550000X0.450000X0*%
%ADD42RoundRect,0.250000X-0.625000X0.312500X-0.625000X-0.312500X0.625000X-0.312500X0.625000X0.312500X0*%
%ADD43RoundRect,0.250000X-0.650000X0.325000X-0.650000X-0.325000X0.650000X-0.325000X0.650000X0.325000X0*%
%ADD44RoundRect,0.250000X0.375000X0.850000X-0.375000X0.850000X-0.375000X-0.850000X0.375000X-0.850000X0*%
%ADD45RoundRect,0.250000X-0.475000X0.250000X-0.475000X-0.250000X0.475000X-0.250000X0.475000X0.250000X0*%
%ADD46RoundRect,0.079500X0.047286X-0.119099X0.126786X0.018599X-0.047286X0.119099X-0.126786X-0.018599X0*%
%ADD47RoundRect,0.062500X-0.062500X0.237500X-0.062500X-0.237500X0.062500X-0.237500X0.062500X0.237500X0*%
%ADD48RoundRect,0.050000X-0.050000X0.450000X-0.050000X-0.450000X0.050000X-0.450000X0.050000X0.450000X0*%
%ADD49RoundRect,0.079500X0.127924X-0.007478X0.036725X0.122767X-0.127924X0.007478X-0.036725X-0.122767X0*%
%ADD50RoundRect,0.225000X0.250000X-0.225000X0.250000X0.225000X-0.250000X0.225000X-0.250000X-0.225000X0*%
%ADD51RoundRect,0.079500X0.067249X-0.109079X0.121630X0.040333X-0.067249X0.109079X-0.121630X-0.040333X0*%
%ADD52RoundRect,0.250000X0.850000X-0.375000X0.850000X0.375000X-0.850000X0.375000X-0.850000X-0.375000X0*%
%ADD53RoundRect,0.079500X-0.040333X-0.121630X0.109079X-0.067249X0.040333X0.121630X-0.109079X0.067249X0*%
%ADD54RoundRect,0.079500X-0.029578X-0.124682X0.114525X-0.057486X0.029578X0.124682X-0.114525X0.057486X0*%
%ADD55RoundRect,0.250000X0.475000X-0.250000X0.475000X0.250000X-0.475000X0.250000X-0.475000X-0.250000X0*%
%ADD56RoundRect,0.079500X-0.067249X0.109079X-0.121630X-0.040333X0.067249X-0.109079X0.121630X0.040333X0*%
G04 APERTURE END LIST*
D10*
%TO.C,R1061*%
X134433000Y-139661000D03*
X134433000Y-140681000D03*
%TD*%
D11*
%TO.C,D1004*%
X109411000Y-135111000D03*
X109411000Y-133711000D03*
%TD*%
D12*
%TO.C,C3002*%
X161151000Y-115211000D03*
X161151000Y-114251000D03*
%TD*%
D13*
%TO.C,C3074*%
X118801000Y-85726001D03*
X118800999Y-85036000D03*
%TD*%
D10*
%TO.C,R1019*%
X114561000Y-92671000D03*
X114561000Y-93691000D03*
%TD*%
D14*
%TO.C,R6026*%
X134841000Y-85646000D03*
X134841000Y-84626000D03*
%TD*%
D15*
%TO.C,C3015*%
X160851000Y-124461000D03*
X160851000Y-125421000D03*
%TD*%
D14*
%TO.C,R3013*%
X162591625Y-97471000D03*
X162591625Y-96451000D03*
%TD*%
D16*
%TO.C,C3012*%
X160206000Y-123471000D03*
X159246000Y-123471000D03*
%TD*%
D17*
%TO.C,C3047*%
X122031000Y-105001000D03*
X122031000Y-105691000D03*
%TD*%
%TO.C,C4020*%
X128164492Y-134915984D03*
X128164492Y-135605984D03*
%TD*%
D12*
%TO.C,C3099*%
X139776000Y-103333200D03*
X139776000Y-102373200D03*
%TD*%
D16*
%TO.C,C6005*%
X137451000Y-126196000D03*
X136491000Y-126196000D03*
%TD*%
D13*
%TO.C,C3062*%
X139971000Y-92466000D03*
X139971000Y-91776000D03*
%TD*%
D14*
%TO.C,FB3003*%
X140901000Y-101376000D03*
X140901000Y-100356000D03*
%TD*%
D18*
%TO.C,C3120*%
X116868324Y-105155196D03*
X117493676Y-105446804D03*
%TD*%
D19*
%TO.C,C5006*%
X156881000Y-75226000D03*
X157841000Y-75226000D03*
%TD*%
D13*
%TO.C,C4007*%
X124634492Y-125335984D03*
X124634492Y-124645984D03*
%TD*%
D16*
%TO.C,C3005*%
X157081000Y-118101000D03*
X156121000Y-118101000D03*
%TD*%
D13*
%TO.C,C3077*%
X118661000Y-98956000D03*
X118661000Y-98266000D03*
%TD*%
D14*
%TO.C,R1057*%
X133045000Y-140681000D03*
X133045000Y-139661000D03*
%TD*%
D19*
%TO.C,C5004*%
X156881000Y-78101000D03*
X157841000Y-78101000D03*
%TD*%
D17*
%TO.C,C3102*%
X139301000Y-94426000D03*
X139301000Y-95116000D03*
%TD*%
D20*
%TO.C,R3009*%
X112661000Y-104551000D03*
X113681000Y-104551000D03*
%TD*%
D21*
%TO.C,C4018*%
X123550492Y-134270984D03*
X122860492Y-134270984D03*
%TD*%
%TO.C,C3116*%
X115741000Y-104696000D03*
X115051000Y-104696000D03*
%TD*%
%TO.C,C3076*%
X115891000Y-101426000D03*
X115201000Y-101426000D03*
%TD*%
D14*
%TO.C,FB3006*%
X140901000Y-97431000D03*
X140901000Y-96411000D03*
%TD*%
D22*
%TO.C,C6012*%
X164740000Y-132700000D03*
X164740000Y-126460000D03*
%TD*%
D17*
%TO.C,C4021*%
X126784492Y-134910984D03*
X126784492Y-135600984D03*
%TD*%
D15*
%TO.C,C3014*%
X163576000Y-123301554D03*
X163576000Y-124261554D03*
%TD*%
D23*
%TO.C,R6016*%
X172261000Y-109491000D03*
X171241000Y-109491000D03*
%TD*%
D19*
%TO.C,C5005*%
X156881000Y-76501000D03*
X157841000Y-76501000D03*
%TD*%
D21*
%TO.C,C3031*%
X115741000Y-103971000D03*
X115051000Y-103971000D03*
%TD*%
D24*
%TO.C,C3038*%
X120051000Y-101535999D03*
X120741000Y-101535999D03*
%TD*%
%TO.C,C4013*%
X117494492Y-132570984D03*
X118184492Y-132570984D03*
%TD*%
D21*
%TO.C,C3070*%
X115866000Y-103346000D03*
X115176000Y-103346000D03*
%TD*%
D12*
%TO.C,C3013*%
X163301000Y-115206000D03*
X163301000Y-114246000D03*
%TD*%
D10*
%TO.C,R1053*%
X109621000Y-100691000D03*
X109621000Y-101711000D03*
%TD*%
D15*
%TO.C,C3082*%
X110381000Y-116236000D03*
X110381000Y-117196000D03*
%TD*%
D10*
%TO.C,FB3002*%
X140901000Y-106239400D03*
X140901000Y-107259400D03*
%TD*%
D16*
%TO.C,C5009*%
X154961000Y-82711000D03*
X154001000Y-82711000D03*
%TD*%
D25*
%TO.C,X1002*%
X108241000Y-104461000D03*
X108241000Y-105861000D03*
X107141000Y-105861000D03*
X107141000Y-104461000D03*
%TD*%
D13*
%TO.C,C3054*%
X120301000Y-102841000D03*
X120301000Y-102151000D03*
%TD*%
D26*
%TO.C,C3107*%
X121613323Y-101253678D03*
X122101227Y-100765774D03*
%TD*%
D21*
%TO.C,C3065*%
X115826000Y-102366000D03*
X115136000Y-102366000D03*
%TD*%
D10*
%TO.C,R1059*%
X109411000Y-136371000D03*
X109411000Y-137391000D03*
%TD*%
D19*
%TO.C,C3033*%
X133641000Y-105261000D03*
X134601000Y-105261000D03*
%TD*%
%TO.C,C6003*%
X138831000Y-126186000D03*
X139791000Y-126186000D03*
%TD*%
D23*
%TO.C,R3014*%
X164701625Y-98661000D03*
X163681625Y-98661000D03*
%TD*%
D26*
%TO.C,C3069*%
X122901693Y-98934597D03*
X123389597Y-98446693D03*
%TD*%
D24*
%TO.C,C3049*%
X133776000Y-106831000D03*
X134466000Y-106831000D03*
%TD*%
D27*
%TO.C,C3039*%
X122412403Y-104396693D03*
X122900307Y-104884597D03*
%TD*%
D21*
%TO.C,C3060*%
X117646000Y-100315999D03*
X116956003Y-100315999D03*
%TD*%
D15*
%TO.C,C6014*%
X131631000Y-83301000D03*
X131631000Y-84261000D03*
%TD*%
D19*
%TO.C,C5008*%
X148561000Y-80361000D03*
X149521000Y-80361000D03*
%TD*%
D28*
%TO.C,U3001*%
X159351000Y-116651000D03*
X159851000Y-116651000D03*
X160351000Y-116651000D03*
X160851000Y-116651000D03*
X161351000Y-116651000D03*
X161851000Y-116651000D03*
X162351000Y-116651000D03*
X162851000Y-116651000D03*
D29*
X163601000Y-117401000D03*
X163601000Y-117901000D03*
X163601000Y-118401000D03*
X163601000Y-118901000D03*
X163601000Y-119401000D03*
X163601000Y-119901000D03*
X163601000Y-120401000D03*
X163601000Y-120901000D03*
D28*
X162851000Y-121651000D03*
X162351000Y-121651000D03*
X161851000Y-121651000D03*
X161351000Y-121651000D03*
X160851000Y-121651000D03*
X160351000Y-121651000D03*
X159851000Y-121651000D03*
X159351000Y-121651000D03*
D29*
X158601000Y-120901000D03*
X158601000Y-120401000D03*
X158601000Y-119901000D03*
X158601000Y-119401000D03*
X158601000Y-118901000D03*
X158601000Y-118401000D03*
X158601000Y-117901000D03*
X158601000Y-117401000D03*
D30*
X161101000Y-119151000D03*
%TD*%
D13*
%TO.C,C3027*%
X121401000Y-105421000D03*
X121401000Y-104731000D03*
%TD*%
D15*
%TO.C,C3096*%
X139776000Y-100351000D03*
X139776000Y-101311000D03*
%TD*%
D20*
%TO.C,FB3009*%
X107881000Y-88831000D03*
X108901000Y-88831000D03*
%TD*%
D14*
%TO.C,R6028*%
X127201000Y-85646000D03*
X127201000Y-84626000D03*
%TD*%
%TO.C,R6030*%
X125001000Y-85646000D03*
X125001000Y-84626000D03*
%TD*%
%TO.C,FB5001*%
X155776000Y-77796000D03*
X155776000Y-76776000D03*
%TD*%
D16*
%TO.C,C3114*%
X108871000Y-89901000D03*
X107911000Y-89901000D03*
%TD*%
D31*
%TO.C,D6003*%
X133811000Y-123626000D03*
X135211000Y-123626000D03*
%TD*%
D32*
%TO.C,C3028*%
X116491668Y-99264441D03*
X116371851Y-98584924D03*
%TD*%
D10*
%TO.C,FB3004*%
X140901000Y-102325200D03*
X140901000Y-103345200D03*
%TD*%
D15*
%TO.C,C3083*%
X109091000Y-116246000D03*
X109091000Y-117206000D03*
%TD*%
D13*
%TO.C,C3100*%
X138907600Y-103349400D03*
X138907600Y-102659400D03*
%TD*%
D14*
%TO.C,R6024*%
X137041000Y-85646000D03*
X137041000Y-84626000D03*
%TD*%
D15*
%TO.C,C5014*%
X153081000Y-86471000D03*
X153081000Y-87431000D03*
%TD*%
D13*
%TO.C,C3056*%
X119951000Y-100841000D03*
X119951000Y-100151000D03*
%TD*%
D11*
%TO.C,D5003*%
X149001000Y-71901000D03*
X149001000Y-70501000D03*
%TD*%
D21*
%TO.C,C3059*%
X117906000Y-102276000D03*
X117216000Y-102276000D03*
%TD*%
D23*
%TO.C,R6015*%
X130101000Y-103566000D03*
X129081000Y-103566000D03*
%TD*%
D13*
%TO.C,C3036*%
X118901000Y-102861000D03*
X118901000Y-102171000D03*
%TD*%
D24*
%TO.C,C3025*%
X122806000Y-99856000D03*
X123496000Y-99856000D03*
%TD*%
D15*
%TO.C,C6015*%
X130541000Y-83301000D03*
X130541000Y-84261000D03*
%TD*%
D19*
%TO.C,C5015*%
X148578000Y-82713000D03*
X149538000Y-82713000D03*
%TD*%
D13*
%TO.C,C3091*%
X138891400Y-99406000D03*
X138891400Y-98716000D03*
%TD*%
D14*
%TO.C,R6012*%
X141071000Y-127166000D03*
X141071000Y-126146000D03*
%TD*%
D17*
%TO.C,C3086*%
X118391000Y-104177000D03*
X118391000Y-104867000D03*
%TD*%
D33*
%TO.C,C6006*%
X171401000Y-111751000D03*
X171401000Y-113301000D03*
%TD*%
D12*
%TO.C,C6008*%
X136331000Y-120156000D03*
X136331000Y-119196000D03*
%TD*%
D19*
%TO.C,C3017*%
X165176000Y-119401000D03*
X166136000Y-119401000D03*
%TD*%
D13*
%TO.C,C3057*%
X118891000Y-100796000D03*
X118891000Y-100106000D03*
%TD*%
D34*
%TO.C,D6008*%
X134841000Y-83366000D03*
X134841000Y-82566000D03*
%TD*%
D10*
%TO.C,FB3001*%
X140901000Y-98371000D03*
X140901000Y-99391000D03*
%TD*%
D21*
%TO.C,C3115*%
X108836000Y-90811000D03*
X108146000Y-90811000D03*
%TD*%
D35*
%TO.C,C3003*%
X158501000Y-110001000D03*
X156601000Y-110001000D03*
%TD*%
D15*
%TO.C,C6007*%
X169951000Y-111921000D03*
X169951000Y-112881000D03*
%TD*%
D36*
%TO.C,C3075*%
X117611000Y-103881000D03*
X116923627Y-103820862D03*
%TD*%
D37*
%TO.C,Q5002*%
X155916000Y-70201000D03*
X155916000Y-71201000D03*
X154626000Y-70701000D03*
%TD*%
D13*
%TO.C,C3053*%
X119531000Y-102846000D03*
X119531000Y-102156000D03*
%TD*%
D24*
%TO.C,C3064*%
X122801000Y-100476000D03*
X123491000Y-100476000D03*
%TD*%
D15*
%TO.C,C5013*%
X151981000Y-86471000D03*
X151981000Y-87431000D03*
%TD*%
D19*
%TO.C,C5017*%
X148781000Y-83991000D03*
X149741000Y-83991000D03*
%TD*%
D13*
%TO.C,C4006*%
X124634492Y-121326000D03*
X124634492Y-120636000D03*
%TD*%
D15*
%TO.C,C5016*%
X148061000Y-85021000D03*
X148061000Y-85981000D03*
%TD*%
D12*
%TO.C,C3061*%
X140901000Y-92491000D03*
X140901000Y-91531000D03*
%TD*%
D21*
%TO.C,C3045*%
X117906000Y-102891000D03*
X117216000Y-102891000D03*
%TD*%
D16*
%TO.C,C1009*%
X136707000Y-134301000D03*
X135747000Y-134301000D03*
%TD*%
D15*
%TO.C,C3105*%
X139776000Y-96421000D03*
X139776000Y-97381000D03*
%TD*%
D34*
%TO.C,D6009*%
X129401000Y-83366000D03*
X129401000Y-82566000D03*
%TD*%
D13*
%TO.C,C3093*%
X139901000Y-107276000D03*
X139901000Y-106586000D03*
%TD*%
D21*
%TO.C,C3119*%
X122891000Y-103396000D03*
X122201000Y-103396000D03*
%TD*%
D13*
%TO.C,C4002*%
X125454492Y-131750984D03*
X125454492Y-131060984D03*
%TD*%
D26*
%TO.C,C3043*%
X121611693Y-100386001D03*
X122099597Y-99898097D03*
%TD*%
D13*
%TO.C,C4014*%
X117434492Y-131725984D03*
X117434492Y-131035984D03*
%TD*%
D33*
%TO.C,C6013*%
X132971000Y-83576000D03*
X132971000Y-85126000D03*
%TD*%
D19*
%TO.C,C3011*%
X161526000Y-123471000D03*
X162486000Y-123471000D03*
%TD*%
%TO.C,C5003*%
X156871000Y-79401000D03*
X157831000Y-79401000D03*
%TD*%
D13*
%TO.C,C4008*%
X124634492Y-127725984D03*
X124634492Y-127035984D03*
%TD*%
D15*
%TO.C,C3018*%
X165236000Y-120571000D03*
X165236000Y-121531000D03*
%TD*%
D14*
%TO.C,R1056*%
X137209000Y-140681000D03*
X137209000Y-139661000D03*
%TD*%
D23*
%TO.C,R6018*%
X125441000Y-105186000D03*
X124421000Y-105186000D03*
%TD*%
D38*
%TO.C,C3023*%
X116484073Y-101070785D03*
X116879841Y-101636000D03*
%TD*%
D23*
%TO.C,R3008*%
X113681000Y-103581000D03*
X112661000Y-103581000D03*
%TD*%
D13*
%TO.C,C3030*%
X116481001Y-102961000D03*
X116481001Y-102271000D03*
%TD*%
D14*
%TO.C,R3007*%
X156901000Y-125731000D03*
X156901000Y-124711000D03*
%TD*%
D21*
%TO.C,C3122*%
X115811000Y-100436000D03*
X115121000Y-100436000D03*
%TD*%
%TO.C,C4017*%
X118979492Y-127770984D03*
X118289492Y-127770984D03*
%TD*%
D39*
%TO.C,J6003*%
X133801000Y-80301000D03*
X132701000Y-80301000D03*
X131601000Y-80301000D03*
X130501000Y-80301000D03*
X129401000Y-80301000D03*
X128301000Y-80301000D03*
X127201000Y-80301000D03*
X126101000Y-80301000D03*
X125001000Y-80301000D03*
D40*
X123801000Y-70101000D03*
X139301000Y-70101000D03*
D41*
X123551000Y-79701000D03*
X138401000Y-79701000D03*
%TD*%
D14*
%TO.C,R6029*%
X126101000Y-85646000D03*
X126101000Y-84626000D03*
%TD*%
D17*
%TO.C,C3042*%
X119011000Y-104184000D03*
X119011000Y-104874000D03*
%TD*%
D21*
%TO.C,R4009*%
X123549492Y-135330984D03*
X122859492Y-135330984D03*
%TD*%
D10*
%TO.C,R1052*%
X110901000Y-103081000D03*
X110901000Y-104101000D03*
%TD*%
D21*
%TO.C,C3055*%
X120309000Y-103466000D03*
X119619000Y-103466000D03*
%TD*%
D34*
%TO.C,D6012*%
X125001000Y-83366000D03*
X125001000Y-82566000D03*
%TD*%
D17*
%TO.C,C3103*%
X140021000Y-94426000D03*
X140021000Y-95116000D03*
%TD*%
D12*
%TO.C,C6002*%
X141821000Y-123186000D03*
X141821000Y-122226000D03*
%TD*%
D42*
%TO.C,R5027*%
X178401000Y-91438500D03*
X178401000Y-94363500D03*
%TD*%
D13*
%TO.C,R4002*%
X118191000Y-125171000D03*
X118191000Y-124481000D03*
%TD*%
D34*
%TO.C,D6006*%
X137041000Y-83366000D03*
X137041000Y-82566000D03*
%TD*%
D18*
%TO.C,C3078*%
X123109455Y-102504394D03*
X123734807Y-102796001D03*
%TD*%
D17*
%TO.C,C3095*%
X121541000Y-103361000D03*
X121541000Y-104051000D03*
%TD*%
D43*
%TO.C,C5021*%
X175576000Y-91426000D03*
X175576000Y-94376000D03*
%TD*%
D23*
%TO.C,R3012*%
X164701625Y-97526000D03*
X163681625Y-97526000D03*
%TD*%
D14*
%TO.C,R1055*%
X138597000Y-140681000D03*
X138597000Y-139661000D03*
%TD*%
D24*
%TO.C,C4009*%
X123849492Y-128580984D03*
X124539492Y-128580984D03*
%TD*%
D16*
%TO.C,C3108*%
X106891000Y-89901000D03*
X105931000Y-89901000D03*
%TD*%
D23*
%TO.C,R6017*%
X172261000Y-107071000D03*
X171241000Y-107071000D03*
%TD*%
D44*
%TO.C,L3002*%
X154276000Y-117495446D03*
X152126000Y-117495446D03*
%TD*%
D21*
%TO.C,C3109*%
X106926000Y-90791000D03*
X106236000Y-90791000D03*
%TD*%
D24*
%TO.C,C3124*%
X134006000Y-99181000D03*
X134696000Y-99181000D03*
%TD*%
D13*
%TO.C,C3037*%
X120921000Y-102976000D03*
X120921000Y-102286000D03*
%TD*%
D12*
%TO.C,C6009*%
X135261000Y-120156000D03*
X135261000Y-119196000D03*
%TD*%
%TO.C,C4001*%
X126464492Y-131920984D03*
X126464492Y-130960984D03*
%TD*%
D14*
%TO.C,R5031*%
X153426000Y-71161000D03*
X153426000Y-70141000D03*
%TD*%
D26*
%TO.C,C3026*%
X120391000Y-98826000D03*
X120878904Y-98338096D03*
%TD*%
D13*
%TO.C,C3094*%
X139126000Y-107283400D03*
X139126000Y-106593400D03*
%TD*%
D16*
%TO.C,C3111*%
X110851000Y-89901000D03*
X109891000Y-89901000D03*
%TD*%
D24*
%TO.C,C3034*%
X133776000Y-106121000D03*
X134466000Y-106121000D03*
%TD*%
%TO.C,C3058*%
X121551000Y-101966000D03*
X122241000Y-101966000D03*
%TD*%
D37*
%TO.C,Q5001*%
X155916000Y-72541000D03*
X155916000Y-73541000D03*
X154626000Y-73041000D03*
%TD*%
D45*
%TO.C,C3009*%
X152226000Y-123651000D03*
X152226000Y-125551000D03*
%TD*%
D13*
%TO.C,R4001*%
X119051000Y-125171000D03*
X119051000Y-124481000D03*
%TD*%
D24*
%TO.C,C3110*%
X118256000Y-103516000D03*
X118946000Y-103516000D03*
%TD*%
D17*
%TO.C,C3097*%
X138876000Y-100371000D03*
X138876000Y-101061000D03*
%TD*%
D46*
%TO.C,C3063*%
X120421000Y-105056000D03*
X120766000Y-104458444D03*
%TD*%
D13*
%TO.C,C4003*%
X116754492Y-120435984D03*
X116754492Y-119745984D03*
%TD*%
D47*
%TO.C,U3002*%
X166817625Y-99103000D03*
X166317625Y-99103000D03*
X165817625Y-99103000D03*
D48*
X165817625Y-100203000D03*
X166317625Y-100203000D03*
X166817625Y-100203000D03*
%TD*%
D14*
%TO.C,R1054*%
X135821000Y-140681000D03*
X135821000Y-139661000D03*
%TD*%
D10*
%TO.C,R5028*%
X157126000Y-72526000D03*
X157126000Y-73546000D03*
%TD*%
D19*
%TO.C,C3051*%
X133971000Y-101131000D03*
X134931000Y-101131000D03*
%TD*%
D49*
%TO.C,C3041*%
X117604885Y-101576000D03*
X117209117Y-101010785D03*
%TD*%
D50*
%TO.C,C4005*%
X114610492Y-132080984D03*
X114610492Y-130530984D03*
%TD*%
D23*
%TO.C,FB4001*%
X128724492Y-131930984D03*
X127704492Y-131930984D03*
%TD*%
D17*
%TO.C,R4010*%
X125364492Y-134900984D03*
X125364492Y-135590984D03*
%TD*%
D27*
%TO.C,C3092*%
X122901000Y-101396000D03*
X123388904Y-101883904D03*
%TD*%
D20*
%TO.C,FB5002*%
X150671000Y-85351000D03*
X151691000Y-85351000D03*
%TD*%
D12*
%TO.C,C3010*%
X162201000Y-115201000D03*
X162201000Y-114241000D03*
%TD*%
D23*
%TO.C,R3011*%
X169371000Y-97521000D03*
X168351000Y-97521000D03*
%TD*%
D14*
%TO.C,R6027*%
X129401000Y-85646000D03*
X129401000Y-84626000D03*
%TD*%
D21*
%TO.C,C3123*%
X115946001Y-99816000D03*
X115256001Y-99816000D03*
%TD*%
D11*
%TO.C,D5002*%
X147401000Y-71901000D03*
X147401000Y-70501000D03*
%TD*%
D13*
%TO.C,C3117*%
X139376000Y-105326000D03*
X139376000Y-104636000D03*
%TD*%
D14*
%TO.C,R1018*%
X105451000Y-117751000D03*
X105451000Y-116731000D03*
%TD*%
D13*
%TO.C,C3104*%
X120841000Y-100911000D03*
X120841000Y-100221000D03*
%TD*%
D15*
%TO.C,C5012*%
X150381000Y-86471000D03*
X150381000Y-87431000D03*
%TD*%
D51*
%TO.C,C3066*%
X116773003Y-97995195D03*
X117008997Y-97346807D03*
%TD*%
D52*
%TO.C,L3001*%
X159101000Y-114401000D03*
X159101000Y-112251000D03*
%TD*%
D23*
%TO.C,R3010*%
X167351000Y-97526000D03*
X166331000Y-97526000D03*
%TD*%
D14*
%TO.C,R6019*%
X142301000Y-127161000D03*
X142301000Y-126141000D03*
%TD*%
D53*
%TO.C,C3024*%
X117236104Y-99423443D03*
X117884491Y-99187449D03*
%TD*%
D20*
%TO.C,FB3007*%
X105901000Y-88831000D03*
X106921000Y-88831000D03*
%TD*%
D13*
%TO.C,C3072*%
X119911000Y-98316000D03*
X119911000Y-97626000D03*
%TD*%
D16*
%TO.C,C6004*%
X139701000Y-120646000D03*
X138741000Y-120646000D03*
%TD*%
D23*
%TO.C,R6020*%
X140361000Y-123096000D03*
X139341000Y-123096000D03*
%TD*%
D31*
%TO.C,D6005*%
X133811000Y-127066000D03*
X135211000Y-127066000D03*
%TD*%
D17*
%TO.C,C4016*%
X118234492Y-128625984D03*
X118234492Y-129315984D03*
%TD*%
D13*
%TO.C,C3040*%
X118271000Y-100481000D03*
X118271000Y-99791000D03*
%TD*%
D54*
%TO.C,C3067*%
X121457193Y-97736488D03*
X122082546Y-97444882D03*
%TD*%
D16*
%TO.C,C5010*%
X154961000Y-80721000D03*
X154001000Y-80721000D03*
%TD*%
D12*
%TO.C,C3073*%
X119731000Y-85751000D03*
X119731000Y-84791000D03*
%TD*%
D44*
%TO.C,L3003*%
X154276000Y-121295446D03*
X152126000Y-121295446D03*
%TD*%
D21*
%TO.C,C3112*%
X110866000Y-90801000D03*
X110176000Y-90801000D03*
%TD*%
D16*
%TO.C,C3020*%
X164671625Y-96401000D03*
X163711625Y-96401000D03*
%TD*%
D55*
%TO.C,C3006*%
X152226000Y-115170446D03*
X152226000Y-113270446D03*
%TD*%
D31*
%TO.C,D6004*%
X133811000Y-125346000D03*
X135211000Y-125346000D03*
%TD*%
D56*
%TO.C,C3085*%
X119958997Y-104281807D03*
X119723003Y-104930195D03*
%TD*%
D27*
%TO.C,C3118*%
X122997048Y-104102049D03*
X123484952Y-104589953D03*
%TD*%
D14*
%TO.C,R1058*%
X131657000Y-140681000D03*
X131657000Y-139661000D03*
%TD*%
D12*
%TO.C,C3090*%
X139776000Y-99386000D03*
X139776000Y-98426000D03*
%TD*%
D10*
%TO.C,R5030*%
X157126000Y-70191000D03*
X157126000Y-71211000D03*
%TD*%
D19*
%TO.C,C3052*%
X133981000Y-100081000D03*
X134941000Y-100081000D03*
%TD*%
D24*
%TO.C,C3068*%
X121581000Y-98426000D03*
X122271000Y-98426000D03*
%TD*%
D21*
%TO.C,C4012*%
X124579492Y-132570984D03*
X123889492Y-132570984D03*
%TD*%
D34*
%TO.C,D6011*%
X126101000Y-83366000D03*
X126101000Y-82566000D03*
%TD*%
D13*
%TO.C,C4015*%
X117434492Y-130125984D03*
X117434492Y-129435984D03*
%TD*%
D15*
%TO.C,C1005*%
X109621000Y-105161000D03*
X109621000Y-106121000D03*
%TD*%
D17*
%TO.C,C3106*%
X138891400Y-96376000D03*
X138891400Y-97066000D03*
%TD*%
D24*
%TO.C,C3029*%
X117346000Y-98406000D03*
X118036000Y-98406000D03*
%TD*%
D12*
%TO.C,C1006*%
X109621000Y-104071000D03*
X109621000Y-103111000D03*
%TD*%
D44*
%TO.C,L3004*%
X166241625Y-104361000D03*
X164091625Y-104361000D03*
%TD*%
D55*
%TO.C,C3022*%
X161315625Y-102001000D03*
X161315625Y-100101000D03*
%TD*%
D24*
%TO.C,C3101*%
X123896000Y-103926000D03*
X124586000Y-103926000D03*
%TD*%
%TO.C,C4004*%
X117511000Y-126151000D03*
X118201000Y-126151000D03*
%TD*%
D55*
%TO.C,C3021*%
X163631625Y-102001000D03*
X163631625Y-100101000D03*
%TD*%
D19*
%TO.C,C3032*%
X133641000Y-104261000D03*
X134601000Y-104261000D03*
%TD*%
D11*
%TO.C,D5001*%
X150601000Y-71901000D03*
X150601000Y-70501000D03*
%TD*%
D19*
%TO.C,C3016*%
X158396000Y-124541000D03*
X159356000Y-124541000D03*
%TD*%
D13*
%TO.C,C4010*%
X124624492Y-130115984D03*
X124624492Y-129425984D03*
%TD*%
%TO.C,C3071*%
X119291000Y-98901000D03*
X119291000Y-98211000D03*
%TD*%
D34*
%TO.C,D6010*%
X127201000Y-83366000D03*
X127201000Y-82566000D03*
%TD*%
%TO.C,D6007*%
X135941000Y-83366000D03*
X135941000Y-82566000D03*
%TD*%
D14*
%TO.C,FB3005*%
X140901000Y-95471000D03*
X140901000Y-94451000D03*
%TD*%
D24*
%TO.C,C3035*%
X119516000Y-99526000D03*
X120206000Y-99526000D03*
%TD*%
D21*
%TO.C,C3098*%
X122421000Y-102736000D03*
X121731000Y-102736000D03*
%TD*%
D14*
%TO.C,R6025*%
X135941000Y-85646000D03*
X135941000Y-84626000D03*
%TD*%
D20*
%TO.C,R6013*%
X134191000Y-122226000D03*
X135211000Y-122226000D03*
%TD*%
D15*
%TO.C,C5011*%
X149281000Y-86471000D03*
X149281000Y-87431000D03*
%TD*%
D14*
%TO.C,R1047*%
X110901000Y-106171000D03*
X110901000Y-105151000D03*
%TD*%
D24*
%TO.C,C3044*%
X116416000Y-104471002D03*
X117106000Y-104471002D03*
%TD*%
D12*
%TO.C,C5007*%
X153121000Y-84861000D03*
X153121000Y-83901000D03*
%TD*%
D16*
%TO.C,C3008*%
X157076000Y-120901000D03*
X156116000Y-120901000D03*
%TD*%
D13*
%TO.C,C3080*%
X118021000Y-85736000D03*
X118021000Y-85046000D03*
%TD*%
D14*
%TO.C,R1045*%
X110931000Y-101711000D03*
X110931000Y-100691000D03*
%TD*%
D21*
%TO.C,C3113*%
X119027000Y-101523000D03*
X118337000Y-101523000D03*
%TD*%
D24*
%TO.C,C4011*%
X123069492Y-131780984D03*
X123759492Y-131780984D03*
%TD*%
D26*
%TO.C,C3046*%
X121371693Y-99734597D03*
X121859597Y-99246693D03*
%TD*%
D10*
%TO.C,FB3010*%
X140901000Y-104281000D03*
X140901000Y-105301000D03*
%TD*%
D20*
%TO.C,FB3008*%
X109861000Y-88831000D03*
X110881000Y-88831000D03*
%TD*%
D10*
%TO.C,R5029*%
X153426000Y-72581000D03*
X153426000Y-73601000D03*
%TD*%
D19*
%TO.C,C6001*%
X139311000Y-121666000D03*
X140271000Y-121666000D03*
%TD*%
M02*
