%TF.GenerationSoftware,KiCad,Pcbnew,9.0.1*%
%TF.CreationDate,2026-02-07T17:07:50-05:00*%
%TF.ProjectId,Leonhart,4c656f6e-6861-4727-942e-6b696361645f,rev?*%
%TF.SameCoordinates,Original*%
%TF.FileFunction,Soldermask,Bot*%
%TF.FilePolarity,Negative*%
%FSLAX46Y46*%
G04 Gerber Fmt 4.6, Leading zero omitted, Abs format (unit mm)*
G04 Created by KiCad (PCBNEW 9.0.1) date 2026-02-07 17:07:50*
%MOMM*%
%LPD*%
G01*
G04 APERTURE LIST*
G04 Aperture macros list*
%AMRoundRect*
0 Rectangle with rounded corners*
0 $1 Rounding radius*
0 $2 $3 $4 $5 $6 $7 $8 $9 X,Y pos of 4 corners*
0 Add a 4 corners polygon primitive as box body*
4,1,4,$2,$3,$4,$5,$6,$7,$8,$9,$2,$3,0*
0 Add four circle primitives for the rounded corners*
1,1,$1+$1,$2,$3*
1,1,$1+$1,$4,$5*
1,1,$1+$1,$6,$7*
1,1,$1+$1,$8,$9*
0 Add four rect primitives between the rounded corners*
20,1,$1+$1,$2,$3,$4,$5,0*
20,1,$1+$1,$4,$5,$6,$7,0*
20,1,$1+$1,$6,$7,$8,$9,0*
20,1,$1+$1,$8,$9,$2,$3,0*%
G04 Aperture macros list end*
%ADD10C,0.650000*%
%ADD11O,2.100000X1.000000*%
%ADD12O,1.600000X1.000000*%
%ADD13R,1.400000X1.400000*%
%ADD14C,1.400000*%
%ADD15C,3.150000*%
%ADD16C,3.250000*%
%ADD17C,1.540000*%
%ADD18C,1.530000*%
%ADD19C,2.445000*%
%ADD20C,2.000000*%
%ADD21R,1.700000X1.700000*%
%ADD22C,1.700000*%
%ADD23C,0.990600*%
%ADD24RoundRect,0.135000X-0.185000X0.135000X-0.185000X-0.135000X0.185000X-0.135000X0.185000X0.135000X0*%
%ADD25RoundRect,0.150000X-0.200000X0.150000X-0.200000X-0.150000X0.200000X-0.150000X0.200000X0.150000X0*%
%ADD26RoundRect,0.140000X0.170000X-0.140000X0.170000X0.140000X-0.170000X0.140000X-0.170000X-0.140000X0*%
%ADD27RoundRect,0.100000X0.100000X-0.130000X0.100000X0.130000X-0.100000X0.130000X-0.100000X-0.130000X0*%
%ADD28RoundRect,0.135000X0.185000X-0.135000X0.185000X0.135000X-0.185000X0.135000X-0.185000X-0.135000X0*%
%ADD29RoundRect,0.140000X-0.170000X0.140000X-0.170000X-0.140000X0.170000X-0.140000X0.170000X0.140000X0*%
%ADD30RoundRect,0.140000X0.140000X0.170000X-0.140000X0.170000X-0.140000X-0.170000X0.140000X-0.170000X0*%
%ADD31RoundRect,0.100000X-0.100000X0.130000X-0.100000X-0.130000X0.100000X-0.130000X0.100000X0.130000X0*%
%ADD32R,1.000000X1.000000*%
%ADD33RoundRect,0.100000X-0.160082X-0.035690X0.075558X-0.145571X0.160082X0.035690X-0.075558X0.145571X0*%
%ADD34RoundRect,0.140000X-0.140000X-0.170000X0.140000X-0.170000X0.140000X0.170000X-0.140000X0.170000X0*%
%ADD35RoundRect,0.135000X-0.135000X-0.185000X0.135000X-0.185000X0.135000X0.185000X-0.135000X0.185000X0*%
%ADD36RoundRect,0.100000X0.130000X0.100000X-0.130000X0.100000X-0.130000X-0.100000X0.130000X-0.100000X0*%
%ADD37RoundRect,0.250000X1.045000X-0.785000X1.045000X0.785000X-1.045000X0.785000X-1.045000X-0.785000X0*%
%ADD38RoundRect,0.135000X0.135000X0.185000X-0.135000X0.185000X-0.135000X-0.185000X0.135000X-0.185000X0*%
%ADD39RoundRect,0.100000X-0.130000X-0.100000X0.130000X-0.100000X0.130000X0.100000X-0.130000X0.100000X0*%
%ADD40R,0.800000X0.900000*%
%ADD41RoundRect,0.100000X-0.021213X-0.162635X0.162635X0.021213X0.021213X0.162635X-0.162635X-0.021213X0*%
%ADD42RoundRect,0.100000X-0.162635X0.021213X0.021213X-0.162635X0.162635X-0.021213X-0.021213X0.162635X0*%
%ADD43R,0.300000X0.800000*%
%ADD44R,0.800000X0.300000*%
%ADD45R,3.800000X3.800000*%
%ADD46RoundRect,0.150000X0.150000X0.200000X-0.150000X0.200000X-0.150000X-0.200000X0.150000X-0.200000X0*%
%ADD47RoundRect,0.100000X0.121055X-0.110660X0.075907X0.145390X-0.121055X0.110660X-0.075907X-0.145390X0*%
%ADD48RoundRect,0.225000X-0.250000X0.225000X-0.250000X-0.225000X0.250000X-0.225000X0.250000X0.225000X0*%
%ADD49RoundRect,0.060000X-0.190000X0.140000X-0.190000X-0.140000X0.190000X-0.140000X0.190000X0.140000X0*%
%ADD50RoundRect,0.250000X0.250000X0.475000X-0.250000X0.475000X-0.250000X-0.475000X0.250000X-0.475000X0*%
%ADD51RoundRect,0.100000X0.138221X0.088289X-0.120790X0.110950X-0.138221X-0.088289X0.120790X-0.110950X0*%
%ADD52RoundRect,0.100000X-0.155000X-0.100000X0.155000X-0.100000X0.155000X0.100000X-0.155000X0.100000X0*%
%ADD53RoundRect,0.100000X-0.156480X0.049132X-0.007350X-0.163847X0.156480X-0.049132X0.007350X0.163847X0*%
%ADD54C,0.900000*%
%ADD55RoundRect,0.175000X-0.175000X-0.525000X0.175000X-0.525000X0.175000X0.525000X-0.175000X0.525000X0*%
%ADD56RoundRect,0.250000X-0.350000X-0.850000X0.350000X-0.850000X0.350000X0.850000X-0.350000X0.850000X0*%
%ADD57RoundRect,0.250000X-0.550000X0.450000X-0.550000X-0.450000X0.550000X-0.450000X0.550000X0.450000X0*%
%ADD58RoundRect,0.250000X-0.625000X0.312500X-0.625000X-0.312500X0.625000X-0.312500X0.625000X0.312500X0*%
%ADD59RoundRect,0.250000X-0.650000X0.325000X-0.650000X-0.325000X0.650000X-0.325000X0.650000X0.325000X0*%
%ADD60RoundRect,0.250000X0.375000X0.850000X-0.375000X0.850000X-0.375000X-0.850000X0.375000X-0.850000X0*%
%ADD61RoundRect,0.250000X-0.475000X0.250000X-0.475000X-0.250000X0.475000X-0.250000X0.475000X0.250000X0*%
%ADD62RoundRect,0.100000X0.021603X-0.162583X0.151603X0.062583X-0.021603X0.162583X-0.151603X-0.062583X0*%
%ADD63RoundRect,0.062500X-0.062500X0.237500X-0.062500X-0.237500X0.062500X-0.237500X0.062500X0.237500X0*%
%ADD64RoundRect,0.050000X-0.050000X0.450000X-0.050000X-0.450000X0.050000X-0.450000X0.050000X0.450000X0*%
%ADD65RoundRect,0.100000X0.156480X-0.049132X0.007350X0.163847X-0.156480X0.049132X-0.007350X-0.163847X0*%
%ADD66RoundRect,0.225000X0.250000X-0.225000X0.250000X0.225000X-0.250000X0.225000X-0.250000X-0.225000X0*%
%ADD67RoundRect,0.100000X0.049507X-0.156362X0.138432X0.087958X-0.049507X0.156362X-0.138432X-0.087958X0*%
%ADD68RoundRect,0.250000X0.850000X-0.375000X0.850000X0.375000X-0.850000X0.375000X-0.850000X-0.375000X0*%
%ADD69RoundRect,0.100000X-0.087958X-0.138432X0.156362X-0.049507X0.087958X0.138432X-0.156362X0.049507X0*%
%ADD70RoundRect,0.100000X-0.075558X-0.145571X0.160082X-0.035690X0.075558X0.145571X-0.160082X0.035690X0*%
%ADD71RoundRect,0.250000X0.475000X-0.250000X0.475000X0.250000X-0.475000X0.250000X-0.475000X-0.250000X0*%
%ADD72RoundRect,0.100000X-0.049507X0.156362X-0.138432X-0.087958X0.049507X-0.156362X0.138432X0.087958X0*%
G04 APERTURE END LIST*
D10*
%TO.C,J6001*%
X175576000Y-110911000D03*
X175576000Y-105131000D03*
D11*
X175046000Y-112341000D03*
D12*
X179226000Y-112341000D03*
D11*
X175046000Y-103701000D03*
D12*
X179226000Y-103701000D03*
%TD*%
D13*
%TO.C,J6002*%
X169236000Y-130201000D03*
D14*
X169236000Y-127701000D03*
X169236000Y-125701000D03*
X169236000Y-123201000D03*
D15*
X171946000Y-133701000D03*
X171946000Y-119701000D03*
%TD*%
D16*
%TO.C,U5001*%
X171351000Y-76251000D03*
X171351000Y-87681000D03*
D17*
X162461000Y-87681000D03*
X165001000Y-86411000D03*
X162461000Y-85141000D03*
X165001000Y-83871000D03*
X162461000Y-82601000D03*
X165001000Y-81331000D03*
X162461000Y-80061000D03*
X165001000Y-78791000D03*
X162461000Y-77521000D03*
X165001000Y-76251000D03*
D18*
X176251000Y-75341000D03*
X176251000Y-77881000D03*
X176251000Y-86051000D03*
X176251000Y-88591000D03*
D19*
X168301000Y-73916000D03*
X168301000Y-90016000D03*
%TD*%
D20*
%TO.C,SW7001*%
X154181000Y-136376000D03*
X154181000Y-142876000D03*
X149681000Y-136376000D03*
X149681000Y-142876000D03*
%TD*%
%TO.C,SW7003*%
X161701000Y-136376000D03*
X161701000Y-142876000D03*
X157201000Y-136376000D03*
X157201000Y-142876000D03*
%TD*%
D21*
%TO.C,J2003*%
X119201000Y-67541000D03*
D22*
X119201000Y-70081000D03*
X119201000Y-72621000D03*
X119201000Y-75161000D03*
X119201000Y-77701000D03*
X119201000Y-80241000D03*
%TD*%
D21*
%TO.C,J1004*%
X102101000Y-104041000D03*
D22*
X102101000Y-106581000D03*
X102101000Y-109121000D03*
X102101000Y-111661000D03*
X102101000Y-114201000D03*
X102101000Y-116741000D03*
%TD*%
D20*
%TO.C,SW7002*%
X169099402Y-136376000D03*
X169099402Y-142876000D03*
X164599402Y-136376000D03*
X164599402Y-142876000D03*
%TD*%
D21*
%TO.C,J2002*%
X144141000Y-67451000D03*
D22*
X146681000Y-67451000D03*
X149221000Y-67451000D03*
X151761000Y-67451000D03*
X154301000Y-67451000D03*
X156841000Y-67451000D03*
%TD*%
D21*
%TO.C,J1003*%
X112081000Y-138991000D03*
D22*
X114621000Y-138991000D03*
X117161000Y-138991000D03*
%TD*%
D20*
%TO.C,SW7004*%
X146681000Y-136376000D03*
X146681000Y-142876000D03*
X142181000Y-136376000D03*
X142181000Y-142876000D03*
%TD*%
D23*
%TO.C,J2001*%
X102866000Y-90331000D03*
X103882000Y-97951000D03*
X101850000Y-97951000D03*
%TD*%
%TO.C,J1002*%
X138291000Y-136336000D03*
X130671000Y-137352000D03*
X130671000Y-135320000D03*
%TD*%
D21*
%TO.C,J1001*%
X102101000Y-122451000D03*
D22*
X102101000Y-124991000D03*
X102101000Y-127531000D03*
X102101000Y-130071000D03*
X102101000Y-132611000D03*
X102101000Y-135151000D03*
%TD*%
D24*
%TO.C,R1061*%
X134433000Y-139661000D03*
X134433000Y-140681000D03*
%TD*%
D25*
%TO.C,D1004*%
X109411000Y-135111000D03*
X109411000Y-133711000D03*
%TD*%
D26*
%TO.C,C3002*%
X161151000Y-115211000D03*
X161151000Y-114251000D03*
%TD*%
D27*
%TO.C,C3074*%
X118801000Y-85701000D03*
X118801001Y-85061000D03*
%TD*%
D24*
%TO.C,R1019*%
X114561000Y-92671000D03*
X114561000Y-93691000D03*
%TD*%
D28*
%TO.C,R6026*%
X134841000Y-85646000D03*
X134841000Y-84626000D03*
%TD*%
D29*
%TO.C,C3015*%
X160851000Y-124461000D03*
X160851000Y-125421000D03*
%TD*%
D28*
%TO.C,R3013*%
X162591625Y-97471000D03*
X162591625Y-96451000D03*
%TD*%
D30*
%TO.C,C3012*%
X160206000Y-123471000D03*
X159246000Y-123471000D03*
%TD*%
D31*
%TO.C,C3047*%
X122031000Y-105026000D03*
X122031000Y-105666000D03*
%TD*%
%TO.C,C4020*%
X128164492Y-134940984D03*
X128164492Y-135580984D03*
%TD*%
D26*
%TO.C,C3099*%
X139776000Y-103333200D03*
X139776000Y-102373200D03*
%TD*%
D30*
%TO.C,C6005*%
X137451000Y-126196000D03*
X136491000Y-126196000D03*
%TD*%
D27*
%TO.C,C3062*%
X139971000Y-92441000D03*
X139971000Y-91801000D03*
%TD*%
D32*
%TO.C,TP3006*%
X161064000Y-127174000D03*
%TD*%
D28*
%TO.C,FB3003*%
X140901000Y-101376000D03*
X140901000Y-100356000D03*
%TD*%
D33*
%TO.C,C3120*%
X116890981Y-105165760D03*
X117471019Y-105436237D03*
%TD*%
D34*
%TO.C,C5006*%
X156881000Y-75226000D03*
X157841000Y-75226000D03*
%TD*%
D27*
%TO.C,C4007*%
X124634492Y-125310984D03*
X124634492Y-124670984D03*
%TD*%
D30*
%TO.C,C3005*%
X157081000Y-118101000D03*
X156121000Y-118101000D03*
%TD*%
D27*
%TO.C,C3077*%
X118661000Y-98931000D03*
X118661000Y-98291000D03*
%TD*%
D28*
%TO.C,R1057*%
X133045000Y-140681000D03*
X133045000Y-139661000D03*
%TD*%
D34*
%TO.C,C5004*%
X156881000Y-78101000D03*
X157841000Y-78101000D03*
%TD*%
D31*
%TO.C,C3102*%
X139301000Y-94451000D03*
X139301000Y-95091000D03*
%TD*%
D35*
%TO.C,R3009*%
X112661000Y-104551000D03*
X113681000Y-104551000D03*
%TD*%
D36*
%TO.C,C4018*%
X123525492Y-134270984D03*
X122885492Y-134270984D03*
%TD*%
%TO.C,C3116*%
X115716000Y-104696000D03*
X115076000Y-104696000D03*
%TD*%
%TO.C,C3076*%
X115866000Y-101426000D03*
X115226000Y-101426000D03*
%TD*%
D28*
%TO.C,FB3006*%
X140901000Y-97431000D03*
X140901000Y-96411000D03*
%TD*%
D37*
%TO.C,C6012*%
X164740000Y-132700000D03*
X164740000Y-126460000D03*
%TD*%
D31*
%TO.C,C4021*%
X126784492Y-134935984D03*
X126784492Y-135575984D03*
%TD*%
D29*
%TO.C,C3014*%
X163576000Y-123301554D03*
X163576000Y-124261554D03*
%TD*%
D38*
%TO.C,R6016*%
X172261000Y-109491000D03*
X171241000Y-109491000D03*
%TD*%
D34*
%TO.C,C5005*%
X156881000Y-76501000D03*
X157841000Y-76501000D03*
%TD*%
D36*
%TO.C,C3031*%
X115716000Y-103971000D03*
X115076000Y-103971000D03*
%TD*%
D39*
%TO.C,C3038*%
X120076000Y-101535999D03*
X120716000Y-101535999D03*
%TD*%
%TO.C,C4013*%
X117519492Y-132570984D03*
X118159492Y-132570984D03*
%TD*%
D36*
%TO.C,C3070*%
X115841000Y-103346000D03*
X115201000Y-103346000D03*
%TD*%
D26*
%TO.C,C3013*%
X163301000Y-115206000D03*
X163301000Y-114246000D03*
%TD*%
D24*
%TO.C,R1053*%
X109621000Y-100691000D03*
X109621000Y-101711000D03*
%TD*%
D29*
%TO.C,C3082*%
X110381000Y-116236000D03*
X110381000Y-117196000D03*
%TD*%
D24*
%TO.C,FB3002*%
X140901000Y-106239400D03*
X140901000Y-107259400D03*
%TD*%
D30*
%TO.C,C5009*%
X154961000Y-82711000D03*
X154001000Y-82711000D03*
%TD*%
D32*
%TO.C,TP3007*%
X158720000Y-126375000D03*
%TD*%
D40*
%TO.C,X1002*%
X108241000Y-104461000D03*
X108241000Y-105861000D03*
X107141000Y-105861000D03*
X107141000Y-104461000D03*
%TD*%
D27*
%TO.C,C3054*%
X120301000Y-102816000D03*
X120301000Y-102176000D03*
%TD*%
D41*
%TO.C,C3107*%
X121631000Y-101236000D03*
X122083549Y-100783451D03*
%TD*%
D36*
%TO.C,C3065*%
X115801000Y-102366000D03*
X115161000Y-102366000D03*
%TD*%
D24*
%TO.C,R1059*%
X109411000Y-136371000D03*
X109411000Y-137391000D03*
%TD*%
D34*
%TO.C,C3033*%
X133641000Y-105261000D03*
X134601000Y-105261000D03*
%TD*%
%TO.C,C6003*%
X138831000Y-126186000D03*
X139791000Y-126186000D03*
%TD*%
D38*
%TO.C,R3014*%
X164701625Y-98661000D03*
X163681625Y-98661000D03*
%TD*%
D41*
%TO.C,C3069*%
X122919370Y-98916919D03*
X123371919Y-98464370D03*
%TD*%
D39*
%TO.C,C3049*%
X133801000Y-106831000D03*
X134441000Y-106831000D03*
%TD*%
D42*
%TO.C,C3039*%
X122430081Y-104414370D03*
X122882630Y-104866919D03*
%TD*%
D36*
%TO.C,C3060*%
X117621001Y-100316000D03*
X116980999Y-100316002D03*
%TD*%
D29*
%TO.C,C6014*%
X131631000Y-83301000D03*
X131631000Y-84261000D03*
%TD*%
D34*
%TO.C,C5008*%
X148561000Y-80361000D03*
X149521000Y-80361000D03*
%TD*%
D43*
%TO.C,U3001*%
X159351000Y-116651000D03*
X159851000Y-116651000D03*
X160351000Y-116651000D03*
X160851000Y-116651000D03*
X161351000Y-116651000D03*
X161851000Y-116651000D03*
X162351000Y-116651000D03*
X162851000Y-116651000D03*
D44*
X163601000Y-117401000D03*
X163601000Y-117901000D03*
X163601000Y-118401000D03*
X163601000Y-118901000D03*
X163601000Y-119401000D03*
X163601000Y-119901000D03*
X163601000Y-120401000D03*
X163601000Y-120901000D03*
D43*
X162851000Y-121651000D03*
X162351000Y-121651000D03*
X161851000Y-121651000D03*
X161351000Y-121651000D03*
X160851000Y-121651000D03*
X160351000Y-121651000D03*
X159851000Y-121651000D03*
X159351000Y-121651000D03*
D44*
X158601000Y-120901000D03*
X158601000Y-120401000D03*
X158601000Y-119901000D03*
X158601000Y-119401000D03*
X158601000Y-118901000D03*
X158601000Y-118401000D03*
X158601000Y-117901000D03*
X158601000Y-117401000D03*
D45*
X161101000Y-119151000D03*
%TD*%
D27*
%TO.C,C3027*%
X121401000Y-105396000D03*
X121401000Y-104756000D03*
%TD*%
D29*
%TO.C,C3096*%
X139776000Y-100351000D03*
X139776000Y-101311000D03*
%TD*%
D35*
%TO.C,FB3009*%
X107881000Y-88831000D03*
X108901000Y-88831000D03*
%TD*%
D28*
%TO.C,R6028*%
X127201000Y-85646000D03*
X127201000Y-84626000D03*
%TD*%
%TO.C,R6030*%
X125001000Y-85646000D03*
X125001000Y-84626000D03*
%TD*%
%TO.C,FB5001*%
X155776000Y-77796000D03*
X155776000Y-76776000D03*
%TD*%
D30*
%TO.C,C3114*%
X108871000Y-89901000D03*
X107911000Y-89901000D03*
%TD*%
D46*
%TO.C,D6003*%
X133811000Y-123626000D03*
X135211000Y-123626000D03*
%TD*%
D47*
%TO.C,C3028*%
X116487327Y-99239821D03*
X116376192Y-98609544D03*
%TD*%
D24*
%TO.C,FB3004*%
X140901000Y-102325200D03*
X140901000Y-103345200D03*
%TD*%
D29*
%TO.C,C3083*%
X109091000Y-116246000D03*
X109091000Y-117206000D03*
%TD*%
D27*
%TO.C,C3100*%
X138907600Y-103324400D03*
X138907600Y-102684400D03*
%TD*%
D28*
%TO.C,R6024*%
X137041000Y-85646000D03*
X137041000Y-84626000D03*
%TD*%
D29*
%TO.C,C5014*%
X153081000Y-86471000D03*
X153081000Y-87431000D03*
%TD*%
D27*
%TO.C,C3056*%
X119951000Y-100816000D03*
X119951000Y-100176000D03*
%TD*%
D25*
%TO.C,D5003*%
X149001000Y-71901000D03*
X149001000Y-70501000D03*
%TD*%
D36*
%TO.C,C3059*%
X117881000Y-102276000D03*
X117241000Y-102276000D03*
%TD*%
D38*
%TO.C,R6015*%
X130101000Y-103566000D03*
X129081000Y-103566000D03*
%TD*%
D27*
%TO.C,C3036*%
X118901000Y-102836000D03*
X118901000Y-102196000D03*
%TD*%
D39*
%TO.C,C3025*%
X122831000Y-99856000D03*
X123471000Y-99856000D03*
%TD*%
D29*
%TO.C,C6015*%
X130541000Y-83301000D03*
X130541000Y-84261000D03*
%TD*%
D34*
%TO.C,C5015*%
X148578000Y-82713000D03*
X149538000Y-82713000D03*
%TD*%
D27*
%TO.C,C3091*%
X138891400Y-99381000D03*
X138891400Y-98741000D03*
%TD*%
D28*
%TO.C,R6012*%
X141071000Y-127166000D03*
X141071000Y-126146000D03*
%TD*%
D31*
%TO.C,C3086*%
X118391000Y-104202000D03*
X118391000Y-104842000D03*
%TD*%
D48*
%TO.C,C6006*%
X171401000Y-111751000D03*
X171401000Y-113301000D03*
%TD*%
D26*
%TO.C,C6008*%
X136331000Y-120156000D03*
X136331000Y-119196000D03*
%TD*%
D34*
%TO.C,C3017*%
X165176000Y-119401000D03*
X166136000Y-119401000D03*
%TD*%
D27*
%TO.C,C3057*%
X118891000Y-100771000D03*
X118891000Y-100131000D03*
%TD*%
D49*
%TO.C,D6008*%
X134841000Y-83366000D03*
X134841000Y-82566000D03*
%TD*%
D24*
%TO.C,FB3001*%
X140901000Y-98371000D03*
X140901000Y-99391000D03*
%TD*%
D36*
%TO.C,C3115*%
X108811000Y-90811000D03*
X108171000Y-90811000D03*
%TD*%
D50*
%TO.C,C3003*%
X158501000Y-110001000D03*
X156601000Y-110001000D03*
%TD*%
D29*
%TO.C,C6007*%
X169951000Y-111921000D03*
X169951000Y-112881000D03*
%TD*%
D51*
%TO.C,C3075*%
X117586100Y-103878822D03*
X116948531Y-103823043D03*
%TD*%
D52*
%TO.C,Q5002*%
X155916000Y-70201000D03*
X155916000Y-71201000D03*
X154626000Y-70701000D03*
%TD*%
D27*
%TO.C,C3053*%
X119531000Y-102821000D03*
X119531000Y-102181000D03*
%TD*%
D39*
%TO.C,C3064*%
X122826000Y-100476000D03*
X123466000Y-100476000D03*
%TD*%
D29*
%TO.C,C5013*%
X151981000Y-86471000D03*
X151981000Y-87431000D03*
%TD*%
D34*
%TO.C,C5017*%
X148781000Y-83991000D03*
X149741000Y-83991000D03*
%TD*%
D27*
%TO.C,C4006*%
X124634492Y-121301000D03*
X124634492Y-120661000D03*
%TD*%
D29*
%TO.C,C5016*%
X148061000Y-85021000D03*
X148061000Y-85981000D03*
%TD*%
D26*
%TO.C,C3061*%
X140901000Y-92491000D03*
X140901000Y-91531000D03*
%TD*%
D36*
%TO.C,C3045*%
X117881000Y-102891000D03*
X117241000Y-102891000D03*
%TD*%
D30*
%TO.C,C1009*%
X136707000Y-134301000D03*
X135747000Y-134301000D03*
%TD*%
D29*
%TO.C,C3105*%
X139776000Y-96421000D03*
X139776000Y-97381000D03*
%TD*%
D49*
%TO.C,D6009*%
X129401000Y-83366000D03*
X129401000Y-82566000D03*
%TD*%
D27*
%TO.C,C3093*%
X139901000Y-107251000D03*
X139901000Y-106611000D03*
%TD*%
D36*
%TO.C,C3119*%
X122866000Y-103396000D03*
X122226000Y-103396000D03*
%TD*%
D27*
%TO.C,C4002*%
X125454492Y-131725984D03*
X125454492Y-131085984D03*
%TD*%
D41*
%TO.C,C3043*%
X121629370Y-100368323D03*
X122081917Y-99915776D03*
%TD*%
D27*
%TO.C,C4014*%
X117434492Y-131700984D03*
X117434492Y-131060984D03*
%TD*%
D48*
%TO.C,C6013*%
X132971000Y-83576000D03*
X132971000Y-85126000D03*
%TD*%
D34*
%TO.C,C3011*%
X161526000Y-123471000D03*
X162486000Y-123471000D03*
%TD*%
%TO.C,C5003*%
X156871000Y-79401000D03*
X157831000Y-79401000D03*
%TD*%
D27*
%TO.C,C4008*%
X124634492Y-127700984D03*
X124634492Y-127060984D03*
%TD*%
D29*
%TO.C,C3018*%
X165236000Y-120571000D03*
X165236000Y-121531000D03*
%TD*%
D28*
%TO.C,R1056*%
X137209000Y-140681000D03*
X137209000Y-139661000D03*
%TD*%
D38*
%TO.C,R6018*%
X125441000Y-105186000D03*
X124421000Y-105186000D03*
%TD*%
D53*
%TO.C,C3023*%
X116498413Y-101091263D03*
X116865503Y-101615521D03*
%TD*%
D38*
%TO.C,R3008*%
X113681000Y-103581000D03*
X112661000Y-103581000D03*
%TD*%
D27*
%TO.C,C3030*%
X116481000Y-102936000D03*
X116481000Y-102296001D03*
%TD*%
D28*
%TO.C,R3007*%
X156901000Y-125731000D03*
X156901000Y-124711000D03*
%TD*%
D36*
%TO.C,C3122*%
X115786000Y-100436000D03*
X115146000Y-100436000D03*
%TD*%
%TO.C,C4017*%
X118954492Y-127770984D03*
X118314492Y-127770984D03*
%TD*%
D54*
%TO.C,J6003*%
X126601000Y-69701000D03*
X134601000Y-69701000D03*
D55*
X133801000Y-80301000D03*
X132701000Y-80301000D03*
X131601000Y-80301000D03*
X130501000Y-80301000D03*
X129401000Y-80301000D03*
X128301000Y-80301000D03*
X127201000Y-80301000D03*
X126101000Y-80301000D03*
X125001000Y-80301000D03*
D56*
X123801000Y-70101000D03*
X139301000Y-70101000D03*
D57*
X123551000Y-79701000D03*
X138401000Y-79701000D03*
%TD*%
D28*
%TO.C,R6029*%
X126101000Y-85646000D03*
X126101000Y-84626000D03*
%TD*%
D31*
%TO.C,C3042*%
X119011000Y-104209000D03*
X119011000Y-104849000D03*
%TD*%
D36*
%TO.C,R4009*%
X123524492Y-135330984D03*
X122884492Y-135330984D03*
%TD*%
D24*
%TO.C,R1052*%
X110901000Y-103081000D03*
X110901000Y-104101000D03*
%TD*%
D36*
%TO.C,C3055*%
X120284000Y-103466000D03*
X119644000Y-103466000D03*
%TD*%
D49*
%TO.C,D6012*%
X125001000Y-83366000D03*
X125001000Y-82566000D03*
%TD*%
D31*
%TO.C,C3103*%
X140021000Y-94451000D03*
X140021000Y-95091000D03*
%TD*%
D26*
%TO.C,C6002*%
X141821000Y-123186000D03*
X141821000Y-122226000D03*
%TD*%
D58*
%TO.C,R5027*%
X178401000Y-91438500D03*
X178401000Y-94363500D03*
%TD*%
D27*
%TO.C,R4002*%
X118191000Y-125146000D03*
X118191000Y-124506000D03*
%TD*%
D49*
%TO.C,D6006*%
X137041000Y-83366000D03*
X137041000Y-82566000D03*
%TD*%
D32*
%TO.C,TP3001*%
X161788500Y-110401000D03*
%TD*%
D33*
%TO.C,C3078*%
X123132112Y-102514960D03*
X123712148Y-102785435D03*
%TD*%
D31*
%TO.C,C3095*%
X121541000Y-103386000D03*
X121541000Y-104026000D03*
%TD*%
D59*
%TO.C,C5021*%
X175576000Y-91426000D03*
X175576000Y-94376000D03*
%TD*%
D38*
%TO.C,R3012*%
X164701625Y-97526000D03*
X163681625Y-97526000D03*
%TD*%
D28*
%TO.C,R1055*%
X138597000Y-140681000D03*
X138597000Y-139661000D03*
%TD*%
D39*
%TO.C,C4009*%
X123874492Y-128580984D03*
X124514492Y-128580984D03*
%TD*%
D30*
%TO.C,C3108*%
X106891000Y-89901000D03*
X105931000Y-89901000D03*
%TD*%
D38*
%TO.C,R6017*%
X172261000Y-107071000D03*
X171241000Y-107071000D03*
%TD*%
D60*
%TO.C,L3002*%
X154276000Y-117495446D03*
X152126000Y-117495446D03*
%TD*%
D36*
%TO.C,C3109*%
X106901000Y-90791000D03*
X106261000Y-90791000D03*
%TD*%
D39*
%TO.C,C3124*%
X134031000Y-99181000D03*
X134671000Y-99181000D03*
%TD*%
D27*
%TO.C,C3037*%
X120921000Y-102951000D03*
X120921000Y-102311000D03*
%TD*%
D26*
%TO.C,C6009*%
X135261000Y-120156000D03*
X135261000Y-119196000D03*
%TD*%
%TO.C,C4001*%
X126464492Y-131920984D03*
X126464492Y-130960984D03*
%TD*%
D28*
%TO.C,R5031*%
X153426000Y-71161000D03*
X153426000Y-70141000D03*
%TD*%
D41*
%TO.C,C3026*%
X120408677Y-98808322D03*
X120861226Y-98355773D03*
%TD*%
D27*
%TO.C,C3094*%
X139126000Y-107258400D03*
X139126000Y-106618400D03*
%TD*%
D30*
%TO.C,C3111*%
X110851000Y-89901000D03*
X109891000Y-89901000D03*
%TD*%
D39*
%TO.C,C3034*%
X133801000Y-106121000D03*
X134441000Y-106121000D03*
%TD*%
%TO.C,C3058*%
X121576000Y-101966000D03*
X122216000Y-101966000D03*
%TD*%
D52*
%TO.C,Q5001*%
X155916000Y-72541000D03*
X155916000Y-73541000D03*
X154626000Y-73041000D03*
%TD*%
D61*
%TO.C,C3009*%
X152226000Y-123651000D03*
X152226000Y-125551000D03*
%TD*%
D27*
%TO.C,R4001*%
X119051000Y-125146000D03*
X119051000Y-124506000D03*
%TD*%
D32*
%TO.C,TP3003*%
X149626000Y-123626000D03*
%TD*%
D39*
%TO.C,C3110*%
X118281000Y-103516000D03*
X118921000Y-103516000D03*
%TD*%
D31*
%TO.C,C3097*%
X138876000Y-100396000D03*
X138876000Y-101036000D03*
%TD*%
D62*
%TO.C,C3063*%
X120433500Y-105034349D03*
X120753500Y-104480093D03*
%TD*%
D27*
%TO.C,C4003*%
X116754492Y-120410984D03*
X116754492Y-119770984D03*
%TD*%
D63*
%TO.C,U3002*%
X166817625Y-99103000D03*
X166317625Y-99103000D03*
X165817625Y-99103000D03*
D64*
X165817625Y-100203000D03*
X166317625Y-100203000D03*
X166817625Y-100203000D03*
%TD*%
D28*
%TO.C,R1054*%
X135821000Y-140681000D03*
X135821000Y-139661000D03*
%TD*%
D24*
%TO.C,R5028*%
X157126000Y-72526000D03*
X157126000Y-73546000D03*
%TD*%
D34*
%TO.C,C3051*%
X133971000Y-101131000D03*
X134931000Y-101131000D03*
%TD*%
D65*
%TO.C,C3041*%
X117590545Y-101555522D03*
X117223455Y-101031264D03*
%TD*%
D66*
%TO.C,C4005*%
X114610492Y-132080984D03*
X114610492Y-130530984D03*
%TD*%
D38*
%TO.C,FB4001*%
X128724492Y-131930984D03*
X127704492Y-131930984D03*
%TD*%
D31*
%TO.C,R4010*%
X125364492Y-134925984D03*
X125364492Y-135565984D03*
%TD*%
D42*
%TO.C,C3092*%
X122918678Y-101413677D03*
X123371227Y-101866226D03*
%TD*%
D35*
%TO.C,FB5002*%
X150671000Y-85351000D03*
X151691000Y-85351000D03*
%TD*%
D26*
%TO.C,C3010*%
X162201000Y-115201000D03*
X162201000Y-114241000D03*
%TD*%
D38*
%TO.C,R3011*%
X169371000Y-97521000D03*
X168351000Y-97521000D03*
%TD*%
D28*
%TO.C,R6027*%
X129401000Y-85646000D03*
X129401000Y-84626000D03*
%TD*%
D36*
%TO.C,C3123*%
X115921000Y-99816000D03*
X115281001Y-99816000D03*
%TD*%
D25*
%TO.C,D5002*%
X147401000Y-71901000D03*
X147401000Y-70501000D03*
%TD*%
D27*
%TO.C,C3117*%
X139376000Y-105301000D03*
X139376000Y-104661000D03*
%TD*%
D28*
%TO.C,R1018*%
X105451000Y-117751000D03*
X105451000Y-116731000D03*
%TD*%
D27*
%TO.C,C3104*%
X120841000Y-100886000D03*
X120841000Y-100246000D03*
%TD*%
D29*
%TO.C,C5012*%
X150381000Y-86471000D03*
X150381000Y-87431000D03*
%TD*%
D67*
%TO.C,C3066*%
X116781554Y-97971703D03*
X117000447Y-97370299D03*
%TD*%
D68*
%TO.C,L3001*%
X159101000Y-114401000D03*
X159101000Y-112251000D03*
%TD*%
D38*
%TO.C,R3010*%
X167351000Y-97526000D03*
X166331000Y-97526000D03*
%TD*%
D32*
%TO.C,TP3005*%
X166367000Y-124084000D03*
%TD*%
%TO.C,TP3002*%
X149651000Y-115176000D03*
%TD*%
D28*
%TO.C,R6019*%
X142301000Y-127161000D03*
X142301000Y-126141000D03*
%TD*%
D69*
%TO.C,C3024*%
X117259596Y-99414893D03*
X117861000Y-99196000D03*
%TD*%
D35*
%TO.C,FB3007*%
X105901000Y-88831000D03*
X106921000Y-88831000D03*
%TD*%
D27*
%TO.C,C3072*%
X119911000Y-98291000D03*
X119911000Y-97651000D03*
%TD*%
D30*
%TO.C,C6004*%
X139701000Y-120646000D03*
X138741000Y-120646000D03*
%TD*%
D38*
%TO.C,R6020*%
X140361000Y-123096000D03*
X139341000Y-123096000D03*
%TD*%
D46*
%TO.C,D6005*%
X133811000Y-127066000D03*
X135211000Y-127066000D03*
%TD*%
D31*
%TO.C,C4016*%
X118234492Y-128650984D03*
X118234492Y-129290984D03*
%TD*%
D27*
%TO.C,C3040*%
X118271000Y-100456000D03*
X118271000Y-99816000D03*
%TD*%
D70*
%TO.C,C3067*%
X121479850Y-97725922D03*
X122059888Y-97455445D03*
%TD*%
D30*
%TO.C,C5010*%
X154961000Y-80721000D03*
X154001000Y-80721000D03*
%TD*%
D26*
%TO.C,C3073*%
X119731000Y-85751000D03*
X119731000Y-84791000D03*
%TD*%
D60*
%TO.C,L3003*%
X154276000Y-121295446D03*
X152126000Y-121295446D03*
%TD*%
D36*
%TO.C,C3112*%
X110841000Y-90801000D03*
X110201000Y-90801000D03*
%TD*%
D30*
%TO.C,C3020*%
X164671625Y-96401000D03*
X163711625Y-96401000D03*
%TD*%
D71*
%TO.C,C3006*%
X152226000Y-115170446D03*
X152226000Y-113270446D03*
%TD*%
D46*
%TO.C,D6004*%
X133811000Y-125346000D03*
X135211000Y-125346000D03*
%TD*%
D72*
%TO.C,C3085*%
X119950446Y-104305299D03*
X119731553Y-104906703D03*
%TD*%
D42*
%TO.C,C3118*%
X123014726Y-104119726D03*
X123467275Y-104572275D03*
%TD*%
D28*
%TO.C,R1058*%
X131657000Y-140681000D03*
X131657000Y-139661000D03*
%TD*%
D26*
%TO.C,C3090*%
X139776000Y-99386000D03*
X139776000Y-98426000D03*
%TD*%
D24*
%TO.C,R5030*%
X157126000Y-70191000D03*
X157126000Y-71211000D03*
%TD*%
D34*
%TO.C,C3052*%
X133981000Y-100081000D03*
X134941000Y-100081000D03*
%TD*%
D39*
%TO.C,C3068*%
X121606000Y-98426000D03*
X122246000Y-98426000D03*
%TD*%
D36*
%TO.C,C4012*%
X124554492Y-132570984D03*
X123914492Y-132570984D03*
%TD*%
D49*
%TO.C,D6011*%
X126101000Y-83366000D03*
X126101000Y-82566000D03*
%TD*%
D27*
%TO.C,C4015*%
X117434492Y-130100984D03*
X117434492Y-129460984D03*
%TD*%
D29*
%TO.C,C1005*%
X109621000Y-105161000D03*
X109621000Y-106121000D03*
%TD*%
D31*
%TO.C,C3106*%
X138891400Y-96401000D03*
X138891400Y-97041000D03*
%TD*%
D39*
%TO.C,C3029*%
X117371000Y-98406000D03*
X118011000Y-98406000D03*
%TD*%
D32*
%TO.C,TP3004*%
X165031000Y-113583000D03*
%TD*%
D26*
%TO.C,C1006*%
X109621000Y-104071000D03*
X109621000Y-103111000D03*
%TD*%
D60*
%TO.C,L3004*%
X166241625Y-104361000D03*
X164091625Y-104361000D03*
%TD*%
D71*
%TO.C,C3022*%
X161315625Y-102001000D03*
X161315625Y-100101000D03*
%TD*%
D39*
%TO.C,C3101*%
X123921000Y-103926000D03*
X124561000Y-103926000D03*
%TD*%
%TO.C,C4004*%
X117536000Y-126151000D03*
X118176000Y-126151000D03*
%TD*%
D71*
%TO.C,C3021*%
X163631625Y-102001000D03*
X163631625Y-100101000D03*
%TD*%
D34*
%TO.C,C3032*%
X133641000Y-104261000D03*
X134601000Y-104261000D03*
%TD*%
D25*
%TO.C,D5001*%
X150601000Y-71901000D03*
X150601000Y-70501000D03*
%TD*%
D34*
%TO.C,C3016*%
X158396000Y-124541000D03*
X159356000Y-124541000D03*
%TD*%
D27*
%TO.C,C4010*%
X124624492Y-130090984D03*
X124624492Y-129450984D03*
%TD*%
%TO.C,C3071*%
X119291000Y-98876000D03*
X119291000Y-98236000D03*
%TD*%
D49*
%TO.C,D6010*%
X127201000Y-83366000D03*
X127201000Y-82566000D03*
%TD*%
%TO.C,D6007*%
X135941000Y-83366000D03*
X135941000Y-82566000D03*
%TD*%
D28*
%TO.C,FB3005*%
X140901000Y-95471000D03*
X140901000Y-94451000D03*
%TD*%
D39*
%TO.C,C3035*%
X119541000Y-99526000D03*
X120181000Y-99526000D03*
%TD*%
D32*
%TO.C,TP3008*%
X166339000Y-95853000D03*
%TD*%
D36*
%TO.C,C3098*%
X122396000Y-102736000D03*
X121756000Y-102736000D03*
%TD*%
D28*
%TO.C,R6025*%
X135941000Y-85646000D03*
X135941000Y-84626000D03*
%TD*%
D35*
%TO.C,R6013*%
X134191000Y-122226000D03*
X135211000Y-122226000D03*
%TD*%
D29*
%TO.C,C5011*%
X149281000Y-86471000D03*
X149281000Y-87431000D03*
%TD*%
D28*
%TO.C,R1047*%
X110901000Y-106171000D03*
X110901000Y-105151000D03*
%TD*%
D39*
%TO.C,C3044*%
X116440999Y-104471000D03*
X117081001Y-104471001D03*
%TD*%
D26*
%TO.C,C5007*%
X153121000Y-84861000D03*
X153121000Y-83901000D03*
%TD*%
D30*
%TO.C,C3008*%
X157076000Y-120901000D03*
X156116000Y-120901000D03*
%TD*%
D27*
%TO.C,C3080*%
X118021000Y-85711000D03*
X118021000Y-85071000D03*
%TD*%
D28*
%TO.C,R1045*%
X110931000Y-101711000D03*
X110931000Y-100691000D03*
%TD*%
D36*
%TO.C,C3113*%
X119002000Y-101523000D03*
X118362000Y-101523000D03*
%TD*%
D39*
%TO.C,C4011*%
X123094492Y-131780984D03*
X123734492Y-131780984D03*
%TD*%
D41*
%TO.C,C3046*%
X121389370Y-99716919D03*
X121841919Y-99264370D03*
%TD*%
D24*
%TO.C,FB3010*%
X140901000Y-104281000D03*
X140901000Y-105301000D03*
%TD*%
D35*
%TO.C,FB3008*%
X109861000Y-88831000D03*
X110881000Y-88831000D03*
%TD*%
D24*
%TO.C,R5029*%
X153426000Y-72581000D03*
X153426000Y-73601000D03*
%TD*%
D34*
%TO.C,C6001*%
X139311000Y-121666000D03*
X140271000Y-121666000D03*
%TD*%
M02*
