%TF.GenerationSoftware,KiCad,Pcbnew,9.0.1*%
%TF.CreationDate,2026-02-07T17:07:50-05:00*%
%TF.ProjectId,Leonhart,4c656f6e-6861-4727-942e-6b696361645f,rev?*%
%TF.SameCoordinates,Original*%
%TF.FileFunction,Legend,Top*%
%TF.FilePolarity,Positive*%
%FSLAX46Y46*%
G04 Gerber Fmt 4.6, Leading zero omitted, Abs format (unit mm)*
G04 Created by KiCad (PCBNEW 9.0.1) date 2026-02-07 17:07:50*
%MOMM*%
%LPD*%
G01*
G04 APERTURE LIST*
%ADD10C,0.200000*%
%ADD11C,0.400000*%
%ADD12C,0.100000*%
%ADD13C,0.160000*%
%ADD14C,0.300000*%
%ADD15C,0.150000*%
%ADD16C,0.120000*%
G04 APERTURE END LIST*
D10*
X140116236Y-89501007D02*
G75*
G02*
X142118233Y-87008396I2490464J50007D01*
G01*
X143021800Y-88951000D02*
X143006763Y-94866686D01*
X141606754Y-86501000D02*
G75*
G02*
X138606754Y-86501000I-1500000J-2500000D01*
G01*
X143006754Y-94866686D02*
G75*
G02*
X137190380Y-89001007I100046J5915786D01*
G01*
D11*
X138748175Y-88651000D02*
G75*
G02*
X138465333Y-88651000I-141421J0D01*
G01*
X138465333Y-88651000D02*
G75*
G02*
X138748175Y-88651000I141421J0D01*
G01*
D10*
X143006754Y-94866685D02*
G75*
G02*
X141097123Y-91751264I1750046J3215685D01*
G01*
X138099000Y-86989763D02*
G75*
G02*
X140116173Y-89500945I-492200J-2461137D01*
G01*
D11*
X141748175Y-88651000D02*
G75*
G02*
X141465333Y-88651000I-141421J0D01*
G01*
X141465333Y-88651000D02*
G75*
G02*
X141748175Y-88651000I141421J0D01*
G01*
D10*
X138606756Y-86501000D02*
X141606752Y-86501000D01*
D12*
X116532979Y-140727895D02*
X116990122Y-140727895D01*
X116761550Y-141527895D02*
X116761550Y-140727895D01*
X117180598Y-140727895D02*
X117713932Y-141527895D01*
X117713932Y-140727895D02*
X117180598Y-141527895D01*
D13*
X141334358Y-134890299D02*
X141334358Y-133890299D01*
X141334358Y-133890299D02*
X141667691Y-134604584D01*
X141667691Y-134604584D02*
X142001024Y-133890299D01*
X142001024Y-133890299D02*
X142001024Y-134890299D01*
X143001024Y-133937918D02*
X142905786Y-133890299D01*
X142905786Y-133890299D02*
X142762929Y-133890299D01*
X142762929Y-133890299D02*
X142620072Y-133937918D01*
X142620072Y-133937918D02*
X142524834Y-134033156D01*
X142524834Y-134033156D02*
X142477215Y-134128394D01*
X142477215Y-134128394D02*
X142429596Y-134318870D01*
X142429596Y-134318870D02*
X142429596Y-134461727D01*
X142429596Y-134461727D02*
X142477215Y-134652203D01*
X142477215Y-134652203D02*
X142524834Y-134747441D01*
X142524834Y-134747441D02*
X142620072Y-134842680D01*
X142620072Y-134842680D02*
X142762929Y-134890299D01*
X142762929Y-134890299D02*
X142858167Y-134890299D01*
X142858167Y-134890299D02*
X143001024Y-134842680D01*
X143001024Y-134842680D02*
X143048643Y-134795060D01*
X143048643Y-134795060D02*
X143048643Y-134461727D01*
X143048643Y-134461727D02*
X142858167Y-134461727D01*
X143477215Y-134890299D02*
X143477215Y-133890299D01*
X143477215Y-133890299D02*
X143810548Y-134604584D01*
X143810548Y-134604584D02*
X144143881Y-133890299D01*
X144143881Y-133890299D02*
X144143881Y-134890299D01*
D12*
X151314408Y-65747895D02*
X151047741Y-65366942D01*
X150857265Y-65747895D02*
X150857265Y-64947895D01*
X150857265Y-64947895D02*
X151162027Y-64947895D01*
X151162027Y-64947895D02*
X151238217Y-64985990D01*
X151238217Y-64985990D02*
X151276312Y-65024085D01*
X151276312Y-65024085D02*
X151314408Y-65100276D01*
X151314408Y-65100276D02*
X151314408Y-65214561D01*
X151314408Y-65214561D02*
X151276312Y-65290752D01*
X151276312Y-65290752D02*
X151238217Y-65328847D01*
X151238217Y-65328847D02*
X151162027Y-65366942D01*
X151162027Y-65366942D02*
X150857265Y-65366942D01*
X151542979Y-64947895D02*
X152000122Y-64947895D01*
X151771550Y-65747895D02*
X151771550Y-64947895D01*
X152228693Y-65709800D02*
X152342979Y-65747895D01*
X152342979Y-65747895D02*
X152533455Y-65747895D01*
X152533455Y-65747895D02*
X152609646Y-65709800D01*
X152609646Y-65709800D02*
X152647741Y-65671704D01*
X152647741Y-65671704D02*
X152685836Y-65595514D01*
X152685836Y-65595514D02*
X152685836Y-65519323D01*
X152685836Y-65519323D02*
X152647741Y-65443133D01*
X152647741Y-65443133D02*
X152609646Y-65405038D01*
X152609646Y-65405038D02*
X152533455Y-65366942D01*
X152533455Y-65366942D02*
X152381074Y-65328847D01*
X152381074Y-65328847D02*
X152304884Y-65290752D01*
X152304884Y-65290752D02*
X152266789Y-65252657D01*
X152266789Y-65252657D02*
X152228693Y-65176466D01*
X152228693Y-65176466D02*
X152228693Y-65100276D01*
X152228693Y-65100276D02*
X152266789Y-65024085D01*
X152266789Y-65024085D02*
X152304884Y-64985990D01*
X152304884Y-64985990D02*
X152381074Y-64947895D01*
X152381074Y-64947895D02*
X152571551Y-64947895D01*
X152571551Y-64947895D02*
X152685836Y-64985990D01*
X112226312Y-140765990D02*
X112150122Y-140727895D01*
X112150122Y-140727895D02*
X112035836Y-140727895D01*
X112035836Y-140727895D02*
X111921550Y-140765990D01*
X111921550Y-140765990D02*
X111845360Y-140842180D01*
X111845360Y-140842180D02*
X111807265Y-140918371D01*
X111807265Y-140918371D02*
X111769169Y-141070752D01*
X111769169Y-141070752D02*
X111769169Y-141185038D01*
X111769169Y-141185038D02*
X111807265Y-141337419D01*
X111807265Y-141337419D02*
X111845360Y-141413609D01*
X111845360Y-141413609D02*
X111921550Y-141489800D01*
X111921550Y-141489800D02*
X112035836Y-141527895D01*
X112035836Y-141527895D02*
X112112027Y-141527895D01*
X112112027Y-141527895D02*
X112226312Y-141489800D01*
X112226312Y-141489800D02*
X112264408Y-141451704D01*
X112264408Y-141451704D02*
X112264408Y-141185038D01*
X112264408Y-141185038D02*
X112112027Y-141185038D01*
X121667895Y-78544734D02*
X120867895Y-78544734D01*
X121667895Y-77706639D02*
X121286942Y-77973306D01*
X121667895Y-78163782D02*
X120867895Y-78163782D01*
X120867895Y-78163782D02*
X120867895Y-77859020D01*
X120867895Y-77859020D02*
X120905990Y-77782830D01*
X120905990Y-77782830D02*
X120944085Y-77744735D01*
X120944085Y-77744735D02*
X121020276Y-77706639D01*
X121020276Y-77706639D02*
X121134561Y-77706639D01*
X121134561Y-77706639D02*
X121210752Y-77744735D01*
X121210752Y-77744735D02*
X121248847Y-77782830D01*
X121248847Y-77782830D02*
X121286942Y-77859020D01*
X121286942Y-77859020D02*
X121286942Y-78163782D01*
X121744085Y-76830449D02*
X121705990Y-76906639D01*
X121705990Y-76906639D02*
X121629800Y-76982830D01*
X121629800Y-76982830D02*
X121515514Y-77097116D01*
X121515514Y-77097116D02*
X121477419Y-77173306D01*
X121477419Y-77173306D02*
X121477419Y-77249497D01*
X121667895Y-77211401D02*
X121629800Y-77287592D01*
X121629800Y-77287592D02*
X121553609Y-77363782D01*
X121553609Y-77363782D02*
X121401228Y-77401878D01*
X121401228Y-77401878D02*
X121134561Y-77401878D01*
X121134561Y-77401878D02*
X120982180Y-77363782D01*
X120982180Y-77363782D02*
X120905990Y-77287592D01*
X120905990Y-77287592D02*
X120867895Y-77211401D01*
X120867895Y-77211401D02*
X120867895Y-77059020D01*
X120867895Y-77059020D02*
X120905990Y-76982830D01*
X120905990Y-76982830D02*
X120982180Y-76906639D01*
X120982180Y-76906639D02*
X121134561Y-76868544D01*
X121134561Y-76868544D02*
X121401228Y-76868544D01*
X121401228Y-76868544D02*
X121553609Y-76906639D01*
X121553609Y-76906639D02*
X121629800Y-76982830D01*
X121629800Y-76982830D02*
X121667895Y-77059020D01*
X121667895Y-77059020D02*
X121667895Y-77211401D01*
X121667895Y-68204734D02*
X120867895Y-68204734D01*
X120867895Y-68204734D02*
X121439323Y-67938068D01*
X121439323Y-67938068D02*
X120867895Y-67671401D01*
X120867895Y-67671401D02*
X121667895Y-67671401D01*
X120867895Y-67138067D02*
X120867895Y-66985686D01*
X120867895Y-66985686D02*
X120905990Y-66909496D01*
X120905990Y-66909496D02*
X120982180Y-66833305D01*
X120982180Y-66833305D02*
X121134561Y-66795210D01*
X121134561Y-66795210D02*
X121401228Y-66795210D01*
X121401228Y-66795210D02*
X121553609Y-66833305D01*
X121553609Y-66833305D02*
X121629800Y-66909496D01*
X121629800Y-66909496D02*
X121667895Y-66985686D01*
X121667895Y-66985686D02*
X121667895Y-67138067D01*
X121667895Y-67138067D02*
X121629800Y-67214258D01*
X121629800Y-67214258D02*
X121553609Y-67290448D01*
X121553609Y-67290448D02*
X121401228Y-67328544D01*
X121401228Y-67328544D02*
X121134561Y-67328544D01*
X121134561Y-67328544D02*
X120982180Y-67290448D01*
X120982180Y-67290448D02*
X120905990Y-67214258D01*
X120905990Y-67214258D02*
X120867895Y-67138067D01*
X99634104Y-134764408D02*
X100015057Y-134497741D01*
X99634104Y-134307265D02*
X100434104Y-134307265D01*
X100434104Y-134307265D02*
X100434104Y-134612027D01*
X100434104Y-134612027D02*
X100396009Y-134688217D01*
X100396009Y-134688217D02*
X100357914Y-134726312D01*
X100357914Y-134726312D02*
X100281723Y-134764408D01*
X100281723Y-134764408D02*
X100167438Y-134764408D01*
X100167438Y-134764408D02*
X100091247Y-134726312D01*
X100091247Y-134726312D02*
X100053152Y-134688217D01*
X100053152Y-134688217D02*
X100015057Y-134612027D01*
X100015057Y-134612027D02*
X100015057Y-134307265D01*
X100434104Y-134992979D02*
X100434104Y-135450122D01*
X99634104Y-135221550D02*
X100434104Y-135221550D01*
X99672200Y-135678693D02*
X99634104Y-135792979D01*
X99634104Y-135792979D02*
X99634104Y-135983455D01*
X99634104Y-135983455D02*
X99672200Y-136059646D01*
X99672200Y-136059646D02*
X99710295Y-136097741D01*
X99710295Y-136097741D02*
X99786485Y-136135836D01*
X99786485Y-136135836D02*
X99862676Y-136135836D01*
X99862676Y-136135836D02*
X99938866Y-136097741D01*
X99938866Y-136097741D02*
X99976961Y-136059646D01*
X99976961Y-136059646D02*
X100015057Y-135983455D01*
X100015057Y-135983455D02*
X100053152Y-135831074D01*
X100053152Y-135831074D02*
X100091247Y-135754884D01*
X100091247Y-135754884D02*
X100129342Y-135716789D01*
X100129342Y-135716789D02*
X100205533Y-135678693D01*
X100205533Y-135678693D02*
X100281723Y-135678693D01*
X100281723Y-135678693D02*
X100357914Y-135716789D01*
X100357914Y-135716789D02*
X100396009Y-135754884D01*
X100396009Y-135754884D02*
X100434104Y-135831074D01*
X100434104Y-135831074D02*
X100434104Y-136021551D01*
X100434104Y-136021551D02*
X100396009Y-136135836D01*
X114504408Y-141527895D02*
X114237741Y-141146942D01*
X114047265Y-141527895D02*
X114047265Y-140727895D01*
X114047265Y-140727895D02*
X114352027Y-140727895D01*
X114352027Y-140727895D02*
X114428217Y-140765990D01*
X114428217Y-140765990D02*
X114466312Y-140804085D01*
X114466312Y-140804085D02*
X114504408Y-140880276D01*
X114504408Y-140880276D02*
X114504408Y-140994561D01*
X114504408Y-140994561D02*
X114466312Y-141070752D01*
X114466312Y-141070752D02*
X114428217Y-141108847D01*
X114428217Y-141108847D02*
X114352027Y-141146942D01*
X114352027Y-141146942D02*
X114047265Y-141146942D01*
X114771074Y-140727895D02*
X115304408Y-141527895D01*
X115304408Y-140727895D02*
X114771074Y-141527895D01*
X100396009Y-117076312D02*
X100434104Y-117000122D01*
X100434104Y-117000122D02*
X100434104Y-116885836D01*
X100434104Y-116885836D02*
X100396009Y-116771550D01*
X100396009Y-116771550D02*
X100319819Y-116695360D01*
X100319819Y-116695360D02*
X100243628Y-116657265D01*
X100243628Y-116657265D02*
X100091247Y-116619169D01*
X100091247Y-116619169D02*
X99976961Y-116619169D01*
X99976961Y-116619169D02*
X99824580Y-116657265D01*
X99824580Y-116657265D02*
X99748390Y-116695360D01*
X99748390Y-116695360D02*
X99672200Y-116771550D01*
X99672200Y-116771550D02*
X99634104Y-116885836D01*
X99634104Y-116885836D02*
X99634104Y-116962027D01*
X99634104Y-116962027D02*
X99672200Y-117076312D01*
X99672200Y-117076312D02*
X99710295Y-117114408D01*
X99710295Y-117114408D02*
X99976961Y-117114408D01*
X99976961Y-117114408D02*
X99976961Y-116962027D01*
X100434104Y-124031074D02*
X100434104Y-124526312D01*
X100434104Y-124526312D02*
X100129342Y-124259646D01*
X100129342Y-124259646D02*
X100129342Y-124373931D01*
X100129342Y-124373931D02*
X100091247Y-124450122D01*
X100091247Y-124450122D02*
X100053152Y-124488217D01*
X100053152Y-124488217D02*
X99976961Y-124526312D01*
X99976961Y-124526312D02*
X99786485Y-124526312D01*
X99786485Y-124526312D02*
X99710295Y-124488217D01*
X99710295Y-124488217D02*
X99672200Y-124450122D01*
X99672200Y-124450122D02*
X99634104Y-124373931D01*
X99634104Y-124373931D02*
X99634104Y-124145360D01*
X99634104Y-124145360D02*
X99672200Y-124069169D01*
X99672200Y-124069169D02*
X99710295Y-124031074D01*
X100434104Y-124754884D02*
X99634104Y-125021551D01*
X99634104Y-125021551D02*
X100434104Y-125288217D01*
X100434104Y-125478693D02*
X100434104Y-125973931D01*
X100434104Y-125973931D02*
X100129342Y-125707265D01*
X100129342Y-125707265D02*
X100129342Y-125821550D01*
X100129342Y-125821550D02*
X100091247Y-125897741D01*
X100091247Y-125897741D02*
X100053152Y-125935836D01*
X100053152Y-125935836D02*
X99976961Y-125973931D01*
X99976961Y-125973931D02*
X99786485Y-125973931D01*
X99786485Y-125973931D02*
X99710295Y-125935836D01*
X99710295Y-125935836D02*
X99672200Y-125897741D01*
X99672200Y-125897741D02*
X99634104Y-125821550D01*
X99634104Y-125821550D02*
X99634104Y-125592979D01*
X99634104Y-125592979D02*
X99672200Y-125516788D01*
X99672200Y-125516788D02*
X99710295Y-125478693D01*
X100434104Y-129445836D02*
X100434104Y-129902979D01*
X99634104Y-129674407D02*
X100434104Y-129674407D01*
X100434104Y-130093455D02*
X99634104Y-130626789D01*
X100434104Y-130626789D02*
X99634104Y-130093455D01*
X99710295Y-132114408D02*
X99672200Y-132076312D01*
X99672200Y-132076312D02*
X99634104Y-131962027D01*
X99634104Y-131962027D02*
X99634104Y-131885836D01*
X99634104Y-131885836D02*
X99672200Y-131771550D01*
X99672200Y-131771550D02*
X99748390Y-131695360D01*
X99748390Y-131695360D02*
X99824580Y-131657265D01*
X99824580Y-131657265D02*
X99976961Y-131619169D01*
X99976961Y-131619169D02*
X100091247Y-131619169D01*
X100091247Y-131619169D02*
X100243628Y-131657265D01*
X100243628Y-131657265D02*
X100319819Y-131695360D01*
X100319819Y-131695360D02*
X100396009Y-131771550D01*
X100396009Y-131771550D02*
X100434104Y-131885836D01*
X100434104Y-131885836D02*
X100434104Y-131962027D01*
X100434104Y-131962027D02*
X100396009Y-132076312D01*
X100396009Y-132076312D02*
X100357914Y-132114408D01*
X100434104Y-132342979D02*
X100434104Y-132800122D01*
X99634104Y-132571550D02*
X100434104Y-132571550D01*
X99672200Y-133028693D02*
X99634104Y-133142979D01*
X99634104Y-133142979D02*
X99634104Y-133333455D01*
X99634104Y-133333455D02*
X99672200Y-133409646D01*
X99672200Y-133409646D02*
X99710295Y-133447741D01*
X99710295Y-133447741D02*
X99786485Y-133485836D01*
X99786485Y-133485836D02*
X99862676Y-133485836D01*
X99862676Y-133485836D02*
X99938866Y-133447741D01*
X99938866Y-133447741D02*
X99976961Y-133409646D01*
X99976961Y-133409646D02*
X100015057Y-133333455D01*
X100015057Y-133333455D02*
X100053152Y-133181074D01*
X100053152Y-133181074D02*
X100091247Y-133104884D01*
X100091247Y-133104884D02*
X100129342Y-133066789D01*
X100129342Y-133066789D02*
X100205533Y-133028693D01*
X100205533Y-133028693D02*
X100281723Y-133028693D01*
X100281723Y-133028693D02*
X100357914Y-133066789D01*
X100357914Y-133066789D02*
X100396009Y-133104884D01*
X100396009Y-133104884D02*
X100434104Y-133181074D01*
X100434104Y-133181074D02*
X100434104Y-133371551D01*
X100434104Y-133371551D02*
X100396009Y-133485836D01*
X146072504Y-64947895D02*
X146529647Y-64947895D01*
X146301075Y-65747895D02*
X146301075Y-64947895D01*
X146720123Y-64947895D02*
X147253457Y-65747895D01*
X147253457Y-64947895D02*
X146720123Y-65747895D01*
D13*
X163752760Y-134890299D02*
X163752760Y-133890299D01*
X163752760Y-133890299D02*
X164086093Y-134604584D01*
X164086093Y-134604584D02*
X164419426Y-133890299D01*
X164419426Y-133890299D02*
X164419426Y-134890299D01*
X165467045Y-134795060D02*
X165419426Y-134842680D01*
X165419426Y-134842680D02*
X165276569Y-134890299D01*
X165276569Y-134890299D02*
X165181331Y-134890299D01*
X165181331Y-134890299D02*
X165038474Y-134842680D01*
X165038474Y-134842680D02*
X164943236Y-134747441D01*
X164943236Y-134747441D02*
X164895617Y-134652203D01*
X164895617Y-134652203D02*
X164847998Y-134461727D01*
X164847998Y-134461727D02*
X164847998Y-134318870D01*
X164847998Y-134318870D02*
X164895617Y-134128394D01*
X164895617Y-134128394D02*
X164943236Y-134033156D01*
X164943236Y-134033156D02*
X165038474Y-133937918D01*
X165038474Y-133937918D02*
X165181331Y-133890299D01*
X165181331Y-133890299D02*
X165276569Y-133890299D01*
X165276569Y-133890299D02*
X165419426Y-133937918D01*
X165419426Y-133937918D02*
X165467045Y-133985537D01*
X165895617Y-133890299D02*
X165895617Y-134699822D01*
X165895617Y-134699822D02*
X165943236Y-134795060D01*
X165943236Y-134795060D02*
X165990855Y-134842680D01*
X165990855Y-134842680D02*
X166086093Y-134890299D01*
X166086093Y-134890299D02*
X166276569Y-134890299D01*
X166276569Y-134890299D02*
X166371807Y-134842680D01*
X166371807Y-134842680D02*
X166419426Y-134795060D01*
X166419426Y-134795060D02*
X166467045Y-134699822D01*
X166467045Y-134699822D02*
X166467045Y-133890299D01*
D12*
X120905990Y-80025687D02*
X120867895Y-80101877D01*
X120867895Y-80101877D02*
X120867895Y-80216163D01*
X120867895Y-80216163D02*
X120905990Y-80330449D01*
X120905990Y-80330449D02*
X120982180Y-80406639D01*
X120982180Y-80406639D02*
X121058371Y-80444734D01*
X121058371Y-80444734D02*
X121210752Y-80482830D01*
X121210752Y-80482830D02*
X121325038Y-80482830D01*
X121325038Y-80482830D02*
X121477419Y-80444734D01*
X121477419Y-80444734D02*
X121553609Y-80406639D01*
X121553609Y-80406639D02*
X121629800Y-80330449D01*
X121629800Y-80330449D02*
X121667895Y-80216163D01*
X121667895Y-80216163D02*
X121667895Y-80139972D01*
X121667895Y-80139972D02*
X121629800Y-80025687D01*
X121629800Y-80025687D02*
X121591704Y-79987591D01*
X121591704Y-79987591D02*
X121325038Y-79987591D01*
X121325038Y-79987591D02*
X121325038Y-80139972D01*
X149114408Y-65747895D02*
X148847741Y-65366942D01*
X148657265Y-65747895D02*
X148657265Y-64947895D01*
X148657265Y-64947895D02*
X148962027Y-64947895D01*
X148962027Y-64947895D02*
X149038217Y-64985990D01*
X149038217Y-64985990D02*
X149076312Y-65024085D01*
X149076312Y-65024085D02*
X149114408Y-65100276D01*
X149114408Y-65100276D02*
X149114408Y-65214561D01*
X149114408Y-65214561D02*
X149076312Y-65290752D01*
X149076312Y-65290752D02*
X149038217Y-65328847D01*
X149038217Y-65328847D02*
X148962027Y-65366942D01*
X148962027Y-65366942D02*
X148657265Y-65366942D01*
X149381074Y-64947895D02*
X149914408Y-65747895D01*
X149914408Y-64947895D02*
X149381074Y-65747895D01*
X99634104Y-103407265D02*
X100434104Y-103407265D01*
X100434104Y-103407265D02*
X99862676Y-103673931D01*
X99862676Y-103673931D02*
X100434104Y-103940598D01*
X100434104Y-103940598D02*
X99634104Y-103940598D01*
X100434104Y-104473932D02*
X100434104Y-104626313D01*
X100434104Y-104626313D02*
X100396009Y-104702503D01*
X100396009Y-104702503D02*
X100319819Y-104778694D01*
X100319819Y-104778694D02*
X100167438Y-104816789D01*
X100167438Y-104816789D02*
X99900771Y-104816789D01*
X99900771Y-104816789D02*
X99748390Y-104778694D01*
X99748390Y-104778694D02*
X99672200Y-104702503D01*
X99672200Y-104702503D02*
X99634104Y-104626313D01*
X99634104Y-104626313D02*
X99634104Y-104473932D01*
X99634104Y-104473932D02*
X99672200Y-104397741D01*
X99672200Y-104397741D02*
X99748390Y-104321551D01*
X99748390Y-104321551D02*
X99900771Y-104283455D01*
X99900771Y-104283455D02*
X100167438Y-104283455D01*
X100167438Y-104283455D02*
X100319819Y-104321551D01*
X100319819Y-104321551D02*
X100396009Y-104397741D01*
X100396009Y-104397741D02*
X100434104Y-104473932D01*
X124603931Y-142888847D02*
X124718217Y-142926942D01*
X124718217Y-142926942D02*
X124756312Y-142965038D01*
X124756312Y-142965038D02*
X124794408Y-143041228D01*
X124794408Y-143041228D02*
X124794408Y-143155514D01*
X124794408Y-143155514D02*
X124756312Y-143231704D01*
X124756312Y-143231704D02*
X124718217Y-143269800D01*
X124718217Y-143269800D02*
X124642027Y-143307895D01*
X124642027Y-143307895D02*
X124337265Y-143307895D01*
X124337265Y-143307895D02*
X124337265Y-142507895D01*
X124337265Y-142507895D02*
X124603931Y-142507895D01*
X124603931Y-142507895D02*
X124680122Y-142545990D01*
X124680122Y-142545990D02*
X124718217Y-142584085D01*
X124718217Y-142584085D02*
X124756312Y-142660276D01*
X124756312Y-142660276D02*
X124756312Y-142736466D01*
X124756312Y-142736466D02*
X124718217Y-142812657D01*
X124718217Y-142812657D02*
X124680122Y-142850752D01*
X124680122Y-142850752D02*
X124603931Y-142888847D01*
X124603931Y-142888847D02*
X124337265Y-142888847D01*
X126394408Y-143307895D02*
X126127741Y-142926942D01*
X125937265Y-143307895D02*
X125937265Y-142507895D01*
X125937265Y-142507895D02*
X126242027Y-142507895D01*
X126242027Y-142507895D02*
X126318217Y-142545990D01*
X126318217Y-142545990D02*
X126356312Y-142584085D01*
X126356312Y-142584085D02*
X126394408Y-142660276D01*
X126394408Y-142660276D02*
X126394408Y-142774561D01*
X126394408Y-142774561D02*
X126356312Y-142850752D01*
X126356312Y-142850752D02*
X126318217Y-142888847D01*
X126318217Y-142888847D02*
X126242027Y-142926942D01*
X126242027Y-142926942D02*
X125937265Y-142926942D01*
X127003931Y-142888847D02*
X126737265Y-142888847D01*
X126737265Y-143307895D02*
X126737265Y-142507895D01*
X126737265Y-142507895D02*
X127118217Y-142507895D01*
D14*
X173267415Y-141920638D02*
X172600748Y-140968257D01*
X172124558Y-141920638D02*
X172124558Y-139920638D01*
X172124558Y-139920638D02*
X172886463Y-139920638D01*
X172886463Y-139920638D02*
X173076939Y-140015876D01*
X173076939Y-140015876D02*
X173172177Y-140111114D01*
X173172177Y-140111114D02*
X173267415Y-140301590D01*
X173267415Y-140301590D02*
X173267415Y-140587304D01*
X173267415Y-140587304D02*
X173172177Y-140777780D01*
X173172177Y-140777780D02*
X173076939Y-140873019D01*
X173076939Y-140873019D02*
X172886463Y-140968257D01*
X172886463Y-140968257D02*
X172124558Y-140968257D01*
X174886463Y-141825400D02*
X174695987Y-141920638D01*
X174695987Y-141920638D02*
X174315034Y-141920638D01*
X174315034Y-141920638D02*
X174124558Y-141825400D01*
X174124558Y-141825400D02*
X174029320Y-141634923D01*
X174029320Y-141634923D02*
X174029320Y-140873019D01*
X174029320Y-140873019D02*
X174124558Y-140682542D01*
X174124558Y-140682542D02*
X174315034Y-140587304D01*
X174315034Y-140587304D02*
X174695987Y-140587304D01*
X174695987Y-140587304D02*
X174886463Y-140682542D01*
X174886463Y-140682542D02*
X174981701Y-140873019D01*
X174981701Y-140873019D02*
X174981701Y-141063495D01*
X174981701Y-141063495D02*
X174029320Y-141253971D01*
X175648368Y-140587304D02*
X176124558Y-141920638D01*
X176124558Y-141920638D02*
X176600749Y-140587304D01*
X178791226Y-141349209D02*
X179743607Y-141349209D01*
X178600750Y-141920638D02*
X179267416Y-139920638D01*
X179267416Y-139920638D02*
X179934083Y-141920638D01*
D12*
X100396009Y-122676312D02*
X100434104Y-122600122D01*
X100434104Y-122600122D02*
X100434104Y-122485836D01*
X100434104Y-122485836D02*
X100396009Y-122371550D01*
X100396009Y-122371550D02*
X100319819Y-122295360D01*
X100319819Y-122295360D02*
X100243628Y-122257265D01*
X100243628Y-122257265D02*
X100091247Y-122219169D01*
X100091247Y-122219169D02*
X99976961Y-122219169D01*
X99976961Y-122219169D02*
X99824580Y-122257265D01*
X99824580Y-122257265D02*
X99748390Y-122295360D01*
X99748390Y-122295360D02*
X99672200Y-122371550D01*
X99672200Y-122371550D02*
X99634104Y-122485836D01*
X99634104Y-122485836D02*
X99634104Y-122562027D01*
X99634104Y-122562027D02*
X99672200Y-122676312D01*
X99672200Y-122676312D02*
X99710295Y-122714408D01*
X99710295Y-122714408D02*
X99976961Y-122714408D01*
X99976961Y-122714408D02*
X99976961Y-122562027D01*
X99634104Y-105989647D02*
X100434104Y-105989647D01*
X100434104Y-105989647D02*
X99862676Y-106256313D01*
X99862676Y-106256313D02*
X100434104Y-106522980D01*
X100434104Y-106522980D02*
X99634104Y-106522980D01*
X99634104Y-106903933D02*
X100434104Y-106903933D01*
X99710295Y-114214408D02*
X99672200Y-114176312D01*
X99672200Y-114176312D02*
X99634104Y-114062027D01*
X99634104Y-114062027D02*
X99634104Y-113985836D01*
X99634104Y-113985836D02*
X99672200Y-113871550D01*
X99672200Y-113871550D02*
X99748390Y-113795360D01*
X99748390Y-113795360D02*
X99824580Y-113757265D01*
X99824580Y-113757265D02*
X99976961Y-113719169D01*
X99976961Y-113719169D02*
X100091247Y-113719169D01*
X100091247Y-113719169D02*
X100243628Y-113757265D01*
X100243628Y-113757265D02*
X100319819Y-113795360D01*
X100319819Y-113795360D02*
X100396009Y-113871550D01*
X100396009Y-113871550D02*
X100434104Y-113985836D01*
X100434104Y-113985836D02*
X100434104Y-114062027D01*
X100434104Y-114062027D02*
X100396009Y-114176312D01*
X100396009Y-114176312D02*
X100357914Y-114214408D01*
X99672200Y-114519169D02*
X99634104Y-114633455D01*
X99634104Y-114633455D02*
X99634104Y-114823931D01*
X99634104Y-114823931D02*
X99672200Y-114900122D01*
X99672200Y-114900122D02*
X99710295Y-114938217D01*
X99710295Y-114938217D02*
X99786485Y-114976312D01*
X99786485Y-114976312D02*
X99862676Y-114976312D01*
X99862676Y-114976312D02*
X99938866Y-114938217D01*
X99938866Y-114938217D02*
X99976961Y-114900122D01*
X99976961Y-114900122D02*
X100015057Y-114823931D01*
X100015057Y-114823931D02*
X100053152Y-114671550D01*
X100053152Y-114671550D02*
X100091247Y-114595360D01*
X100091247Y-114595360D02*
X100129342Y-114557265D01*
X100129342Y-114557265D02*
X100205533Y-114519169D01*
X100205533Y-114519169D02*
X100281723Y-114519169D01*
X100281723Y-114519169D02*
X100357914Y-114557265D01*
X100357914Y-114557265D02*
X100396009Y-114595360D01*
X100396009Y-114595360D02*
X100434104Y-114671550D01*
X100434104Y-114671550D02*
X100434104Y-114862027D01*
X100434104Y-114862027D02*
X100396009Y-114976312D01*
D13*
X148834358Y-134890299D02*
X148834358Y-133890299D01*
X148834358Y-133890299D02*
X149215310Y-133890299D01*
X149215310Y-133890299D02*
X149310548Y-133937918D01*
X149310548Y-133937918D02*
X149358167Y-133985537D01*
X149358167Y-133985537D02*
X149405786Y-134080775D01*
X149405786Y-134080775D02*
X149405786Y-134223632D01*
X149405786Y-134223632D02*
X149358167Y-134318870D01*
X149358167Y-134318870D02*
X149310548Y-134366489D01*
X149310548Y-134366489D02*
X149215310Y-134414108D01*
X149215310Y-134414108D02*
X148834358Y-134414108D01*
X149739120Y-133890299D02*
X149977215Y-134890299D01*
X149977215Y-134890299D02*
X150167691Y-134176013D01*
X150167691Y-134176013D02*
X150358167Y-134890299D01*
X150358167Y-134890299D02*
X150596263Y-133890299D01*
X151548643Y-134890299D02*
X151215310Y-134414108D01*
X150977215Y-134890299D02*
X150977215Y-133890299D01*
X150977215Y-133890299D02*
X151358167Y-133890299D01*
X151358167Y-133890299D02*
X151453405Y-133937918D01*
X151453405Y-133937918D02*
X151501024Y-133985537D01*
X151501024Y-133985537D02*
X151548643Y-134080775D01*
X151548643Y-134080775D02*
X151548643Y-134223632D01*
X151548643Y-134223632D02*
X151501024Y-134318870D01*
X151501024Y-134318870D02*
X151453405Y-134366489D01*
X151453405Y-134366489D02*
X151358167Y-134414108D01*
X151358167Y-134414108D02*
X150977215Y-134414108D01*
D12*
X128137265Y-143307895D02*
X128137265Y-142507895D01*
X128137265Y-142507895D02*
X128442027Y-142507895D01*
X128442027Y-142507895D02*
X128518217Y-142545990D01*
X128518217Y-142545990D02*
X128556312Y-142584085D01*
X128556312Y-142584085D02*
X128594408Y-142660276D01*
X128594408Y-142660276D02*
X128594408Y-142774561D01*
X128594408Y-142774561D02*
X128556312Y-142850752D01*
X128556312Y-142850752D02*
X128518217Y-142888847D01*
X128518217Y-142888847D02*
X128442027Y-142926942D01*
X128442027Y-142926942D02*
X128137265Y-142926942D01*
X143181074Y-64947895D02*
X143676312Y-64947895D01*
X143676312Y-64947895D02*
X143409646Y-65252657D01*
X143409646Y-65252657D02*
X143523931Y-65252657D01*
X143523931Y-65252657D02*
X143600122Y-65290752D01*
X143600122Y-65290752D02*
X143638217Y-65328847D01*
X143638217Y-65328847D02*
X143676312Y-65405038D01*
X143676312Y-65405038D02*
X143676312Y-65595514D01*
X143676312Y-65595514D02*
X143638217Y-65671704D01*
X143638217Y-65671704D02*
X143600122Y-65709800D01*
X143600122Y-65709800D02*
X143523931Y-65747895D01*
X143523931Y-65747895D02*
X143295360Y-65747895D01*
X143295360Y-65747895D02*
X143219169Y-65709800D01*
X143219169Y-65709800D02*
X143181074Y-65671704D01*
X143904884Y-64947895D02*
X144171551Y-65747895D01*
X144171551Y-65747895D02*
X144438217Y-64947895D01*
X144628693Y-64947895D02*
X145123931Y-64947895D01*
X145123931Y-64947895D02*
X144857265Y-65252657D01*
X144857265Y-65252657D02*
X144971550Y-65252657D01*
X144971550Y-65252657D02*
X145047741Y-65290752D01*
X145047741Y-65290752D02*
X145085836Y-65328847D01*
X145085836Y-65328847D02*
X145123931Y-65405038D01*
X145123931Y-65405038D02*
X145123931Y-65595514D01*
X145123931Y-65595514D02*
X145085836Y-65671704D01*
X145085836Y-65671704D02*
X145047741Y-65709800D01*
X145047741Y-65709800D02*
X144971550Y-65747895D01*
X144971550Y-65747895D02*
X144742979Y-65747895D01*
X144742979Y-65747895D02*
X144666788Y-65709800D01*
X144666788Y-65709800D02*
X144628693Y-65671704D01*
X153964408Y-65671704D02*
X153926312Y-65709800D01*
X153926312Y-65709800D02*
X153812027Y-65747895D01*
X153812027Y-65747895D02*
X153735836Y-65747895D01*
X153735836Y-65747895D02*
X153621550Y-65709800D01*
X153621550Y-65709800D02*
X153545360Y-65633609D01*
X153545360Y-65633609D02*
X153507265Y-65557419D01*
X153507265Y-65557419D02*
X153469169Y-65405038D01*
X153469169Y-65405038D02*
X153469169Y-65290752D01*
X153469169Y-65290752D02*
X153507265Y-65138371D01*
X153507265Y-65138371D02*
X153545360Y-65062180D01*
X153545360Y-65062180D02*
X153621550Y-64985990D01*
X153621550Y-64985990D02*
X153735836Y-64947895D01*
X153735836Y-64947895D02*
X153812027Y-64947895D01*
X153812027Y-64947895D02*
X153926312Y-64985990D01*
X153926312Y-64985990D02*
X153964408Y-65024085D01*
X154192979Y-64947895D02*
X154650122Y-64947895D01*
X154421550Y-65747895D02*
X154421550Y-64947895D01*
X154878693Y-65709800D02*
X154992979Y-65747895D01*
X154992979Y-65747895D02*
X155183455Y-65747895D01*
X155183455Y-65747895D02*
X155259646Y-65709800D01*
X155259646Y-65709800D02*
X155297741Y-65671704D01*
X155297741Y-65671704D02*
X155335836Y-65595514D01*
X155335836Y-65595514D02*
X155335836Y-65519323D01*
X155335836Y-65519323D02*
X155297741Y-65443133D01*
X155297741Y-65443133D02*
X155259646Y-65405038D01*
X155259646Y-65405038D02*
X155183455Y-65366942D01*
X155183455Y-65366942D02*
X155031074Y-65328847D01*
X155031074Y-65328847D02*
X154954884Y-65290752D01*
X154954884Y-65290752D02*
X154916789Y-65252657D01*
X154916789Y-65252657D02*
X154878693Y-65176466D01*
X154878693Y-65176466D02*
X154878693Y-65100276D01*
X154878693Y-65100276D02*
X154916789Y-65024085D01*
X154916789Y-65024085D02*
X154954884Y-64985990D01*
X154954884Y-64985990D02*
X155031074Y-64947895D01*
X155031074Y-64947895D02*
X155221551Y-64947895D01*
X155221551Y-64947895D02*
X155335836Y-64985990D01*
X157026312Y-64985990D02*
X156950122Y-64947895D01*
X156950122Y-64947895D02*
X156835836Y-64947895D01*
X156835836Y-64947895D02*
X156721550Y-64985990D01*
X156721550Y-64985990D02*
X156645360Y-65062180D01*
X156645360Y-65062180D02*
X156607265Y-65138371D01*
X156607265Y-65138371D02*
X156569169Y-65290752D01*
X156569169Y-65290752D02*
X156569169Y-65405038D01*
X156569169Y-65405038D02*
X156607265Y-65557419D01*
X156607265Y-65557419D02*
X156645360Y-65633609D01*
X156645360Y-65633609D02*
X156721550Y-65709800D01*
X156721550Y-65709800D02*
X156835836Y-65747895D01*
X156835836Y-65747895D02*
X156912027Y-65747895D01*
X156912027Y-65747895D02*
X157026312Y-65709800D01*
X157026312Y-65709800D02*
X157064408Y-65671704D01*
X157064408Y-65671704D02*
X157064408Y-65405038D01*
X157064408Y-65405038D02*
X156912027Y-65405038D01*
X99634104Y-127414408D02*
X100015057Y-127147741D01*
X99634104Y-126957265D02*
X100434104Y-126957265D01*
X100434104Y-126957265D02*
X100434104Y-127262027D01*
X100434104Y-127262027D02*
X100396009Y-127338217D01*
X100396009Y-127338217D02*
X100357914Y-127376312D01*
X100357914Y-127376312D02*
X100281723Y-127414408D01*
X100281723Y-127414408D02*
X100167438Y-127414408D01*
X100167438Y-127414408D02*
X100091247Y-127376312D01*
X100091247Y-127376312D02*
X100053152Y-127338217D01*
X100053152Y-127338217D02*
X100015057Y-127262027D01*
X100015057Y-127262027D02*
X100015057Y-126957265D01*
X100434104Y-127681074D02*
X99634104Y-128214408D01*
X100434104Y-128214408D02*
X99634104Y-127681074D01*
X99710295Y-108664408D02*
X99672200Y-108626312D01*
X99672200Y-108626312D02*
X99634104Y-108512027D01*
X99634104Y-108512027D02*
X99634104Y-108435836D01*
X99634104Y-108435836D02*
X99672200Y-108321550D01*
X99672200Y-108321550D02*
X99748390Y-108245360D01*
X99748390Y-108245360D02*
X99824580Y-108207265D01*
X99824580Y-108207265D02*
X99976961Y-108169169D01*
X99976961Y-108169169D02*
X100091247Y-108169169D01*
X100091247Y-108169169D02*
X100243628Y-108207265D01*
X100243628Y-108207265D02*
X100319819Y-108245360D01*
X100319819Y-108245360D02*
X100396009Y-108321550D01*
X100396009Y-108321550D02*
X100434104Y-108435836D01*
X100434104Y-108435836D02*
X100434104Y-108512027D01*
X100434104Y-108512027D02*
X100396009Y-108626312D01*
X100396009Y-108626312D02*
X100357914Y-108664408D01*
X99634104Y-109388217D02*
X99634104Y-109007265D01*
X99634104Y-109007265D02*
X100434104Y-109007265D01*
X99634104Y-109654884D02*
X100434104Y-109654884D01*
X99634104Y-110112027D02*
X100091247Y-109769169D01*
X100434104Y-110112027D02*
X99976961Y-109654884D01*
X99634104Y-111007265D02*
X100434104Y-111007265D01*
X99634104Y-111845360D02*
X100015057Y-111578693D01*
X99634104Y-111388217D02*
X100434104Y-111388217D01*
X100434104Y-111388217D02*
X100434104Y-111692979D01*
X100434104Y-111692979D02*
X100396009Y-111769169D01*
X100396009Y-111769169D02*
X100357914Y-111807264D01*
X100357914Y-111807264D02*
X100281723Y-111845360D01*
X100281723Y-111845360D02*
X100167438Y-111845360D01*
X100167438Y-111845360D02*
X100091247Y-111807264D01*
X100091247Y-111807264D02*
X100053152Y-111769169D01*
X100053152Y-111769169D02*
X100015057Y-111692979D01*
X100015057Y-111692979D02*
X100015057Y-111388217D01*
X99557914Y-112721550D02*
X99596009Y-112645360D01*
X99596009Y-112645360D02*
X99672200Y-112569169D01*
X99672200Y-112569169D02*
X99786485Y-112454883D01*
X99786485Y-112454883D02*
X99824580Y-112378693D01*
X99824580Y-112378693D02*
X99824580Y-112302502D01*
X99634104Y-112340598D02*
X99672200Y-112264407D01*
X99672200Y-112264407D02*
X99748390Y-112188217D01*
X99748390Y-112188217D02*
X99900771Y-112150121D01*
X99900771Y-112150121D02*
X100167438Y-112150121D01*
X100167438Y-112150121D02*
X100319819Y-112188217D01*
X100319819Y-112188217D02*
X100396009Y-112264407D01*
X100396009Y-112264407D02*
X100434104Y-112340598D01*
X100434104Y-112340598D02*
X100434104Y-112492979D01*
X100434104Y-112492979D02*
X100396009Y-112569169D01*
X100396009Y-112569169D02*
X100319819Y-112645360D01*
X100319819Y-112645360D02*
X100167438Y-112683455D01*
X100167438Y-112683455D02*
X99900771Y-112683455D01*
X99900771Y-112683455D02*
X99748390Y-112645360D01*
X99748390Y-112645360D02*
X99672200Y-112569169D01*
X99672200Y-112569169D02*
X99634104Y-112492979D01*
X99634104Y-112492979D02*
X99634104Y-112340598D01*
X121591704Y-73137591D02*
X121629800Y-73175687D01*
X121629800Y-73175687D02*
X121667895Y-73289972D01*
X121667895Y-73289972D02*
X121667895Y-73366163D01*
X121667895Y-73366163D02*
X121629800Y-73480449D01*
X121629800Y-73480449D02*
X121553609Y-73556639D01*
X121553609Y-73556639D02*
X121477419Y-73594734D01*
X121477419Y-73594734D02*
X121325038Y-73632830D01*
X121325038Y-73632830D02*
X121210752Y-73632830D01*
X121210752Y-73632830D02*
X121058371Y-73594734D01*
X121058371Y-73594734D02*
X120982180Y-73556639D01*
X120982180Y-73556639D02*
X120905990Y-73480449D01*
X120905990Y-73480449D02*
X120867895Y-73366163D01*
X120867895Y-73366163D02*
X120867895Y-73289972D01*
X120867895Y-73289972D02*
X120905990Y-73175687D01*
X120905990Y-73175687D02*
X120944085Y-73137591D01*
X121667895Y-72413782D02*
X121667895Y-72794734D01*
X121667895Y-72794734D02*
X120867895Y-72794734D01*
X121667895Y-72147115D02*
X120867895Y-72147115D01*
X121667895Y-71689972D02*
X121210752Y-72032830D01*
X120867895Y-71689972D02*
X121325038Y-72147115D01*
X121667895Y-70594734D02*
X120867895Y-70594734D01*
X120867895Y-70594734D02*
X121439323Y-70328068D01*
X121439323Y-70328068D02*
X120867895Y-70061401D01*
X120867895Y-70061401D02*
X121667895Y-70061401D01*
X121667895Y-69680448D02*
X120867895Y-69680448D01*
D13*
X156354358Y-133890299D02*
X156354358Y-134699822D01*
X156354358Y-134699822D02*
X156401977Y-134795060D01*
X156401977Y-134795060D02*
X156449596Y-134842680D01*
X156449596Y-134842680D02*
X156544834Y-134890299D01*
X156544834Y-134890299D02*
X156735310Y-134890299D01*
X156735310Y-134890299D02*
X156830548Y-134842680D01*
X156830548Y-134842680D02*
X156878167Y-134795060D01*
X156878167Y-134795060D02*
X156925786Y-134699822D01*
X156925786Y-134699822D02*
X156925786Y-133890299D01*
X157354358Y-134842680D02*
X157497215Y-134890299D01*
X157497215Y-134890299D02*
X157735310Y-134890299D01*
X157735310Y-134890299D02*
X157830548Y-134842680D01*
X157830548Y-134842680D02*
X157878167Y-134795060D01*
X157878167Y-134795060D02*
X157925786Y-134699822D01*
X157925786Y-134699822D02*
X157925786Y-134604584D01*
X157925786Y-134604584D02*
X157878167Y-134509346D01*
X157878167Y-134509346D02*
X157830548Y-134461727D01*
X157830548Y-134461727D02*
X157735310Y-134414108D01*
X157735310Y-134414108D02*
X157544834Y-134366489D01*
X157544834Y-134366489D02*
X157449596Y-134318870D01*
X157449596Y-134318870D02*
X157401977Y-134271251D01*
X157401977Y-134271251D02*
X157354358Y-134176013D01*
X157354358Y-134176013D02*
X157354358Y-134080775D01*
X157354358Y-134080775D02*
X157401977Y-133985537D01*
X157401977Y-133985537D02*
X157449596Y-133937918D01*
X157449596Y-133937918D02*
X157544834Y-133890299D01*
X157544834Y-133890299D02*
X157782929Y-133890299D01*
X157782929Y-133890299D02*
X157925786Y-133937918D01*
X158354358Y-134366489D02*
X158687691Y-134366489D01*
X158830548Y-134890299D02*
X158354358Y-134890299D01*
X158354358Y-134890299D02*
X158354358Y-133890299D01*
X158354358Y-133890299D02*
X158830548Y-133890299D01*
X159830548Y-134890299D02*
X159497215Y-134414108D01*
X159259120Y-134890299D02*
X159259120Y-133890299D01*
X159259120Y-133890299D02*
X159640072Y-133890299D01*
X159640072Y-133890299D02*
X159735310Y-133937918D01*
X159735310Y-133937918D02*
X159782929Y-133985537D01*
X159782929Y-133985537D02*
X159830548Y-134080775D01*
X159830548Y-134080775D02*
X159830548Y-134223632D01*
X159830548Y-134223632D02*
X159782929Y-134318870D01*
X159782929Y-134318870D02*
X159735310Y-134366489D01*
X159735310Y-134366489D02*
X159640072Y-134414108D01*
X159640072Y-134414108D02*
X159259120Y-134414108D01*
D12*
X121591704Y-75237591D02*
X121629800Y-75275687D01*
X121629800Y-75275687D02*
X121667895Y-75389972D01*
X121667895Y-75389972D02*
X121667895Y-75466163D01*
X121667895Y-75466163D02*
X121629800Y-75580449D01*
X121629800Y-75580449D02*
X121553609Y-75656639D01*
X121553609Y-75656639D02*
X121477419Y-75694734D01*
X121477419Y-75694734D02*
X121325038Y-75732830D01*
X121325038Y-75732830D02*
X121210752Y-75732830D01*
X121210752Y-75732830D02*
X121058371Y-75694734D01*
X121058371Y-75694734D02*
X120982180Y-75656639D01*
X120982180Y-75656639D02*
X120905990Y-75580449D01*
X120905990Y-75580449D02*
X120867895Y-75466163D01*
X120867895Y-75466163D02*
X120867895Y-75389972D01*
X120867895Y-75389972D02*
X120905990Y-75275687D01*
X120905990Y-75275687D02*
X120944085Y-75237591D01*
X121629800Y-74932830D02*
X121667895Y-74818544D01*
X121667895Y-74818544D02*
X121667895Y-74628068D01*
X121667895Y-74628068D02*
X121629800Y-74551877D01*
X121629800Y-74551877D02*
X121591704Y-74513782D01*
X121591704Y-74513782D02*
X121515514Y-74475687D01*
X121515514Y-74475687D02*
X121439323Y-74475687D01*
X121439323Y-74475687D02*
X121363133Y-74513782D01*
X121363133Y-74513782D02*
X121325038Y-74551877D01*
X121325038Y-74551877D02*
X121286942Y-74628068D01*
X121286942Y-74628068D02*
X121248847Y-74780449D01*
X121248847Y-74780449D02*
X121210752Y-74856639D01*
X121210752Y-74856639D02*
X121172657Y-74894734D01*
X121172657Y-74894734D02*
X121096466Y-74932830D01*
X121096466Y-74932830D02*
X121020276Y-74932830D01*
X121020276Y-74932830D02*
X120944085Y-74894734D01*
X120944085Y-74894734D02*
X120905990Y-74856639D01*
X120905990Y-74856639D02*
X120867895Y-74780449D01*
X120867895Y-74780449D02*
X120867895Y-74589972D01*
X120867895Y-74589972D02*
X120905990Y-74475687D01*
D15*
X102760524Y-119864819D02*
X103331952Y-119864819D01*
X103046238Y-120864819D02*
X103046238Y-119864819D01*
X103665286Y-120864819D02*
X103665286Y-119864819D01*
X103665286Y-119864819D02*
X104046238Y-119864819D01*
X104046238Y-119864819D02*
X104141476Y-119912438D01*
X104141476Y-119912438D02*
X104189095Y-119960057D01*
X104189095Y-119960057D02*
X104236714Y-120055295D01*
X104236714Y-120055295D02*
X104236714Y-120198152D01*
X104236714Y-120198152D02*
X104189095Y-120293390D01*
X104189095Y-120293390D02*
X104141476Y-120341009D01*
X104141476Y-120341009D02*
X104046238Y-120388628D01*
X104046238Y-120388628D02*
X103665286Y-120388628D01*
X105189095Y-120864819D02*
X104617667Y-120864819D01*
X104903381Y-120864819D02*
X104903381Y-119864819D01*
X104903381Y-119864819D02*
X104808143Y-120007676D01*
X104808143Y-120007676D02*
X104712905Y-120102914D01*
X104712905Y-120102914D02*
X104617667Y-120150533D01*
X105808143Y-119864819D02*
X105903381Y-119864819D01*
X105903381Y-119864819D02*
X105998619Y-119912438D01*
X105998619Y-119912438D02*
X106046238Y-119960057D01*
X106046238Y-119960057D02*
X106093857Y-120055295D01*
X106093857Y-120055295D02*
X106141476Y-120245771D01*
X106141476Y-120245771D02*
X106141476Y-120483866D01*
X106141476Y-120483866D02*
X106093857Y-120674342D01*
X106093857Y-120674342D02*
X106046238Y-120769580D01*
X106046238Y-120769580D02*
X105998619Y-120817200D01*
X105998619Y-120817200D02*
X105903381Y-120864819D01*
X105903381Y-120864819D02*
X105808143Y-120864819D01*
X105808143Y-120864819D02*
X105712905Y-120817200D01*
X105712905Y-120817200D02*
X105665286Y-120769580D01*
X105665286Y-120769580D02*
X105617667Y-120674342D01*
X105617667Y-120674342D02*
X105570048Y-120483866D01*
X105570048Y-120483866D02*
X105570048Y-120245771D01*
X105570048Y-120245771D02*
X105617667Y-120055295D01*
X105617667Y-120055295D02*
X105665286Y-119960057D01*
X105665286Y-119960057D02*
X105712905Y-119912438D01*
X105712905Y-119912438D02*
X105808143Y-119864819D01*
X106760524Y-119864819D02*
X106855762Y-119864819D01*
X106855762Y-119864819D02*
X106951000Y-119912438D01*
X106951000Y-119912438D02*
X106998619Y-119960057D01*
X106998619Y-119960057D02*
X107046238Y-120055295D01*
X107046238Y-120055295D02*
X107093857Y-120245771D01*
X107093857Y-120245771D02*
X107093857Y-120483866D01*
X107093857Y-120483866D02*
X107046238Y-120674342D01*
X107046238Y-120674342D02*
X106998619Y-120769580D01*
X106998619Y-120769580D02*
X106951000Y-120817200D01*
X106951000Y-120817200D02*
X106855762Y-120864819D01*
X106855762Y-120864819D02*
X106760524Y-120864819D01*
X106760524Y-120864819D02*
X106665286Y-120817200D01*
X106665286Y-120817200D02*
X106617667Y-120769580D01*
X106617667Y-120769580D02*
X106570048Y-120674342D01*
X106570048Y-120674342D02*
X106522429Y-120483866D01*
X106522429Y-120483866D02*
X106522429Y-120245771D01*
X106522429Y-120245771D02*
X106570048Y-120055295D01*
X106570048Y-120055295D02*
X106617667Y-119960057D01*
X106617667Y-119960057D02*
X106665286Y-119912438D01*
X106665286Y-119912438D02*
X106760524Y-119864819D01*
X107474810Y-119960057D02*
X107522429Y-119912438D01*
X107522429Y-119912438D02*
X107617667Y-119864819D01*
X107617667Y-119864819D02*
X107855762Y-119864819D01*
X107855762Y-119864819D02*
X107951000Y-119912438D01*
X107951000Y-119912438D02*
X107998619Y-119960057D01*
X107998619Y-119960057D02*
X108046238Y-120055295D01*
X108046238Y-120055295D02*
X108046238Y-120150533D01*
X108046238Y-120150533D02*
X107998619Y-120293390D01*
X107998619Y-120293390D02*
X107427191Y-120864819D01*
X107427191Y-120864819D02*
X108046238Y-120864819D01*
X105171524Y-123644819D02*
X105742952Y-123644819D01*
X105457238Y-124644819D02*
X105457238Y-123644819D01*
X106076286Y-124644819D02*
X106076286Y-123644819D01*
X106076286Y-123644819D02*
X106457238Y-123644819D01*
X106457238Y-123644819D02*
X106552476Y-123692438D01*
X106552476Y-123692438D02*
X106600095Y-123740057D01*
X106600095Y-123740057D02*
X106647714Y-123835295D01*
X106647714Y-123835295D02*
X106647714Y-123978152D01*
X106647714Y-123978152D02*
X106600095Y-124073390D01*
X106600095Y-124073390D02*
X106552476Y-124121009D01*
X106552476Y-124121009D02*
X106457238Y-124168628D01*
X106457238Y-124168628D02*
X106076286Y-124168628D01*
X107600095Y-124644819D02*
X107028667Y-124644819D01*
X107314381Y-124644819D02*
X107314381Y-123644819D01*
X107314381Y-123644819D02*
X107219143Y-123787676D01*
X107219143Y-123787676D02*
X107123905Y-123882914D01*
X107123905Y-123882914D02*
X107028667Y-123930533D01*
X108219143Y-123644819D02*
X108314381Y-123644819D01*
X108314381Y-123644819D02*
X108409619Y-123692438D01*
X108409619Y-123692438D02*
X108457238Y-123740057D01*
X108457238Y-123740057D02*
X108504857Y-123835295D01*
X108504857Y-123835295D02*
X108552476Y-124025771D01*
X108552476Y-124025771D02*
X108552476Y-124263866D01*
X108552476Y-124263866D02*
X108504857Y-124454342D01*
X108504857Y-124454342D02*
X108457238Y-124549580D01*
X108457238Y-124549580D02*
X108409619Y-124597200D01*
X108409619Y-124597200D02*
X108314381Y-124644819D01*
X108314381Y-124644819D02*
X108219143Y-124644819D01*
X108219143Y-124644819D02*
X108123905Y-124597200D01*
X108123905Y-124597200D02*
X108076286Y-124549580D01*
X108076286Y-124549580D02*
X108028667Y-124454342D01*
X108028667Y-124454342D02*
X107981048Y-124263866D01*
X107981048Y-124263866D02*
X107981048Y-124025771D01*
X107981048Y-124025771D02*
X108028667Y-123835295D01*
X108028667Y-123835295D02*
X108076286Y-123740057D01*
X108076286Y-123740057D02*
X108123905Y-123692438D01*
X108123905Y-123692438D02*
X108219143Y-123644819D01*
X109171524Y-123644819D02*
X109266762Y-123644819D01*
X109266762Y-123644819D02*
X109362000Y-123692438D01*
X109362000Y-123692438D02*
X109409619Y-123740057D01*
X109409619Y-123740057D02*
X109457238Y-123835295D01*
X109457238Y-123835295D02*
X109504857Y-124025771D01*
X109504857Y-124025771D02*
X109504857Y-124263866D01*
X109504857Y-124263866D02*
X109457238Y-124454342D01*
X109457238Y-124454342D02*
X109409619Y-124549580D01*
X109409619Y-124549580D02*
X109362000Y-124597200D01*
X109362000Y-124597200D02*
X109266762Y-124644819D01*
X109266762Y-124644819D02*
X109171524Y-124644819D01*
X109171524Y-124644819D02*
X109076286Y-124597200D01*
X109076286Y-124597200D02*
X109028667Y-124549580D01*
X109028667Y-124549580D02*
X108981048Y-124454342D01*
X108981048Y-124454342D02*
X108933429Y-124263866D01*
X108933429Y-124263866D02*
X108933429Y-124025771D01*
X108933429Y-124025771D02*
X108981048Y-123835295D01*
X108981048Y-123835295D02*
X109028667Y-123740057D01*
X109028667Y-123740057D02*
X109076286Y-123692438D01*
X109076286Y-123692438D02*
X109171524Y-123644819D01*
X110457238Y-124644819D02*
X109885810Y-124644819D01*
X110171524Y-124644819D02*
X110171524Y-123644819D01*
X110171524Y-123644819D02*
X110076286Y-123787676D01*
X110076286Y-123787676D02*
X109981048Y-123882914D01*
X109981048Y-123882914D02*
X109885810Y-123930533D01*
D16*
%TO.C,R3006*%
X167074641Y-115931000D02*
X166767359Y-115931000D01*
X167074641Y-116691000D02*
X166767359Y-116691000D01*
%TO.C,R1014*%
X141428742Y-101948296D02*
X141903258Y-101948296D01*
X141428742Y-102993296D02*
X141903258Y-102993296D01*
%TO.C,R5003*%
X141757359Y-78696000D02*
X142064641Y-78696000D01*
X141757359Y-79456000D02*
X142064641Y-79456000D01*
%TO.C,U5004*%
X157241000Y-81891000D02*
X158241000Y-81891000D01*
X157241000Y-84711000D02*
X158031000Y-84711000D01*
X158361000Y-84991000D02*
X158361000Y-84711000D01*
X158641000Y-84711000D01*
X158361000Y-84991000D01*
G36*
X158361000Y-84991000D02*
G01*
X158361000Y-84711000D01*
X158641000Y-84711000D01*
X158361000Y-84991000D01*
G37*
%TO.C,D1003*%
X150211000Y-110131000D02*
X150211000Y-112091000D01*
X150211000Y-112091000D02*
X151411000Y-112091000D01*
X151411000Y-110131000D02*
X151411000Y-112091000D01*
%TO.C,R5005*%
X146671000Y-74639641D02*
X146671000Y-74332359D01*
X147431000Y-74639641D02*
X147431000Y-74332359D01*
%TO.C,U5003*%
X157241000Y-78716000D02*
X158241000Y-78716000D01*
X157241000Y-81536000D02*
X158031000Y-81536000D01*
X158361000Y-81816000D02*
X158361000Y-81536000D01*
X158641000Y-81536000D01*
X158361000Y-81816000D01*
G36*
X158361000Y-81816000D02*
G01*
X158361000Y-81536000D01*
X158641000Y-81536000D01*
X158361000Y-81816000D01*
G37*
D10*
%TO.C,U2001*%
X99201000Y-83151000D02*
X99201000Y-70251000D01*
D12*
X99901000Y-84001000D02*
X99901000Y-84001000D01*
X99901000Y-84101000D02*
X99901000Y-84101000D01*
D10*
X113501000Y-83151000D02*
X114201000Y-83151000D01*
X114201000Y-70251000D02*
X113501000Y-70251000D01*
X114201000Y-72501000D02*
X114201000Y-70251000D01*
X114201000Y-83151000D02*
X114201000Y-80901000D01*
D12*
X99901000Y-84001000D02*
G75*
G02*
X99901000Y-84101000I0J-50000D01*
G01*
X99901000Y-84101000D02*
G75*
G02*
X99901000Y-84001000I0J50000D01*
G01*
D16*
%TO.C,C1003*%
X150783164Y-90761000D02*
X150998836Y-90761000D01*
X150783164Y-91481000D02*
X150998836Y-91481000D01*
%TO.C,U4001*%
X115924492Y-119566000D02*
X126144492Y-119566000D01*
X115924492Y-132786000D02*
X115924492Y-119566000D01*
X125084492Y-132786000D02*
X115924492Y-132786000D01*
X126144492Y-119566000D02*
X126144492Y-131786000D01*
X125644492Y-133286000D02*
X125644492Y-132786000D01*
X126144492Y-132786000D01*
X125644492Y-133286000D01*
G36*
X125644492Y-133286000D02*
G01*
X125644492Y-132786000D01*
X126144492Y-132786000D01*
X125644492Y-133286000D01*
G37*
%TO.C,FB1001*%
X153721000Y-101202359D02*
X153721000Y-101509641D01*
X154481000Y-101202359D02*
X154481000Y-101509641D01*
%TO.C,C3004*%
X155741000Y-117191580D02*
X155741000Y-116910420D01*
X156761000Y-117191580D02*
X156761000Y-116910420D01*
%TO.C,J6001*%
X176276000Y-103321000D02*
X178276000Y-103321000D01*
X176276000Y-112721000D02*
X178276000Y-112721000D01*
X180176000Y-103321000D02*
X182076000Y-103321000D01*
X180176000Y-112721000D02*
X182076000Y-112721000D01*
X182076000Y-112721000D02*
X182076000Y-103321000D01*
%TO.C,R1010*%
X141418742Y-109307071D02*
X141893258Y-109307071D01*
X141418742Y-110352071D02*
X141893258Y-110352071D01*
%TO.C,R2001*%
X115857359Y-67591000D02*
X116164641Y-67591000D01*
X115857359Y-68351000D02*
X116164641Y-68351000D01*
%TO.C,R1001*%
X145801000Y-113157359D02*
X145801000Y-113464641D01*
X146561000Y-113157359D02*
X146561000Y-113464641D01*
%TO.C,R6023*%
X157656359Y-128846000D02*
X157963641Y-128846000D01*
X157656359Y-129606000D02*
X157963641Y-129606000D01*
%TO.C,C5020*%
X153793164Y-76691000D02*
X154008836Y-76691000D01*
X153793164Y-77411000D02*
X154008836Y-77411000D01*
D12*
%TO.C,J6002*%
X167536000Y-130201000D02*
X167536000Y-130201000D01*
X167636000Y-130201000D02*
X167636000Y-130201000D01*
D10*
X168096000Y-119501000D02*
X169946000Y-119501000D01*
X168096000Y-133901000D02*
X168096000Y-119501000D01*
X169946000Y-133901000D02*
X168096000Y-133901000D01*
X173946000Y-133901000D02*
X182196000Y-133901000D01*
X174446000Y-119501000D02*
X173946000Y-119501000D01*
X182196000Y-119501000D02*
X174446000Y-119501000D01*
X182196000Y-133901000D02*
X182196000Y-119501000D01*
D12*
X167536000Y-130201000D02*
G75*
G02*
X167636000Y-130201000I50000J0D01*
G01*
X167636000Y-130201000D02*
G75*
G02*
X167536000Y-130201000I-50000J0D01*
G01*
D16*
%TO.C,R5025*%
X171757359Y-94351000D02*
X172064641Y-94351000D01*
X171757359Y-95111000D02*
X172064641Y-95111000D01*
%TO.C,R1038*%
X144638742Y-103793398D02*
X145113258Y-103793398D01*
X144638742Y-104838398D02*
X145113258Y-104838398D01*
%TO.C,R3004*%
X167074641Y-114811000D02*
X166767359Y-114811000D01*
X167074641Y-115571000D02*
X166767359Y-115571000D01*
D10*
%TO.C,U5001*%
X160351000Y-87681000D02*
X160351000Y-87681000D01*
X160351000Y-87866000D02*
X160351000Y-87866000D01*
D12*
X160951000Y-73943000D02*
X166551000Y-73943000D01*
X160951000Y-89966000D02*
X160951000Y-73943000D01*
X166551000Y-90016000D02*
X160951000Y-89966000D01*
X170251000Y-73946000D02*
X182251000Y-73946000D01*
X182251000Y-73946000D02*
X182251000Y-89986000D01*
X182251000Y-89986000D02*
X170251000Y-89986000D01*
D10*
X160351000Y-87681000D02*
G75*
G02*
X160352000Y-87866000I500J-92500D01*
G01*
X160351000Y-87866000D02*
G75*
G02*
X160351000Y-87666000I0J100000D01*
G01*
D16*
%TO.C,R5011*%
X148134000Y-76607359D02*
X148134000Y-76914641D01*
X148894000Y-76607359D02*
X148894000Y-76914641D01*
%TO.C,U6001*%
X169891000Y-113888500D02*
X169891000Y-111888500D01*
X172111000Y-113888500D02*
X172111000Y-111888500D01*
X169991000Y-114408500D02*
X169711000Y-114128500D01*
X169991000Y-114128500D01*
X169991000Y-114408500D01*
G36*
X169991000Y-114408500D02*
G01*
X169711000Y-114128500D01*
X169991000Y-114128500D01*
X169991000Y-114408500D01*
G37*
%TO.C,R6002*%
X131574641Y-101081000D02*
X131267359Y-101081000D01*
X131574641Y-101841000D02*
X131267359Y-101841000D01*
D12*
%TO.C,D1005*%
X107861000Y-139871000D02*
X107861000Y-140931000D01*
X107861000Y-140931000D02*
X108661000Y-140931000D01*
X108661000Y-140931000D02*
X108661000Y-139871000D01*
D16*
%TO.C,R6010*%
X137771000Y-113482359D02*
X137771000Y-113789641D01*
X138531000Y-113482359D02*
X138531000Y-113789641D01*
%TO.C,U6003*%
X162152500Y-128616000D02*
X161352500Y-128616000D01*
X162152500Y-128616000D02*
X162952500Y-128616000D01*
X162152500Y-131736000D02*
X161352500Y-131736000D01*
X162152500Y-131736000D02*
X162952500Y-131736000D01*
X160852500Y-128666000D02*
X160612500Y-128336000D01*
X161092500Y-128336000D01*
X160852500Y-128666000D01*
G36*
X160852500Y-128666000D02*
G01*
X160612500Y-128336000D01*
X161092500Y-128336000D01*
X160852500Y-128666000D01*
G37*
%TO.C,R5009*%
X145208000Y-76607359D02*
X145208000Y-76914641D01*
X145968000Y-76607359D02*
X145968000Y-76914641D01*
D10*
%TO.C,U1001*%
X148536000Y-99314000D02*
X148536000Y-97839000D01*
X148586000Y-93789000D02*
X151586000Y-93789000D01*
X148586000Y-97489000D02*
X148586000Y-93789000D01*
X151586000Y-93789000D02*
X151586000Y-97489000D01*
X151586000Y-97489000D02*
X148586000Y-97489000D01*
D16*
%TO.C,R1004*%
X134958742Y-100127888D02*
X135433258Y-100127888D01*
X134958742Y-101172888D02*
X135433258Y-101172888D01*
%TO.C,C5019*%
X143741000Y-83718164D02*
X143741000Y-83933836D01*
X144461000Y-83718164D02*
X144461000Y-83933836D01*
D12*
%TO.C,D7003*%
X124561000Y-142251000D02*
G75*
G02*
X124461000Y-142251000I-50000J0D01*
G01*
X124461000Y-142251000D02*
G75*
G02*
X124561000Y-142251000I50000J0D01*
G01*
%TO.C,SW7001*%
X155341000Y-135176000D02*
X148491000Y-135176000D01*
X148491000Y-144026000D01*
X155341000Y-144026000D01*
X155341000Y-135176000D01*
D14*
X154752803Y-134476000D02*
G75*
G02*
X154529197Y-134476000I-111803J0D01*
G01*
X154529197Y-134476000D02*
G75*
G02*
X154752803Y-134476000I111803J0D01*
G01*
D16*
%TO.C,R1011*%
X141428742Y-107467377D02*
X141903258Y-107467377D01*
X141428742Y-108512377D02*
X141903258Y-108512377D01*
%TO.C,C3019*%
X166567205Y-100697000D02*
X166286045Y-100697000D01*
X166567205Y-101717000D02*
X166286045Y-101717000D01*
%TO.C,L5001*%
D12*
X145931000Y-85721000D02*
X148281000Y-85721000D01*
X148281000Y-82771000D01*
X145931000Y-82771000D01*
X145931000Y-85721000D01*
%TO.C,SW7003*%
X162861000Y-135176000D02*
X156011000Y-135176000D01*
X156011000Y-144026000D01*
X162861000Y-144026000D01*
X162861000Y-135176000D01*
D14*
X162272803Y-134476000D02*
G75*
G02*
X162049197Y-134476000I-111803J0D01*
G01*
X162049197Y-134476000D02*
G75*
G02*
X162272803Y-134476000I111803J0D01*
G01*
D12*
%TO.C,D1006*%
X107861000Y-136991000D02*
X107861000Y-138051000D01*
X108661000Y-136991000D02*
X107861000Y-136991000D01*
X108661000Y-138051000D02*
X108661000Y-136991000D01*
D16*
%TO.C,R4006*%
X114681000Y-128224641D02*
X114681000Y-127917359D01*
X115441000Y-128224641D02*
X115441000Y-127917359D01*
%TO.C,C3001*%
X160841000Y-114266580D02*
X160841000Y-113985420D01*
X161861000Y-114266580D02*
X161861000Y-113985420D01*
%TO.C,R6009*%
X139971000Y-113482359D02*
X139971000Y-113789641D01*
X140731000Y-113482359D02*
X140731000Y-113789641D01*
%TO.C,R1017*%
X141428742Y-96429214D02*
X141903258Y-96429214D01*
X141428742Y-97474214D02*
X141903258Y-97474214D01*
%TO.C,R1030*%
X138213742Y-101969725D02*
X138688258Y-101969725D01*
X138213742Y-103014725D02*
X138688258Y-103014725D01*
%TO.C,R1003*%
X134958742Y-98288194D02*
X135433258Y-98288194D01*
X134958742Y-99333194D02*
X135433258Y-99333194D01*
%TO.C,R1015*%
X141428742Y-100108602D02*
X141903258Y-100108602D01*
X141428742Y-101153602D02*
X141903258Y-101153602D01*
%TO.C,R1007*%
X134958742Y-105646969D02*
X135433258Y-105646969D01*
X134958742Y-106691969D02*
X135433258Y-106691969D01*
%TO.C,R6011*%
X135571000Y-113482359D02*
X135571000Y-113789641D01*
X136331000Y-113482359D02*
X136331000Y-113789641D01*
%TO.C,R1049*%
X110924641Y-101241000D02*
X110617359Y-101241000D01*
X110924641Y-102001000D02*
X110617359Y-102001000D01*
%TO.C,R4008*%
X114564492Y-122747343D02*
X114564492Y-123054625D01*
X115324492Y-122747343D02*
X115324492Y-123054625D01*
%TO.C,L6001*%
D12*
X167271000Y-106746000D02*
X170121000Y-106746000D01*
X170121000Y-108296000D01*
X167271000Y-108296000D01*
X167271000Y-106746000D01*
X167021000Y-107046000D02*
G75*
G02*
X166921000Y-107046000I-50000J0D01*
G01*
X166921000Y-107046000D02*
G75*
G02*
X167021000Y-107046000I50000J0D01*
G01*
D16*
%TO.C,R5026*%
X171757359Y-93121000D02*
X172064641Y-93121000D01*
X171757359Y-93881000D02*
X172064641Y-93881000D01*
%TO.C,R5016*%
X128537359Y-99941000D02*
X128844641Y-99941000D01*
X128537359Y-100701000D02*
X128844641Y-100701000D01*
%TO.C,R5015*%
X128552359Y-92921000D02*
X128859641Y-92921000D01*
X128552359Y-93681000D02*
X128859641Y-93681000D01*
%TO.C,R1026*%
X149151000Y-113464641D02*
X149151000Y-113157359D01*
X149911000Y-113464641D02*
X149911000Y-113157359D01*
%TO.C,R5004*%
X127471000Y-91472359D02*
X127471000Y-91779641D01*
X128231000Y-91472359D02*
X128231000Y-91779641D01*
%TO.C,R1024*%
X146917667Y-113464641D02*
X146917667Y-113157359D01*
X147677667Y-113464641D02*
X147677667Y-113157359D01*
%TO.C,R3001*%
X150514641Y-130221000D02*
X150207359Y-130221000D01*
X150514641Y-130981000D02*
X150207359Y-130981000D01*
%TO.C,J2003*%
X117821000Y-66161000D02*
X119201000Y-66161000D01*
X117821000Y-67541000D02*
X117821000Y-66161000D01*
X117821000Y-68811000D02*
X117821000Y-81621000D01*
X117821000Y-68811000D02*
X120581000Y-68811000D01*
X117821000Y-81621000D02*
X120581000Y-81621000D01*
X120581000Y-68811000D02*
X120581000Y-81621000D01*
%TO.C,C6017*%
X130496000Y-78882252D02*
X130496000Y-78359748D01*
X131966000Y-78882252D02*
X131966000Y-78359748D01*
%TO.C,R5007*%
X142064641Y-80159000D02*
X141757359Y-80159000D01*
X142064641Y-80919000D02*
X141757359Y-80919000D01*
%TO.C,R1041*%
X144638742Y-98269724D02*
X145113258Y-98269724D01*
X144638742Y-99314724D02*
X145113258Y-99314724D01*
%TO.C,C5018*%
X144791000Y-83718164D02*
X144791000Y-83933836D01*
X145511000Y-83718164D02*
X145511000Y-83933836D01*
D10*
%TO.C,U1002*%
X112901000Y-95416000D02*
X125901000Y-95416000D01*
X112901000Y-107916000D02*
X112901000Y-95416000D01*
X113401000Y-108416000D02*
X112901000Y-107916000D01*
X125901000Y-95416000D02*
X125901000Y-108416000D01*
X125901000Y-108416000D02*
X113401000Y-108416000D01*
X113001000Y-108416000D02*
G75*
G02*
X112801000Y-108416000I-100000J0D01*
G01*
X112801000Y-108416000D02*
G75*
G02*
X113001000Y-108416000I100000J0D01*
G01*
D16*
%TO.C,C3007*%
X155741000Y-121860420D02*
X155741000Y-122141580D01*
X156761000Y-121860420D02*
X156761000Y-122141580D01*
%TO.C,R6006*%
X136671000Y-113482359D02*
X136671000Y-113789641D01*
X137431000Y-113482359D02*
X137431000Y-113789641D01*
%TO.C,R5008*%
X144032359Y-78696000D02*
X144339641Y-78696000D01*
X144032359Y-79456000D02*
X144339641Y-79456000D01*
%TO.C,R7003*%
X121617359Y-141791000D02*
X121924641Y-141791000D01*
X121617359Y-142551000D02*
X121924641Y-142551000D01*
%TO.C,R4004*%
X128354492Y-121174641D02*
X128354492Y-120867359D01*
X129114492Y-121174641D02*
X129114492Y-120867359D01*
%TO.C,J1004*%
X100721000Y-102661000D02*
X102101000Y-102661000D01*
X100721000Y-104041000D02*
X100721000Y-102661000D01*
X100721000Y-105311000D02*
X100721000Y-118121000D01*
X100721000Y-105311000D02*
X103481000Y-105311000D01*
X100721000Y-118121000D02*
X103481000Y-118121000D01*
X103481000Y-105311000D02*
X103481000Y-118121000D01*
%TO.C,SW7002*%
D12*
X170259402Y-135176000D02*
X163409402Y-135176000D01*
X163409402Y-144026000D01*
X170259402Y-144026000D01*
X170259402Y-135176000D01*
D14*
X169671205Y-134476000D02*
G75*
G02*
X169447599Y-134476000I-111803J0D01*
G01*
X169447599Y-134476000D02*
G75*
G02*
X169671205Y-134476000I111803J0D01*
G01*
D16*
%TO.C,TP1002*%
X104751000Y-117961000D02*
X106151000Y-117961000D01*
X104751000Y-119361000D02*
X104751000Y-117961000D01*
X106151000Y-117961000D02*
X106151000Y-119361000D01*
X106151000Y-119361000D02*
X104751000Y-119361000D01*
%TO.C,R1037*%
X144623742Y-105634622D02*
X145098258Y-105634622D01*
X144623742Y-106679622D02*
X145098258Y-106679622D01*
%TO.C,R1036*%
X144613742Y-107475847D02*
X145088258Y-107475847D01*
X144613742Y-108520847D02*
X145088258Y-108520847D01*
%TO.C,C6011*%
X159070000Y-129597164D02*
X159070000Y-129812836D01*
X159790000Y-129597164D02*
X159790000Y-129812836D01*
%TO.C,R3005*%
X157421000Y-116237359D02*
X157421000Y-116544641D01*
X158181000Y-116237359D02*
X158181000Y-116544641D01*
%TO.C,R3003*%
X162101000Y-124824641D02*
X162101000Y-124517359D01*
X162861000Y-124824641D02*
X162861000Y-124517359D01*
%TO.C,J2002*%
X142761000Y-68831000D02*
X142761000Y-67451000D01*
X144141000Y-68831000D02*
X142761000Y-68831000D01*
X145411000Y-66071000D02*
X158221000Y-66071000D01*
X145411000Y-68831000D02*
X145411000Y-66071000D01*
X145411000Y-68831000D02*
X158221000Y-68831000D01*
X158221000Y-68831000D02*
X158221000Y-66071000D01*
%TO.C,R5024*%
X149512667Y-86797359D02*
X149512667Y-87104641D01*
X150272667Y-86797359D02*
X150272667Y-87104641D01*
%TO.C,R5019*%
X128552359Y-95729000D02*
X128859641Y-95729000D01*
X128552359Y-96489000D02*
X128859641Y-96489000D01*
%TO.C,J1003*%
X110701000Y-140371000D02*
X110701000Y-138991000D01*
X112081000Y-140371000D02*
X110701000Y-140371000D01*
X113351000Y-137611000D02*
X118541000Y-137611000D01*
X113351000Y-140371000D02*
X113351000Y-137611000D01*
X113351000Y-140371000D02*
X118541000Y-140371000D01*
X118541000Y-140371000D02*
X118541000Y-137611000D01*
%TO.C,R1033*%
X138213742Y-107488806D02*
X138688258Y-107488806D01*
X138213742Y-108533806D02*
X138688258Y-108533806D01*
%TO.C,R1029*%
X138213742Y-100130031D02*
X138688258Y-100130031D01*
X138213742Y-101175031D02*
X138688258Y-101175031D01*
%TO.C,C1002*%
X154483164Y-103696000D02*
X154698836Y-103696000D01*
X154483164Y-104416000D02*
X154698836Y-104416000D01*
%TO.C,X1003*%
D12*
X108101000Y-111851000D02*
X110301000Y-111851000D01*
X110301000Y-107851000D01*
X108101000Y-107851000D01*
X108101000Y-111851000D01*
X108451000Y-112251000D02*
G75*
G02*
X108351000Y-112251000I-50000J0D01*
G01*
X108351000Y-112251000D02*
G75*
G02*
X108451000Y-112251000I50000J0D01*
G01*
D16*
%TO.C,R1008*%
X134958742Y-107486663D02*
X135433258Y-107486663D01*
X134958742Y-108531663D02*
X135433258Y-108531663D01*
%TO.C,R5002*%
X145208000Y-74332359D02*
X145208000Y-74639641D01*
X145968000Y-74332359D02*
X145968000Y-74639641D01*
%TO.C,R1040*%
X144638742Y-100110949D02*
X145113258Y-100110949D01*
X144638742Y-101155949D02*
X145113258Y-101155949D01*
%TO.C,FB2001*%
X123254641Y-75521000D02*
X122947359Y-75521000D01*
X123254641Y-76281000D02*
X122947359Y-76281000D01*
%TO.C,R1013*%
X141428742Y-103787989D02*
X141903258Y-103787989D01*
X141428742Y-104832989D02*
X141903258Y-104832989D01*
D12*
%TO.C,D7001*%
X128341000Y-142241000D02*
G75*
G02*
X128241000Y-142241000I-50000J0D01*
G01*
X128241000Y-142241000D02*
G75*
G02*
X128341000Y-142241000I50000J0D01*
G01*
D16*
%TO.C,R1027*%
X138188742Y-96450643D02*
X138663258Y-96450643D01*
X138188742Y-97495643D02*
X138663258Y-97495643D01*
D12*
%TO.C,D7002*%
X126451000Y-142246000D02*
G75*
G02*
X126351000Y-142246000I-50000J0D01*
G01*
X126351000Y-142246000D02*
G75*
G02*
X126451000Y-142246000I50000J0D01*
G01*
D16*
%TO.C,R5021*%
X151846000Y-87104641D02*
X151846000Y-86797359D01*
X152606000Y-87104641D02*
X152606000Y-86797359D01*
%TO.C,R1002*%
X134958742Y-96448500D02*
X135433258Y-96448500D01*
X134958742Y-97493500D02*
X135433258Y-97493500D01*
%TO.C,R1025*%
X148034333Y-113464641D02*
X148034333Y-113157359D01*
X148794333Y-113464641D02*
X148794333Y-113157359D01*
%TO.C,C1007*%
X106741000Y-110988836D02*
X106741000Y-110773164D01*
X107461000Y-110988836D02*
X107461000Y-110773164D01*
%TO.C,C6016*%
X123966000Y-79519748D02*
X123966000Y-80042252D01*
X125436000Y-79519748D02*
X125436000Y-80042252D01*
%TO.C,R1028*%
X138213742Y-98290337D02*
X138688258Y-98290337D01*
X138213742Y-99335337D02*
X138688258Y-99335337D01*
%TO.C,U1004*%
X123882000Y-88525500D02*
X123082000Y-88525500D01*
X123882000Y-88525500D02*
X124682000Y-88525500D01*
X123882000Y-91645500D02*
X123082000Y-91645500D01*
X123882000Y-91645500D02*
X124682000Y-91645500D01*
X125422000Y-91925500D02*
X124942000Y-91925500D01*
X125182000Y-91595500D01*
X125422000Y-91925500D01*
G36*
X125422000Y-91925500D02*
G01*
X124942000Y-91925500D01*
X125182000Y-91595500D01*
X125422000Y-91925500D01*
G37*
%TO.C,R1034*%
X138213742Y-109328500D02*
X138688258Y-109328500D01*
X138213742Y-110373500D02*
X138688258Y-110373500D01*
D10*
%TO.C,X1001*%
X148661000Y-103902000D02*
X148661000Y-103502000D01*
D12*
X150386000Y-105502000D02*
X150386000Y-105502000D01*
X150386000Y-105602000D02*
X150386000Y-105602000D01*
D10*
X150661000Y-103902000D02*
X150661000Y-103502000D01*
D12*
X150386000Y-105502000D02*
G75*
G02*
X150386000Y-105602000I0J-50000D01*
G01*
X150386000Y-105602000D02*
G75*
G02*
X150386000Y-105502000I0J50000D01*
G01*
D16*
%TO.C,R4007*%
X121111000Y-115024641D02*
X121111000Y-114717359D01*
X121871000Y-115024641D02*
X121871000Y-114717359D01*
%TO.C,C1004*%
X154483164Y-102586000D02*
X154698836Y-102586000D01*
X154483164Y-103306000D02*
X154698836Y-103306000D01*
%TO.C,R1016*%
X141428742Y-98268908D02*
X141903258Y-98268908D01*
X141428742Y-99313908D02*
X141903258Y-99313908D01*
%TO.C,C5002*%
X155066000Y-84538164D02*
X155066000Y-84753836D01*
X155786000Y-84538164D02*
X155786000Y-84753836D01*
%TO.C,R1044*%
X108133359Y-99445000D02*
X108440641Y-99445000D01*
X108133359Y-100205000D02*
X108440641Y-100205000D01*
%TO.C,U5002*%
X149101000Y-79101500D02*
X149101000Y-79526500D01*
X149101000Y-84321500D02*
X149101000Y-83896500D01*
X149526000Y-79101500D02*
X149101000Y-79101500D01*
X149526000Y-84321500D02*
X149101000Y-84321500D01*
X153896000Y-79101500D02*
X154321000Y-79101500D01*
X153896000Y-84321500D02*
X154021000Y-84321500D01*
X154321000Y-79101500D02*
X154321000Y-79526500D01*
X154321000Y-83896500D02*
X154321000Y-84081500D01*
X154561000Y-84651500D02*
X154081000Y-84651500D01*
X154321000Y-84321500D01*
X154561000Y-84651500D01*
G36*
X154561000Y-84651500D02*
G01*
X154081000Y-84651500D01*
X154321000Y-84321500D01*
X154561000Y-84651500D01*
G37*
%TO.C,R6004*%
X141071000Y-113482359D02*
X141071000Y-113789641D01*
X141831000Y-113482359D02*
X141831000Y-113789641D01*
%TO.C,R1009*%
X134958742Y-109326357D02*
X135433258Y-109326357D01*
X134958742Y-110371357D02*
X135433258Y-110371357D01*
%TO.C,SW7004*%
D12*
X147841000Y-135176000D02*
X140991000Y-135176000D01*
X140991000Y-144026000D01*
X147841000Y-144026000D01*
X147841000Y-135176000D01*
D14*
X147252803Y-134476000D02*
G75*
G02*
X147029197Y-134476000I-111803J0D01*
G01*
X147029197Y-134476000D02*
G75*
G02*
X147252803Y-134476000I111803J0D01*
G01*
D16*
%TO.C,R6021*%
X162626359Y-132211000D02*
X162933641Y-132211000D01*
X162626359Y-132971000D02*
X162933641Y-132971000D01*
%TO.C,R5010*%
X146671000Y-76607359D02*
X146671000Y-76914641D01*
X147431000Y-76607359D02*
X147431000Y-76914641D01*
%TO.C,R1042*%
X144638742Y-96428500D02*
X145113258Y-96428500D01*
X144638742Y-97473500D02*
X145113258Y-97473500D01*
%TO.C,TP1001*%
X107179000Y-121648000D02*
X108579000Y-121648000D01*
X107179000Y-123048000D02*
X107179000Y-121648000D01*
X108579000Y-121648000D02*
X108579000Y-123048000D01*
X108579000Y-123048000D02*
X107179000Y-123048000D01*
%TO.C,D6014*%
X120376000Y-83126000D02*
X120376000Y-85086000D01*
X120376000Y-85086000D02*
X121576000Y-85086000D01*
X121576000Y-83126000D02*
X121576000Y-85086000D01*
%TO.C,R5013*%
X144032359Y-80159000D02*
X144339641Y-80159000D01*
X144032359Y-80919000D02*
X144339641Y-80919000D01*
%TO.C,R5020*%
X148346000Y-86807359D02*
X148346000Y-87114641D01*
X149106000Y-86807359D02*
X149106000Y-87114641D01*
%TO.C,R1006*%
X134958742Y-103807275D02*
X135433258Y-103807275D01*
X134958742Y-104852275D02*
X135433258Y-104852275D01*
%TO.C,FB3011*%
X129184641Y-86861000D02*
X128877359Y-86861000D01*
X129184641Y-87621000D02*
X128877359Y-87621000D01*
%TO.C,C1010*%
X123113164Y-87441000D02*
X123328836Y-87441000D01*
X123113164Y-88161000D02*
X123328836Y-88161000D01*
D10*
%TO.C,U1003*%
X104891000Y-139476000D02*
X104891000Y-138626000D01*
X105141000Y-136676000D02*
X107141000Y-136676000D01*
X105141000Y-138276000D02*
X105141000Y-136676000D01*
X107141000Y-136676000D02*
X107141000Y-138276000D01*
X107141000Y-138276000D02*
X105141000Y-138276000D01*
D16*
%TO.C,R4003*%
X126994492Y-120867359D02*
X126994492Y-121174641D01*
X127754492Y-120867359D02*
X127754492Y-121174641D01*
%TO.C,R6031*%
X122321000Y-80637359D02*
X122321000Y-80944641D01*
X123081000Y-80637359D02*
X123081000Y-80944641D01*
%TO.C,R1043*%
X108133359Y-98111000D02*
X108440641Y-98111000D01*
X108133359Y-98871000D02*
X108440641Y-98871000D01*
%TO.C,D1002*%
X148566000Y-110131000D02*
X148566000Y-112091000D01*
X148566000Y-112091000D02*
X149766000Y-112091000D01*
X149766000Y-110131000D02*
X149766000Y-112091000D01*
%TO.C,R1035*%
X144613742Y-109317071D02*
X145088258Y-109317071D01*
X144613742Y-110362071D02*
X145088258Y-110362071D01*
%TO.C,U6002*%
X134191000Y-129036000D02*
X134191000Y-116816000D01*
X135191000Y-115816000D02*
X145911000Y-115816000D01*
X145911000Y-115816000D02*
X145911000Y-129036000D01*
X145911000Y-129036000D02*
X134191000Y-129036000D01*
X134191000Y-115816000D02*
X133691000Y-115816000D01*
X134191000Y-115316000D01*
X134191000Y-115816000D01*
G36*
X134191000Y-115816000D02*
G01*
X133691000Y-115816000D01*
X134191000Y-115316000D01*
X134191000Y-115816000D01*
G37*
%TO.C,R6022*%
X160810000Y-133254641D02*
X160810000Y-132947359D01*
X161570000Y-133254641D02*
X161570000Y-132947359D01*
%TO.C,C1008*%
X106741000Y-108713164D02*
X106741000Y-108928836D01*
X107461000Y-108713164D02*
X107461000Y-108928836D01*
%TO.C,R3002*%
X150207359Y-131281000D02*
X150514641Y-131281000D01*
X150207359Y-132041000D02*
X150514641Y-132041000D01*
%TO.C,R6003*%
X131267359Y-99961000D02*
X131574641Y-99961000D01*
X131267359Y-100721000D02*
X131574641Y-100721000D01*
%TO.C,R5014*%
X128552359Y-94325000D02*
X128859641Y-94325000D01*
X128552359Y-95085000D02*
X128859641Y-95085000D01*
%TO.C,R5006*%
X142064641Y-81622000D02*
X141757359Y-81622000D01*
X142064641Y-82382000D02*
X141757359Y-82382000D01*
%TO.C,R5001*%
X148134000Y-74332359D02*
X148134000Y-74639641D01*
X148894000Y-74332359D02*
X148894000Y-74639641D01*
%TO.C,R1046*%
X110926641Y-98821000D02*
X110619359Y-98821000D01*
X110926641Y-99581000D02*
X110619359Y-99581000D01*
%TO.C,R1051*%
X110924641Y-100191000D02*
X110617359Y-100191000D01*
X110924641Y-100951000D02*
X110617359Y-100951000D01*
%TO.C,R5017*%
X128552359Y-98537000D02*
X128859641Y-98537000D01*
X128552359Y-99297000D02*
X128859641Y-99297000D01*
%TO.C,C6010*%
X158555580Y-131011000D02*
X158274420Y-131011000D01*
X158555580Y-132031000D02*
X158274420Y-132031000D01*
%TO.C,C5001*%
X155366000Y-78708836D02*
X155366000Y-78493164D01*
X156086000Y-78708836D02*
X156086000Y-78493164D01*
%TO.C,D6013*%
X122101000Y-83126000D02*
X122101000Y-85086000D01*
X122101000Y-85086000D02*
X123301000Y-85086000D01*
X123301000Y-83126000D02*
X123301000Y-85086000D01*
%TO.C,R1005*%
X134958742Y-101967582D02*
X135433258Y-101967582D01*
X134958742Y-103012582D02*
X135433258Y-103012582D01*
%TO.C,R6007*%
X134471000Y-113482359D02*
X134471000Y-113789641D01*
X135231000Y-113482359D02*
X135231000Y-113789641D01*
%TO.C,R1031*%
X138213742Y-103809418D02*
X138688258Y-103809418D01*
X138213742Y-104854418D02*
X138688258Y-104854418D01*
%TO.C,R6014*%
X110871000Y-96804641D02*
X110871000Y-96497359D01*
X111631000Y-96804641D02*
X111631000Y-96497359D01*
D12*
%TO.C,D6001*%
X171121000Y-106441000D02*
X171121000Y-107241000D01*
X171121000Y-107241000D02*
X172181000Y-107241000D01*
X172181000Y-106441000D02*
X171121000Y-106441000D01*
D16*
%TO.C,R5022*%
X150679333Y-86797359D02*
X150679333Y-87104641D01*
X151439333Y-86797359D02*
X151439333Y-87104641D01*
%TO.C,C1011*%
X105238836Y-134251000D02*
X105023164Y-134251000D01*
X105238836Y-134971000D02*
X105023164Y-134971000D01*
%TO.C,R6008*%
X133371000Y-113482359D02*
X133371000Y-113789641D01*
X134131000Y-113482359D02*
X134131000Y-113789641D01*
%TO.C,R1012*%
X141428742Y-105627683D02*
X141903258Y-105627683D01*
X141428742Y-106672683D02*
X141903258Y-106672683D01*
%TO.C,R5023*%
X153221000Y-86787359D02*
X153221000Y-87094641D01*
X153981000Y-86787359D02*
X153981000Y-87094641D01*
%TO.C,R6005*%
X138871000Y-113482359D02*
X138871000Y-113789641D01*
X139631000Y-113482359D02*
X139631000Y-113789641D01*
%TO.C,R1039*%
X144638742Y-101952173D02*
X145113258Y-101952173D01*
X144638742Y-102997173D02*
X145113258Y-102997173D01*
%TO.C,R1060*%
X120721000Y-91744641D02*
X120721000Y-91437359D01*
X121481000Y-91744641D02*
X121481000Y-91437359D01*
%TO.C,L6002*%
D12*
X163451000Y-125926000D02*
X166301000Y-125926000D01*
X166301000Y-127476000D01*
X163451000Y-127476000D01*
X163451000Y-125926000D01*
X163201000Y-126226000D02*
G75*
G02*
X163101000Y-126226000I-50000J0D01*
G01*
X163101000Y-126226000D02*
G75*
G02*
X163201000Y-126226000I50000J0D01*
G01*
D16*
%TO.C,R1032*%
X138213742Y-105649112D02*
X138688258Y-105649112D01*
X138213742Y-106694112D02*
X138688258Y-106694112D01*
%TO.C,R4005*%
X114574492Y-120914625D02*
X114574492Y-120607343D01*
X115334492Y-120914625D02*
X115334492Y-120607343D01*
D12*
%TO.C,D6002*%
X171121000Y-107801000D02*
X171121000Y-108601000D01*
X171121000Y-108601000D02*
X172181000Y-108601000D01*
X172181000Y-107801000D02*
X171121000Y-107801000D01*
D16*
%TO.C,R5012*%
X144032359Y-81622000D02*
X144339641Y-81622000D01*
X144032359Y-82382000D02*
X144339641Y-82382000D01*
D10*
%TO.C,U6004*%
X126151000Y-78181000D02*
X127351000Y-78181000D01*
X127701000Y-78331000D02*
X128301000Y-78331000D01*
X127701000Y-81231000D02*
X127701000Y-78331000D01*
X128301000Y-78331000D02*
X128301000Y-81231000D01*
X128301000Y-81231000D02*
X127701000Y-81231000D01*
D16*
%TO.C,J1001*%
X100721000Y-121071000D02*
X102101000Y-121071000D01*
X100721000Y-122451000D02*
X100721000Y-121071000D01*
X100721000Y-123721000D02*
X100721000Y-136531000D01*
X100721000Y-123721000D02*
X103481000Y-123721000D01*
X100721000Y-136531000D02*
X103481000Y-136531000D01*
X103481000Y-123721000D02*
X103481000Y-136531000D01*
%TO.C,R5018*%
X128552359Y-97133000D02*
X128859641Y-97133000D01*
X128552359Y-97893000D02*
X128859641Y-97893000D01*
%TO.C,R7001*%
X121617359Y-139431000D02*
X121924641Y-139431000D01*
X121617359Y-140191000D02*
X121924641Y-140191000D01*
%TO.C,D1001*%
X146921000Y-110131000D02*
X146921000Y-112091000D01*
X146921000Y-112091000D02*
X148121000Y-112091000D01*
X148121000Y-110131000D02*
X148121000Y-112091000D01*
%TO.C,R7002*%
X121617359Y-140611000D02*
X121924641Y-140611000D01*
X121617359Y-141371000D02*
X121924641Y-141371000D01*
%TD*%
M02*
