%TF.GenerationSoftware,KiCad,Pcbnew,9.0.1*%
%TF.CreationDate,2026-02-07T17:07:50-05:00*%
%TF.ProjectId,Leonhart,4c656f6e-6861-4727-942e-6b696361645f,rev?*%
%TF.SameCoordinates,Original*%
%TF.FileFunction,Soldermask,Top*%
%TF.FilePolarity,Negative*%
%FSLAX46Y46*%
G04 Gerber Fmt 4.6, Leading zero omitted, Abs format (unit mm)*
G04 Created by KiCad (PCBNEW 9.0.1) date 2026-02-07 17:07:50*
%MOMM*%
%LPD*%
G01*
G04 APERTURE LIST*
G04 Aperture macros list*
%AMRoundRect*
0 Rectangle with rounded corners*
0 $1 Rounding radius*
0 $2 $3 $4 $5 $6 $7 $8 $9 X,Y pos of 4 corners*
0 Add a 4 corners polygon primitive as box body*
4,1,4,$2,$3,$4,$5,$6,$7,$8,$9,$2,$3,0*
0 Add four circle primitives for the rounded corners*
1,1,$1+$1,$2,$3*
1,1,$1+$1,$4,$5*
1,1,$1+$1,$6,$7*
1,1,$1+$1,$8,$9*
0 Add four rect primitives between the rounded corners*
20,1,$1+$1,$2,$3,$4,$5,0*
20,1,$1+$1,$4,$5,$6,$7,0*
20,1,$1+$1,$6,$7,$8,$9,0*
20,1,$1+$1,$8,$9,$2,$3,0*%
G04 Aperture macros list end*
%ADD10RoundRect,0.135000X0.135000X0.185000X-0.135000X0.185000X-0.135000X-0.185000X0.135000X-0.185000X0*%
%ADD11RoundRect,0.200000X-0.200000X-0.275000X0.200000X-0.275000X0.200000X0.275000X-0.200000X0.275000X0*%
%ADD12RoundRect,0.135000X-0.135000X-0.185000X0.135000X-0.185000X0.135000X0.185000X-0.135000X0.185000X0*%
%ADD13RoundRect,0.075000X0.200000X-0.075000X0.200000X0.075000X-0.200000X0.075000X-0.200000X-0.075000X0*%
%ADD14RoundRect,0.150000X-0.200000X0.150000X-0.200000X-0.150000X0.200000X-0.150000X0.200000X0.150000X0*%
%ADD15RoundRect,0.135000X0.185000X-0.135000X0.185000X0.135000X-0.185000X0.135000X-0.185000X-0.135000X0*%
%ADD16O,0.600000X2.400000*%
%ADD17O,2.400000X0.600000*%
%ADD18RoundRect,0.140000X-0.140000X-0.170000X0.140000X-0.170000X0.140000X0.170000X-0.140000X0.170000X0*%
%ADD19C,0.360000*%
%ADD20RoundRect,0.135000X-0.185000X0.135000X-0.185000X-0.135000X0.185000X-0.135000X0.185000X0.135000X0*%
%ADD21RoundRect,0.225000X0.250000X-0.225000X0.250000X0.225000X-0.250000X0.225000X-0.250000X-0.225000X0*%
%ADD22C,0.650000*%
%ADD23R,1.450000X0.600000*%
%ADD24R,1.450000X0.300000*%
%ADD25O,2.100000X1.000000*%
%ADD26O,1.600000X1.000000*%
%ADD27RoundRect,0.100000X-0.130000X-0.100000X0.130000X-0.100000X0.130000X0.100000X-0.130000X0.100000X0*%
%ADD28R,1.400000X1.400000*%
%ADD29C,1.400000*%
%ADD30C,3.150000*%
%ADD31C,3.250000*%
%ADD32C,1.540000*%
%ADD33C,1.530000*%
%ADD34C,2.445000*%
%ADD35RoundRect,0.093750X0.106250X-0.093750X0.106250X0.093750X-0.106250X0.093750X-0.106250X-0.093750X0*%
%ADD36R,1.600000X1.000000*%
%ADD37RoundRect,0.060000X-0.190000X0.140000X-0.190000X-0.140000X0.190000X-0.140000X0.190000X0.140000X0*%
%ADD38RoundRect,0.100000X-0.100000X0.130000X-0.100000X-0.130000X0.100000X-0.130000X0.100000X0.130000X0*%
%ADD39RoundRect,0.150000X-0.512500X-0.150000X0.512500X-0.150000X0.512500X0.150000X-0.512500X0.150000X0*%
%ADD40R,0.450000X1.475000*%
%ADD41RoundRect,0.140000X-0.170000X0.140000X-0.170000X-0.140000X0.170000X-0.140000X0.170000X0.140000X0*%
%ADD42RoundRect,0.147500X0.172500X-0.147500X0.172500X0.147500X-0.172500X0.147500X-0.172500X-0.147500X0*%
%ADD43C,2.000000*%
%ADD44RoundRect,0.225000X0.225000X0.250000X-0.225000X0.250000X-0.225000X-0.250000X0.225000X-0.250000X0*%
%ADD45RoundRect,0.120000X0.780000X0.280000X-0.780000X0.280000X-0.780000X-0.280000X0.780000X-0.280000X0*%
%ADD46RoundRect,0.060000X0.190000X-0.140000X0.190000X0.140000X-0.190000X0.140000X-0.190000X-0.140000X0*%
%ADD47RoundRect,0.100000X-0.275000X-0.100000X0.275000X-0.100000X0.275000X0.100000X-0.275000X0.100000X0*%
%ADD48R,1.700000X1.700000*%
%ADD49C,1.700000*%
%ADD50RoundRect,0.250000X0.475000X-0.250000X0.475000X0.250000X-0.475000X0.250000X-0.475000X-0.250000X0*%
%ADD51C,0.250000*%
%ADD52RoundRect,0.225000X-0.250000X0.225000X-0.250000X-0.225000X0.250000X-0.225000X0.250000X0.225000X0*%
%ADD53R,1.000000X1.000000*%
%ADD54RoundRect,0.100000X0.800000X-0.400000X0.800000X0.400000X-0.800000X0.400000X-0.800000X-0.400000X0*%
%ADD55RoundRect,0.140000X0.170000X-0.140000X0.170000X0.140000X-0.170000X0.140000X-0.170000X-0.140000X0*%
%ADD56RoundRect,0.250000X-0.475000X0.250000X-0.475000X-0.250000X0.475000X-0.250000X0.475000X0.250000X0*%
%ADD57RoundRect,0.150000X0.512500X0.150000X-0.512500X0.150000X-0.512500X-0.150000X0.512500X-0.150000X0*%
%ADD58R,0.800000X0.900000*%
%ADD59RoundRect,0.062500X0.350000X0.062500X-0.350000X0.062500X-0.350000X-0.062500X0.350000X-0.062500X0*%
%ADD60RoundRect,0.062500X0.062500X0.350000X-0.062500X0.350000X-0.062500X-0.350000X0.062500X-0.350000X0*%
%ADD61R,3.600000X3.600000*%
%ADD62C,0.990600*%
%ADD63C,0.787400*%
%ADD64R,0.300000X0.850000*%
%ADD65RoundRect,0.100000X0.100000X-0.130000X0.100000X0.130000X-0.100000X0.130000X-0.100000X-0.130000X0*%
%ADD66RoundRect,0.060000X0.140000X0.190000X-0.140000X0.190000X-0.140000X-0.190000X0.140000X-0.190000X0*%
%ADD67RoundRect,0.140000X0.140000X0.170000X-0.140000X0.170000X-0.140000X-0.170000X0.140000X-0.170000X0*%
%ADD68R,1.200000X0.600000*%
%ADD69C,0.900000*%
G04 APERTURE END LIST*
D10*
%TO.C,R3006*%
X167431000Y-116311000D03*
X166411000Y-116311000D03*
%TD*%
D11*
%TO.C,R1014*%
X140841000Y-102470796D03*
X142491000Y-102470796D03*
%TD*%
D12*
%TO.C,R5003*%
X141401000Y-79076000D03*
X142421000Y-79076000D03*
%TD*%
D13*
%TO.C,U5004*%
X158126000Y-84301000D03*
X158126000Y-83801000D03*
X158126000Y-83301000D03*
X158126000Y-82801000D03*
X158126000Y-82301000D03*
X157356000Y-82301000D03*
X157356000Y-82801000D03*
X157356000Y-83301000D03*
X157356000Y-83801000D03*
X157356000Y-84301000D03*
%TD*%
D14*
%TO.C,D1003*%
X150811000Y-111531000D03*
X150811000Y-110131000D03*
%TD*%
D15*
%TO.C,R5005*%
X147051000Y-74996000D03*
X147051000Y-73976000D03*
%TD*%
D13*
%TO.C,U5003*%
X158126000Y-81126000D03*
X158126000Y-80626000D03*
X158126000Y-80126000D03*
X158126000Y-79626000D03*
X158126000Y-79126000D03*
X157356000Y-79126000D03*
X157356000Y-79626000D03*
X157356000Y-80126000D03*
X157356000Y-80626000D03*
X157356000Y-81126000D03*
%TD*%
D16*
%TO.C,U2001*%
X99901000Y-82351000D03*
X100901000Y-82351000D03*
X101901000Y-82351000D03*
X102901000Y-82351000D03*
X103901000Y-82351000D03*
X104901000Y-82351000D03*
X105901000Y-82351000D03*
X106901000Y-82351000D03*
X107901000Y-82351000D03*
X108901000Y-82351000D03*
X109901000Y-82351000D03*
X110901000Y-82351000D03*
X111901000Y-82351000D03*
X112901000Y-82351000D03*
D17*
X113401000Y-80201000D03*
X113401000Y-79201000D03*
X113401000Y-78201000D03*
X113401000Y-77201000D03*
X113401000Y-76201000D03*
X113401000Y-75201000D03*
X113401000Y-74201000D03*
X113401000Y-73201000D03*
D16*
X112901000Y-71051000D03*
X111901000Y-71051000D03*
X110901000Y-71051000D03*
X109901000Y-71051000D03*
X108901000Y-71051000D03*
X107901000Y-71051000D03*
X106901000Y-71051000D03*
X105901000Y-71051000D03*
X104901000Y-71051000D03*
X103901000Y-71051000D03*
X102901000Y-71051000D03*
X101901000Y-71051000D03*
X100901000Y-71051000D03*
X99901000Y-71051000D03*
%TD*%
D18*
%TO.C,C1003*%
X150411000Y-91121000D03*
X151371000Y-91121000D03*
%TD*%
D19*
%TO.C,U4001*%
X124234492Y-132176000D03*
X123434492Y-132176000D03*
X122634492Y-132176000D03*
X119434492Y-132176000D03*
X118634492Y-132176000D03*
X117834492Y-132176000D03*
X124234492Y-131376000D03*
X123434492Y-131376000D03*
X122634492Y-131376000D03*
X119434492Y-131376000D03*
X118634492Y-131376000D03*
X117834492Y-131376000D03*
X124234492Y-130576000D03*
X123434492Y-130576000D03*
X122634492Y-130576000D03*
X119434492Y-130576000D03*
X118634492Y-130576000D03*
X117834492Y-130576000D03*
X124234492Y-129776000D03*
X123434492Y-129776000D03*
X122634492Y-129776000D03*
X119434492Y-129776000D03*
X118634492Y-129776000D03*
X117834492Y-129776000D03*
X124234492Y-128976000D03*
X123434492Y-128976000D03*
X122634492Y-128976000D03*
X119434492Y-128976000D03*
X118634492Y-128976000D03*
X117834492Y-128976000D03*
X124234492Y-128176000D03*
X123434492Y-128176000D03*
X122634492Y-128176000D03*
X119434492Y-128176000D03*
X118634492Y-128176000D03*
X117834492Y-128176000D03*
X124234492Y-127376000D03*
X123434492Y-127376000D03*
X122634492Y-127376000D03*
X119434492Y-127376000D03*
X118634492Y-127376000D03*
X117834492Y-127376000D03*
X124234492Y-126576000D03*
X123434492Y-126576000D03*
X122634492Y-126576000D03*
X119434492Y-126576000D03*
X118634492Y-126576000D03*
X117834492Y-126576000D03*
X124234492Y-125776000D03*
X123434492Y-125776000D03*
X122634492Y-125776000D03*
X119434492Y-125776000D03*
X118634492Y-125776000D03*
X117834492Y-125776000D03*
X124234492Y-124976000D03*
X123434492Y-124976000D03*
X122634492Y-124976000D03*
X119434492Y-124976000D03*
X118634492Y-124976000D03*
X117834492Y-124976000D03*
X124234492Y-124176000D03*
X123434492Y-124176000D03*
X122634492Y-124176000D03*
X119434492Y-124176000D03*
X118634492Y-124176000D03*
X117834492Y-124176000D03*
X124234492Y-123376000D03*
X123434492Y-123376000D03*
X122634492Y-123376000D03*
X119434492Y-123376000D03*
X118634492Y-123376000D03*
X117834492Y-123376000D03*
X124234492Y-122576000D03*
X123434492Y-122576000D03*
X122634492Y-122576000D03*
X119434492Y-122576000D03*
X118634492Y-122576000D03*
X117834492Y-122576000D03*
X124234492Y-121776000D03*
X123434492Y-121776000D03*
X122634492Y-121776000D03*
X119434492Y-121776000D03*
X118634492Y-121776000D03*
X117834492Y-121776000D03*
X124234492Y-120976000D03*
X123434492Y-120976000D03*
X122634492Y-120976000D03*
X119434492Y-120976000D03*
X118634492Y-120976000D03*
X117834492Y-120976000D03*
X124234492Y-120176000D03*
X123434492Y-120176000D03*
X122634492Y-120176000D03*
X119434492Y-120176000D03*
X118634492Y-120176000D03*
X117834492Y-120176000D03*
%TD*%
D20*
%TO.C,FB1001*%
X154101000Y-100846000D03*
X154101000Y-101866000D03*
%TD*%
D21*
%TO.C,C3004*%
X156251000Y-117826000D03*
X156251000Y-116276000D03*
%TD*%
D22*
%TO.C,J6001*%
X175576000Y-110911000D03*
X175576000Y-105131000D03*
D23*
X174131000Y-111271000D03*
X174131000Y-110471000D03*
D24*
X174131000Y-109271000D03*
X174131000Y-108271000D03*
X174131000Y-107771000D03*
X174131000Y-106771000D03*
D23*
X174131000Y-105571000D03*
X174131000Y-104771000D03*
X174131000Y-104771000D03*
X174131000Y-105571000D03*
D24*
X174131000Y-106271000D03*
X174131000Y-107271000D03*
X174131000Y-108771000D03*
X174131000Y-109771000D03*
D23*
X174131000Y-110471000D03*
X174131000Y-111271000D03*
D25*
X175046000Y-112341000D03*
D26*
X179226000Y-112341000D03*
D25*
X175046000Y-103701000D03*
D26*
X179226000Y-103701000D03*
%TD*%
D11*
%TO.C,R1010*%
X140831000Y-109829571D03*
X142481000Y-109829571D03*
%TD*%
D12*
%TO.C,R2001*%
X115501000Y-67971000D03*
X116521000Y-67971000D03*
%TD*%
D20*
%TO.C,R1001*%
X146181000Y-112801000D03*
X146181000Y-113821000D03*
%TD*%
D27*
%TO.C,R6001*%
X127936000Y-110126000D03*
X128576000Y-110126000D03*
%TD*%
D12*
%TO.C,R6023*%
X157300000Y-129226000D03*
X158320000Y-129226000D03*
%TD*%
D18*
%TO.C,C5020*%
X153421000Y-77051000D03*
X154381000Y-77051000D03*
%TD*%
D28*
%TO.C,J6002*%
X169236000Y-130201000D03*
D29*
X169236000Y-127701000D03*
X169236000Y-125701000D03*
X169236000Y-123201000D03*
D30*
X171946000Y-133701000D03*
X171946000Y-119701000D03*
%TD*%
D12*
%TO.C,R5025*%
X171401000Y-94731000D03*
X172421000Y-94731000D03*
%TD*%
D11*
%TO.C,R1038*%
X144051000Y-104315898D03*
X145701000Y-104315898D03*
%TD*%
D10*
%TO.C,R3004*%
X167431000Y-115191000D03*
X166411000Y-115191000D03*
%TD*%
D31*
%TO.C,U5001*%
X171351000Y-76251000D03*
X171351000Y-87681000D03*
D32*
X162461000Y-87681000D03*
X165001000Y-86411000D03*
X162461000Y-85141000D03*
X165001000Y-83871000D03*
X162461000Y-82601000D03*
X165001000Y-81331000D03*
X162461000Y-80061000D03*
X165001000Y-78791000D03*
X162461000Y-77521000D03*
X165001000Y-76251000D03*
D33*
X176251000Y-75341000D03*
X176251000Y-77881000D03*
X176251000Y-86051000D03*
X176251000Y-88591000D03*
D34*
X168301000Y-73916000D03*
X168301000Y-90016000D03*
%TD*%
D20*
%TO.C,R5011*%
X148514000Y-76251000D03*
X148514000Y-77271000D03*
%TD*%
D35*
%TO.C,U6001*%
X170351000Y-113776000D03*
X171001000Y-113776000D03*
X171651000Y-113776000D03*
X171651000Y-112001000D03*
X171001000Y-112001000D03*
X170351000Y-112001000D03*
D36*
X171001000Y-112888500D03*
%TD*%
D10*
%TO.C,R6002*%
X131931000Y-101461000D03*
X130911000Y-101461000D03*
%TD*%
D37*
%TO.C,D1005*%
X108261000Y-140581000D03*
X108261000Y-139781000D03*
%TD*%
D38*
%TO.C,C3089*%
X109091000Y-116406000D03*
X109091000Y-117046000D03*
%TD*%
%TO.C,C3087*%
X110381000Y-116396000D03*
X110381000Y-117036000D03*
%TD*%
D27*
%TO.C,C3121*%
X138791000Y-111601000D03*
X139431000Y-111601000D03*
%TD*%
D20*
%TO.C,R6010*%
X138151000Y-113126000D03*
X138151000Y-114146000D03*
%TD*%
D39*
%TO.C,U6003*%
X161015000Y-129226000D03*
X161015000Y-130176000D03*
X161015000Y-131126000D03*
X163290000Y-131126000D03*
X163290000Y-130176000D03*
X163290000Y-129226000D03*
%TD*%
D20*
%TO.C,R5009*%
X145588000Y-76251000D03*
X145588000Y-77271000D03*
%TD*%
D40*
%TO.C,U1001*%
X149111000Y-98577000D03*
X149761000Y-98577000D03*
X150411000Y-98577000D03*
X151061000Y-98577000D03*
X151061000Y-92701000D03*
X150411000Y-92701000D03*
X149761000Y-92701000D03*
X149111000Y-92701000D03*
%TD*%
D11*
%TO.C,R1004*%
X134371000Y-100650388D03*
X136021000Y-100650388D03*
%TD*%
D41*
%TO.C,C5019*%
X144101000Y-83346000D03*
X144101000Y-84306000D03*
%TD*%
D42*
%TO.C,D7003*%
X124511000Y-141646000D03*
X124511000Y-140676000D03*
%TD*%
D43*
%TO.C,SW7001*%
X154181000Y-136376000D03*
X154181000Y-142876000D03*
X149681000Y-136376000D03*
X149681000Y-142876000D03*
%TD*%
D11*
%TO.C,R1011*%
X140841000Y-107989877D03*
X142491000Y-107989877D03*
%TD*%
D38*
%TO.C,C3079*%
X126354000Y-91502000D03*
X126354000Y-92142000D03*
%TD*%
D44*
%TO.C,C3019*%
X167201625Y-101207000D03*
X165651625Y-101207000D03*
%TD*%
D45*
%TO.C,L5001*%
X147081000Y-85071000D03*
X147081000Y-83471000D03*
%TD*%
D43*
%TO.C,SW7003*%
X161701000Y-136376000D03*
X161701000Y-142876000D03*
X157201000Y-136376000D03*
X157201000Y-142876000D03*
%TD*%
D46*
%TO.C,D1006*%
X108261000Y-137341000D03*
X108261000Y-138141000D03*
%TD*%
D15*
%TO.C,R4006*%
X115061000Y-128581000D03*
X115061000Y-127561000D03*
%TD*%
D21*
%TO.C,C3001*%
X161351000Y-114901000D03*
X161351000Y-113351000D03*
%TD*%
D20*
%TO.C,R6009*%
X140351000Y-113126000D03*
X140351000Y-114146000D03*
%TD*%
D11*
%TO.C,R1017*%
X140841000Y-96951714D03*
X142491000Y-96951714D03*
%TD*%
%TO.C,R1030*%
X137626000Y-102492225D03*
X139276000Y-102492225D03*
%TD*%
%TO.C,R1003*%
X134371000Y-98810694D03*
X136021000Y-98810694D03*
%TD*%
%TO.C,R1015*%
X140841000Y-100631102D03*
X142491000Y-100631102D03*
%TD*%
%TO.C,R1007*%
X134371000Y-106169469D03*
X136021000Y-106169469D03*
%TD*%
D20*
%TO.C,R6011*%
X135951000Y-113126000D03*
X135951000Y-114146000D03*
%TD*%
D10*
%TO.C,R1049*%
X111281000Y-101621000D03*
X110261000Y-101621000D03*
%TD*%
D20*
%TO.C,R4008*%
X114944492Y-122390984D03*
X114944492Y-123410984D03*
%TD*%
D47*
%TO.C,L6001*%
X167771000Y-107946000D03*
X169621000Y-107946000D03*
X169621000Y-107096000D03*
X167771000Y-107096000D03*
%TD*%
D12*
%TO.C,R5026*%
X171401000Y-93501000D03*
X172421000Y-93501000D03*
%TD*%
%TO.C,R5016*%
X128181000Y-100321000D03*
X129201000Y-100321000D03*
%TD*%
%TO.C,R5015*%
X128196000Y-93301000D03*
X129216000Y-93301000D03*
%TD*%
D15*
%TO.C,R1026*%
X149531000Y-113821000D03*
X149531000Y-112801000D03*
%TD*%
D20*
%TO.C,R5004*%
X127851000Y-91116000D03*
X127851000Y-92136000D03*
%TD*%
D15*
%TO.C,R1024*%
X147297667Y-113821000D03*
X147297667Y-112801000D03*
%TD*%
D10*
%TO.C,R3001*%
X150871000Y-130601000D03*
X149851000Y-130601000D03*
%TD*%
D48*
%TO.C,J2003*%
X119201000Y-67541000D03*
D49*
X119201000Y-70081000D03*
X119201000Y-72621000D03*
X119201000Y-75161000D03*
X119201000Y-77701000D03*
X119201000Y-80241000D03*
%TD*%
D50*
%TO.C,C6017*%
X131231000Y-79571000D03*
X131231000Y-77671000D03*
%TD*%
D27*
%TO.C,C3084*%
X119521000Y-114816000D03*
X120161000Y-114816000D03*
%TD*%
D10*
%TO.C,R5007*%
X142421000Y-80539000D03*
X141401000Y-80539000D03*
%TD*%
D11*
%TO.C,R1041*%
X144051000Y-98792224D03*
X145701000Y-98792224D03*
%TD*%
D41*
%TO.C,C5018*%
X145151000Y-83346000D03*
X145151000Y-84306000D03*
%TD*%
D51*
%TO.C,U1002*%
X113401000Y-107916000D03*
X113401000Y-107416000D03*
X113401000Y-106916000D03*
X113401000Y-106416000D03*
X113401000Y-105916000D03*
X113401000Y-105416000D03*
X113401000Y-104916000D03*
X113401000Y-104416000D03*
X113401000Y-103916000D03*
X113401000Y-103416000D03*
X113401000Y-102916000D03*
X113401000Y-102416000D03*
X113401000Y-101916000D03*
X113401000Y-101416000D03*
X113401000Y-100916000D03*
X113401000Y-100416000D03*
X113401000Y-99916000D03*
X113401000Y-99416000D03*
X113401000Y-98916000D03*
X113401000Y-98416000D03*
X113401000Y-97916000D03*
X113401000Y-97416000D03*
X113401000Y-96916000D03*
X113401000Y-96416000D03*
X113401000Y-95916000D03*
X123401000Y-107916000D03*
X123401000Y-107416000D03*
X123401000Y-106916000D03*
X123401000Y-105916000D03*
X123401000Y-104916000D03*
X123401000Y-104416000D03*
X123401000Y-102916000D03*
X123401000Y-102416000D03*
X123401000Y-101416000D03*
X123401000Y-100916000D03*
X123401000Y-99416000D03*
X123401000Y-98916000D03*
X123401000Y-97916000D03*
X123401000Y-96916000D03*
X123401000Y-96416000D03*
X123401000Y-95916000D03*
X123901000Y-107916000D03*
X123901000Y-107416000D03*
X123901000Y-106416000D03*
X123901000Y-105416000D03*
X123901000Y-103916000D03*
X123901000Y-103416000D03*
X123901000Y-102416000D03*
X123901000Y-101416000D03*
X123901000Y-100416000D03*
X123901000Y-99916000D03*
X123901000Y-98416000D03*
X123901000Y-97416000D03*
X123901000Y-96416000D03*
X123901000Y-95916000D03*
X124401000Y-107916000D03*
X124401000Y-107416000D03*
X124401000Y-105916000D03*
X124401000Y-105416000D03*
X124401000Y-103916000D03*
X124401000Y-102916000D03*
X124401000Y-101916000D03*
X124401000Y-100916000D03*
X124401000Y-99916000D03*
X124401000Y-98416000D03*
X124401000Y-97916000D03*
X124401000Y-96416000D03*
X124401000Y-95916000D03*
X124901000Y-107916000D03*
X124901000Y-107416000D03*
X124901000Y-106916000D03*
X124901000Y-106416000D03*
X124901000Y-105916000D03*
X124901000Y-105416000D03*
X124901000Y-104916000D03*
X124901000Y-104416000D03*
X124901000Y-103916000D03*
X124901000Y-103416000D03*
X124901000Y-102916000D03*
X124901000Y-102416000D03*
X124901000Y-101916000D03*
X124901000Y-101416000D03*
X124901000Y-100916000D03*
X124901000Y-100416000D03*
X124901000Y-99916000D03*
X124901000Y-99416000D03*
X124901000Y-98916000D03*
X124901000Y-98416000D03*
X124901000Y-97916000D03*
X124901000Y-97416000D03*
X124901000Y-96916000D03*
X124901000Y-96416000D03*
X124901000Y-95916000D03*
X125401000Y-107916000D03*
X125401000Y-107416000D03*
X125401000Y-106916000D03*
X125401000Y-106416000D03*
X125401000Y-105916000D03*
X125401000Y-105416000D03*
X125401000Y-104916000D03*
X125401000Y-104416000D03*
X125401000Y-103916000D03*
X125401000Y-103416000D03*
X125401000Y-102916000D03*
X125401000Y-102416000D03*
X125401000Y-101916000D03*
X125401000Y-101416000D03*
X125401000Y-100916000D03*
X125401000Y-100416000D03*
X125401000Y-99916000D03*
X125401000Y-99416000D03*
X125401000Y-98916000D03*
X125401000Y-98416000D03*
X125401000Y-97916000D03*
X125401000Y-97416000D03*
X125401000Y-96916000D03*
X125401000Y-96416000D03*
X125401000Y-95916000D03*
X113901000Y-107916000D03*
X113901000Y-107416000D03*
X113901000Y-106916000D03*
X113901000Y-106416000D03*
X113901000Y-105916000D03*
X113901000Y-105416000D03*
X113901000Y-104916000D03*
X113901000Y-104416000D03*
X113901000Y-103916000D03*
X113901000Y-103416000D03*
X113901000Y-102916000D03*
X113901000Y-102416000D03*
X113901000Y-101916000D03*
X113901000Y-101416000D03*
X113901000Y-100916000D03*
X113901000Y-100416000D03*
X113901000Y-99916000D03*
X113901000Y-99416000D03*
X113901000Y-98916000D03*
X113901000Y-98416000D03*
X113901000Y-97916000D03*
X113901000Y-97416000D03*
X113901000Y-96916000D03*
X113901000Y-96416000D03*
X113901000Y-95916000D03*
X114401000Y-107916000D03*
X114401000Y-107416000D03*
X114401000Y-105916000D03*
X114401000Y-105416000D03*
X114401000Y-103916000D03*
X114401000Y-102916000D03*
X114401000Y-101916000D03*
X114401000Y-100916000D03*
X114401000Y-99916000D03*
X114401000Y-98416000D03*
X114401000Y-97916000D03*
X114401000Y-96416000D03*
X114401000Y-95916000D03*
X114901000Y-107916000D03*
X114901000Y-107416000D03*
X114901000Y-106416000D03*
X114901000Y-105416000D03*
X114901000Y-103916000D03*
X114901000Y-103416000D03*
X114901000Y-102416000D03*
X114901000Y-101416000D03*
X114901000Y-100416000D03*
X114901000Y-99916000D03*
X114901000Y-98416000D03*
X114901000Y-97416000D03*
X114901000Y-96416000D03*
X114901000Y-95916000D03*
X115401000Y-107916000D03*
X115401000Y-107416000D03*
X115401000Y-106916000D03*
X115401000Y-105916000D03*
X115401000Y-104916000D03*
X115401000Y-104416000D03*
X115401000Y-102916000D03*
X115401000Y-102416000D03*
X115401000Y-101416000D03*
X115401000Y-100916000D03*
X115401000Y-99416000D03*
X115401000Y-98916000D03*
X115401000Y-97916000D03*
X115401000Y-96916000D03*
X115401000Y-96416000D03*
X115401000Y-95916000D03*
X115901000Y-107916000D03*
X115901000Y-107416000D03*
X115901000Y-106916000D03*
X115901000Y-106416000D03*
X115901000Y-105416000D03*
X115901000Y-104416000D03*
X115901000Y-102916000D03*
X115901000Y-101916000D03*
X115901000Y-100916000D03*
X115901000Y-99416000D03*
X115901000Y-98416000D03*
X115901000Y-97416000D03*
X115901000Y-96916000D03*
X115901000Y-96416000D03*
X115901000Y-95916000D03*
X116401000Y-107916000D03*
X116401000Y-107416000D03*
X116401000Y-105916000D03*
X116401000Y-104916000D03*
X116401000Y-103916000D03*
X116401000Y-103416000D03*
X116401000Y-102416000D03*
X116401000Y-101916000D03*
X116401000Y-101416000D03*
X116401000Y-100416000D03*
X116401000Y-99916000D03*
X116401000Y-98916000D03*
X116401000Y-97916000D03*
X116401000Y-96416000D03*
X116401000Y-95916000D03*
X116901000Y-107916000D03*
X116901000Y-107416000D03*
X116901000Y-105916000D03*
X116901000Y-105416000D03*
X116901000Y-104416000D03*
X116901000Y-103916000D03*
X116901000Y-103416000D03*
X116901000Y-102916000D03*
X116901000Y-101916000D03*
X116901000Y-100916000D03*
X116901000Y-100416000D03*
X116901000Y-99916000D03*
X116901000Y-99416000D03*
X116901000Y-98416000D03*
X116901000Y-97916000D03*
X116901000Y-96416000D03*
X116901000Y-95916000D03*
X117401000Y-107916000D03*
X117401000Y-107416000D03*
X117401000Y-106916000D03*
X117401000Y-106416000D03*
X117401000Y-104916000D03*
X117401000Y-104416000D03*
X117401000Y-102916000D03*
X117401000Y-102416000D03*
X117401000Y-101916000D03*
X117401000Y-101416000D03*
X117401000Y-99416000D03*
X117401000Y-98916000D03*
X117401000Y-97416000D03*
X117401000Y-96916000D03*
X117401000Y-96416000D03*
X117401000Y-95916000D03*
X117901000Y-107916000D03*
X117901000Y-107416000D03*
X117901000Y-106916000D03*
X117901000Y-106416000D03*
X117901000Y-104916000D03*
X117901000Y-103916000D03*
X117901000Y-103416000D03*
X117901000Y-101916000D03*
X117901000Y-100916000D03*
X117901000Y-100416000D03*
X117901000Y-99916000D03*
X117901000Y-99416000D03*
X117901000Y-98916000D03*
X117901000Y-97416000D03*
X117901000Y-96416000D03*
X117901000Y-95916000D03*
X118401000Y-107916000D03*
X118401000Y-107416000D03*
X118401000Y-105916000D03*
X118401000Y-105416000D03*
X118401000Y-104416000D03*
X118401000Y-102916000D03*
X118401000Y-102416000D03*
X118401000Y-101416000D03*
X118401000Y-100916000D03*
X118401000Y-99416000D03*
X118401000Y-98416000D03*
X118401000Y-97916000D03*
X118401000Y-96916000D03*
X118401000Y-96416000D03*
X118401000Y-95916000D03*
X118901000Y-107916000D03*
X118901000Y-107416000D03*
X118901000Y-106416000D03*
X118901000Y-105916000D03*
X118901000Y-104916000D03*
X118901000Y-104416000D03*
X118901000Y-103916000D03*
X118901000Y-103416000D03*
X118901000Y-102416000D03*
X118901000Y-101916000D03*
X118901000Y-100416000D03*
X118901000Y-99916000D03*
X118901000Y-99416000D03*
X118901000Y-98916000D03*
X118901000Y-97916000D03*
X118901000Y-97416000D03*
X118901000Y-96416000D03*
X118901000Y-95916000D03*
X119401000Y-107916000D03*
X119401000Y-107416000D03*
X119401000Y-106916000D03*
X119401000Y-105416000D03*
X119401000Y-104416000D03*
X119401000Y-102916000D03*
X119401000Y-102416000D03*
X119401000Y-101916000D03*
X119401000Y-101416000D03*
X119401000Y-100916000D03*
X119401000Y-99416000D03*
X119401000Y-98416000D03*
X119401000Y-96916000D03*
X119401000Y-96416000D03*
X119401000Y-95916000D03*
X119901000Y-107916000D03*
X119901000Y-107416000D03*
X119901000Y-106416000D03*
X119901000Y-105916000D03*
X119901000Y-104916000D03*
X119901000Y-103916000D03*
X119901000Y-103416000D03*
X119901000Y-101916000D03*
X119901000Y-100416000D03*
X119901000Y-99916000D03*
X119901000Y-99416000D03*
X119901000Y-98916000D03*
X119901000Y-97916000D03*
X119901000Y-97416000D03*
X119901000Y-96416000D03*
X119901000Y-95916000D03*
X120401000Y-107916000D03*
X120401000Y-107416000D03*
X120401000Y-106916000D03*
X120401000Y-105916000D03*
X120401000Y-105416000D03*
X120401000Y-104416000D03*
X120401000Y-102916000D03*
X120401000Y-102416000D03*
X120401000Y-101916000D03*
X120401000Y-101416000D03*
X120401000Y-100916000D03*
X120401000Y-99416000D03*
X120401000Y-98416000D03*
X120401000Y-97916000D03*
X120401000Y-96916000D03*
X120401000Y-96416000D03*
X120401000Y-95916000D03*
X120901000Y-107916000D03*
X120901000Y-107416000D03*
X120901000Y-106416000D03*
X120901000Y-104916000D03*
X120901000Y-104416000D03*
X120901000Y-103916000D03*
X120901000Y-103416000D03*
X120901000Y-101916000D03*
X120901000Y-101416000D03*
X120901000Y-100416000D03*
X120901000Y-99916000D03*
X120901000Y-99416000D03*
X120901000Y-98916000D03*
X120901000Y-97416000D03*
X120901000Y-96416000D03*
X120901000Y-95916000D03*
X121401000Y-107916000D03*
X121401000Y-107416000D03*
X121401000Y-106916000D03*
X121401000Y-106416000D03*
X121401000Y-104916000D03*
X121401000Y-104416000D03*
X121401000Y-102916000D03*
X121401000Y-102416000D03*
X121401000Y-101416000D03*
X121401000Y-100916000D03*
X121401000Y-99416000D03*
X121401000Y-98916000D03*
X121401000Y-97416000D03*
X121401000Y-96916000D03*
X121401000Y-96416000D03*
X121401000Y-95916000D03*
X121901000Y-107916000D03*
X121901000Y-107416000D03*
X121901000Y-105916000D03*
X121901000Y-105416000D03*
X121901000Y-104416000D03*
X121901000Y-103916000D03*
X121901000Y-103416000D03*
X121901000Y-102916000D03*
X121901000Y-101916000D03*
X121901000Y-100916000D03*
X121901000Y-100416000D03*
X121901000Y-99916000D03*
X121901000Y-99416000D03*
X121901000Y-98416000D03*
X121901000Y-97916000D03*
X121901000Y-96416000D03*
X121901000Y-95916000D03*
X122401000Y-107916000D03*
X122401000Y-107416000D03*
X122401000Y-105916000D03*
X122401000Y-104916000D03*
X122401000Y-103916000D03*
X122401000Y-103416000D03*
X122401000Y-102416000D03*
X122401000Y-101916000D03*
X122401000Y-101416000D03*
X122401000Y-100416000D03*
X122401000Y-99916000D03*
X122401000Y-98916000D03*
X122401000Y-97916000D03*
X122401000Y-96416000D03*
X122401000Y-95916000D03*
X122901000Y-107916000D03*
X122901000Y-107416000D03*
X122901000Y-106916000D03*
X122901000Y-106416000D03*
X122901000Y-105416000D03*
X122901000Y-104416000D03*
X122901000Y-102916000D03*
X122901000Y-101916000D03*
X122901000Y-100916000D03*
X122901000Y-99416000D03*
X122901000Y-98416000D03*
X122901000Y-97416000D03*
X122901000Y-96916000D03*
X122901000Y-96416000D03*
X122901000Y-95916000D03*
%TD*%
D52*
%TO.C,C3007*%
X156251000Y-121226000D03*
X156251000Y-122776000D03*
%TD*%
D20*
%TO.C,R6006*%
X137051000Y-113126000D03*
X137051000Y-114146000D03*
%TD*%
D12*
%TO.C,R5008*%
X143676000Y-79076000D03*
X144696000Y-79076000D03*
%TD*%
%TO.C,R7003*%
X121261000Y-142171000D03*
X122281000Y-142171000D03*
%TD*%
D15*
%TO.C,R4004*%
X128734492Y-121531000D03*
X128734492Y-120511000D03*
%TD*%
D48*
%TO.C,J1004*%
X102101000Y-104041000D03*
D49*
X102101000Y-106581000D03*
X102101000Y-109121000D03*
X102101000Y-111661000D03*
X102101000Y-114201000D03*
X102101000Y-116741000D03*
%TD*%
D43*
%TO.C,SW7002*%
X169099402Y-136376000D03*
X169099402Y-142876000D03*
X164599402Y-136376000D03*
X164599402Y-142876000D03*
%TD*%
D53*
%TO.C,TP1002*%
X105451000Y-118661000D03*
%TD*%
D11*
%TO.C,R1037*%
X144036000Y-106157122D03*
X145686000Y-106157122D03*
%TD*%
%TO.C,R1036*%
X144026000Y-107998347D03*
X145676000Y-107998347D03*
%TD*%
D41*
%TO.C,C6011*%
X159430000Y-129225000D03*
X159430000Y-130185000D03*
%TD*%
D20*
%TO.C,R3005*%
X157801000Y-115881000D03*
X157801000Y-116901000D03*
%TD*%
D15*
%TO.C,R3003*%
X162481000Y-125181000D03*
X162481000Y-124161000D03*
%TD*%
D48*
%TO.C,J2002*%
X144141000Y-67451000D03*
D49*
X146681000Y-67451000D03*
X149221000Y-67451000D03*
X151761000Y-67451000D03*
X154301000Y-67451000D03*
X156841000Y-67451000D03*
%TD*%
D20*
%TO.C,R5024*%
X149892667Y-86441000D03*
X149892667Y-87461000D03*
%TD*%
D12*
%TO.C,R5019*%
X128196000Y-96109000D03*
X129216000Y-96109000D03*
%TD*%
D48*
%TO.C,J1003*%
X112081000Y-138991000D03*
D49*
X114621000Y-138991000D03*
X117161000Y-138991000D03*
%TD*%
D11*
%TO.C,R1033*%
X137626000Y-108011306D03*
X139276000Y-108011306D03*
%TD*%
%TO.C,R1029*%
X137626000Y-100652531D03*
X139276000Y-100652531D03*
%TD*%
D18*
%TO.C,C1002*%
X154111000Y-104056000D03*
X155071000Y-104056000D03*
%TD*%
D54*
%TO.C,X1003*%
X109201000Y-111101000D03*
X109201000Y-108601000D03*
%TD*%
D11*
%TO.C,R1008*%
X134371000Y-108009163D03*
X136021000Y-108009163D03*
%TD*%
D20*
%TO.C,R5002*%
X145588000Y-73976000D03*
X145588000Y-74996000D03*
%TD*%
D11*
%TO.C,R1040*%
X144051000Y-100633449D03*
X145701000Y-100633449D03*
%TD*%
D10*
%TO.C,FB2001*%
X123611000Y-75901000D03*
X122591000Y-75901000D03*
%TD*%
D11*
%TO.C,R1013*%
X140841000Y-104310489D03*
X142491000Y-104310489D03*
%TD*%
D42*
%TO.C,D7001*%
X128291000Y-141636000D03*
X128291000Y-140666000D03*
%TD*%
D11*
%TO.C,R1027*%
X137601000Y-96973143D03*
X139251000Y-96973143D03*
%TD*%
D42*
%TO.C,D7002*%
X126401000Y-141641000D03*
X126401000Y-140671000D03*
%TD*%
D15*
%TO.C,R5021*%
X152226000Y-87461000D03*
X152226000Y-86441000D03*
%TD*%
D11*
%TO.C,R1002*%
X134371000Y-96971000D03*
X136021000Y-96971000D03*
%TD*%
D15*
%TO.C,R1025*%
X148414333Y-113821000D03*
X148414333Y-112801000D03*
%TD*%
D55*
%TO.C,C1007*%
X107101000Y-111361000D03*
X107101000Y-110401000D03*
%TD*%
D56*
%TO.C,C6016*%
X124701000Y-78831000D03*
X124701000Y-80731000D03*
%TD*%
D11*
%TO.C,R1028*%
X137626000Y-98812837D03*
X139276000Y-98812837D03*
%TD*%
D57*
%TO.C,U1004*%
X125019500Y-91035500D03*
X125019500Y-90085500D03*
X125019500Y-89135500D03*
X122744500Y-89135500D03*
X122744500Y-91035500D03*
%TD*%
D11*
%TO.C,R1034*%
X137626000Y-109851000D03*
X139276000Y-109851000D03*
%TD*%
D58*
%TO.C,X1001*%
X150386000Y-104627000D03*
X150386000Y-102777000D03*
X148936000Y-102777000D03*
X148936000Y-104627000D03*
%TD*%
D15*
%TO.C,R4007*%
X121491000Y-115381000D03*
X121491000Y-114361000D03*
%TD*%
D18*
%TO.C,C1004*%
X154111000Y-102946000D03*
X155071000Y-102946000D03*
%TD*%
D11*
%TO.C,R1016*%
X140841000Y-98791408D03*
X142491000Y-98791408D03*
%TD*%
D41*
%TO.C,C5002*%
X155426000Y-84166000D03*
X155426000Y-85126000D03*
%TD*%
D12*
%TO.C,R1044*%
X107777000Y-99825000D03*
X108797000Y-99825000D03*
%TD*%
D59*
%TO.C,U5002*%
X154148500Y-83511500D03*
X154148500Y-83111500D03*
X154148500Y-82711500D03*
X154148500Y-82311500D03*
X154148500Y-81911500D03*
X154148500Y-81511500D03*
X154148500Y-81111500D03*
X154148500Y-80711500D03*
X154148500Y-80311500D03*
X154148500Y-79911500D03*
D60*
X153511000Y-79274000D03*
X153111000Y-79274000D03*
X152711000Y-79274000D03*
X152311000Y-79274000D03*
X151911000Y-79274000D03*
X151511000Y-79274000D03*
X151111000Y-79274000D03*
X150711000Y-79274000D03*
X150311000Y-79274000D03*
X149911000Y-79274000D03*
D59*
X149273500Y-79911500D03*
X149273500Y-80311500D03*
X149273500Y-80711500D03*
X149273500Y-81111500D03*
X149273500Y-81511500D03*
X149273500Y-81911500D03*
X149273500Y-82311500D03*
X149273500Y-82711500D03*
X149273500Y-83111500D03*
X149273500Y-83511500D03*
D60*
X149911000Y-84149000D03*
X150311000Y-84149000D03*
X150711000Y-84149000D03*
X151111000Y-84149000D03*
X151511000Y-84149000D03*
X151911000Y-84149000D03*
X152311000Y-84149000D03*
X152711000Y-84149000D03*
X153111000Y-84149000D03*
X153511000Y-84149000D03*
D61*
X151711000Y-81711500D03*
%TD*%
D20*
%TO.C,R6004*%
X141451000Y-113126000D03*
X141451000Y-114146000D03*
%TD*%
D11*
%TO.C,R1009*%
X134371000Y-109848857D03*
X136021000Y-109848857D03*
%TD*%
D43*
%TO.C,SW7004*%
X146681000Y-136376000D03*
X146681000Y-142876000D03*
X142181000Y-136376000D03*
X142181000Y-142876000D03*
%TD*%
D12*
%TO.C,R6021*%
X162270000Y-132591000D03*
X163290000Y-132591000D03*
%TD*%
D62*
%TO.C,J2001*%
X102866000Y-90331000D03*
X103882000Y-97951000D03*
X101850000Y-97951000D03*
D63*
X102231000Y-91601000D03*
X102231000Y-92871000D03*
X102231000Y-94141000D03*
X102231000Y-95411000D03*
X102231000Y-96681000D03*
X103501000Y-96681000D03*
X103501000Y-95411000D03*
X103501000Y-94141000D03*
X103501000Y-92871000D03*
X103501000Y-91601000D03*
%TD*%
D20*
%TO.C,R5010*%
X147051000Y-76251000D03*
X147051000Y-77271000D03*
%TD*%
D11*
%TO.C,R1042*%
X144051000Y-96951000D03*
X145701000Y-96951000D03*
%TD*%
D53*
%TO.C,TP1001*%
X107879000Y-122348000D03*
%TD*%
D14*
%TO.C,D6014*%
X120976000Y-84526000D03*
X120976000Y-83126000D03*
%TD*%
D12*
%TO.C,R5013*%
X143676000Y-80539000D03*
X144696000Y-80539000D03*
%TD*%
D20*
%TO.C,R5020*%
X148726000Y-86451000D03*
X148726000Y-87471000D03*
%TD*%
D11*
%TO.C,R1006*%
X134371000Y-104329775D03*
X136021000Y-104329775D03*
%TD*%
D10*
%TO.C,FB3011*%
X129541000Y-87241000D03*
X128521000Y-87241000D03*
%TD*%
D18*
%TO.C,C1010*%
X122741000Y-87801000D03*
X123701000Y-87801000D03*
%TD*%
D64*
%TO.C,U1003*%
X105391000Y-139051000D03*
X105891000Y-139051000D03*
X106391000Y-139051000D03*
X106891000Y-139051000D03*
X106891000Y-135901000D03*
X106391000Y-135901000D03*
X105891000Y-135901000D03*
X105391000Y-135901000D03*
%TD*%
D27*
%TO.C,C3088*%
X119511000Y-115576000D03*
X120151000Y-115576000D03*
%TD*%
D20*
%TO.C,R4003*%
X127374492Y-120511000D03*
X127374492Y-121531000D03*
%TD*%
%TO.C,R6031*%
X122701000Y-80281000D03*
X122701000Y-81301000D03*
%TD*%
D65*
%TO.C,C4019*%
X126984492Y-123260984D03*
X126984492Y-122620984D03*
%TD*%
D12*
%TO.C,R1043*%
X107777000Y-98491000D03*
X108797000Y-98491000D03*
%TD*%
D14*
%TO.C,D1002*%
X149166000Y-111531000D03*
X149166000Y-110131000D03*
%TD*%
D11*
%TO.C,R1035*%
X144026000Y-109839571D03*
X145676000Y-109839571D03*
%TD*%
D51*
%TO.C,U6002*%
X136801000Y-119176000D03*
X137301000Y-119176000D03*
X137801000Y-119176000D03*
X138301000Y-119176000D03*
X138801000Y-119176000D03*
X139301000Y-119176000D03*
X139801000Y-119176000D03*
X140301000Y-119176000D03*
X140801000Y-119176000D03*
X141301000Y-119176000D03*
X141801000Y-119176000D03*
X142301000Y-119176000D03*
X142801000Y-119176000D03*
X143301000Y-119176000D03*
X136801000Y-119676000D03*
X137301000Y-119676000D03*
X137801000Y-119676000D03*
X138301000Y-119676000D03*
X138801000Y-119676000D03*
X139301000Y-119676000D03*
X139801000Y-119676000D03*
X140301000Y-119676000D03*
X140801000Y-119676000D03*
X141301000Y-119676000D03*
X141801000Y-119676000D03*
X142301000Y-119676000D03*
X142801000Y-119676000D03*
X143301000Y-119676000D03*
X136801000Y-120176000D03*
X137301000Y-120176000D03*
X137801000Y-120176000D03*
X138301000Y-120176000D03*
X138801000Y-120176000D03*
X139301000Y-120176000D03*
X139801000Y-120176000D03*
X140301000Y-120176000D03*
X140801000Y-120176000D03*
X141301000Y-120176000D03*
X141801000Y-120176000D03*
X142301000Y-120176000D03*
X142801000Y-120176000D03*
X143301000Y-120176000D03*
X136801000Y-120676000D03*
X137301000Y-120676000D03*
X137801000Y-120676000D03*
X138301000Y-120676000D03*
X142301000Y-120676000D03*
X142801000Y-120676000D03*
X143301000Y-120676000D03*
X136801000Y-121176000D03*
X137301000Y-121176000D03*
X137801000Y-121176000D03*
X138801000Y-121176000D03*
X139301000Y-121176000D03*
X139801000Y-121176000D03*
X140301000Y-121176000D03*
X140801000Y-121176000D03*
X141301000Y-121176000D03*
X142301000Y-121176000D03*
X142801000Y-121176000D03*
X143301000Y-121176000D03*
X136801000Y-121676000D03*
X137301000Y-121676000D03*
X137801000Y-121676000D03*
X138801000Y-121676000D03*
X141301000Y-121676000D03*
X142301000Y-121676000D03*
X142801000Y-121676000D03*
X143301000Y-121676000D03*
X136801000Y-122176000D03*
X137301000Y-122176000D03*
X137801000Y-122176000D03*
X138801000Y-122176000D03*
X141301000Y-122176000D03*
X142301000Y-122176000D03*
X142801000Y-122176000D03*
X143301000Y-122176000D03*
X136801000Y-122676000D03*
X137301000Y-122676000D03*
X137801000Y-122676000D03*
X138801000Y-122676000D03*
X141301000Y-122676000D03*
X142301000Y-122676000D03*
X142801000Y-122676000D03*
X143301000Y-122676000D03*
X136801000Y-123176000D03*
X137301000Y-123176000D03*
X137801000Y-123176000D03*
X138801000Y-123176000D03*
X141301000Y-123176000D03*
X142301000Y-123176000D03*
X142801000Y-123176000D03*
X143301000Y-123176000D03*
X136801000Y-123676000D03*
X137301000Y-123676000D03*
X137801000Y-123676000D03*
X138801000Y-123676000D03*
X139301000Y-123676000D03*
X139801000Y-123676000D03*
X140301000Y-123676000D03*
X140801000Y-123676000D03*
X141301000Y-123676000D03*
X142301000Y-123676000D03*
X142801000Y-123676000D03*
X143301000Y-123676000D03*
X136801000Y-124176000D03*
X137301000Y-124176000D03*
X137801000Y-124176000D03*
X142301000Y-124176000D03*
X142801000Y-124176000D03*
X143301000Y-124176000D03*
X136801000Y-124676000D03*
X137301000Y-124676000D03*
X137801000Y-124676000D03*
X138301000Y-124676000D03*
X138801000Y-124676000D03*
X139301000Y-124676000D03*
X139801000Y-124676000D03*
X140301000Y-124676000D03*
X140801000Y-124676000D03*
X141301000Y-124676000D03*
X141801000Y-124676000D03*
X142301000Y-124676000D03*
X142801000Y-124676000D03*
X143301000Y-124676000D03*
X136801000Y-125176000D03*
X137301000Y-125176000D03*
X137801000Y-125176000D03*
X138301000Y-125176000D03*
X138801000Y-125176000D03*
X139301000Y-125176000D03*
X139801000Y-125176000D03*
X140301000Y-125176000D03*
X140801000Y-125176000D03*
X141301000Y-125176000D03*
X141801000Y-125176000D03*
X142301000Y-125176000D03*
X142801000Y-125176000D03*
X143301000Y-125176000D03*
X136801000Y-125676000D03*
X137301000Y-125676000D03*
X137801000Y-125676000D03*
X138301000Y-125676000D03*
X138801000Y-125676000D03*
X139301000Y-125676000D03*
X139801000Y-125676000D03*
X140301000Y-125676000D03*
X140801000Y-125676000D03*
X141301000Y-125676000D03*
X141801000Y-125676000D03*
X142301000Y-125676000D03*
X142801000Y-125676000D03*
X143301000Y-125676000D03*
%TD*%
D15*
%TO.C,R6022*%
X161190000Y-133611000D03*
X161190000Y-132591000D03*
%TD*%
D41*
%TO.C,C1008*%
X107101000Y-108341000D03*
X107101000Y-109301000D03*
%TD*%
D38*
%TO.C,C3048*%
X133351000Y-107011000D03*
X133351000Y-107651000D03*
%TD*%
D12*
%TO.C,R3002*%
X149851000Y-131661000D03*
X150871000Y-131661000D03*
%TD*%
%TO.C,R6003*%
X130911000Y-100341000D03*
X131931000Y-100341000D03*
%TD*%
%TO.C,R5014*%
X128196000Y-94705000D03*
X129216000Y-94705000D03*
%TD*%
D10*
%TO.C,R5006*%
X142421000Y-82002000D03*
X141401000Y-82002000D03*
%TD*%
D20*
%TO.C,R5001*%
X148514000Y-73976000D03*
X148514000Y-74996000D03*
%TD*%
D10*
%TO.C,R1046*%
X111283000Y-99201000D03*
X110263000Y-99201000D03*
%TD*%
D65*
%TO.C,R1023*%
X149201000Y-91211000D03*
X149201000Y-90571000D03*
%TD*%
D10*
%TO.C,R1051*%
X111281000Y-100571000D03*
X110261000Y-100571000D03*
%TD*%
D62*
%TO.C,J1002*%
X138291000Y-136336000D03*
X130671000Y-137352000D03*
X130671000Y-135320000D03*
D63*
X137021000Y-135701000D03*
X135751000Y-135701000D03*
X134481000Y-135701000D03*
X133211000Y-135701000D03*
X131941000Y-135701000D03*
X131941000Y-136971000D03*
X133211000Y-136971000D03*
X134481000Y-136971000D03*
X135751000Y-136971000D03*
X137021000Y-136971000D03*
%TD*%
D12*
%TO.C,R5017*%
X128196000Y-98917000D03*
X129216000Y-98917000D03*
%TD*%
D44*
%TO.C,C6010*%
X159190000Y-131521000D03*
X157640000Y-131521000D03*
%TD*%
D55*
%TO.C,C5001*%
X155726000Y-79081000D03*
X155726000Y-78121000D03*
%TD*%
D14*
%TO.C,D6013*%
X122701000Y-84526000D03*
X122701000Y-83126000D03*
%TD*%
D65*
%TO.C,R1020*%
X149861000Y-100747000D03*
X149861000Y-100107000D03*
%TD*%
D11*
%TO.C,R1005*%
X134371000Y-102490082D03*
X136021000Y-102490082D03*
%TD*%
D20*
%TO.C,R6007*%
X134851000Y-113126000D03*
X134851000Y-114146000D03*
%TD*%
D11*
%TO.C,R1031*%
X137626000Y-104331918D03*
X139276000Y-104331918D03*
%TD*%
D15*
%TO.C,R6014*%
X111251000Y-97161000D03*
X111251000Y-96141000D03*
%TD*%
D66*
%TO.C,D6001*%
X171471000Y-106841000D03*
X172271000Y-106841000D03*
%TD*%
D20*
%TO.C,R5022*%
X151059333Y-86441000D03*
X151059333Y-87461000D03*
%TD*%
D67*
%TO.C,C1011*%
X105611000Y-134611000D03*
X104651000Y-134611000D03*
%TD*%
D27*
%TO.C,R1021*%
X150841000Y-100127000D03*
X151481000Y-100127000D03*
%TD*%
D20*
%TO.C,R6008*%
X133751000Y-113126000D03*
X133751000Y-114146000D03*
%TD*%
D65*
%TO.C,R1022*%
X148936000Y-100747000D03*
X148936000Y-100107000D03*
%TD*%
D11*
%TO.C,R1012*%
X140841000Y-106150183D03*
X142491000Y-106150183D03*
%TD*%
D20*
%TO.C,R5023*%
X153601000Y-86431000D03*
X153601000Y-87451000D03*
%TD*%
D65*
%TO.C,C3081*%
X118741000Y-85661000D03*
X118741000Y-85021000D03*
%TD*%
D20*
%TO.C,R6005*%
X139251000Y-113126000D03*
X139251000Y-114146000D03*
%TD*%
D11*
%TO.C,R1039*%
X144051000Y-102474673D03*
X145701000Y-102474673D03*
%TD*%
D15*
%TO.C,R1060*%
X121101000Y-92101000D03*
X121101000Y-91081000D03*
%TD*%
D47*
%TO.C,L6002*%
X163951000Y-127126000D03*
X165801000Y-127126000D03*
X165801000Y-126276000D03*
X163951000Y-126276000D03*
%TD*%
D11*
%TO.C,R1032*%
X137626000Y-106171612D03*
X139276000Y-106171612D03*
%TD*%
D15*
%TO.C,R4005*%
X114954492Y-121270984D03*
X114954492Y-120250984D03*
%TD*%
D66*
%TO.C,D6002*%
X171471000Y-108201000D03*
X172271000Y-108201000D03*
%TD*%
D12*
%TO.C,R5012*%
X143676000Y-82002000D03*
X144696000Y-82002000D03*
%TD*%
D65*
%TO.C,C1001*%
X152190000Y-104180000D03*
X152190000Y-103540000D03*
%TD*%
D68*
%TO.C,U6004*%
X126751000Y-78831000D03*
X126751000Y-79781000D03*
X126751000Y-80731000D03*
X129251000Y-80731000D03*
X129251000Y-79781000D03*
X129251000Y-78831000D03*
%TD*%
D48*
%TO.C,J1001*%
X102101000Y-122451000D03*
D49*
X102101000Y-124991000D03*
X102101000Y-127531000D03*
X102101000Y-130071000D03*
X102101000Y-132611000D03*
X102101000Y-135151000D03*
%TD*%
D12*
%TO.C,R5018*%
X128196000Y-97513000D03*
X129216000Y-97513000D03*
%TD*%
%TO.C,R7001*%
X121261000Y-139811000D03*
X122281000Y-139811000D03*
%TD*%
D14*
%TO.C,D1001*%
X147521000Y-111531000D03*
X147521000Y-110131000D03*
%TD*%
D12*
%TO.C,R7002*%
X121261000Y-140991000D03*
X122281000Y-140991000D03*
%TD*%
D69*
%TO.C,J6003*%
X126601000Y-69701000D03*
X134601000Y-69701000D03*
%TD*%
M02*
