%TF.GenerationSoftware,KiCad,Pcbnew,9.0.1*%
%TF.CreationDate,2026-01-05T16:28:52-05:00*%
%TF.ProjectId,Leonhart,4c656f6e-6861-4727-942e-6b696361645f,rev?*%
%TF.SameCoordinates,Original*%
%TF.FileFunction,Soldermask,Bot*%
%TF.FilePolarity,Negative*%
%FSLAX46Y46*%
G04 Gerber Fmt 4.6, Leading zero omitted, Abs format (unit mm)*
G04 Created by KiCad (PCBNEW 9.0.1) date 2026-01-05 16:28:52*
%MOMM*%
%LPD*%
G01*
G04 APERTURE LIST*
G04 Aperture macros list*
%AMRoundRect*
0 Rectangle with rounded corners*
0 $1 Rounding radius*
0 $2 $3 $4 $5 $6 $7 $8 $9 X,Y pos of 4 corners*
0 Add a 4 corners polygon primitive as box body*
4,1,4,$2,$3,$4,$5,$6,$7,$8,$9,$2,$3,0*
0 Add four circle primitives for the rounded corners*
1,1,$1+$1,$2,$3*
1,1,$1+$1,$4,$5*
1,1,$1+$1,$6,$7*
1,1,$1+$1,$8,$9*
0 Add four rect primitives between the rounded corners*
20,1,$1+$1,$2,$3,$4,$5,0*
20,1,$1+$1,$4,$5,$6,$7,0*
20,1,$1+$1,$6,$7,$8,$9,0*
20,1,$1+$1,$8,$9,$2,$3,0*%
G04 Aperture macros list end*
%ADD10C,0.650000*%
%ADD11O,2.100000X1.000000*%
%ADD12O,1.600000X1.000000*%
%ADD13R,1.400000X1.400000*%
%ADD14C,1.400000*%
%ADD15C,3.150000*%
%ADD16C,3.250000*%
%ADD17C,1.540000*%
%ADD18C,1.530000*%
%ADD19C,2.445000*%
%ADD20C,2.000000*%
%ADD21R,1.700000X1.700000*%
%ADD22C,1.700000*%
%ADD23C,0.990600*%
%ADD24RoundRect,0.135000X-0.185000X0.135000X-0.185000X-0.135000X0.185000X-0.135000X0.185000X0.135000X0*%
%ADD25RoundRect,0.150000X-0.200000X0.150000X-0.200000X-0.150000X0.200000X-0.150000X0.200000X0.150000X0*%
%ADD26RoundRect,0.140000X0.170000X-0.140000X0.170000X0.140000X-0.170000X0.140000X-0.170000X-0.140000X0*%
%ADD27RoundRect,0.100000X0.100000X-0.130000X0.100000X0.130000X-0.100000X0.130000X-0.100000X-0.130000X0*%
%ADD28RoundRect,0.135000X0.185000X-0.135000X0.185000X0.135000X-0.185000X0.135000X-0.185000X-0.135000X0*%
%ADD29RoundRect,0.140000X-0.170000X0.140000X-0.170000X-0.140000X0.170000X-0.140000X0.170000X0.140000X0*%
%ADD30RoundRect,0.140000X0.140000X0.170000X-0.140000X0.170000X-0.140000X-0.170000X0.140000X-0.170000X0*%
%ADD31RoundRect,0.100000X-0.100000X0.130000X-0.100000X-0.130000X0.100000X-0.130000X0.100000X0.130000X0*%
%ADD32R,1.000000X1.000000*%
%ADD33RoundRect,0.100000X-0.160082X-0.035690X0.075558X-0.145571X0.160082X0.035690X-0.075558X0.145571X0*%
%ADD34RoundRect,0.140000X-0.140000X-0.170000X0.140000X-0.170000X0.140000X0.170000X-0.140000X0.170000X0*%
%ADD35RoundRect,0.135000X-0.135000X-0.185000X0.135000X-0.185000X0.135000X0.185000X-0.135000X0.185000X0*%
%ADD36RoundRect,0.100000X0.130000X0.100000X-0.130000X0.100000X-0.130000X-0.100000X0.130000X-0.100000X0*%
%ADD37RoundRect,0.135000X0.135000X0.185000X-0.135000X0.185000X-0.135000X-0.185000X0.135000X-0.185000X0*%
%ADD38RoundRect,0.100000X-0.130000X-0.100000X0.130000X-0.100000X0.130000X0.100000X-0.130000X0.100000X0*%
%ADD39R,0.800000X0.900000*%
%ADD40RoundRect,0.100000X-0.021213X-0.162635X0.162635X0.021213X0.021213X0.162635X-0.162635X-0.021213X0*%
%ADD41RoundRect,0.100000X-0.162635X0.021213X0.021213X-0.162635X0.162635X-0.021213X-0.021213X0.162635X0*%
%ADD42R,0.300000X0.800000*%
%ADD43R,0.800000X0.300000*%
%ADD44R,3.800000X3.800000*%
%ADD45RoundRect,0.150000X0.150000X0.200000X-0.150000X0.200000X-0.150000X-0.200000X0.150000X-0.200000X0*%
%ADD46RoundRect,0.100000X0.121055X-0.110660X0.075907X0.145390X-0.121055X0.110660X-0.075907X-0.145390X0*%
%ADD47RoundRect,0.225000X-0.250000X0.225000X-0.250000X-0.225000X0.250000X-0.225000X0.250000X0.225000X0*%
%ADD48RoundRect,0.045000X-0.205000X0.105000X-0.205000X-0.105000X0.205000X-0.105000X0.205000X0.105000X0*%
%ADD49RoundRect,0.250000X0.250000X0.475000X-0.250000X0.475000X-0.250000X-0.475000X0.250000X-0.475000X0*%
%ADD50RoundRect,0.100000X0.138221X0.088289X-0.120790X0.110950X-0.138221X-0.088289X0.120790X-0.110950X0*%
%ADD51RoundRect,0.100000X-0.155000X-0.100000X0.155000X-0.100000X0.155000X0.100000X-0.155000X0.100000X0*%
%ADD52RoundRect,0.100000X-0.156480X0.049132X-0.007350X-0.163847X0.156480X-0.049132X0.007350X0.163847X0*%
%ADD53C,0.900000*%
%ADD54R,0.700000X1.400000*%
%ADD55R,1.600000X1.400000*%
%ADD56R,1.200000X2.200000*%
%ADD57RoundRect,0.250000X-0.625000X0.312500X-0.625000X-0.312500X0.625000X-0.312500X0.625000X0.312500X0*%
%ADD58RoundRect,0.250000X-0.650000X0.325000X-0.650000X-0.325000X0.650000X-0.325000X0.650000X0.325000X0*%
%ADD59RoundRect,0.250000X0.375000X0.850000X-0.375000X0.850000X-0.375000X-0.850000X0.375000X-0.850000X0*%
%ADD60RoundRect,0.250000X-0.475000X0.250000X-0.475000X-0.250000X0.475000X-0.250000X0.475000X0.250000X0*%
%ADD61RoundRect,0.100000X0.021603X-0.162583X0.151603X0.062583X-0.021603X0.162583X-0.151603X-0.062583X0*%
%ADD62RoundRect,0.062500X-0.062500X0.237500X-0.062500X-0.237500X0.062500X-0.237500X0.062500X0.237500X0*%
%ADD63RoundRect,0.050000X-0.050000X0.450000X-0.050000X-0.450000X0.050000X-0.450000X0.050000X0.450000X0*%
%ADD64RoundRect,0.100000X0.156480X-0.049132X0.007350X0.163847X-0.156480X0.049132X-0.007350X-0.163847X0*%
%ADD65RoundRect,0.225000X0.250000X-0.225000X0.250000X0.225000X-0.250000X0.225000X-0.250000X-0.225000X0*%
%ADD66RoundRect,0.100000X0.049507X-0.156362X0.138432X0.087958X-0.049507X0.156362X-0.138432X-0.087958X0*%
%ADD67RoundRect,0.250000X0.850000X-0.375000X0.850000X0.375000X-0.850000X0.375000X-0.850000X-0.375000X0*%
%ADD68RoundRect,0.100000X-0.087958X-0.138432X0.156362X-0.049507X0.087958X0.138432X-0.156362X0.049507X0*%
%ADD69RoundRect,0.100000X-0.075558X-0.145571X0.160082X-0.035690X0.075558X0.145571X-0.160082X0.035690X0*%
%ADD70RoundRect,0.250000X0.475000X-0.250000X0.475000X0.250000X-0.475000X0.250000X-0.475000X-0.250000X0*%
%ADD71RoundRect,0.100000X-0.049507X0.156362X-0.138432X-0.087958X0.049507X-0.156362X0.138432X0.087958X0*%
G04 APERTURE END LIST*
D10*
%TO.C,J6001*%
X200175000Y-129210000D03*
X200175000Y-123430000D03*
D11*
X199645000Y-130640000D03*
D12*
X203825000Y-130640000D03*
D11*
X199645000Y-122000000D03*
D12*
X203825000Y-122000000D03*
%TD*%
D13*
%TO.C,J6002*%
X193835000Y-148500000D03*
D14*
X193835000Y-146000000D03*
X193835000Y-144000000D03*
X193835000Y-141500000D03*
D15*
X196545000Y-152000000D03*
X196545000Y-138000000D03*
%TD*%
D16*
%TO.C,U5001*%
X195950000Y-94550000D03*
X195950000Y-105980000D03*
D17*
X187060000Y-105980000D03*
X189600000Y-104710000D03*
X187060000Y-103440000D03*
X189600000Y-102170000D03*
X187060000Y-100900000D03*
X189600000Y-99630000D03*
X187060000Y-98360000D03*
X189600000Y-97090000D03*
X187060000Y-95820000D03*
X189600000Y-94550000D03*
D18*
X200850000Y-93640000D03*
X200850000Y-96180000D03*
X200850000Y-104350000D03*
X200850000Y-106890000D03*
D19*
X192900000Y-92215000D03*
X192900000Y-108315000D03*
%TD*%
D20*
%TO.C,SW7001*%
X178780000Y-154675000D03*
X178780000Y-161175000D03*
X174280000Y-154675000D03*
X174280000Y-161175000D03*
%TD*%
%TO.C,SW7003*%
X186300000Y-154675000D03*
X186300000Y-161175000D03*
X181800000Y-154675000D03*
X181800000Y-161175000D03*
%TD*%
D21*
%TO.C,J2003*%
X143800000Y-85840000D03*
D22*
X143800000Y-88380000D03*
X143800000Y-90920000D03*
X143800000Y-93460000D03*
X143800000Y-96000000D03*
X143800000Y-98540000D03*
%TD*%
D21*
%TO.C,J1004*%
X126700000Y-122340000D03*
D22*
X126700000Y-124880000D03*
X126700000Y-127420000D03*
X126700000Y-129960000D03*
X126700000Y-132500000D03*
X126700000Y-135040000D03*
%TD*%
D20*
%TO.C,SW7002*%
X193698402Y-154675000D03*
X193698402Y-161175000D03*
X189198402Y-154675000D03*
X189198402Y-161175000D03*
%TD*%
D21*
%TO.C,J2002*%
X168740000Y-85200000D03*
D22*
X171280000Y-85200000D03*
X173820000Y-85200000D03*
X176360000Y-85200000D03*
X178900000Y-85200000D03*
X181440000Y-85200000D03*
%TD*%
D21*
%TO.C,J1003*%
X136680000Y-157290000D03*
D22*
X139220000Y-157290000D03*
X141760000Y-157290000D03*
%TD*%
D20*
%TO.C,SW7004*%
X171280000Y-154675000D03*
X171280000Y-161175000D03*
X166780000Y-154675000D03*
X166780000Y-161175000D03*
%TD*%
D23*
%TO.C,J2001*%
X127465000Y-108630000D03*
X128481000Y-116250000D03*
X126449000Y-116250000D03*
%TD*%
%TO.C,J1002*%
X162890000Y-154635000D03*
X155270000Y-155651000D03*
X155270000Y-153619000D03*
%TD*%
D21*
%TO.C,J1001*%
X126700000Y-140750000D03*
D22*
X126700000Y-143290000D03*
X126700000Y-145830000D03*
X126700000Y-148370000D03*
X126700000Y-150910000D03*
X126700000Y-153450000D03*
%TD*%
D24*
%TO.C,R1061*%
X159032000Y-157960000D03*
X159032000Y-158980000D03*
%TD*%
D25*
%TO.C,D1004*%
X134010000Y-153410000D03*
X134010000Y-152010000D03*
%TD*%
D26*
%TO.C,C3002*%
X185750000Y-133510000D03*
X185750000Y-132550000D03*
%TD*%
D27*
%TO.C,C3074*%
X142970000Y-104000000D03*
X142970001Y-103360000D03*
%TD*%
D24*
%TO.C,R1019*%
X139160000Y-110970000D03*
X139160000Y-111990000D03*
%TD*%
D28*
%TO.C,R6026*%
X159440000Y-103945000D03*
X159440000Y-102925000D03*
%TD*%
D29*
%TO.C,C3015*%
X185450000Y-142760000D03*
X185450000Y-143720000D03*
%TD*%
D28*
%TO.C,R3013*%
X187190625Y-115770000D03*
X187190625Y-114750000D03*
%TD*%
D30*
%TO.C,C3012*%
X184805000Y-141770000D03*
X183845000Y-141770000D03*
%TD*%
D31*
%TO.C,C3047*%
X146630000Y-123325000D03*
X146630000Y-123965000D03*
%TD*%
%TO.C,C4020*%
X152763492Y-153239984D03*
X152763492Y-153879984D03*
%TD*%
D26*
%TO.C,C3099*%
X164375000Y-121632200D03*
X164375000Y-120672200D03*
%TD*%
D30*
%TO.C,C6005*%
X162050000Y-144495000D03*
X161090000Y-144495000D03*
%TD*%
D27*
%TO.C,C3062*%
X164570000Y-110740000D03*
X164570000Y-110100000D03*
%TD*%
D32*
%TO.C,TP3006*%
X185663000Y-145473000D03*
%TD*%
D28*
%TO.C,FB3003*%
X165500000Y-119675000D03*
X165500000Y-118655000D03*
%TD*%
D33*
%TO.C,C3120*%
X141489981Y-123464760D03*
X142070019Y-123735237D03*
%TD*%
D34*
%TO.C,C5006*%
X181480000Y-93525000D03*
X182440000Y-93525000D03*
%TD*%
D27*
%TO.C,C4007*%
X149233492Y-143609984D03*
X149233492Y-142969984D03*
%TD*%
D30*
%TO.C,C3005*%
X181680000Y-136400000D03*
X180720000Y-136400000D03*
%TD*%
D27*
%TO.C,C3077*%
X143260000Y-117230000D03*
X143260000Y-116590000D03*
%TD*%
D28*
%TO.C,R1057*%
X157644000Y-158980000D03*
X157644000Y-157960000D03*
%TD*%
D34*
%TO.C,C5004*%
X181480000Y-96400000D03*
X182440000Y-96400000D03*
%TD*%
D31*
%TO.C,C3102*%
X163900000Y-112750000D03*
X163900000Y-113390000D03*
%TD*%
D35*
%TO.C,R3009*%
X137260000Y-122850000D03*
X138280000Y-122850000D03*
%TD*%
D36*
%TO.C,C4018*%
X148124492Y-152569984D03*
X147484492Y-152569984D03*
%TD*%
%TO.C,C3116*%
X140315000Y-122995000D03*
X139675000Y-122995000D03*
%TD*%
%TO.C,C3076*%
X140465000Y-119725000D03*
X139825000Y-119725000D03*
%TD*%
D28*
%TO.C,FB3006*%
X165500000Y-115730000D03*
X165500000Y-114710000D03*
%TD*%
D31*
%TO.C,C4021*%
X151383492Y-153234984D03*
X151383492Y-153874984D03*
%TD*%
D29*
%TO.C,C3014*%
X188175000Y-141600554D03*
X188175000Y-142560554D03*
%TD*%
D37*
%TO.C,R6016*%
X196860000Y-127790000D03*
X195840000Y-127790000D03*
%TD*%
D34*
%TO.C,C5005*%
X181480000Y-94800000D03*
X182440000Y-94800000D03*
%TD*%
D36*
%TO.C,C3031*%
X140315000Y-122270000D03*
X139675000Y-122270000D03*
%TD*%
D38*
%TO.C,C3038*%
X144675000Y-119834999D03*
X145315000Y-119834999D03*
%TD*%
%TO.C,C4013*%
X142118492Y-150869984D03*
X142758492Y-150869984D03*
%TD*%
D36*
%TO.C,C3070*%
X140440000Y-121645000D03*
X139800000Y-121645000D03*
%TD*%
D26*
%TO.C,C3013*%
X187900000Y-133505000D03*
X187900000Y-132545000D03*
%TD*%
D24*
%TO.C,R1053*%
X134220000Y-118990000D03*
X134220000Y-120010000D03*
%TD*%
D29*
%TO.C,C3082*%
X134980000Y-134535000D03*
X134980000Y-135495000D03*
%TD*%
D24*
%TO.C,FB3002*%
X165500000Y-124538400D03*
X165500000Y-125558400D03*
%TD*%
D30*
%TO.C,C5009*%
X179560000Y-101010000D03*
X178600000Y-101010000D03*
%TD*%
D32*
%TO.C,TP3007*%
X183319000Y-144674000D03*
%TD*%
D39*
%TO.C,X1002*%
X132840000Y-122760000D03*
X132840000Y-124160000D03*
X131740000Y-124160000D03*
X131740000Y-122760000D03*
%TD*%
D27*
%TO.C,C3054*%
X144900000Y-121115000D03*
X144900000Y-120475000D03*
%TD*%
D40*
%TO.C,C3107*%
X146230000Y-119535000D03*
X146682549Y-119082451D03*
%TD*%
D36*
%TO.C,C3065*%
X140400000Y-120665000D03*
X139760000Y-120665000D03*
%TD*%
D24*
%TO.C,R1059*%
X134010000Y-154670000D03*
X134010000Y-155690000D03*
%TD*%
D34*
%TO.C,C3033*%
X158240000Y-123930000D03*
X159200000Y-123930000D03*
%TD*%
%TO.C,C6003*%
X163430000Y-144485000D03*
X164390000Y-144485000D03*
%TD*%
D37*
%TO.C,R3014*%
X189300625Y-116960000D03*
X188280625Y-116960000D03*
%TD*%
D40*
%TO.C,C3069*%
X147518370Y-117215919D03*
X147970919Y-116763370D03*
%TD*%
D41*
%TO.C,C3039*%
X147029081Y-122713370D03*
X147481630Y-123165919D03*
%TD*%
D36*
%TO.C,C3060*%
X142220001Y-118615000D03*
X141579999Y-118615002D03*
%TD*%
D29*
%TO.C,C6014*%
X156230000Y-101600000D03*
X156230000Y-102560000D03*
%TD*%
D34*
%TO.C,C5008*%
X173160000Y-98660000D03*
X174120000Y-98660000D03*
%TD*%
D42*
%TO.C,U3001*%
X183950000Y-134950000D03*
X184450000Y-134950000D03*
X184950000Y-134950000D03*
X185450000Y-134950000D03*
X185950000Y-134950000D03*
X186450000Y-134950000D03*
X186950000Y-134950000D03*
X187450000Y-134950000D03*
D43*
X188200000Y-135700000D03*
X188200000Y-136200000D03*
X188200000Y-136700000D03*
X188200000Y-137200000D03*
X188200000Y-137700000D03*
X188200000Y-138200000D03*
X188200000Y-138700000D03*
X188200000Y-139200000D03*
D42*
X187450000Y-139950000D03*
X186950000Y-139950000D03*
X186450000Y-139950000D03*
X185950000Y-139950000D03*
X185450000Y-139950000D03*
X184950000Y-139950000D03*
X184450000Y-139950000D03*
X183950000Y-139950000D03*
D43*
X183200000Y-139200000D03*
X183200000Y-138700000D03*
X183200000Y-138200000D03*
X183200000Y-137700000D03*
X183200000Y-137200000D03*
X183200000Y-136700000D03*
X183200000Y-136200000D03*
X183200000Y-135700000D03*
D44*
X185700000Y-137450000D03*
%TD*%
D27*
%TO.C,C3027*%
X146000000Y-123695000D03*
X146000000Y-123055000D03*
%TD*%
D29*
%TO.C,C3096*%
X164375000Y-118650000D03*
X164375000Y-119610000D03*
%TD*%
D35*
%TO.C,FB3009*%
X132480000Y-107130000D03*
X133500000Y-107130000D03*
%TD*%
D28*
%TO.C,R6028*%
X151800000Y-103945000D03*
X151800000Y-102925000D03*
%TD*%
%TO.C,R6030*%
X149600000Y-103945000D03*
X149600000Y-102925000D03*
%TD*%
%TO.C,FB5001*%
X180375000Y-96095000D03*
X180375000Y-95075000D03*
%TD*%
D30*
%TO.C,C3114*%
X133470000Y-108200000D03*
X132510000Y-108200000D03*
%TD*%
D45*
%TO.C,D6003*%
X158410000Y-141925000D03*
X159810000Y-141925000D03*
%TD*%
D46*
%TO.C,C3028*%
X141086327Y-117538821D03*
X140975192Y-116908544D03*
%TD*%
D24*
%TO.C,FB3004*%
X165500000Y-120624200D03*
X165500000Y-121644200D03*
%TD*%
D29*
%TO.C,C3083*%
X133690000Y-134545000D03*
X133690000Y-135505000D03*
%TD*%
D27*
%TO.C,C3100*%
X163506600Y-121623400D03*
X163506600Y-120983400D03*
%TD*%
D28*
%TO.C,R6024*%
X161640000Y-103945000D03*
X161640000Y-102925000D03*
%TD*%
D29*
%TO.C,C5014*%
X177680000Y-104770000D03*
X177680000Y-105730000D03*
%TD*%
D27*
%TO.C,C3056*%
X144550000Y-119115000D03*
X144550000Y-118475000D03*
%TD*%
D25*
%TO.C,D5003*%
X173600000Y-90200000D03*
X173600000Y-88800000D03*
%TD*%
D36*
%TO.C,C3059*%
X142480000Y-120575000D03*
X141840000Y-120575000D03*
%TD*%
D37*
%TO.C,R6015*%
X154700000Y-121865000D03*
X153680000Y-121865000D03*
%TD*%
D27*
%TO.C,C3036*%
X143500000Y-121135000D03*
X143500000Y-120495000D03*
%TD*%
D38*
%TO.C,C3025*%
X147430000Y-118155000D03*
X148070000Y-118155000D03*
%TD*%
D29*
%TO.C,C6015*%
X155140000Y-101600000D03*
X155140000Y-102560000D03*
%TD*%
D34*
%TO.C,C5015*%
X173177000Y-101012000D03*
X174137000Y-101012000D03*
%TD*%
D27*
%TO.C,C3091*%
X163490400Y-117680000D03*
X163490400Y-117040000D03*
%TD*%
D28*
%TO.C,R6012*%
X165670000Y-145465000D03*
X165670000Y-144445000D03*
%TD*%
D31*
%TO.C,C3086*%
X142990000Y-122501000D03*
X142990000Y-123141000D03*
%TD*%
D47*
%TO.C,C6006*%
X196000000Y-130050000D03*
X196000000Y-131600000D03*
%TD*%
D26*
%TO.C,C6008*%
X160930000Y-138455000D03*
X160930000Y-137495000D03*
%TD*%
D34*
%TO.C,C3017*%
X189775000Y-137700000D03*
X190735000Y-137700000D03*
%TD*%
D27*
%TO.C,C3057*%
X143490000Y-119070000D03*
X143490000Y-118430000D03*
%TD*%
D48*
%TO.C,D6008*%
X159440000Y-101615000D03*
X159440000Y-100915000D03*
%TD*%
D24*
%TO.C,FB3001*%
X165500000Y-116670000D03*
X165500000Y-117690000D03*
%TD*%
D36*
%TO.C,C3115*%
X133410000Y-109110000D03*
X132770000Y-109110000D03*
%TD*%
D49*
%TO.C,C3003*%
X183100000Y-128300000D03*
X181200000Y-128300000D03*
%TD*%
D29*
%TO.C,C6007*%
X194550000Y-130220000D03*
X194550000Y-131180000D03*
%TD*%
D50*
%TO.C,C3075*%
X142185100Y-122177822D03*
X141547531Y-122122043D03*
%TD*%
D51*
%TO.C,Q5002*%
X180515000Y-88500000D03*
X180515000Y-89500000D03*
X179225000Y-89000000D03*
%TD*%
D27*
%TO.C,C3053*%
X144130000Y-121120000D03*
X144130000Y-120480000D03*
%TD*%
D38*
%TO.C,C3064*%
X147425000Y-118775000D03*
X148065000Y-118775000D03*
%TD*%
D29*
%TO.C,C5013*%
X176580000Y-104770000D03*
X176580000Y-105730000D03*
%TD*%
D34*
%TO.C,C5017*%
X173380000Y-102290000D03*
X174340000Y-102290000D03*
%TD*%
D27*
%TO.C,C4006*%
X149233492Y-139600000D03*
X149233492Y-138960000D03*
%TD*%
D29*
%TO.C,C5016*%
X172660000Y-103320000D03*
X172660000Y-104280000D03*
%TD*%
D26*
%TO.C,C3061*%
X165500000Y-110790000D03*
X165500000Y-109830000D03*
%TD*%
D36*
%TO.C,C3045*%
X142480000Y-121190000D03*
X141840000Y-121190000D03*
%TD*%
D30*
%TO.C,C1009*%
X161306000Y-152600000D03*
X160346000Y-152600000D03*
%TD*%
D29*
%TO.C,C3105*%
X164375000Y-114720000D03*
X164375000Y-115680000D03*
%TD*%
D48*
%TO.C,D6009*%
X154000000Y-101615000D03*
X154000000Y-100915000D03*
%TD*%
D27*
%TO.C,C3093*%
X164500000Y-125550000D03*
X164500000Y-124910000D03*
%TD*%
D36*
%TO.C,C3119*%
X147465000Y-121695000D03*
X146825000Y-121695000D03*
%TD*%
D27*
%TO.C,C4002*%
X150053492Y-150024984D03*
X150053492Y-149384984D03*
%TD*%
D40*
%TO.C,C3043*%
X146228370Y-118667323D03*
X146680917Y-118214776D03*
%TD*%
D27*
%TO.C,C4014*%
X142033492Y-149999984D03*
X142033492Y-149359984D03*
%TD*%
D47*
%TO.C,C6013*%
X157570000Y-101875000D03*
X157570000Y-103425000D03*
%TD*%
D34*
%TO.C,C3011*%
X186125000Y-141770000D03*
X187085000Y-141770000D03*
%TD*%
%TO.C,C5003*%
X181470000Y-97700000D03*
X182430000Y-97700000D03*
%TD*%
D27*
%TO.C,C4008*%
X149233492Y-145999984D03*
X149233492Y-145359984D03*
%TD*%
D29*
%TO.C,C3018*%
X189835000Y-138870000D03*
X189835000Y-139830000D03*
%TD*%
D28*
%TO.C,R1056*%
X161808000Y-158980000D03*
X161808000Y-157960000D03*
%TD*%
D37*
%TO.C,R6018*%
X150040000Y-123485000D03*
X149020000Y-123485000D03*
%TD*%
D52*
%TO.C,C3023*%
X141097413Y-119390263D03*
X141464503Y-119914521D03*
%TD*%
D37*
%TO.C,R3008*%
X138280000Y-121880000D03*
X137260000Y-121880000D03*
%TD*%
D27*
%TO.C,C3030*%
X141080000Y-121235000D03*
X141080000Y-120595001D03*
%TD*%
D28*
%TO.C,R3007*%
X181500000Y-144030000D03*
X181500000Y-143010000D03*
%TD*%
D36*
%TO.C,C3122*%
X140385000Y-118735000D03*
X139745000Y-118735000D03*
%TD*%
%TO.C,C4017*%
X143553492Y-146069984D03*
X142913492Y-146069984D03*
%TD*%
D53*
%TO.C,J6003*%
X151200000Y-88000000D03*
X159200000Y-88000000D03*
D54*
X158400000Y-98600000D03*
X157300000Y-98600000D03*
X156200000Y-98600000D03*
X155100000Y-98600000D03*
X154000000Y-98600000D03*
X152900000Y-98600000D03*
X151800000Y-98600000D03*
X150700000Y-98600000D03*
X149600000Y-98600000D03*
D55*
X148150000Y-98000000D03*
X163000000Y-98000000D03*
D56*
X148400000Y-88400000D03*
X163900000Y-88400000D03*
%TD*%
D28*
%TO.C,R6029*%
X150700000Y-103945000D03*
X150700000Y-102925000D03*
%TD*%
D31*
%TO.C,C3042*%
X143610000Y-122508000D03*
X143610000Y-123148000D03*
%TD*%
D36*
%TO.C,R4009*%
X148123492Y-153629984D03*
X147483492Y-153629984D03*
%TD*%
D24*
%TO.C,R1052*%
X135500000Y-121380000D03*
X135500000Y-122400000D03*
%TD*%
D36*
%TO.C,C3055*%
X144883000Y-121765000D03*
X144243000Y-121765000D03*
%TD*%
D48*
%TO.C,D6012*%
X149600000Y-101615000D03*
X149600000Y-100915000D03*
%TD*%
D31*
%TO.C,C3103*%
X164620000Y-112750000D03*
X164620000Y-113390000D03*
%TD*%
D26*
%TO.C,C6002*%
X166420000Y-141485000D03*
X166420000Y-140525000D03*
%TD*%
D57*
%TO.C,R5027*%
X203000000Y-109737500D03*
X203000000Y-112662500D03*
%TD*%
D27*
%TO.C,R4002*%
X142790000Y-143445000D03*
X142790000Y-142805000D03*
%TD*%
D48*
%TO.C,D6006*%
X161640000Y-101615000D03*
X161640000Y-100915000D03*
%TD*%
D32*
%TO.C,TP3001*%
X186387500Y-128700000D03*
%TD*%
D33*
%TO.C,C3078*%
X147731112Y-120813960D03*
X148311148Y-121084435D03*
%TD*%
D31*
%TO.C,C3095*%
X146140000Y-121685000D03*
X146140000Y-122325000D03*
%TD*%
D58*
%TO.C,C5021*%
X200175000Y-109725000D03*
X200175000Y-112675000D03*
%TD*%
D37*
%TO.C,R3012*%
X189300625Y-115825000D03*
X188280625Y-115825000D03*
%TD*%
D28*
%TO.C,R1055*%
X163196000Y-158980000D03*
X163196000Y-157960000D03*
%TD*%
D38*
%TO.C,C4009*%
X148473492Y-146879984D03*
X149113492Y-146879984D03*
%TD*%
D30*
%TO.C,C3108*%
X131490000Y-108200000D03*
X130530000Y-108200000D03*
%TD*%
D37*
%TO.C,R6017*%
X196860000Y-125370000D03*
X195840000Y-125370000D03*
%TD*%
D59*
%TO.C,L3002*%
X178875000Y-135794446D03*
X176725000Y-135794446D03*
%TD*%
D36*
%TO.C,C3109*%
X131500000Y-109090000D03*
X130860000Y-109090000D03*
%TD*%
D38*
%TO.C,C3124*%
X158630000Y-117480000D03*
X159270000Y-117480000D03*
%TD*%
D27*
%TO.C,C3037*%
X145520000Y-121250000D03*
X145520000Y-120610000D03*
%TD*%
D26*
%TO.C,C6009*%
X159860000Y-138455000D03*
X159860000Y-137495000D03*
%TD*%
%TO.C,C4001*%
X151063492Y-150219984D03*
X151063492Y-149259984D03*
%TD*%
D28*
%TO.C,R5031*%
X178025000Y-89460000D03*
X178025000Y-88440000D03*
%TD*%
D40*
%TO.C,C3026*%
X145007677Y-117107322D03*
X145460226Y-116654773D03*
%TD*%
D27*
%TO.C,C3094*%
X163725000Y-125557400D03*
X163725000Y-124917400D03*
%TD*%
D30*
%TO.C,C3111*%
X135450000Y-108200000D03*
X134490000Y-108200000D03*
%TD*%
D38*
%TO.C,C3034*%
X158280000Y-122920000D03*
X158920000Y-122920000D03*
%TD*%
%TO.C,C3058*%
X146175000Y-120265000D03*
X146815000Y-120265000D03*
%TD*%
D51*
%TO.C,Q5001*%
X180515000Y-90840000D03*
X180515000Y-91840000D03*
X179225000Y-91340000D03*
%TD*%
D60*
%TO.C,C3009*%
X176825000Y-141950000D03*
X176825000Y-143850000D03*
%TD*%
D27*
%TO.C,R4001*%
X143650000Y-143445000D03*
X143650000Y-142805000D03*
%TD*%
D32*
%TO.C,TP3003*%
X174225000Y-141925000D03*
%TD*%
D38*
%TO.C,C3110*%
X142880000Y-121815000D03*
X143520000Y-121815000D03*
%TD*%
D31*
%TO.C,C3097*%
X163475000Y-118695000D03*
X163475000Y-119335000D03*
%TD*%
D61*
%TO.C,C3063*%
X145032500Y-123333349D03*
X145352500Y-122779093D03*
%TD*%
D27*
%TO.C,C4003*%
X141353492Y-138709984D03*
X141353492Y-138069984D03*
%TD*%
D62*
%TO.C,U3002*%
X191416625Y-117402000D03*
X190916625Y-117402000D03*
X190416625Y-117402000D03*
D63*
X190416625Y-118502000D03*
X190916625Y-118502000D03*
X191416625Y-118502000D03*
%TD*%
D28*
%TO.C,R1054*%
X160420000Y-158980000D03*
X160420000Y-157960000D03*
%TD*%
D24*
%TO.C,R5028*%
X181725000Y-90825000D03*
X181725000Y-91845000D03*
%TD*%
D34*
%TO.C,C3051*%
X158570000Y-119430000D03*
X159530000Y-119430000D03*
%TD*%
D64*
%TO.C,C3041*%
X142189545Y-119854522D03*
X141822455Y-119330264D03*
%TD*%
D65*
%TO.C,C4005*%
X139209492Y-150379984D03*
X139209492Y-148829984D03*
%TD*%
D37*
%TO.C,FB4001*%
X153323492Y-150229984D03*
X152303492Y-150229984D03*
%TD*%
D31*
%TO.C,R4010*%
X149963492Y-153224984D03*
X149963492Y-153864984D03*
%TD*%
D41*
%TO.C,C3092*%
X147517678Y-119712677D03*
X147970227Y-120165226D03*
%TD*%
D35*
%TO.C,FB5002*%
X175270000Y-103650000D03*
X176290000Y-103650000D03*
%TD*%
D26*
%TO.C,C3010*%
X186800000Y-133500000D03*
X186800000Y-132540000D03*
%TD*%
D37*
%TO.C,R3011*%
X193970000Y-115820000D03*
X192950000Y-115820000D03*
%TD*%
D28*
%TO.C,R6027*%
X154000000Y-103945000D03*
X154000000Y-102925000D03*
%TD*%
D36*
%TO.C,C3123*%
X140520000Y-118115000D03*
X139880001Y-118115000D03*
%TD*%
D25*
%TO.C,D5002*%
X172000000Y-90200000D03*
X172000000Y-88800000D03*
%TD*%
D27*
%TO.C,C3117*%
X163975000Y-123600000D03*
X163975000Y-122960000D03*
%TD*%
D28*
%TO.C,R1018*%
X130050000Y-136050000D03*
X130050000Y-135030000D03*
%TD*%
D27*
%TO.C,C3104*%
X145440000Y-119185000D03*
X145440000Y-118545000D03*
%TD*%
D29*
%TO.C,C5012*%
X174980000Y-104770000D03*
X174980000Y-105730000D03*
%TD*%
D66*
%TO.C,C3066*%
X141380554Y-116270703D03*
X141599447Y-115669299D03*
%TD*%
D67*
%TO.C,L3001*%
X183700000Y-132700000D03*
X183700000Y-130550000D03*
%TD*%
D37*
%TO.C,R3010*%
X191950000Y-115825000D03*
X190930000Y-115825000D03*
%TD*%
D32*
%TO.C,TP3005*%
X190966000Y-142383000D03*
%TD*%
%TO.C,TP3002*%
X174250000Y-133475000D03*
%TD*%
D28*
%TO.C,R6019*%
X166900000Y-145460000D03*
X166900000Y-144440000D03*
%TD*%
D68*
%TO.C,C3024*%
X141858596Y-117713893D03*
X142460000Y-117495000D03*
%TD*%
D35*
%TO.C,FB3007*%
X130500000Y-107130000D03*
X131520000Y-107130000D03*
%TD*%
D27*
%TO.C,C3072*%
X144510000Y-116590000D03*
X144510000Y-115950000D03*
%TD*%
D30*
%TO.C,C6004*%
X164300000Y-138945000D03*
X163340000Y-138945000D03*
%TD*%
D37*
%TO.C,R6020*%
X164960000Y-141395000D03*
X163940000Y-141395000D03*
%TD*%
D45*
%TO.C,D6005*%
X158410000Y-145365000D03*
X159810000Y-145365000D03*
%TD*%
D31*
%TO.C,C4016*%
X142833492Y-146949984D03*
X142833492Y-147589984D03*
%TD*%
D27*
%TO.C,C3040*%
X142870000Y-118755000D03*
X142870000Y-118115000D03*
%TD*%
D69*
%TO.C,C3067*%
X146078850Y-116024922D03*
X146658888Y-115754445D03*
%TD*%
D30*
%TO.C,C5010*%
X179560000Y-99020000D03*
X178600000Y-99020000D03*
%TD*%
D26*
%TO.C,C3073*%
X143930000Y-104050000D03*
X143930000Y-103090000D03*
%TD*%
D59*
%TO.C,L3003*%
X178875000Y-139594446D03*
X176725000Y-139594446D03*
%TD*%
D36*
%TO.C,C3112*%
X135440000Y-109100000D03*
X134800000Y-109100000D03*
%TD*%
D30*
%TO.C,C3020*%
X189270625Y-114700000D03*
X188310625Y-114700000D03*
%TD*%
D70*
%TO.C,C3006*%
X176825000Y-133469446D03*
X176825000Y-131569446D03*
%TD*%
D45*
%TO.C,D6004*%
X158410000Y-143645000D03*
X159810000Y-143645000D03*
%TD*%
D71*
%TO.C,C3085*%
X144549446Y-122604299D03*
X144330553Y-123205703D03*
%TD*%
D41*
%TO.C,C3118*%
X147613726Y-122418726D03*
X148066275Y-122871275D03*
%TD*%
D28*
%TO.C,R1058*%
X156256000Y-158980000D03*
X156256000Y-157960000D03*
%TD*%
D26*
%TO.C,C3090*%
X164375000Y-117685000D03*
X164375000Y-116725000D03*
%TD*%
D24*
%TO.C,R5030*%
X181725000Y-88490000D03*
X181725000Y-89510000D03*
%TD*%
D34*
%TO.C,C3052*%
X158580000Y-118380000D03*
X159540000Y-118380000D03*
%TD*%
D38*
%TO.C,C3068*%
X146205000Y-116725000D03*
X146845000Y-116725000D03*
%TD*%
D36*
%TO.C,C4012*%
X149153492Y-150869984D03*
X148513492Y-150869984D03*
%TD*%
D48*
%TO.C,D6011*%
X150700000Y-101615000D03*
X150700000Y-100915000D03*
%TD*%
D27*
%TO.C,C4015*%
X142033492Y-148399984D03*
X142033492Y-147759984D03*
%TD*%
D29*
%TO.C,C1005*%
X134220000Y-123460000D03*
X134220000Y-124420000D03*
%TD*%
D31*
%TO.C,C3106*%
X163490400Y-114700000D03*
X163490400Y-115340000D03*
%TD*%
D38*
%TO.C,C3029*%
X141970000Y-116705000D03*
X142610000Y-116705000D03*
%TD*%
D32*
%TO.C,TP3004*%
X189630000Y-131882000D03*
%TD*%
D26*
%TO.C,C1006*%
X134220000Y-122370000D03*
X134220000Y-121410000D03*
%TD*%
D59*
%TO.C,L3004*%
X190840625Y-122660000D03*
X188690625Y-122660000D03*
%TD*%
D70*
%TO.C,C3022*%
X185914625Y-120300000D03*
X185914625Y-118400000D03*
%TD*%
D38*
%TO.C,C3101*%
X148520000Y-122225000D03*
X149160000Y-122225000D03*
%TD*%
%TO.C,C4004*%
X142135000Y-144450000D03*
X142775000Y-144450000D03*
%TD*%
D70*
%TO.C,C3021*%
X188230625Y-120300000D03*
X188230625Y-118400000D03*
%TD*%
D34*
%TO.C,C3032*%
X158240000Y-125050000D03*
X159200000Y-125050000D03*
%TD*%
D25*
%TO.C,D5001*%
X175200000Y-90200000D03*
X175200000Y-88800000D03*
%TD*%
D34*
%TO.C,C3016*%
X182995000Y-142840000D03*
X183955000Y-142840000D03*
%TD*%
D27*
%TO.C,C4010*%
X149223492Y-148389984D03*
X149223492Y-147749984D03*
%TD*%
%TO.C,C3071*%
X143890000Y-117175000D03*
X143890000Y-116535000D03*
%TD*%
D48*
%TO.C,D6010*%
X151800000Y-101615000D03*
X151800000Y-100915000D03*
%TD*%
%TO.C,D6007*%
X160540000Y-101615000D03*
X160540000Y-100915000D03*
%TD*%
D28*
%TO.C,FB3005*%
X165500000Y-113770000D03*
X165500000Y-112750000D03*
%TD*%
D38*
%TO.C,C3035*%
X144140000Y-117825000D03*
X144780000Y-117825000D03*
%TD*%
D32*
%TO.C,TP3008*%
X190938000Y-114152000D03*
%TD*%
D36*
%TO.C,C3098*%
X146995000Y-121035000D03*
X146355000Y-121035000D03*
%TD*%
D28*
%TO.C,R6025*%
X160540000Y-103945000D03*
X160540000Y-102925000D03*
%TD*%
D35*
%TO.C,R6013*%
X158790000Y-140525000D03*
X159810000Y-140525000D03*
%TD*%
D29*
%TO.C,C5011*%
X173880000Y-104770000D03*
X173880000Y-105730000D03*
%TD*%
D28*
%TO.C,R1047*%
X135500000Y-124470000D03*
X135500000Y-123450000D03*
%TD*%
D38*
%TO.C,C3044*%
X141039999Y-122770000D03*
X141680001Y-122770001D03*
%TD*%
D26*
%TO.C,C5007*%
X177720000Y-103160000D03*
X177720000Y-102200000D03*
%TD*%
D30*
%TO.C,C3008*%
X181675000Y-139200000D03*
X180715000Y-139200000D03*
%TD*%
D28*
%TO.C,R1045*%
X135530000Y-120010000D03*
X135530000Y-118990000D03*
%TD*%
D36*
%TO.C,C3113*%
X143601000Y-119822000D03*
X142961000Y-119822000D03*
%TD*%
D38*
%TO.C,C4011*%
X147693492Y-150079984D03*
X148333492Y-150079984D03*
%TD*%
D40*
%TO.C,C3046*%
X145988370Y-118015919D03*
X146440919Y-117563370D03*
%TD*%
D24*
%TO.C,FB3010*%
X165500000Y-122580000D03*
X165500000Y-123600000D03*
%TD*%
D35*
%TO.C,FB3008*%
X134460000Y-107130000D03*
X135480000Y-107130000D03*
%TD*%
D24*
%TO.C,R5029*%
X178025000Y-90880000D03*
X178025000Y-91900000D03*
%TD*%
D34*
%TO.C,C6001*%
X163910000Y-139965000D03*
X164870000Y-139965000D03*
%TD*%
M02*
