%TF.GenerationSoftware,KiCad,Pcbnew,9.0.1*%
%TF.CreationDate,2026-01-05T16:28:52-05:00*%
%TF.ProjectId,Leonhart,4c656f6e-6861-4727-942e-6b696361645f,rev?*%
%TF.SameCoordinates,Original*%
%TF.FileFunction,Legend,Top*%
%TF.FilePolarity,Positive*%
%FSLAX46Y46*%
G04 Gerber Fmt 4.6, Leading zero omitted, Abs format (unit mm)*
G04 Created by KiCad (PCBNEW 9.0.1) date 2026-01-05 16:28:52*
%MOMM*%
%LPD*%
G01*
G04 APERTURE LIST*
%ADD10C,0.200000*%
%ADD11C,0.400000*%
%ADD12C,0.100000*%
%ADD13C,0.160000*%
%ADD14C,0.150000*%
%ADD15C,0.120000*%
%ADD16C,0.300000*%
G04 APERTURE END LIST*
D10*
X164715236Y-107800007D02*
G75*
G02*
X166717218Y-105307318I2490564J50007D01*
G01*
X167620800Y-107250000D02*
X167605763Y-113165686D01*
X166205754Y-104800000D02*
G75*
G02*
X163205754Y-104800000I-1500000J-2500000D01*
G01*
X167605754Y-113165686D02*
G75*
G02*
X161789479Y-107300007I100046J5915686D01*
G01*
D11*
X163347175Y-106950000D02*
G75*
G02*
X163064333Y-106950000I-141421J0D01*
G01*
X163064333Y-106950000D02*
G75*
G02*
X163347175Y-106950000I141421J0D01*
G01*
D10*
X167605754Y-113165685D02*
G75*
G02*
X165696123Y-110050264I1750046J3215685D01*
G01*
X162698000Y-105288763D02*
G75*
G02*
X164715273Y-107799947I-492200J-2461237D01*
G01*
D11*
X166347175Y-106950000D02*
G75*
G02*
X166064333Y-106950000I-141421J0D01*
G01*
X166064333Y-106950000D02*
G75*
G02*
X166347175Y-106950000I141421J0D01*
G01*
D10*
X163205756Y-104800000D02*
X166205752Y-104800000D01*
D12*
X141043408Y-159363609D02*
X141329122Y-159363609D01*
X141186265Y-159863609D02*
X141186265Y-159363609D01*
X141448169Y-159363609D02*
X141781502Y-159863609D01*
X141781502Y-159363609D02*
X141448169Y-159863609D01*
X141971978Y-159863609D02*
X141971978Y-159363609D01*
X141971978Y-159363609D02*
X142091026Y-159363609D01*
X142091026Y-159363609D02*
X142162454Y-159387419D01*
X142162454Y-159387419D02*
X142210073Y-159435038D01*
X142210073Y-159435038D02*
X142233883Y-159482657D01*
X142233883Y-159482657D02*
X142257692Y-159577895D01*
X142257692Y-159577895D02*
X142257692Y-159649323D01*
X142257692Y-159649323D02*
X142233883Y-159744561D01*
X142233883Y-159744561D02*
X142210073Y-159792180D01*
X142210073Y-159792180D02*
X142162454Y-159839800D01*
X142162454Y-159839800D02*
X142091026Y-159863609D01*
X142091026Y-159863609D02*
X141971978Y-159863609D01*
D13*
X165885739Y-153213775D02*
X165885739Y-152413775D01*
X165885739Y-152413775D02*
X166152405Y-152985203D01*
X166152405Y-152985203D02*
X166419072Y-152413775D01*
X166419072Y-152413775D02*
X166419072Y-153213775D01*
X167219072Y-152451870D02*
X167142882Y-152413775D01*
X167142882Y-152413775D02*
X167028596Y-152413775D01*
X167028596Y-152413775D02*
X166914310Y-152451870D01*
X166914310Y-152451870D02*
X166838120Y-152528060D01*
X166838120Y-152528060D02*
X166800025Y-152604251D01*
X166800025Y-152604251D02*
X166761929Y-152756632D01*
X166761929Y-152756632D02*
X166761929Y-152870918D01*
X166761929Y-152870918D02*
X166800025Y-153023299D01*
X166800025Y-153023299D02*
X166838120Y-153099489D01*
X166838120Y-153099489D02*
X166914310Y-153175680D01*
X166914310Y-153175680D02*
X167028596Y-153213775D01*
X167028596Y-153213775D02*
X167104787Y-153213775D01*
X167104787Y-153213775D02*
X167219072Y-153175680D01*
X167219072Y-153175680D02*
X167257168Y-153137584D01*
X167257168Y-153137584D02*
X167257168Y-152870918D01*
X167257168Y-152870918D02*
X167104787Y-152870918D01*
X167600025Y-153213775D02*
X167600025Y-152413775D01*
X167600025Y-152413775D02*
X167866691Y-152985203D01*
X167866691Y-152985203D02*
X168133358Y-152413775D01*
X168133358Y-152413775D02*
X168133358Y-153213775D01*
X168323835Y-153289965D02*
X168933358Y-153289965D01*
X169580978Y-153213775D02*
X169314311Y-152832822D01*
X169123835Y-153213775D02*
X169123835Y-152413775D01*
X169123835Y-152413775D02*
X169428597Y-152413775D01*
X169428597Y-152413775D02*
X169504787Y-152451870D01*
X169504787Y-152451870D02*
X169542882Y-152489965D01*
X169542882Y-152489965D02*
X169580978Y-152566156D01*
X169580978Y-152566156D02*
X169580978Y-152680441D01*
X169580978Y-152680441D02*
X169542882Y-152756632D01*
X169542882Y-152756632D02*
X169504787Y-152794727D01*
X169504787Y-152794727D02*
X169428597Y-152832822D01*
X169428597Y-152832822D02*
X169123835Y-152832822D01*
X169885739Y-153175680D02*
X170000025Y-153213775D01*
X170000025Y-153213775D02*
X170190501Y-153213775D01*
X170190501Y-153213775D02*
X170266692Y-153175680D01*
X170266692Y-153175680D02*
X170304787Y-153137584D01*
X170304787Y-153137584D02*
X170342882Y-153061394D01*
X170342882Y-153061394D02*
X170342882Y-152985203D01*
X170342882Y-152985203D02*
X170304787Y-152909013D01*
X170304787Y-152909013D02*
X170266692Y-152870918D01*
X170266692Y-152870918D02*
X170190501Y-152832822D01*
X170190501Y-152832822D02*
X170038120Y-152794727D01*
X170038120Y-152794727D02*
X169961930Y-152756632D01*
X169961930Y-152756632D02*
X169923835Y-152718537D01*
X169923835Y-152718537D02*
X169885739Y-152642346D01*
X169885739Y-152642346D02*
X169885739Y-152566156D01*
X169885739Y-152566156D02*
X169923835Y-152489965D01*
X169923835Y-152489965D02*
X169961930Y-152451870D01*
X169961930Y-152451870D02*
X170038120Y-152413775D01*
X170038120Y-152413775D02*
X170228597Y-152413775D01*
X170228597Y-152413775D02*
X170342882Y-152451870D01*
X170571454Y-152413775D02*
X171028597Y-152413775D01*
X170800025Y-153213775D02*
X170800025Y-152413775D01*
D12*
X175930550Y-83483609D02*
X175763884Y-83245514D01*
X175644836Y-83483609D02*
X175644836Y-82983609D01*
X175644836Y-82983609D02*
X175835312Y-82983609D01*
X175835312Y-82983609D02*
X175882931Y-83007419D01*
X175882931Y-83007419D02*
X175906741Y-83031228D01*
X175906741Y-83031228D02*
X175930550Y-83078847D01*
X175930550Y-83078847D02*
X175930550Y-83150276D01*
X175930550Y-83150276D02*
X175906741Y-83197895D01*
X175906741Y-83197895D02*
X175882931Y-83221704D01*
X175882931Y-83221704D02*
X175835312Y-83245514D01*
X175835312Y-83245514D02*
X175644836Y-83245514D01*
X176073408Y-82983609D02*
X176359122Y-82983609D01*
X176216265Y-83483609D02*
X176216265Y-82983609D01*
X176501979Y-83459800D02*
X176573407Y-83483609D01*
X176573407Y-83483609D02*
X176692455Y-83483609D01*
X176692455Y-83483609D02*
X176740074Y-83459800D01*
X176740074Y-83459800D02*
X176763883Y-83435990D01*
X176763883Y-83435990D02*
X176787693Y-83388371D01*
X176787693Y-83388371D02*
X176787693Y-83340752D01*
X176787693Y-83340752D02*
X176763883Y-83293133D01*
X176763883Y-83293133D02*
X176740074Y-83269323D01*
X176740074Y-83269323D02*
X176692455Y-83245514D01*
X176692455Y-83245514D02*
X176597217Y-83221704D01*
X176597217Y-83221704D02*
X176549598Y-83197895D01*
X176549598Y-83197895D02*
X176525788Y-83174085D01*
X176525788Y-83174085D02*
X176501979Y-83126466D01*
X176501979Y-83126466D02*
X176501979Y-83078847D01*
X176501979Y-83078847D02*
X176525788Y-83031228D01*
X176525788Y-83031228D02*
X176549598Y-83007419D01*
X176549598Y-83007419D02*
X176597217Y-82983609D01*
X176597217Y-82983609D02*
X176716264Y-82983609D01*
X176716264Y-82983609D02*
X176787693Y-83007419D01*
X177001978Y-83150276D02*
X177001978Y-83483609D01*
X177001978Y-83197895D02*
X177025788Y-83174085D01*
X177025788Y-83174085D02*
X177073407Y-83150276D01*
X177073407Y-83150276D02*
X177144835Y-83150276D01*
X177144835Y-83150276D02*
X177192454Y-83174085D01*
X177192454Y-83174085D02*
X177216264Y-83221704D01*
X177216264Y-83221704D02*
X177216264Y-83483609D01*
X136296741Y-159387419D02*
X136249122Y-159363609D01*
X136249122Y-159363609D02*
X136177693Y-159363609D01*
X136177693Y-159363609D02*
X136106265Y-159387419D01*
X136106265Y-159387419D02*
X136058646Y-159435038D01*
X136058646Y-159435038D02*
X136034836Y-159482657D01*
X136034836Y-159482657D02*
X136011027Y-159577895D01*
X136011027Y-159577895D02*
X136011027Y-159649323D01*
X136011027Y-159649323D02*
X136034836Y-159744561D01*
X136034836Y-159744561D02*
X136058646Y-159792180D01*
X136058646Y-159792180D02*
X136106265Y-159839800D01*
X136106265Y-159839800D02*
X136177693Y-159863609D01*
X136177693Y-159863609D02*
X136225312Y-159863609D01*
X136225312Y-159863609D02*
X136296741Y-159839800D01*
X136296741Y-159839800D02*
X136320550Y-159815990D01*
X136320550Y-159815990D02*
X136320550Y-159649323D01*
X136320550Y-159649323D02*
X136225312Y-159649323D01*
X136534836Y-159863609D02*
X136534836Y-159363609D01*
X136534836Y-159363609D02*
X136820550Y-159863609D01*
X136820550Y-159863609D02*
X136820550Y-159363609D01*
X137058646Y-159863609D02*
X137058646Y-159363609D01*
X137058646Y-159363609D02*
X137177694Y-159363609D01*
X137177694Y-159363609D02*
X137249122Y-159387419D01*
X137249122Y-159387419D02*
X137296741Y-159435038D01*
X137296741Y-159435038D02*
X137320551Y-159482657D01*
X137320551Y-159482657D02*
X137344360Y-159577895D01*
X137344360Y-159577895D02*
X137344360Y-159649323D01*
X137344360Y-159649323D02*
X137320551Y-159744561D01*
X137320551Y-159744561D02*
X137296741Y-159792180D01*
X137296741Y-159792180D02*
X137249122Y-159839800D01*
X137249122Y-159839800D02*
X137177694Y-159863609D01*
X137177694Y-159863609D02*
X137058646Y-159863609D01*
X146033609Y-96545163D02*
X145533609Y-96545163D01*
X146033609Y-96021354D02*
X145795514Y-96188020D01*
X146033609Y-96307068D02*
X145533609Y-96307068D01*
X145533609Y-96307068D02*
X145533609Y-96116592D01*
X145533609Y-96116592D02*
X145557419Y-96068973D01*
X145557419Y-96068973D02*
X145581228Y-96045163D01*
X145581228Y-96045163D02*
X145628847Y-96021354D01*
X145628847Y-96021354D02*
X145700276Y-96021354D01*
X145700276Y-96021354D02*
X145747895Y-96045163D01*
X145747895Y-96045163D02*
X145771704Y-96068973D01*
X145771704Y-96068973D02*
X145795514Y-96116592D01*
X145795514Y-96116592D02*
X145795514Y-96307068D01*
X146081228Y-95473735D02*
X146057419Y-95521354D01*
X146057419Y-95521354D02*
X146009800Y-95568973D01*
X146009800Y-95568973D02*
X145938371Y-95640401D01*
X145938371Y-95640401D02*
X145914561Y-95688020D01*
X145914561Y-95688020D02*
X145914561Y-95735639D01*
X146033609Y-95711830D02*
X146009800Y-95759449D01*
X146009800Y-95759449D02*
X145962180Y-95807068D01*
X145962180Y-95807068D02*
X145866942Y-95830877D01*
X145866942Y-95830877D02*
X145700276Y-95830877D01*
X145700276Y-95830877D02*
X145605038Y-95807068D01*
X145605038Y-95807068D02*
X145557419Y-95759449D01*
X145557419Y-95759449D02*
X145533609Y-95711830D01*
X145533609Y-95711830D02*
X145533609Y-95616592D01*
X145533609Y-95616592D02*
X145557419Y-95568973D01*
X145557419Y-95568973D02*
X145605038Y-95521354D01*
X145605038Y-95521354D02*
X145700276Y-95497544D01*
X145700276Y-95497544D02*
X145866942Y-95497544D01*
X145866942Y-95497544D02*
X145962180Y-95521354D01*
X145962180Y-95521354D02*
X146009800Y-95568973D01*
X146009800Y-95568973D02*
X146033609Y-95616592D01*
X146033609Y-95616592D02*
X146033609Y-95711830D01*
X146033609Y-86575163D02*
X145533609Y-86575163D01*
X145533609Y-86575163D02*
X145890752Y-86408496D01*
X145890752Y-86408496D02*
X145533609Y-86241830D01*
X145533609Y-86241830D02*
X146033609Y-86241830D01*
X145533609Y-85908496D02*
X145533609Y-85813258D01*
X145533609Y-85813258D02*
X145557419Y-85765639D01*
X145557419Y-85765639D02*
X145605038Y-85718020D01*
X145605038Y-85718020D02*
X145700276Y-85694210D01*
X145700276Y-85694210D02*
X145866942Y-85694210D01*
X145866942Y-85694210D02*
X145962180Y-85718020D01*
X145962180Y-85718020D02*
X146009800Y-85765639D01*
X146009800Y-85765639D02*
X146033609Y-85813258D01*
X146033609Y-85813258D02*
X146033609Y-85908496D01*
X146033609Y-85908496D02*
X146009800Y-85956115D01*
X146009800Y-85956115D02*
X145962180Y-86003734D01*
X145962180Y-86003734D02*
X145866942Y-86027543D01*
X145866942Y-86027543D02*
X145700276Y-86027543D01*
X145700276Y-86027543D02*
X145605038Y-86003734D01*
X145605038Y-86003734D02*
X145557419Y-85956115D01*
X145557419Y-85956115D02*
X145533609Y-85908496D01*
X146009800Y-85503733D02*
X146033609Y-85432305D01*
X146033609Y-85432305D02*
X146033609Y-85313257D01*
X146033609Y-85313257D02*
X146009800Y-85265638D01*
X146009800Y-85265638D02*
X145985990Y-85241829D01*
X145985990Y-85241829D02*
X145938371Y-85218019D01*
X145938371Y-85218019D02*
X145890752Y-85218019D01*
X145890752Y-85218019D02*
X145843133Y-85241829D01*
X145843133Y-85241829D02*
X145819323Y-85265638D01*
X145819323Y-85265638D02*
X145795514Y-85313257D01*
X145795514Y-85313257D02*
X145771704Y-85408495D01*
X145771704Y-85408495D02*
X145747895Y-85456114D01*
X145747895Y-85456114D02*
X145724085Y-85479924D01*
X145724085Y-85479924D02*
X145676466Y-85503733D01*
X145676466Y-85503733D02*
X145628847Y-85503733D01*
X145628847Y-85503733D02*
X145581228Y-85479924D01*
X145581228Y-85479924D02*
X145557419Y-85456114D01*
X145557419Y-85456114D02*
X145533609Y-85408495D01*
X145533609Y-85408495D02*
X145533609Y-85289448D01*
X145533609Y-85289448D02*
X145557419Y-85218019D01*
X146033609Y-85003734D02*
X145533609Y-85003734D01*
X124196390Y-153210550D02*
X124434485Y-153043884D01*
X124196390Y-152924836D02*
X124696390Y-152924836D01*
X124696390Y-152924836D02*
X124696390Y-153115312D01*
X124696390Y-153115312D02*
X124672580Y-153162931D01*
X124672580Y-153162931D02*
X124648771Y-153186741D01*
X124648771Y-153186741D02*
X124601152Y-153210550D01*
X124601152Y-153210550D02*
X124529723Y-153210550D01*
X124529723Y-153210550D02*
X124482104Y-153186741D01*
X124482104Y-153186741D02*
X124458295Y-153162931D01*
X124458295Y-153162931D02*
X124434485Y-153115312D01*
X124434485Y-153115312D02*
X124434485Y-152924836D01*
X124696390Y-153353408D02*
X124696390Y-153639122D01*
X124196390Y-153496265D02*
X124696390Y-153496265D01*
X124220200Y-153781979D02*
X124196390Y-153853407D01*
X124196390Y-153853407D02*
X124196390Y-153972455D01*
X124196390Y-153972455D02*
X124220200Y-154020074D01*
X124220200Y-154020074D02*
X124244009Y-154043883D01*
X124244009Y-154043883D02*
X124291628Y-154067693D01*
X124291628Y-154067693D02*
X124339247Y-154067693D01*
X124339247Y-154067693D02*
X124386866Y-154043883D01*
X124386866Y-154043883D02*
X124410676Y-154020074D01*
X124410676Y-154020074D02*
X124434485Y-153972455D01*
X124434485Y-153972455D02*
X124458295Y-153877217D01*
X124458295Y-153877217D02*
X124482104Y-153829598D01*
X124482104Y-153829598D02*
X124505914Y-153805788D01*
X124505914Y-153805788D02*
X124553533Y-153781979D01*
X124553533Y-153781979D02*
X124601152Y-153781979D01*
X124601152Y-153781979D02*
X124648771Y-153805788D01*
X124648771Y-153805788D02*
X124672580Y-153829598D01*
X124672580Y-153829598D02*
X124696390Y-153877217D01*
X124696390Y-153877217D02*
X124696390Y-153996264D01*
X124696390Y-153996264D02*
X124672580Y-154067693D01*
X124529723Y-154281978D02*
X124196390Y-154281978D01*
X124482104Y-154281978D02*
X124505914Y-154305788D01*
X124505914Y-154305788D02*
X124529723Y-154353407D01*
X124529723Y-154353407D02*
X124529723Y-154424835D01*
X124529723Y-154424835D02*
X124505914Y-154472454D01*
X124505914Y-154472454D02*
X124458295Y-154496264D01*
X124458295Y-154496264D02*
X124196390Y-154496264D01*
X138860550Y-159863609D02*
X138693884Y-159625514D01*
X138574836Y-159863609D02*
X138574836Y-159363609D01*
X138574836Y-159363609D02*
X138765312Y-159363609D01*
X138765312Y-159363609D02*
X138812931Y-159387419D01*
X138812931Y-159387419D02*
X138836741Y-159411228D01*
X138836741Y-159411228D02*
X138860550Y-159458847D01*
X138860550Y-159458847D02*
X138860550Y-159530276D01*
X138860550Y-159530276D02*
X138836741Y-159577895D01*
X138836741Y-159577895D02*
X138812931Y-159601704D01*
X138812931Y-159601704D02*
X138765312Y-159625514D01*
X138765312Y-159625514D02*
X138574836Y-159625514D01*
X139027217Y-159363609D02*
X139360550Y-159863609D01*
X139360550Y-159363609D02*
X139027217Y-159863609D01*
X139551026Y-159863609D02*
X139551026Y-159363609D01*
X139551026Y-159363609D02*
X139670074Y-159363609D01*
X139670074Y-159363609D02*
X139741502Y-159387419D01*
X139741502Y-159387419D02*
X139789121Y-159435038D01*
X139789121Y-159435038D02*
X139812931Y-159482657D01*
X139812931Y-159482657D02*
X139836740Y-159577895D01*
X139836740Y-159577895D02*
X139836740Y-159649323D01*
X139836740Y-159649323D02*
X139812931Y-159744561D01*
X139812931Y-159744561D02*
X139789121Y-159792180D01*
X139789121Y-159792180D02*
X139741502Y-159839800D01*
X139741502Y-159839800D02*
X139670074Y-159863609D01*
X139670074Y-159863609D02*
X139551026Y-159863609D01*
X124672580Y-134761503D02*
X124696390Y-134713884D01*
X124696390Y-134713884D02*
X124696390Y-134642455D01*
X124696390Y-134642455D02*
X124672580Y-134571027D01*
X124672580Y-134571027D02*
X124624961Y-134523408D01*
X124624961Y-134523408D02*
X124577342Y-134499598D01*
X124577342Y-134499598D02*
X124482104Y-134475789D01*
X124482104Y-134475789D02*
X124410676Y-134475789D01*
X124410676Y-134475789D02*
X124315438Y-134499598D01*
X124315438Y-134499598D02*
X124267819Y-134523408D01*
X124267819Y-134523408D02*
X124220200Y-134571027D01*
X124220200Y-134571027D02*
X124196390Y-134642455D01*
X124196390Y-134642455D02*
X124196390Y-134690074D01*
X124196390Y-134690074D02*
X124220200Y-134761503D01*
X124220200Y-134761503D02*
X124244009Y-134785312D01*
X124244009Y-134785312D02*
X124410676Y-134785312D01*
X124410676Y-134785312D02*
X124410676Y-134690074D01*
X124196390Y-134999598D02*
X124696390Y-134999598D01*
X124696390Y-134999598D02*
X124196390Y-135285312D01*
X124196390Y-135285312D02*
X124696390Y-135285312D01*
X124196390Y-135523408D02*
X124696390Y-135523408D01*
X124696390Y-135523408D02*
X124696390Y-135642456D01*
X124696390Y-135642456D02*
X124672580Y-135713884D01*
X124672580Y-135713884D02*
X124624961Y-135761503D01*
X124624961Y-135761503D02*
X124577342Y-135785313D01*
X124577342Y-135785313D02*
X124482104Y-135809122D01*
X124482104Y-135809122D02*
X124410676Y-135809122D01*
X124410676Y-135809122D02*
X124315438Y-135785313D01*
X124315438Y-135785313D02*
X124267819Y-135761503D01*
X124267819Y-135761503D02*
X124220200Y-135713884D01*
X124220200Y-135713884D02*
X124196390Y-135642456D01*
X124196390Y-135642456D02*
X124196390Y-135523408D01*
X124696390Y-142769599D02*
X124696390Y-143079123D01*
X124696390Y-143079123D02*
X124505914Y-142912456D01*
X124505914Y-142912456D02*
X124505914Y-142983885D01*
X124505914Y-142983885D02*
X124482104Y-143031504D01*
X124482104Y-143031504D02*
X124458295Y-143055313D01*
X124458295Y-143055313D02*
X124410676Y-143079123D01*
X124410676Y-143079123D02*
X124291628Y-143079123D01*
X124291628Y-143079123D02*
X124244009Y-143055313D01*
X124244009Y-143055313D02*
X124220200Y-143031504D01*
X124220200Y-143031504D02*
X124196390Y-142983885D01*
X124196390Y-142983885D02*
X124196390Y-142841028D01*
X124196390Y-142841028D02*
X124220200Y-142793409D01*
X124220200Y-142793409D02*
X124244009Y-142769599D01*
X124244009Y-143293408D02*
X124220200Y-143317218D01*
X124220200Y-143317218D02*
X124196390Y-143293408D01*
X124196390Y-143293408D02*
X124220200Y-143269599D01*
X124220200Y-143269599D02*
X124244009Y-143293408D01*
X124244009Y-143293408D02*
X124196390Y-143293408D01*
X124696390Y-143483884D02*
X124696390Y-143793408D01*
X124696390Y-143793408D02*
X124505914Y-143626741D01*
X124505914Y-143626741D02*
X124505914Y-143698170D01*
X124505914Y-143698170D02*
X124482104Y-143745789D01*
X124482104Y-143745789D02*
X124458295Y-143769598D01*
X124458295Y-143769598D02*
X124410676Y-143793408D01*
X124410676Y-143793408D02*
X124291628Y-143793408D01*
X124291628Y-143793408D02*
X124244009Y-143769598D01*
X124244009Y-143769598D02*
X124220200Y-143745789D01*
X124220200Y-143745789D02*
X124196390Y-143698170D01*
X124196390Y-143698170D02*
X124196390Y-143555313D01*
X124196390Y-143555313D02*
X124220200Y-143507694D01*
X124220200Y-143507694D02*
X124244009Y-143483884D01*
X124696390Y-143936265D02*
X124196390Y-144102931D01*
X124196390Y-144102931D02*
X124696390Y-144269598D01*
X124696390Y-147716265D02*
X124696390Y-148001979D01*
X124196390Y-147859122D02*
X124696390Y-147859122D01*
X124696390Y-148121026D02*
X124196390Y-148454359D01*
X124696390Y-148454359D02*
X124196390Y-148121026D01*
X124196390Y-148644835D02*
X124696390Y-148644835D01*
X124696390Y-148644835D02*
X124696390Y-148763883D01*
X124696390Y-148763883D02*
X124672580Y-148835311D01*
X124672580Y-148835311D02*
X124624961Y-148882930D01*
X124624961Y-148882930D02*
X124577342Y-148906740D01*
X124577342Y-148906740D02*
X124482104Y-148930549D01*
X124482104Y-148930549D02*
X124410676Y-148930549D01*
X124410676Y-148930549D02*
X124315438Y-148906740D01*
X124315438Y-148906740D02*
X124267819Y-148882930D01*
X124267819Y-148882930D02*
X124220200Y-148835311D01*
X124220200Y-148835311D02*
X124196390Y-148763883D01*
X124196390Y-148763883D02*
X124196390Y-148644835D01*
X124244009Y-150665788D02*
X124220200Y-150641979D01*
X124220200Y-150641979D02*
X124196390Y-150570550D01*
X124196390Y-150570550D02*
X124196390Y-150522931D01*
X124196390Y-150522931D02*
X124220200Y-150451503D01*
X124220200Y-150451503D02*
X124267819Y-150403884D01*
X124267819Y-150403884D02*
X124315438Y-150380074D01*
X124315438Y-150380074D02*
X124410676Y-150356265D01*
X124410676Y-150356265D02*
X124482104Y-150356265D01*
X124482104Y-150356265D02*
X124577342Y-150380074D01*
X124577342Y-150380074D02*
X124624961Y-150403884D01*
X124624961Y-150403884D02*
X124672580Y-150451503D01*
X124672580Y-150451503D02*
X124696390Y-150522931D01*
X124696390Y-150522931D02*
X124696390Y-150570550D01*
X124696390Y-150570550D02*
X124672580Y-150641979D01*
X124672580Y-150641979D02*
X124648771Y-150665788D01*
X124696390Y-150808646D02*
X124696390Y-151094360D01*
X124196390Y-150951503D02*
X124696390Y-150951503D01*
X124220200Y-151237217D02*
X124196390Y-151308645D01*
X124196390Y-151308645D02*
X124196390Y-151427693D01*
X124196390Y-151427693D02*
X124220200Y-151475312D01*
X124220200Y-151475312D02*
X124244009Y-151499121D01*
X124244009Y-151499121D02*
X124291628Y-151522931D01*
X124291628Y-151522931D02*
X124339247Y-151522931D01*
X124339247Y-151522931D02*
X124386866Y-151499121D01*
X124386866Y-151499121D02*
X124410676Y-151475312D01*
X124410676Y-151475312D02*
X124434485Y-151427693D01*
X124434485Y-151427693D02*
X124458295Y-151332455D01*
X124458295Y-151332455D02*
X124482104Y-151284836D01*
X124482104Y-151284836D02*
X124505914Y-151261026D01*
X124505914Y-151261026D02*
X124553533Y-151237217D01*
X124553533Y-151237217D02*
X124601152Y-151237217D01*
X124601152Y-151237217D02*
X124648771Y-151261026D01*
X124648771Y-151261026D02*
X124672580Y-151284836D01*
X124672580Y-151284836D02*
X124696390Y-151332455D01*
X124696390Y-151332455D02*
X124696390Y-151451502D01*
X124696390Y-151451502D02*
X124672580Y-151522931D01*
X124529723Y-151737216D02*
X124196390Y-151737216D01*
X124482104Y-151737216D02*
X124505914Y-151761026D01*
X124505914Y-151761026D02*
X124529723Y-151808645D01*
X124529723Y-151808645D02*
X124529723Y-151880073D01*
X124529723Y-151880073D02*
X124505914Y-151927692D01*
X124505914Y-151927692D02*
X124458295Y-151951502D01*
X124458295Y-151951502D02*
X124196390Y-151951502D01*
X170642933Y-82983609D02*
X170928647Y-82983609D01*
X170785790Y-83483609D02*
X170785790Y-82983609D01*
X171047694Y-82983609D02*
X171381027Y-83483609D01*
X171381027Y-82983609D02*
X171047694Y-83483609D01*
X171571503Y-83483609D02*
X171571503Y-82983609D01*
X171571503Y-82983609D02*
X171690551Y-82983609D01*
X171690551Y-82983609D02*
X171761979Y-83007419D01*
X171761979Y-83007419D02*
X171809598Y-83055038D01*
X171809598Y-83055038D02*
X171833408Y-83102657D01*
X171833408Y-83102657D02*
X171857217Y-83197895D01*
X171857217Y-83197895D02*
X171857217Y-83269323D01*
X171857217Y-83269323D02*
X171833408Y-83364561D01*
X171833408Y-83364561D02*
X171809598Y-83412180D01*
X171809598Y-83412180D02*
X171761979Y-83459800D01*
X171761979Y-83459800D02*
X171690551Y-83483609D01*
X171690551Y-83483609D02*
X171571503Y-83483609D01*
D13*
X188304141Y-153213775D02*
X188304141Y-152413775D01*
X188304141Y-152413775D02*
X188570807Y-152985203D01*
X188570807Y-152985203D02*
X188837474Y-152413775D01*
X188837474Y-152413775D02*
X188837474Y-153213775D01*
X189675570Y-153137584D02*
X189637474Y-153175680D01*
X189637474Y-153175680D02*
X189523189Y-153213775D01*
X189523189Y-153213775D02*
X189446998Y-153213775D01*
X189446998Y-153213775D02*
X189332712Y-153175680D01*
X189332712Y-153175680D02*
X189256522Y-153099489D01*
X189256522Y-153099489D02*
X189218427Y-153023299D01*
X189218427Y-153023299D02*
X189180331Y-152870918D01*
X189180331Y-152870918D02*
X189180331Y-152756632D01*
X189180331Y-152756632D02*
X189218427Y-152604251D01*
X189218427Y-152604251D02*
X189256522Y-152528060D01*
X189256522Y-152528060D02*
X189332712Y-152451870D01*
X189332712Y-152451870D02*
X189446998Y-152413775D01*
X189446998Y-152413775D02*
X189523189Y-152413775D01*
X189523189Y-152413775D02*
X189637474Y-152451870D01*
X189637474Y-152451870D02*
X189675570Y-152489965D01*
X190018427Y-152413775D02*
X190018427Y-153061394D01*
X190018427Y-153061394D02*
X190056522Y-153137584D01*
X190056522Y-153137584D02*
X190094617Y-153175680D01*
X190094617Y-153175680D02*
X190170808Y-153213775D01*
X190170808Y-153213775D02*
X190323189Y-153213775D01*
X190323189Y-153213775D02*
X190399379Y-153175680D01*
X190399379Y-153175680D02*
X190437474Y-153137584D01*
X190437474Y-153137584D02*
X190475570Y-153061394D01*
X190475570Y-153061394D02*
X190475570Y-152413775D01*
D12*
X145557419Y-99025163D02*
X145533609Y-99072782D01*
X145533609Y-99072782D02*
X145533609Y-99144211D01*
X145533609Y-99144211D02*
X145557419Y-99215639D01*
X145557419Y-99215639D02*
X145605038Y-99263258D01*
X145605038Y-99263258D02*
X145652657Y-99287068D01*
X145652657Y-99287068D02*
X145747895Y-99310877D01*
X145747895Y-99310877D02*
X145819323Y-99310877D01*
X145819323Y-99310877D02*
X145914561Y-99287068D01*
X145914561Y-99287068D02*
X145962180Y-99263258D01*
X145962180Y-99263258D02*
X146009800Y-99215639D01*
X146009800Y-99215639D02*
X146033609Y-99144211D01*
X146033609Y-99144211D02*
X146033609Y-99096592D01*
X146033609Y-99096592D02*
X146009800Y-99025163D01*
X146009800Y-99025163D02*
X145985990Y-99001354D01*
X145985990Y-99001354D02*
X145819323Y-99001354D01*
X145819323Y-99001354D02*
X145819323Y-99096592D01*
X146033609Y-98787068D02*
X145533609Y-98787068D01*
X145533609Y-98787068D02*
X146033609Y-98501354D01*
X146033609Y-98501354D02*
X145533609Y-98501354D01*
X146033609Y-98263258D02*
X145533609Y-98263258D01*
X145533609Y-98263258D02*
X145533609Y-98144210D01*
X145533609Y-98144210D02*
X145557419Y-98072782D01*
X145557419Y-98072782D02*
X145605038Y-98025163D01*
X145605038Y-98025163D02*
X145652657Y-98001353D01*
X145652657Y-98001353D02*
X145747895Y-97977544D01*
X145747895Y-97977544D02*
X145819323Y-97977544D01*
X145819323Y-97977544D02*
X145914561Y-98001353D01*
X145914561Y-98001353D02*
X145962180Y-98025163D01*
X145962180Y-98025163D02*
X146009800Y-98072782D01*
X146009800Y-98072782D02*
X146033609Y-98144210D01*
X146033609Y-98144210D02*
X146033609Y-98263258D01*
X173544836Y-83483609D02*
X173378170Y-83245514D01*
X173259122Y-83483609D02*
X173259122Y-82983609D01*
X173259122Y-82983609D02*
X173449598Y-82983609D01*
X173449598Y-82983609D02*
X173497217Y-83007419D01*
X173497217Y-83007419D02*
X173521027Y-83031228D01*
X173521027Y-83031228D02*
X173544836Y-83078847D01*
X173544836Y-83078847D02*
X173544836Y-83150276D01*
X173544836Y-83150276D02*
X173521027Y-83197895D01*
X173521027Y-83197895D02*
X173497217Y-83221704D01*
X173497217Y-83221704D02*
X173449598Y-83245514D01*
X173449598Y-83245514D02*
X173259122Y-83245514D01*
X173711503Y-82983609D02*
X174044836Y-83483609D01*
X174044836Y-82983609D02*
X173711503Y-83483609D01*
X174235312Y-83483609D02*
X174235312Y-82983609D01*
X174235312Y-82983609D02*
X174354360Y-82983609D01*
X174354360Y-82983609D02*
X174425788Y-83007419D01*
X174425788Y-83007419D02*
X174473407Y-83055038D01*
X174473407Y-83055038D02*
X174497217Y-83102657D01*
X174497217Y-83102657D02*
X174521026Y-83197895D01*
X174521026Y-83197895D02*
X174521026Y-83269323D01*
X174521026Y-83269323D02*
X174497217Y-83364561D01*
X174497217Y-83364561D02*
X174473407Y-83412180D01*
X174473407Y-83412180D02*
X174425788Y-83459800D01*
X174425788Y-83459800D02*
X174354360Y-83483609D01*
X174354360Y-83483609D02*
X174235312Y-83483609D01*
X124196390Y-121624836D02*
X124696390Y-121624836D01*
X124696390Y-121624836D02*
X124339247Y-121791503D01*
X124339247Y-121791503D02*
X124696390Y-121958169D01*
X124696390Y-121958169D02*
X124196390Y-121958169D01*
X124696390Y-122291503D02*
X124696390Y-122386741D01*
X124696390Y-122386741D02*
X124672580Y-122434360D01*
X124672580Y-122434360D02*
X124624961Y-122481979D01*
X124624961Y-122481979D02*
X124529723Y-122505789D01*
X124529723Y-122505789D02*
X124363057Y-122505789D01*
X124363057Y-122505789D02*
X124267819Y-122481979D01*
X124267819Y-122481979D02*
X124220200Y-122434360D01*
X124220200Y-122434360D02*
X124196390Y-122386741D01*
X124196390Y-122386741D02*
X124196390Y-122291503D01*
X124196390Y-122291503D02*
X124220200Y-122243884D01*
X124220200Y-122243884D02*
X124267819Y-122196265D01*
X124267819Y-122196265D02*
X124363057Y-122172456D01*
X124363057Y-122172456D02*
X124529723Y-122172456D01*
X124529723Y-122172456D02*
X124624961Y-122196265D01*
X124624961Y-122196265D02*
X124672580Y-122243884D01*
X124672580Y-122243884D02*
X124696390Y-122291503D01*
X124220200Y-122696266D02*
X124196390Y-122767694D01*
X124196390Y-122767694D02*
X124196390Y-122886742D01*
X124196390Y-122886742D02*
X124220200Y-122934361D01*
X124220200Y-122934361D02*
X124244009Y-122958170D01*
X124244009Y-122958170D02*
X124291628Y-122981980D01*
X124291628Y-122981980D02*
X124339247Y-122981980D01*
X124339247Y-122981980D02*
X124386866Y-122958170D01*
X124386866Y-122958170D02*
X124410676Y-122934361D01*
X124410676Y-122934361D02*
X124434485Y-122886742D01*
X124434485Y-122886742D02*
X124458295Y-122791504D01*
X124458295Y-122791504D02*
X124482104Y-122743885D01*
X124482104Y-122743885D02*
X124505914Y-122720075D01*
X124505914Y-122720075D02*
X124553533Y-122696266D01*
X124553533Y-122696266D02*
X124601152Y-122696266D01*
X124601152Y-122696266D02*
X124648771Y-122720075D01*
X124648771Y-122720075D02*
X124672580Y-122743885D01*
X124672580Y-122743885D02*
X124696390Y-122791504D01*
X124696390Y-122791504D02*
X124696390Y-122910551D01*
X124696390Y-122910551D02*
X124672580Y-122981980D01*
X124196390Y-123196265D02*
X124696390Y-123196265D01*
X124672580Y-140486741D02*
X124696390Y-140439122D01*
X124696390Y-140439122D02*
X124696390Y-140367693D01*
X124696390Y-140367693D02*
X124672580Y-140296265D01*
X124672580Y-140296265D02*
X124624961Y-140248646D01*
X124624961Y-140248646D02*
X124577342Y-140224836D01*
X124577342Y-140224836D02*
X124482104Y-140201027D01*
X124482104Y-140201027D02*
X124410676Y-140201027D01*
X124410676Y-140201027D02*
X124315438Y-140224836D01*
X124315438Y-140224836D02*
X124267819Y-140248646D01*
X124267819Y-140248646D02*
X124220200Y-140296265D01*
X124220200Y-140296265D02*
X124196390Y-140367693D01*
X124196390Y-140367693D02*
X124196390Y-140415312D01*
X124196390Y-140415312D02*
X124220200Y-140486741D01*
X124220200Y-140486741D02*
X124244009Y-140510550D01*
X124244009Y-140510550D02*
X124410676Y-140510550D01*
X124410676Y-140510550D02*
X124410676Y-140415312D01*
X124196390Y-140724836D02*
X124696390Y-140724836D01*
X124696390Y-140724836D02*
X124196390Y-141010550D01*
X124196390Y-141010550D02*
X124696390Y-141010550D01*
X124196390Y-141248646D02*
X124696390Y-141248646D01*
X124696390Y-141248646D02*
X124696390Y-141367694D01*
X124696390Y-141367694D02*
X124672580Y-141439122D01*
X124672580Y-141439122D02*
X124624961Y-141486741D01*
X124624961Y-141486741D02*
X124577342Y-141510551D01*
X124577342Y-141510551D02*
X124482104Y-141534360D01*
X124482104Y-141534360D02*
X124410676Y-141534360D01*
X124410676Y-141534360D02*
X124315438Y-141510551D01*
X124315438Y-141510551D02*
X124267819Y-141486741D01*
X124267819Y-141486741D02*
X124220200Y-141439122D01*
X124220200Y-141439122D02*
X124196390Y-141367694D01*
X124196390Y-141367694D02*
X124196390Y-141248646D01*
X124196390Y-124217218D02*
X124696390Y-124217218D01*
X124696390Y-124217218D02*
X124339247Y-124383885D01*
X124339247Y-124383885D02*
X124696390Y-124550551D01*
X124696390Y-124550551D02*
X124196390Y-124550551D01*
X124196390Y-124788647D02*
X124696390Y-124788647D01*
X124220200Y-125002933D02*
X124196390Y-125074361D01*
X124196390Y-125074361D02*
X124196390Y-125193409D01*
X124196390Y-125193409D02*
X124220200Y-125241028D01*
X124220200Y-125241028D02*
X124244009Y-125264837D01*
X124244009Y-125264837D02*
X124291628Y-125288647D01*
X124291628Y-125288647D02*
X124339247Y-125288647D01*
X124339247Y-125288647D02*
X124386866Y-125264837D01*
X124386866Y-125264837D02*
X124410676Y-125241028D01*
X124410676Y-125241028D02*
X124434485Y-125193409D01*
X124434485Y-125193409D02*
X124458295Y-125098171D01*
X124458295Y-125098171D02*
X124482104Y-125050552D01*
X124482104Y-125050552D02*
X124505914Y-125026742D01*
X124505914Y-125026742D02*
X124553533Y-125002933D01*
X124553533Y-125002933D02*
X124601152Y-125002933D01*
X124601152Y-125002933D02*
X124648771Y-125026742D01*
X124648771Y-125026742D02*
X124672580Y-125050552D01*
X124672580Y-125050552D02*
X124696390Y-125098171D01*
X124696390Y-125098171D02*
X124696390Y-125217218D01*
X124696390Y-125217218D02*
X124672580Y-125288647D01*
X124696390Y-125598170D02*
X124696390Y-125693408D01*
X124696390Y-125693408D02*
X124672580Y-125741027D01*
X124672580Y-125741027D02*
X124624961Y-125788646D01*
X124624961Y-125788646D02*
X124529723Y-125812456D01*
X124529723Y-125812456D02*
X124363057Y-125812456D01*
X124363057Y-125812456D02*
X124267819Y-125788646D01*
X124267819Y-125788646D02*
X124220200Y-125741027D01*
X124220200Y-125741027D02*
X124196390Y-125693408D01*
X124196390Y-125693408D02*
X124196390Y-125598170D01*
X124196390Y-125598170D02*
X124220200Y-125550551D01*
X124220200Y-125550551D02*
X124267819Y-125502932D01*
X124267819Y-125502932D02*
X124363057Y-125479123D01*
X124363057Y-125479123D02*
X124529723Y-125479123D01*
X124529723Y-125479123D02*
X124624961Y-125502932D01*
X124624961Y-125502932D02*
X124672580Y-125550551D01*
X124672580Y-125550551D02*
X124696390Y-125598170D01*
X124244009Y-132420550D02*
X124220200Y-132396741D01*
X124220200Y-132396741D02*
X124196390Y-132325312D01*
X124196390Y-132325312D02*
X124196390Y-132277693D01*
X124196390Y-132277693D02*
X124220200Y-132206265D01*
X124220200Y-132206265D02*
X124267819Y-132158646D01*
X124267819Y-132158646D02*
X124315438Y-132134836D01*
X124315438Y-132134836D02*
X124410676Y-132111027D01*
X124410676Y-132111027D02*
X124482104Y-132111027D01*
X124482104Y-132111027D02*
X124577342Y-132134836D01*
X124577342Y-132134836D02*
X124624961Y-132158646D01*
X124624961Y-132158646D02*
X124672580Y-132206265D01*
X124672580Y-132206265D02*
X124696390Y-132277693D01*
X124696390Y-132277693D02*
X124696390Y-132325312D01*
X124696390Y-132325312D02*
X124672580Y-132396741D01*
X124672580Y-132396741D02*
X124648771Y-132420550D01*
X124220200Y-132611027D02*
X124196390Y-132682455D01*
X124196390Y-132682455D02*
X124196390Y-132801503D01*
X124196390Y-132801503D02*
X124220200Y-132849122D01*
X124220200Y-132849122D02*
X124244009Y-132872931D01*
X124244009Y-132872931D02*
X124291628Y-132896741D01*
X124291628Y-132896741D02*
X124339247Y-132896741D01*
X124339247Y-132896741D02*
X124386866Y-132872931D01*
X124386866Y-132872931D02*
X124410676Y-132849122D01*
X124410676Y-132849122D02*
X124434485Y-132801503D01*
X124434485Y-132801503D02*
X124458295Y-132706265D01*
X124458295Y-132706265D02*
X124482104Y-132658646D01*
X124482104Y-132658646D02*
X124505914Y-132634836D01*
X124505914Y-132634836D02*
X124553533Y-132611027D01*
X124553533Y-132611027D02*
X124601152Y-132611027D01*
X124601152Y-132611027D02*
X124648771Y-132634836D01*
X124648771Y-132634836D02*
X124672580Y-132658646D01*
X124672580Y-132658646D02*
X124696390Y-132706265D01*
X124696390Y-132706265D02*
X124696390Y-132825312D01*
X124696390Y-132825312D02*
X124672580Y-132896741D01*
D13*
X173385739Y-153213775D02*
X173385739Y-152413775D01*
X173385739Y-152413775D02*
X173690501Y-152413775D01*
X173690501Y-152413775D02*
X173766691Y-152451870D01*
X173766691Y-152451870D02*
X173804786Y-152489965D01*
X173804786Y-152489965D02*
X173842882Y-152566156D01*
X173842882Y-152566156D02*
X173842882Y-152680441D01*
X173842882Y-152680441D02*
X173804786Y-152756632D01*
X173804786Y-152756632D02*
X173766691Y-152794727D01*
X173766691Y-152794727D02*
X173690501Y-152832822D01*
X173690501Y-152832822D02*
X173385739Y-152832822D01*
X174109548Y-152413775D02*
X174300024Y-153213775D01*
X174300024Y-153213775D02*
X174452405Y-152642346D01*
X174452405Y-152642346D02*
X174604786Y-153213775D01*
X174604786Y-153213775D02*
X174795263Y-152413775D01*
X175557168Y-153213775D02*
X175290501Y-152832822D01*
X175100025Y-153213775D02*
X175100025Y-152413775D01*
X175100025Y-152413775D02*
X175404787Y-152413775D01*
X175404787Y-152413775D02*
X175480977Y-152451870D01*
X175480977Y-152451870D02*
X175519072Y-152489965D01*
X175519072Y-152489965D02*
X175557168Y-152566156D01*
X175557168Y-152566156D02*
X175557168Y-152680441D01*
X175557168Y-152680441D02*
X175519072Y-152756632D01*
X175519072Y-152756632D02*
X175480977Y-152794727D01*
X175480977Y-152794727D02*
X175404787Y-152832822D01*
X175404787Y-152832822D02*
X175100025Y-152832822D01*
D12*
X168074360Y-82983609D02*
X168383884Y-82983609D01*
X168383884Y-82983609D02*
X168217217Y-83174085D01*
X168217217Y-83174085D02*
X168288646Y-83174085D01*
X168288646Y-83174085D02*
X168336265Y-83197895D01*
X168336265Y-83197895D02*
X168360074Y-83221704D01*
X168360074Y-83221704D02*
X168383884Y-83269323D01*
X168383884Y-83269323D02*
X168383884Y-83388371D01*
X168383884Y-83388371D02*
X168360074Y-83435990D01*
X168360074Y-83435990D02*
X168336265Y-83459800D01*
X168336265Y-83459800D02*
X168288646Y-83483609D01*
X168288646Y-83483609D02*
X168145789Y-83483609D01*
X168145789Y-83483609D02*
X168098170Y-83459800D01*
X168098170Y-83459800D02*
X168074360Y-83435990D01*
X168598169Y-83435990D02*
X168621979Y-83459800D01*
X168621979Y-83459800D02*
X168598169Y-83483609D01*
X168598169Y-83483609D02*
X168574360Y-83459800D01*
X168574360Y-83459800D02*
X168598169Y-83435990D01*
X168598169Y-83435990D02*
X168598169Y-83483609D01*
X168788645Y-82983609D02*
X169098169Y-82983609D01*
X169098169Y-82983609D02*
X168931502Y-83174085D01*
X168931502Y-83174085D02*
X169002931Y-83174085D01*
X169002931Y-83174085D02*
X169050550Y-83197895D01*
X169050550Y-83197895D02*
X169074359Y-83221704D01*
X169074359Y-83221704D02*
X169098169Y-83269323D01*
X169098169Y-83269323D02*
X169098169Y-83388371D01*
X169098169Y-83388371D02*
X169074359Y-83435990D01*
X169074359Y-83435990D02*
X169050550Y-83459800D01*
X169050550Y-83459800D02*
X169002931Y-83483609D01*
X169002931Y-83483609D02*
X168860074Y-83483609D01*
X168860074Y-83483609D02*
X168812455Y-83459800D01*
X168812455Y-83459800D02*
X168788645Y-83435990D01*
X169241026Y-82983609D02*
X169407692Y-83483609D01*
X169407692Y-83483609D02*
X169574359Y-82983609D01*
X178520550Y-83435990D02*
X178496741Y-83459800D01*
X178496741Y-83459800D02*
X178425312Y-83483609D01*
X178425312Y-83483609D02*
X178377693Y-83483609D01*
X178377693Y-83483609D02*
X178306265Y-83459800D01*
X178306265Y-83459800D02*
X178258646Y-83412180D01*
X178258646Y-83412180D02*
X178234836Y-83364561D01*
X178234836Y-83364561D02*
X178211027Y-83269323D01*
X178211027Y-83269323D02*
X178211027Y-83197895D01*
X178211027Y-83197895D02*
X178234836Y-83102657D01*
X178234836Y-83102657D02*
X178258646Y-83055038D01*
X178258646Y-83055038D02*
X178306265Y-83007419D01*
X178306265Y-83007419D02*
X178377693Y-82983609D01*
X178377693Y-82983609D02*
X178425312Y-82983609D01*
X178425312Y-82983609D02*
X178496741Y-83007419D01*
X178496741Y-83007419D02*
X178520550Y-83031228D01*
X178663408Y-82983609D02*
X178949122Y-82983609D01*
X178806265Y-83483609D02*
X178806265Y-82983609D01*
X179091979Y-83459800D02*
X179163407Y-83483609D01*
X179163407Y-83483609D02*
X179282455Y-83483609D01*
X179282455Y-83483609D02*
X179330074Y-83459800D01*
X179330074Y-83459800D02*
X179353883Y-83435990D01*
X179353883Y-83435990D02*
X179377693Y-83388371D01*
X179377693Y-83388371D02*
X179377693Y-83340752D01*
X179377693Y-83340752D02*
X179353883Y-83293133D01*
X179353883Y-83293133D02*
X179330074Y-83269323D01*
X179330074Y-83269323D02*
X179282455Y-83245514D01*
X179282455Y-83245514D02*
X179187217Y-83221704D01*
X179187217Y-83221704D02*
X179139598Y-83197895D01*
X179139598Y-83197895D02*
X179115788Y-83174085D01*
X179115788Y-83174085D02*
X179091979Y-83126466D01*
X179091979Y-83126466D02*
X179091979Y-83078847D01*
X179091979Y-83078847D02*
X179115788Y-83031228D01*
X179115788Y-83031228D02*
X179139598Y-83007419D01*
X179139598Y-83007419D02*
X179187217Y-82983609D01*
X179187217Y-82983609D02*
X179306264Y-82983609D01*
X179306264Y-82983609D02*
X179377693Y-83007419D01*
X179591978Y-83150276D02*
X179591978Y-83483609D01*
X179591978Y-83197895D02*
X179615788Y-83174085D01*
X179615788Y-83174085D02*
X179663407Y-83150276D01*
X179663407Y-83150276D02*
X179734835Y-83150276D01*
X179734835Y-83150276D02*
X179782454Y-83174085D01*
X179782454Y-83174085D02*
X179806264Y-83221704D01*
X179806264Y-83221704D02*
X179806264Y-83483609D01*
X181056741Y-83007419D02*
X181009122Y-82983609D01*
X181009122Y-82983609D02*
X180937693Y-82983609D01*
X180937693Y-82983609D02*
X180866265Y-83007419D01*
X180866265Y-83007419D02*
X180818646Y-83055038D01*
X180818646Y-83055038D02*
X180794836Y-83102657D01*
X180794836Y-83102657D02*
X180771027Y-83197895D01*
X180771027Y-83197895D02*
X180771027Y-83269323D01*
X180771027Y-83269323D02*
X180794836Y-83364561D01*
X180794836Y-83364561D02*
X180818646Y-83412180D01*
X180818646Y-83412180D02*
X180866265Y-83459800D01*
X180866265Y-83459800D02*
X180937693Y-83483609D01*
X180937693Y-83483609D02*
X180985312Y-83483609D01*
X180985312Y-83483609D02*
X181056741Y-83459800D01*
X181056741Y-83459800D02*
X181080550Y-83435990D01*
X181080550Y-83435990D02*
X181080550Y-83269323D01*
X181080550Y-83269323D02*
X180985312Y-83269323D01*
X181294836Y-83483609D02*
X181294836Y-82983609D01*
X181294836Y-82983609D02*
X181580550Y-83483609D01*
X181580550Y-83483609D02*
X181580550Y-82983609D01*
X181818646Y-83483609D02*
X181818646Y-82983609D01*
X181818646Y-82983609D02*
X181937694Y-82983609D01*
X181937694Y-82983609D02*
X182009122Y-83007419D01*
X182009122Y-83007419D02*
X182056741Y-83055038D01*
X182056741Y-83055038D02*
X182080551Y-83102657D01*
X182080551Y-83102657D02*
X182104360Y-83197895D01*
X182104360Y-83197895D02*
X182104360Y-83269323D01*
X182104360Y-83269323D02*
X182080551Y-83364561D01*
X182080551Y-83364561D02*
X182056741Y-83412180D01*
X182056741Y-83412180D02*
X182009122Y-83459800D01*
X182009122Y-83459800D02*
X181937694Y-83483609D01*
X181937694Y-83483609D02*
X181818646Y-83483609D01*
X124196390Y-145647693D02*
X124434485Y-145481027D01*
X124196390Y-145361979D02*
X124696390Y-145361979D01*
X124696390Y-145361979D02*
X124696390Y-145552455D01*
X124696390Y-145552455D02*
X124672580Y-145600074D01*
X124672580Y-145600074D02*
X124648771Y-145623884D01*
X124648771Y-145623884D02*
X124601152Y-145647693D01*
X124601152Y-145647693D02*
X124529723Y-145647693D01*
X124529723Y-145647693D02*
X124482104Y-145623884D01*
X124482104Y-145623884D02*
X124458295Y-145600074D01*
X124458295Y-145600074D02*
X124434485Y-145552455D01*
X124434485Y-145552455D02*
X124434485Y-145361979D01*
X124696390Y-145814360D02*
X124196390Y-146147693D01*
X124696390Y-146147693D02*
X124196390Y-145814360D01*
X124196390Y-146338169D02*
X124696390Y-146338169D01*
X124696390Y-146338169D02*
X124696390Y-146457217D01*
X124696390Y-146457217D02*
X124672580Y-146528645D01*
X124672580Y-146528645D02*
X124624961Y-146576264D01*
X124624961Y-146576264D02*
X124577342Y-146600074D01*
X124577342Y-146600074D02*
X124482104Y-146623883D01*
X124482104Y-146623883D02*
X124410676Y-146623883D01*
X124410676Y-146623883D02*
X124315438Y-146600074D01*
X124315438Y-146600074D02*
X124267819Y-146576264D01*
X124267819Y-146576264D02*
X124220200Y-146528645D01*
X124220200Y-146528645D02*
X124196390Y-146457217D01*
X124196390Y-146457217D02*
X124196390Y-146338169D01*
X124244009Y-127222455D02*
X124220200Y-127198646D01*
X124220200Y-127198646D02*
X124196390Y-127127217D01*
X124196390Y-127127217D02*
X124196390Y-127079598D01*
X124196390Y-127079598D02*
X124220200Y-127008170D01*
X124220200Y-127008170D02*
X124267819Y-126960551D01*
X124267819Y-126960551D02*
X124315438Y-126936741D01*
X124315438Y-126936741D02*
X124410676Y-126912932D01*
X124410676Y-126912932D02*
X124482104Y-126912932D01*
X124482104Y-126912932D02*
X124577342Y-126936741D01*
X124577342Y-126936741D02*
X124624961Y-126960551D01*
X124624961Y-126960551D02*
X124672580Y-127008170D01*
X124672580Y-127008170D02*
X124696390Y-127079598D01*
X124696390Y-127079598D02*
X124696390Y-127127217D01*
X124696390Y-127127217D02*
X124672580Y-127198646D01*
X124672580Y-127198646D02*
X124648771Y-127222455D01*
X124196390Y-127674836D02*
X124196390Y-127436741D01*
X124196390Y-127436741D02*
X124696390Y-127436741D01*
X124196390Y-127841503D02*
X124696390Y-127841503D01*
X124196390Y-128127217D02*
X124482104Y-127912932D01*
X124696390Y-128127217D02*
X124410676Y-127841503D01*
X124196390Y-129362455D02*
X124696390Y-129362455D01*
X124196390Y-129886264D02*
X124434485Y-129719598D01*
X124196390Y-129600550D02*
X124696390Y-129600550D01*
X124696390Y-129600550D02*
X124696390Y-129791026D01*
X124696390Y-129791026D02*
X124672580Y-129838645D01*
X124672580Y-129838645D02*
X124648771Y-129862455D01*
X124648771Y-129862455D02*
X124601152Y-129886264D01*
X124601152Y-129886264D02*
X124529723Y-129886264D01*
X124529723Y-129886264D02*
X124482104Y-129862455D01*
X124482104Y-129862455D02*
X124458295Y-129838645D01*
X124458295Y-129838645D02*
X124434485Y-129791026D01*
X124434485Y-129791026D02*
X124434485Y-129600550D01*
X124148771Y-130433883D02*
X124172580Y-130386264D01*
X124172580Y-130386264D02*
X124220200Y-130338645D01*
X124220200Y-130338645D02*
X124291628Y-130267217D01*
X124291628Y-130267217D02*
X124315438Y-130219598D01*
X124315438Y-130219598D02*
X124315438Y-130171979D01*
X124196390Y-130195788D02*
X124220200Y-130148169D01*
X124220200Y-130148169D02*
X124267819Y-130100550D01*
X124267819Y-130100550D02*
X124363057Y-130076741D01*
X124363057Y-130076741D02*
X124529723Y-130076741D01*
X124529723Y-130076741D02*
X124624961Y-130100550D01*
X124624961Y-130100550D02*
X124672580Y-130148169D01*
X124672580Y-130148169D02*
X124696390Y-130195788D01*
X124696390Y-130195788D02*
X124696390Y-130291026D01*
X124696390Y-130291026D02*
X124672580Y-130338645D01*
X124672580Y-130338645D02*
X124624961Y-130386264D01*
X124624961Y-130386264D02*
X124529723Y-130410074D01*
X124529723Y-130410074D02*
X124363057Y-130410074D01*
X124363057Y-130410074D02*
X124267819Y-130386264D01*
X124267819Y-130386264D02*
X124220200Y-130338645D01*
X124220200Y-130338645D02*
X124196390Y-130291026D01*
X124196390Y-130291026D02*
X124196390Y-130195788D01*
X145985990Y-91263735D02*
X146009800Y-91287544D01*
X146009800Y-91287544D02*
X146033609Y-91358973D01*
X146033609Y-91358973D02*
X146033609Y-91406592D01*
X146033609Y-91406592D02*
X146009800Y-91478020D01*
X146009800Y-91478020D02*
X145962180Y-91525639D01*
X145962180Y-91525639D02*
X145914561Y-91549449D01*
X145914561Y-91549449D02*
X145819323Y-91573258D01*
X145819323Y-91573258D02*
X145747895Y-91573258D01*
X145747895Y-91573258D02*
X145652657Y-91549449D01*
X145652657Y-91549449D02*
X145605038Y-91525639D01*
X145605038Y-91525639D02*
X145557419Y-91478020D01*
X145557419Y-91478020D02*
X145533609Y-91406592D01*
X145533609Y-91406592D02*
X145533609Y-91358973D01*
X145533609Y-91358973D02*
X145557419Y-91287544D01*
X145557419Y-91287544D02*
X145581228Y-91263735D01*
X146033609Y-90811354D02*
X146033609Y-91049449D01*
X146033609Y-91049449D02*
X145533609Y-91049449D01*
X146033609Y-90644687D02*
X145533609Y-90644687D01*
X146033609Y-90358973D02*
X145747895Y-90573258D01*
X145533609Y-90358973D02*
X145819323Y-90644687D01*
X146033609Y-89065163D02*
X145533609Y-89065163D01*
X145533609Y-89065163D02*
X145890752Y-88898496D01*
X145890752Y-88898496D02*
X145533609Y-88731830D01*
X145533609Y-88731830D02*
X146033609Y-88731830D01*
X146033609Y-88493734D02*
X145533609Y-88493734D01*
X146009800Y-88279448D02*
X146033609Y-88208020D01*
X146033609Y-88208020D02*
X146033609Y-88088972D01*
X146033609Y-88088972D02*
X146009800Y-88041353D01*
X146009800Y-88041353D02*
X145985990Y-88017544D01*
X145985990Y-88017544D02*
X145938371Y-87993734D01*
X145938371Y-87993734D02*
X145890752Y-87993734D01*
X145890752Y-87993734D02*
X145843133Y-88017544D01*
X145843133Y-88017544D02*
X145819323Y-88041353D01*
X145819323Y-88041353D02*
X145795514Y-88088972D01*
X145795514Y-88088972D02*
X145771704Y-88184210D01*
X145771704Y-88184210D02*
X145747895Y-88231829D01*
X145747895Y-88231829D02*
X145724085Y-88255639D01*
X145724085Y-88255639D02*
X145676466Y-88279448D01*
X145676466Y-88279448D02*
X145628847Y-88279448D01*
X145628847Y-88279448D02*
X145581228Y-88255639D01*
X145581228Y-88255639D02*
X145557419Y-88231829D01*
X145557419Y-88231829D02*
X145533609Y-88184210D01*
X145533609Y-88184210D02*
X145533609Y-88065163D01*
X145533609Y-88065163D02*
X145557419Y-87993734D01*
X145533609Y-87684211D02*
X145533609Y-87588973D01*
X145533609Y-87588973D02*
X145557419Y-87541354D01*
X145557419Y-87541354D02*
X145605038Y-87493735D01*
X145605038Y-87493735D02*
X145700276Y-87469925D01*
X145700276Y-87469925D02*
X145866942Y-87469925D01*
X145866942Y-87469925D02*
X145962180Y-87493735D01*
X145962180Y-87493735D02*
X146009800Y-87541354D01*
X146009800Y-87541354D02*
X146033609Y-87588973D01*
X146033609Y-87588973D02*
X146033609Y-87684211D01*
X146033609Y-87684211D02*
X146009800Y-87731830D01*
X146009800Y-87731830D02*
X145962180Y-87779449D01*
X145962180Y-87779449D02*
X145866942Y-87803258D01*
X145866942Y-87803258D02*
X145700276Y-87803258D01*
X145700276Y-87803258D02*
X145605038Y-87779449D01*
X145605038Y-87779449D02*
X145557419Y-87731830D01*
X145557419Y-87731830D02*
X145533609Y-87684211D01*
D13*
X180905739Y-152413775D02*
X180905739Y-153061394D01*
X180905739Y-153061394D02*
X180943834Y-153137584D01*
X180943834Y-153137584D02*
X180981929Y-153175680D01*
X180981929Y-153175680D02*
X181058120Y-153213775D01*
X181058120Y-153213775D02*
X181210501Y-153213775D01*
X181210501Y-153213775D02*
X181286691Y-153175680D01*
X181286691Y-153175680D02*
X181324786Y-153137584D01*
X181324786Y-153137584D02*
X181362882Y-153061394D01*
X181362882Y-153061394D02*
X181362882Y-152413775D01*
X181705738Y-153175680D02*
X181820024Y-153213775D01*
X181820024Y-153213775D02*
X182010500Y-153213775D01*
X182010500Y-153213775D02*
X182086691Y-153175680D01*
X182086691Y-153175680D02*
X182124786Y-153137584D01*
X182124786Y-153137584D02*
X182162881Y-153061394D01*
X182162881Y-153061394D02*
X182162881Y-152985203D01*
X182162881Y-152985203D02*
X182124786Y-152909013D01*
X182124786Y-152909013D02*
X182086691Y-152870918D01*
X182086691Y-152870918D02*
X182010500Y-152832822D01*
X182010500Y-152832822D02*
X181858119Y-152794727D01*
X181858119Y-152794727D02*
X181781929Y-152756632D01*
X181781929Y-152756632D02*
X181743834Y-152718537D01*
X181743834Y-152718537D02*
X181705738Y-152642346D01*
X181705738Y-152642346D02*
X181705738Y-152566156D01*
X181705738Y-152566156D02*
X181743834Y-152489965D01*
X181743834Y-152489965D02*
X181781929Y-152451870D01*
X181781929Y-152451870D02*
X181858119Y-152413775D01*
X181858119Y-152413775D02*
X182048596Y-152413775D01*
X182048596Y-152413775D02*
X182162881Y-152451870D01*
X182505739Y-152794727D02*
X182772405Y-152794727D01*
X182886691Y-153213775D02*
X182505739Y-153213775D01*
X182505739Y-153213775D02*
X182505739Y-152413775D01*
X182505739Y-152413775D02*
X182886691Y-152413775D01*
X183686692Y-153213775D02*
X183420025Y-152832822D01*
X183229549Y-153213775D02*
X183229549Y-152413775D01*
X183229549Y-152413775D02*
X183534311Y-152413775D01*
X183534311Y-152413775D02*
X183610501Y-152451870D01*
X183610501Y-152451870D02*
X183648596Y-152489965D01*
X183648596Y-152489965D02*
X183686692Y-152566156D01*
X183686692Y-152566156D02*
X183686692Y-152680441D01*
X183686692Y-152680441D02*
X183648596Y-152756632D01*
X183648596Y-152756632D02*
X183610501Y-152794727D01*
X183610501Y-152794727D02*
X183534311Y-152832822D01*
X183534311Y-152832822D02*
X183229549Y-152832822D01*
D12*
X145985990Y-93429449D02*
X146009800Y-93453258D01*
X146009800Y-93453258D02*
X146033609Y-93524687D01*
X146033609Y-93524687D02*
X146033609Y-93572306D01*
X146033609Y-93572306D02*
X146009800Y-93643734D01*
X146009800Y-93643734D02*
X145962180Y-93691353D01*
X145962180Y-93691353D02*
X145914561Y-93715163D01*
X145914561Y-93715163D02*
X145819323Y-93738972D01*
X145819323Y-93738972D02*
X145747895Y-93738972D01*
X145747895Y-93738972D02*
X145652657Y-93715163D01*
X145652657Y-93715163D02*
X145605038Y-93691353D01*
X145605038Y-93691353D02*
X145557419Y-93643734D01*
X145557419Y-93643734D02*
X145533609Y-93572306D01*
X145533609Y-93572306D02*
X145533609Y-93524687D01*
X145533609Y-93524687D02*
X145557419Y-93453258D01*
X145557419Y-93453258D02*
X145581228Y-93429449D01*
X146009800Y-93238972D02*
X146033609Y-93167544D01*
X146033609Y-93167544D02*
X146033609Y-93048496D01*
X146033609Y-93048496D02*
X146009800Y-93000877D01*
X146009800Y-93000877D02*
X145985990Y-92977068D01*
X145985990Y-92977068D02*
X145938371Y-92953258D01*
X145938371Y-92953258D02*
X145890752Y-92953258D01*
X145890752Y-92953258D02*
X145843133Y-92977068D01*
X145843133Y-92977068D02*
X145819323Y-93000877D01*
X145819323Y-93000877D02*
X145795514Y-93048496D01*
X145795514Y-93048496D02*
X145771704Y-93143734D01*
X145771704Y-93143734D02*
X145747895Y-93191353D01*
X145747895Y-93191353D02*
X145724085Y-93215163D01*
X145724085Y-93215163D02*
X145676466Y-93238972D01*
X145676466Y-93238972D02*
X145628847Y-93238972D01*
X145628847Y-93238972D02*
X145581228Y-93215163D01*
X145581228Y-93215163D02*
X145557419Y-93191353D01*
X145557419Y-93191353D02*
X145533609Y-93143734D01*
X145533609Y-93143734D02*
X145533609Y-93024687D01*
X145533609Y-93024687D02*
X145557419Y-92953258D01*
X196604761Y-157772180D02*
X196557142Y-157819800D01*
X196557142Y-157819800D02*
X196414285Y-157867419D01*
X196414285Y-157867419D02*
X196319047Y-157867419D01*
X196319047Y-157867419D02*
X196176190Y-157819800D01*
X196176190Y-157819800D02*
X196080952Y-157724561D01*
X196080952Y-157724561D02*
X196033333Y-157629323D01*
X196033333Y-157629323D02*
X195985714Y-157438847D01*
X195985714Y-157438847D02*
X195985714Y-157295990D01*
X195985714Y-157295990D02*
X196033333Y-157105514D01*
X196033333Y-157105514D02*
X196080952Y-157010276D01*
X196080952Y-157010276D02*
X196176190Y-156915038D01*
X196176190Y-156915038D02*
X196319047Y-156867419D01*
X196319047Y-156867419D02*
X196414285Y-156867419D01*
X196414285Y-156867419D02*
X196557142Y-156915038D01*
X196557142Y-156915038D02*
X196604761Y-156962657D01*
X196938095Y-156867419D02*
X197557142Y-156867419D01*
X197557142Y-156867419D02*
X197223809Y-157248371D01*
X197223809Y-157248371D02*
X197366666Y-157248371D01*
X197366666Y-157248371D02*
X197461904Y-157295990D01*
X197461904Y-157295990D02*
X197509523Y-157343609D01*
X197509523Y-157343609D02*
X197557142Y-157438847D01*
X197557142Y-157438847D02*
X197557142Y-157676942D01*
X197557142Y-157676942D02*
X197509523Y-157772180D01*
X197509523Y-157772180D02*
X197461904Y-157819800D01*
X197461904Y-157819800D02*
X197366666Y-157867419D01*
X197366666Y-157867419D02*
X197080952Y-157867419D01*
X197080952Y-157867419D02*
X196985714Y-157819800D01*
X196985714Y-157819800D02*
X196938095Y-157772180D01*
X198176190Y-156867419D02*
X198271428Y-156867419D01*
X198271428Y-156867419D02*
X198366666Y-156915038D01*
X198366666Y-156915038D02*
X198414285Y-156962657D01*
X198414285Y-156962657D02*
X198461904Y-157057895D01*
X198461904Y-157057895D02*
X198509523Y-157248371D01*
X198509523Y-157248371D02*
X198509523Y-157486466D01*
X198509523Y-157486466D02*
X198461904Y-157676942D01*
X198461904Y-157676942D02*
X198414285Y-157772180D01*
X198414285Y-157772180D02*
X198366666Y-157819800D01*
X198366666Y-157819800D02*
X198271428Y-157867419D01*
X198271428Y-157867419D02*
X198176190Y-157867419D01*
X198176190Y-157867419D02*
X198080952Y-157819800D01*
X198080952Y-157819800D02*
X198033333Y-157772180D01*
X198033333Y-157772180D02*
X197985714Y-157676942D01*
X197985714Y-157676942D02*
X197938095Y-157486466D01*
X197938095Y-157486466D02*
X197938095Y-157248371D01*
X197938095Y-157248371D02*
X197985714Y-157057895D01*
X197985714Y-157057895D02*
X198033333Y-156962657D01*
X198033333Y-156962657D02*
X198080952Y-156915038D01*
X198080952Y-156915038D02*
X198176190Y-156867419D01*
X199366666Y-157200752D02*
X199366666Y-157867419D01*
X199128571Y-156819800D02*
X198890476Y-157534085D01*
X198890476Y-157534085D02*
X199509523Y-157534085D01*
X199938095Y-157867419D02*
X200128571Y-157867419D01*
X200128571Y-157867419D02*
X200223809Y-157819800D01*
X200223809Y-157819800D02*
X200271428Y-157772180D01*
X200271428Y-157772180D02*
X200366666Y-157629323D01*
X200366666Y-157629323D02*
X200414285Y-157438847D01*
X200414285Y-157438847D02*
X200414285Y-157057895D01*
X200414285Y-157057895D02*
X200366666Y-156962657D01*
X200366666Y-156962657D02*
X200319047Y-156915038D01*
X200319047Y-156915038D02*
X200223809Y-156867419D01*
X200223809Y-156867419D02*
X200033333Y-156867419D01*
X200033333Y-156867419D02*
X199938095Y-156915038D01*
X199938095Y-156915038D02*
X199890476Y-156962657D01*
X199890476Y-156962657D02*
X199842857Y-157057895D01*
X199842857Y-157057895D02*
X199842857Y-157295990D01*
X199842857Y-157295990D02*
X199890476Y-157391228D01*
X199890476Y-157391228D02*
X199938095Y-157438847D01*
X199938095Y-157438847D02*
X200033333Y-157486466D01*
X200033333Y-157486466D02*
X200223809Y-157486466D01*
X200223809Y-157486466D02*
X200319047Y-157438847D01*
X200319047Y-157438847D02*
X200366666Y-157391228D01*
X200366666Y-157391228D02*
X200414285Y-157295990D01*
D14*
X127359524Y-138163819D02*
X127930952Y-138163819D01*
X127645238Y-139163819D02*
X127645238Y-138163819D01*
X128264286Y-139163819D02*
X128264286Y-138163819D01*
X128264286Y-138163819D02*
X128645238Y-138163819D01*
X128645238Y-138163819D02*
X128740476Y-138211438D01*
X128740476Y-138211438D02*
X128788095Y-138259057D01*
X128788095Y-138259057D02*
X128835714Y-138354295D01*
X128835714Y-138354295D02*
X128835714Y-138497152D01*
X128835714Y-138497152D02*
X128788095Y-138592390D01*
X128788095Y-138592390D02*
X128740476Y-138640009D01*
X128740476Y-138640009D02*
X128645238Y-138687628D01*
X128645238Y-138687628D02*
X128264286Y-138687628D01*
X129788095Y-139163819D02*
X129216667Y-139163819D01*
X129502381Y-139163819D02*
X129502381Y-138163819D01*
X129502381Y-138163819D02*
X129407143Y-138306676D01*
X129407143Y-138306676D02*
X129311905Y-138401914D01*
X129311905Y-138401914D02*
X129216667Y-138449533D01*
X130407143Y-138163819D02*
X130502381Y-138163819D01*
X130502381Y-138163819D02*
X130597619Y-138211438D01*
X130597619Y-138211438D02*
X130645238Y-138259057D01*
X130645238Y-138259057D02*
X130692857Y-138354295D01*
X130692857Y-138354295D02*
X130740476Y-138544771D01*
X130740476Y-138544771D02*
X130740476Y-138782866D01*
X130740476Y-138782866D02*
X130692857Y-138973342D01*
X130692857Y-138973342D02*
X130645238Y-139068580D01*
X130645238Y-139068580D02*
X130597619Y-139116200D01*
X130597619Y-139116200D02*
X130502381Y-139163819D01*
X130502381Y-139163819D02*
X130407143Y-139163819D01*
X130407143Y-139163819D02*
X130311905Y-139116200D01*
X130311905Y-139116200D02*
X130264286Y-139068580D01*
X130264286Y-139068580D02*
X130216667Y-138973342D01*
X130216667Y-138973342D02*
X130169048Y-138782866D01*
X130169048Y-138782866D02*
X130169048Y-138544771D01*
X130169048Y-138544771D02*
X130216667Y-138354295D01*
X130216667Y-138354295D02*
X130264286Y-138259057D01*
X130264286Y-138259057D02*
X130311905Y-138211438D01*
X130311905Y-138211438D02*
X130407143Y-138163819D01*
X131359524Y-138163819D02*
X131454762Y-138163819D01*
X131454762Y-138163819D02*
X131550000Y-138211438D01*
X131550000Y-138211438D02*
X131597619Y-138259057D01*
X131597619Y-138259057D02*
X131645238Y-138354295D01*
X131645238Y-138354295D02*
X131692857Y-138544771D01*
X131692857Y-138544771D02*
X131692857Y-138782866D01*
X131692857Y-138782866D02*
X131645238Y-138973342D01*
X131645238Y-138973342D02*
X131597619Y-139068580D01*
X131597619Y-139068580D02*
X131550000Y-139116200D01*
X131550000Y-139116200D02*
X131454762Y-139163819D01*
X131454762Y-139163819D02*
X131359524Y-139163819D01*
X131359524Y-139163819D02*
X131264286Y-139116200D01*
X131264286Y-139116200D02*
X131216667Y-139068580D01*
X131216667Y-139068580D02*
X131169048Y-138973342D01*
X131169048Y-138973342D02*
X131121429Y-138782866D01*
X131121429Y-138782866D02*
X131121429Y-138544771D01*
X131121429Y-138544771D02*
X131169048Y-138354295D01*
X131169048Y-138354295D02*
X131216667Y-138259057D01*
X131216667Y-138259057D02*
X131264286Y-138211438D01*
X131264286Y-138211438D02*
X131359524Y-138163819D01*
X132073810Y-138259057D02*
X132121429Y-138211438D01*
X132121429Y-138211438D02*
X132216667Y-138163819D01*
X132216667Y-138163819D02*
X132454762Y-138163819D01*
X132454762Y-138163819D02*
X132550000Y-138211438D01*
X132550000Y-138211438D02*
X132597619Y-138259057D01*
X132597619Y-138259057D02*
X132645238Y-138354295D01*
X132645238Y-138354295D02*
X132645238Y-138449533D01*
X132645238Y-138449533D02*
X132597619Y-138592390D01*
X132597619Y-138592390D02*
X132026191Y-139163819D01*
X132026191Y-139163819D02*
X132645238Y-139163819D01*
D12*
X196604761Y-159522180D02*
X196557142Y-159569800D01*
X196557142Y-159569800D02*
X196414285Y-159617419D01*
X196414285Y-159617419D02*
X196319047Y-159617419D01*
X196319047Y-159617419D02*
X196176190Y-159569800D01*
X196176190Y-159569800D02*
X196080952Y-159474561D01*
X196080952Y-159474561D02*
X196033333Y-159379323D01*
X196033333Y-159379323D02*
X195985714Y-159188847D01*
X195985714Y-159188847D02*
X195985714Y-159045990D01*
X195985714Y-159045990D02*
X196033333Y-158855514D01*
X196033333Y-158855514D02*
X196080952Y-158760276D01*
X196080952Y-158760276D02*
X196176190Y-158665038D01*
X196176190Y-158665038D02*
X196319047Y-158617419D01*
X196319047Y-158617419D02*
X196414285Y-158617419D01*
X196414285Y-158617419D02*
X196557142Y-158665038D01*
X196557142Y-158665038D02*
X196604761Y-158712657D01*
X196938095Y-158617419D02*
X197557142Y-158617419D01*
X197557142Y-158617419D02*
X197223809Y-158998371D01*
X197223809Y-158998371D02*
X197366666Y-158998371D01*
X197366666Y-158998371D02*
X197461904Y-159045990D01*
X197461904Y-159045990D02*
X197509523Y-159093609D01*
X197509523Y-159093609D02*
X197557142Y-159188847D01*
X197557142Y-159188847D02*
X197557142Y-159426942D01*
X197557142Y-159426942D02*
X197509523Y-159522180D01*
X197509523Y-159522180D02*
X197461904Y-159569800D01*
X197461904Y-159569800D02*
X197366666Y-159617419D01*
X197366666Y-159617419D02*
X197080952Y-159617419D01*
X197080952Y-159617419D02*
X196985714Y-159569800D01*
X196985714Y-159569800D02*
X196938095Y-159522180D01*
X198176190Y-158617419D02*
X198271428Y-158617419D01*
X198271428Y-158617419D02*
X198366666Y-158665038D01*
X198366666Y-158665038D02*
X198414285Y-158712657D01*
X198414285Y-158712657D02*
X198461904Y-158807895D01*
X198461904Y-158807895D02*
X198509523Y-158998371D01*
X198509523Y-158998371D02*
X198509523Y-159236466D01*
X198509523Y-159236466D02*
X198461904Y-159426942D01*
X198461904Y-159426942D02*
X198414285Y-159522180D01*
X198414285Y-159522180D02*
X198366666Y-159569800D01*
X198366666Y-159569800D02*
X198271428Y-159617419D01*
X198271428Y-159617419D02*
X198176190Y-159617419D01*
X198176190Y-159617419D02*
X198080952Y-159569800D01*
X198080952Y-159569800D02*
X198033333Y-159522180D01*
X198033333Y-159522180D02*
X197985714Y-159426942D01*
X197985714Y-159426942D02*
X197938095Y-159236466D01*
X197938095Y-159236466D02*
X197938095Y-158998371D01*
X197938095Y-158998371D02*
X197985714Y-158807895D01*
X197985714Y-158807895D02*
X198033333Y-158712657D01*
X198033333Y-158712657D02*
X198080952Y-158665038D01*
X198080952Y-158665038D02*
X198176190Y-158617419D01*
X199414285Y-158617419D02*
X198938095Y-158617419D01*
X198938095Y-158617419D02*
X198890476Y-159093609D01*
X198890476Y-159093609D02*
X198938095Y-159045990D01*
X198938095Y-159045990D02*
X199033333Y-158998371D01*
X199033333Y-158998371D02*
X199271428Y-158998371D01*
X199271428Y-158998371D02*
X199366666Y-159045990D01*
X199366666Y-159045990D02*
X199414285Y-159093609D01*
X199414285Y-159093609D02*
X199461904Y-159188847D01*
X199461904Y-159188847D02*
X199461904Y-159426942D01*
X199461904Y-159426942D02*
X199414285Y-159522180D01*
X199414285Y-159522180D02*
X199366666Y-159569800D01*
X199366666Y-159569800D02*
X199271428Y-159617419D01*
X199271428Y-159617419D02*
X199033333Y-159617419D01*
X199033333Y-159617419D02*
X198938095Y-159569800D01*
X198938095Y-159569800D02*
X198890476Y-159522180D01*
X200080952Y-158617419D02*
X200176190Y-158617419D01*
X200176190Y-158617419D02*
X200271428Y-158665038D01*
X200271428Y-158665038D02*
X200319047Y-158712657D01*
X200319047Y-158712657D02*
X200366666Y-158807895D01*
X200366666Y-158807895D02*
X200414285Y-158998371D01*
X200414285Y-158998371D02*
X200414285Y-159236466D01*
X200414285Y-159236466D02*
X200366666Y-159426942D01*
X200366666Y-159426942D02*
X200319047Y-159522180D01*
X200319047Y-159522180D02*
X200271428Y-159569800D01*
X200271428Y-159569800D02*
X200176190Y-159617419D01*
X200176190Y-159617419D02*
X200080952Y-159617419D01*
X200080952Y-159617419D02*
X199985714Y-159569800D01*
X199985714Y-159569800D02*
X199938095Y-159522180D01*
X199938095Y-159522180D02*
X199890476Y-159426942D01*
X199890476Y-159426942D02*
X199842857Y-159236466D01*
X199842857Y-159236466D02*
X199842857Y-158998371D01*
X199842857Y-158998371D02*
X199890476Y-158807895D01*
X199890476Y-158807895D02*
X199938095Y-158712657D01*
X199938095Y-158712657D02*
X199985714Y-158665038D01*
X199985714Y-158665038D02*
X200080952Y-158617419D01*
D14*
X129770524Y-141943819D02*
X130341952Y-141943819D01*
X130056238Y-142943819D02*
X130056238Y-141943819D01*
X130675286Y-142943819D02*
X130675286Y-141943819D01*
X130675286Y-141943819D02*
X131056238Y-141943819D01*
X131056238Y-141943819D02*
X131151476Y-141991438D01*
X131151476Y-141991438D02*
X131199095Y-142039057D01*
X131199095Y-142039057D02*
X131246714Y-142134295D01*
X131246714Y-142134295D02*
X131246714Y-142277152D01*
X131246714Y-142277152D02*
X131199095Y-142372390D01*
X131199095Y-142372390D02*
X131151476Y-142420009D01*
X131151476Y-142420009D02*
X131056238Y-142467628D01*
X131056238Y-142467628D02*
X130675286Y-142467628D01*
X132199095Y-142943819D02*
X131627667Y-142943819D01*
X131913381Y-142943819D02*
X131913381Y-141943819D01*
X131913381Y-141943819D02*
X131818143Y-142086676D01*
X131818143Y-142086676D02*
X131722905Y-142181914D01*
X131722905Y-142181914D02*
X131627667Y-142229533D01*
X132818143Y-141943819D02*
X132913381Y-141943819D01*
X132913381Y-141943819D02*
X133008619Y-141991438D01*
X133008619Y-141991438D02*
X133056238Y-142039057D01*
X133056238Y-142039057D02*
X133103857Y-142134295D01*
X133103857Y-142134295D02*
X133151476Y-142324771D01*
X133151476Y-142324771D02*
X133151476Y-142562866D01*
X133151476Y-142562866D02*
X133103857Y-142753342D01*
X133103857Y-142753342D02*
X133056238Y-142848580D01*
X133056238Y-142848580D02*
X133008619Y-142896200D01*
X133008619Y-142896200D02*
X132913381Y-142943819D01*
X132913381Y-142943819D02*
X132818143Y-142943819D01*
X132818143Y-142943819D02*
X132722905Y-142896200D01*
X132722905Y-142896200D02*
X132675286Y-142848580D01*
X132675286Y-142848580D02*
X132627667Y-142753342D01*
X132627667Y-142753342D02*
X132580048Y-142562866D01*
X132580048Y-142562866D02*
X132580048Y-142324771D01*
X132580048Y-142324771D02*
X132627667Y-142134295D01*
X132627667Y-142134295D02*
X132675286Y-142039057D01*
X132675286Y-142039057D02*
X132722905Y-141991438D01*
X132722905Y-141991438D02*
X132818143Y-141943819D01*
X133770524Y-141943819D02*
X133865762Y-141943819D01*
X133865762Y-141943819D02*
X133961000Y-141991438D01*
X133961000Y-141991438D02*
X134008619Y-142039057D01*
X134008619Y-142039057D02*
X134056238Y-142134295D01*
X134056238Y-142134295D02*
X134103857Y-142324771D01*
X134103857Y-142324771D02*
X134103857Y-142562866D01*
X134103857Y-142562866D02*
X134056238Y-142753342D01*
X134056238Y-142753342D02*
X134008619Y-142848580D01*
X134008619Y-142848580D02*
X133961000Y-142896200D01*
X133961000Y-142896200D02*
X133865762Y-142943819D01*
X133865762Y-142943819D02*
X133770524Y-142943819D01*
X133770524Y-142943819D02*
X133675286Y-142896200D01*
X133675286Y-142896200D02*
X133627667Y-142848580D01*
X133627667Y-142848580D02*
X133580048Y-142753342D01*
X133580048Y-142753342D02*
X133532429Y-142562866D01*
X133532429Y-142562866D02*
X133532429Y-142324771D01*
X133532429Y-142324771D02*
X133580048Y-142134295D01*
X133580048Y-142134295D02*
X133627667Y-142039057D01*
X133627667Y-142039057D02*
X133675286Y-141991438D01*
X133675286Y-141991438D02*
X133770524Y-141943819D01*
X135056238Y-142943819D02*
X134484810Y-142943819D01*
X134770524Y-142943819D02*
X134770524Y-141943819D01*
X134770524Y-141943819D02*
X134675286Y-142086676D01*
X134675286Y-142086676D02*
X134580048Y-142181914D01*
X134580048Y-142181914D02*
X134484810Y-142229533D01*
D12*
X196604761Y-156022180D02*
X196557142Y-156069800D01*
X196557142Y-156069800D02*
X196414285Y-156117419D01*
X196414285Y-156117419D02*
X196319047Y-156117419D01*
X196319047Y-156117419D02*
X196176190Y-156069800D01*
X196176190Y-156069800D02*
X196080952Y-155974561D01*
X196080952Y-155974561D02*
X196033333Y-155879323D01*
X196033333Y-155879323D02*
X195985714Y-155688847D01*
X195985714Y-155688847D02*
X195985714Y-155545990D01*
X195985714Y-155545990D02*
X196033333Y-155355514D01*
X196033333Y-155355514D02*
X196080952Y-155260276D01*
X196080952Y-155260276D02*
X196176190Y-155165038D01*
X196176190Y-155165038D02*
X196319047Y-155117419D01*
X196319047Y-155117419D02*
X196414285Y-155117419D01*
X196414285Y-155117419D02*
X196557142Y-155165038D01*
X196557142Y-155165038D02*
X196604761Y-155212657D01*
X196938095Y-155117419D02*
X197557142Y-155117419D01*
X197557142Y-155117419D02*
X197223809Y-155498371D01*
X197223809Y-155498371D02*
X197366666Y-155498371D01*
X197366666Y-155498371D02*
X197461904Y-155545990D01*
X197461904Y-155545990D02*
X197509523Y-155593609D01*
X197509523Y-155593609D02*
X197557142Y-155688847D01*
X197557142Y-155688847D02*
X197557142Y-155926942D01*
X197557142Y-155926942D02*
X197509523Y-156022180D01*
X197509523Y-156022180D02*
X197461904Y-156069800D01*
X197461904Y-156069800D02*
X197366666Y-156117419D01*
X197366666Y-156117419D02*
X197080952Y-156117419D01*
X197080952Y-156117419D02*
X196985714Y-156069800D01*
X196985714Y-156069800D02*
X196938095Y-156022180D01*
X198176190Y-155117419D02*
X198271428Y-155117419D01*
X198271428Y-155117419D02*
X198366666Y-155165038D01*
X198366666Y-155165038D02*
X198414285Y-155212657D01*
X198414285Y-155212657D02*
X198461904Y-155307895D01*
X198461904Y-155307895D02*
X198509523Y-155498371D01*
X198509523Y-155498371D02*
X198509523Y-155736466D01*
X198509523Y-155736466D02*
X198461904Y-155926942D01*
X198461904Y-155926942D02*
X198414285Y-156022180D01*
X198414285Y-156022180D02*
X198366666Y-156069800D01*
X198366666Y-156069800D02*
X198271428Y-156117419D01*
X198271428Y-156117419D02*
X198176190Y-156117419D01*
X198176190Y-156117419D02*
X198080952Y-156069800D01*
X198080952Y-156069800D02*
X198033333Y-156022180D01*
X198033333Y-156022180D02*
X197985714Y-155926942D01*
X197985714Y-155926942D02*
X197938095Y-155736466D01*
X197938095Y-155736466D02*
X197938095Y-155498371D01*
X197938095Y-155498371D02*
X197985714Y-155307895D01*
X197985714Y-155307895D02*
X198033333Y-155212657D01*
X198033333Y-155212657D02*
X198080952Y-155165038D01*
X198080952Y-155165038D02*
X198176190Y-155117419D01*
X199366666Y-155450752D02*
X199366666Y-156117419D01*
X199128571Y-155069800D02*
X198890476Y-155784085D01*
X198890476Y-155784085D02*
X199509523Y-155784085D01*
X200033333Y-155545990D02*
X199938095Y-155498371D01*
X199938095Y-155498371D02*
X199890476Y-155450752D01*
X199890476Y-155450752D02*
X199842857Y-155355514D01*
X199842857Y-155355514D02*
X199842857Y-155307895D01*
X199842857Y-155307895D02*
X199890476Y-155212657D01*
X199890476Y-155212657D02*
X199938095Y-155165038D01*
X199938095Y-155165038D02*
X200033333Y-155117419D01*
X200033333Y-155117419D02*
X200223809Y-155117419D01*
X200223809Y-155117419D02*
X200319047Y-155165038D01*
X200319047Y-155165038D02*
X200366666Y-155212657D01*
X200366666Y-155212657D02*
X200414285Y-155307895D01*
X200414285Y-155307895D02*
X200414285Y-155355514D01*
X200414285Y-155355514D02*
X200366666Y-155450752D01*
X200366666Y-155450752D02*
X200319047Y-155498371D01*
X200319047Y-155498371D02*
X200223809Y-155545990D01*
X200223809Y-155545990D02*
X200033333Y-155545990D01*
X200033333Y-155545990D02*
X199938095Y-155593609D01*
X199938095Y-155593609D02*
X199890476Y-155641228D01*
X199890476Y-155641228D02*
X199842857Y-155736466D01*
X199842857Y-155736466D02*
X199842857Y-155926942D01*
X199842857Y-155926942D02*
X199890476Y-156022180D01*
X199890476Y-156022180D02*
X199938095Y-156069800D01*
X199938095Y-156069800D02*
X200033333Y-156117419D01*
X200033333Y-156117419D02*
X200223809Y-156117419D01*
X200223809Y-156117419D02*
X200319047Y-156069800D01*
X200319047Y-156069800D02*
X200366666Y-156022180D01*
X200366666Y-156022180D02*
X200414285Y-155926942D01*
X200414285Y-155926942D02*
X200414285Y-155736466D01*
X200414285Y-155736466D02*
X200366666Y-155641228D01*
X200366666Y-155641228D02*
X200319047Y-155593609D01*
X200319047Y-155593609D02*
X200223809Y-155545990D01*
D15*
%TO.C,R3006*%
X191673641Y-134230000D02*
X191366359Y-134230000D01*
X191673641Y-134990000D02*
X191366359Y-134990000D01*
%TO.C,R1014*%
X166027742Y-120247296D02*
X166502258Y-120247296D01*
X166027742Y-121292296D02*
X166502258Y-121292296D01*
%TO.C,R5003*%
X166356359Y-96995000D02*
X166663641Y-96995000D01*
X166356359Y-97755000D02*
X166663641Y-97755000D01*
%TO.C,U5004*%
X181840000Y-100190000D02*
X182840000Y-100190000D01*
X181840000Y-103010000D02*
X182630000Y-103010000D01*
X182960000Y-103290000D02*
X182960000Y-103010000D01*
X183240000Y-103010000D01*
X182960000Y-103290000D01*
G36*
X182960000Y-103290000D02*
G01*
X182960000Y-103010000D01*
X183240000Y-103010000D01*
X182960000Y-103290000D01*
G37*
%TO.C,D1003*%
X174810000Y-128430000D02*
X174810000Y-130390000D01*
X174810000Y-130390000D02*
X176010000Y-130390000D01*
X176010000Y-128430000D02*
X176010000Y-130390000D01*
%TO.C,R5005*%
X171270000Y-92938641D02*
X171270000Y-92631359D01*
X172030000Y-92938641D02*
X172030000Y-92631359D01*
%TO.C,U5003*%
X181840000Y-97015000D02*
X182840000Y-97015000D01*
X181840000Y-99835000D02*
X182630000Y-99835000D01*
X182960000Y-100115000D02*
X182960000Y-99835000D01*
X183240000Y-99835000D01*
X182960000Y-100115000D01*
G36*
X182960000Y-100115000D02*
G01*
X182960000Y-99835000D01*
X183240000Y-99835000D01*
X182960000Y-100115000D01*
G37*
D10*
%TO.C,U2001*%
X123800000Y-101450000D02*
X123800000Y-88550000D01*
D12*
X124500000Y-102300000D02*
X124500000Y-102300000D01*
X124500000Y-102400000D02*
X124500000Y-102400000D01*
D10*
X138100000Y-101450000D02*
X138800000Y-101450000D01*
X138800000Y-88550000D02*
X138100000Y-88550000D01*
X138800000Y-90800000D02*
X138800000Y-88550000D01*
X138800000Y-101450000D02*
X138800000Y-99200000D01*
D12*
X124500000Y-102300000D02*
G75*
G02*
X124500000Y-102400000I0J-50000D01*
G01*
X124500000Y-102400000D02*
G75*
G02*
X124500000Y-102300000I0J50000D01*
G01*
D15*
%TO.C,C1003*%
X175382164Y-109060000D02*
X175597836Y-109060000D01*
X175382164Y-109780000D02*
X175597836Y-109780000D01*
%TO.C,U4001*%
X141023492Y-137865000D02*
X150243492Y-137865000D01*
X141023492Y-151085000D02*
X141023492Y-137865000D01*
X149243492Y-151085000D02*
X141023492Y-151085000D01*
X150243492Y-137865000D02*
X150243492Y-150085000D01*
X150243492Y-151585000D02*
X150243492Y-151085000D01*
X150743492Y-151085000D01*
X150243492Y-151585000D01*
G36*
X150243492Y-151585000D02*
G01*
X150243492Y-151085000D01*
X150743492Y-151085000D01*
X150243492Y-151585000D01*
G37*
%TO.C,FB1001*%
X178320000Y-119501359D02*
X178320000Y-119808641D01*
X179080000Y-119501359D02*
X179080000Y-119808641D01*
%TO.C,C3004*%
X180340000Y-135490580D02*
X180340000Y-135209420D01*
X181360000Y-135490580D02*
X181360000Y-135209420D01*
%TO.C,J6001*%
X200875000Y-121620000D02*
X202875000Y-121620000D01*
X200875000Y-131020000D02*
X202875000Y-131020000D01*
X204775000Y-121620000D02*
X206675000Y-121620000D01*
X204775000Y-131020000D02*
X206675000Y-131020000D01*
X206675000Y-131020000D02*
X206675000Y-121620000D01*
%TO.C,R1010*%
X166017742Y-127606071D02*
X166492258Y-127606071D01*
X166017742Y-128651071D02*
X166492258Y-128651071D01*
%TO.C,R2001*%
X140456359Y-85890000D02*
X140763641Y-85890000D01*
X140456359Y-86650000D02*
X140763641Y-86650000D01*
%TO.C,R1001*%
X170400000Y-131456359D02*
X170400000Y-131763641D01*
X171160000Y-131456359D02*
X171160000Y-131763641D01*
%TO.C,R6023*%
X181716359Y-147145000D02*
X182023641Y-147145000D01*
X181716359Y-147905000D02*
X182023641Y-147905000D01*
%TO.C,C5020*%
X178392164Y-94990000D02*
X178607836Y-94990000D01*
X178392164Y-95710000D02*
X178607836Y-95710000D01*
D12*
%TO.C,J6002*%
X192135000Y-148500000D02*
X192135000Y-148500000D01*
X192235000Y-148500000D02*
X192235000Y-148500000D01*
D10*
X192695000Y-137800000D02*
X194545000Y-137800000D01*
X192695000Y-152200000D02*
X192695000Y-137800000D01*
X194545000Y-152200000D02*
X192695000Y-152200000D01*
X198545000Y-152200000D02*
X206795000Y-152200000D01*
X199045000Y-137800000D02*
X198545000Y-137800000D01*
X206795000Y-137800000D02*
X199045000Y-137800000D01*
X206795000Y-152200000D02*
X206795000Y-137800000D01*
D12*
X192135000Y-148500000D02*
G75*
G02*
X192235000Y-148500000I50000J0D01*
G01*
X192235000Y-148500000D02*
G75*
G02*
X192135000Y-148500000I-50000J0D01*
G01*
D15*
%TO.C,R5025*%
X196356359Y-112650000D02*
X196663641Y-112650000D01*
X196356359Y-113410000D02*
X196663641Y-113410000D01*
%TO.C,R1038*%
X169237742Y-122092398D02*
X169712258Y-122092398D01*
X169237742Y-123137398D02*
X169712258Y-123137398D01*
%TO.C,R3004*%
X191673641Y-133110000D02*
X191366359Y-133110000D01*
X191673641Y-133870000D02*
X191366359Y-133870000D01*
D10*
%TO.C,U5001*%
X184950000Y-105980000D02*
X184950000Y-105980000D01*
X184950000Y-106165000D02*
X184950000Y-106165000D01*
D12*
X185550000Y-92242000D02*
X191150000Y-92242000D01*
X185550000Y-108265000D02*
X185550000Y-92242000D01*
X191150000Y-108315000D02*
X185550000Y-108265000D01*
X194850000Y-92245000D02*
X206850000Y-92245000D01*
X206850000Y-92245000D02*
X206850000Y-108285000D01*
X206850000Y-108285000D02*
X194850000Y-108285000D01*
D10*
X184950000Y-105980000D02*
G75*
G02*
X184951000Y-106165000I500J-92500D01*
G01*
X184950000Y-106165000D02*
G75*
G02*
X184950000Y-105965000I0J100000D01*
G01*
D15*
%TO.C,R5011*%
X172733000Y-94906359D02*
X172733000Y-95213641D01*
X173493000Y-94906359D02*
X173493000Y-95213641D01*
%TO.C,U6001*%
X194490000Y-132187500D02*
X194490000Y-130187500D01*
X196710000Y-132187500D02*
X196710000Y-130187500D01*
X194590000Y-132707500D02*
X194310000Y-132427500D01*
X194590000Y-132427500D01*
X194590000Y-132707500D01*
G36*
X194590000Y-132707500D02*
G01*
X194310000Y-132427500D01*
X194590000Y-132427500D01*
X194590000Y-132707500D01*
G37*
%TO.C,R6002*%
X156173641Y-119380000D02*
X155866359Y-119380000D01*
X156173641Y-120140000D02*
X155866359Y-120140000D01*
D12*
%TO.C,D1005*%
X132460000Y-158170000D02*
X132460000Y-159130000D01*
X132460000Y-159130000D02*
X133260000Y-159130000D01*
X133260000Y-159130000D02*
X133260000Y-158170000D01*
D15*
%TO.C,R6010*%
X162370000Y-131781359D02*
X162370000Y-132088641D01*
X163130000Y-131781359D02*
X163130000Y-132088641D01*
%TO.C,U6003*%
X186212500Y-146915000D02*
X185412500Y-146915000D01*
X186212500Y-146915000D02*
X187012500Y-146915000D01*
X186212500Y-150035000D02*
X185412500Y-150035000D01*
X186212500Y-150035000D02*
X187012500Y-150035000D01*
X184912500Y-146965000D02*
X184672500Y-146635000D01*
X185152500Y-146635000D01*
X184912500Y-146965000D01*
G36*
X184912500Y-146965000D02*
G01*
X184672500Y-146635000D01*
X185152500Y-146635000D01*
X184912500Y-146965000D01*
G37*
%TO.C,R5009*%
X169807000Y-94906359D02*
X169807000Y-95213641D01*
X170567000Y-94906359D02*
X170567000Y-95213641D01*
D10*
%TO.C,U1001*%
X173135000Y-117613000D02*
X173135000Y-116138000D01*
X173185000Y-112088000D02*
X176185000Y-112088000D01*
X173185000Y-115788000D02*
X173185000Y-112088000D01*
X176185000Y-112088000D02*
X176185000Y-115788000D01*
X176185000Y-115788000D02*
X173185000Y-115788000D01*
D15*
%TO.C,R1004*%
X159557742Y-118426888D02*
X160032258Y-118426888D01*
X159557742Y-119471888D02*
X160032258Y-119471888D01*
%TO.C,C5019*%
X169515000Y-102017164D02*
X169515000Y-102232836D01*
X170235000Y-102017164D02*
X170235000Y-102232836D01*
%TO.C,SW7001*%
D12*
X179940000Y-153475000D02*
X173090000Y-153475000D01*
X173090000Y-162325000D01*
X179940000Y-162325000D01*
X179940000Y-153475000D01*
D16*
X180651803Y-154625000D02*
G75*
G02*
X180428197Y-154625000I-111803J0D01*
G01*
X180428197Y-154625000D02*
G75*
G02*
X180651803Y-154625000I111803J0D01*
G01*
D15*
%TO.C,R1011*%
X166027742Y-125766377D02*
X166502258Y-125766377D01*
X166027742Y-126811377D02*
X166502258Y-126811377D01*
%TO.C,C3019*%
X191166205Y-119824000D02*
X190885045Y-119824000D01*
X191166205Y-120844000D02*
X190885045Y-120844000D01*
%TO.C,SW7003*%
D12*
X187460000Y-153475000D02*
X180610000Y-153475000D01*
X180610000Y-162325000D01*
X187460000Y-162325000D01*
X187460000Y-153475000D01*
D16*
X188171803Y-154625000D02*
G75*
G02*
X187948197Y-154625000I-111803J0D01*
G01*
X187948197Y-154625000D02*
G75*
G02*
X188171803Y-154625000I111803J0D01*
G01*
D12*
%TO.C,D1006*%
X132460000Y-155390000D02*
X132460000Y-156350000D01*
X133260000Y-155390000D02*
X132460000Y-155390000D01*
X133260000Y-156350000D02*
X133260000Y-155390000D01*
D15*
%TO.C,R4006*%
X139280000Y-146523641D02*
X139280000Y-146216359D01*
X140040000Y-146523641D02*
X140040000Y-146216359D01*
%TO.C,C3001*%
X185440000Y-132565580D02*
X185440000Y-132284420D01*
X186460000Y-132565580D02*
X186460000Y-132284420D01*
%TO.C,R6009*%
X164570000Y-131781359D02*
X164570000Y-132088641D01*
X165330000Y-131781359D02*
X165330000Y-132088641D01*
%TO.C,R1017*%
X166027742Y-114728214D02*
X166502258Y-114728214D01*
X166027742Y-115773214D02*
X166502258Y-115773214D01*
%TO.C,R1030*%
X162812742Y-120268725D02*
X163287258Y-120268725D01*
X162812742Y-121313725D02*
X163287258Y-121313725D01*
%TO.C,R1003*%
X159557742Y-116587194D02*
X160032258Y-116587194D01*
X159557742Y-117632194D02*
X160032258Y-117632194D01*
%TO.C,R1015*%
X166027742Y-118407602D02*
X166502258Y-118407602D01*
X166027742Y-119452602D02*
X166502258Y-119452602D01*
%TO.C,R1007*%
X159557742Y-123945969D02*
X160032258Y-123945969D01*
X159557742Y-124990969D02*
X160032258Y-124990969D01*
%TO.C,R6011*%
X160170000Y-131781359D02*
X160170000Y-132088641D01*
X160930000Y-131781359D02*
X160930000Y-132088641D01*
%TO.C,R1049*%
X135523641Y-119540000D02*
X135216359Y-119540000D01*
X135523641Y-120300000D02*
X135216359Y-120300000D01*
%TO.C,R4008*%
X139163492Y-141046343D02*
X139163492Y-141353625D01*
X139923492Y-141046343D02*
X139923492Y-141353625D01*
%TO.C,L6001*%
D12*
X191870000Y-125045000D02*
X194720000Y-125045000D01*
X194720000Y-126595000D01*
X191870000Y-126595000D01*
X191870000Y-125045000D01*
X191620000Y-125345000D02*
G75*
G02*
X191520000Y-125345000I-50000J0D01*
G01*
X191520000Y-125345000D02*
G75*
G02*
X191620000Y-125345000I50000J0D01*
G01*
D15*
%TO.C,R5026*%
X196356359Y-111420000D02*
X196663641Y-111420000D01*
X196356359Y-112180000D02*
X196663641Y-112180000D01*
%TO.C,R5016*%
X153136359Y-118240000D02*
X153443641Y-118240000D01*
X153136359Y-119000000D02*
X153443641Y-119000000D01*
%TO.C,R5015*%
X153151359Y-111220000D02*
X153458641Y-111220000D01*
X153151359Y-111980000D02*
X153458641Y-111980000D01*
%TO.C,R1026*%
X173750000Y-131763641D02*
X173750000Y-131456359D01*
X174510000Y-131763641D02*
X174510000Y-131456359D01*
%TO.C,R5004*%
X152070000Y-109771359D02*
X152070000Y-110078641D01*
X152830000Y-109771359D02*
X152830000Y-110078641D01*
%TO.C,R1024*%
X171516667Y-131763641D02*
X171516667Y-131456359D01*
X172276667Y-131763641D02*
X172276667Y-131456359D01*
%TO.C,R3001*%
X175113641Y-148520000D02*
X174806359Y-148520000D01*
X175113641Y-149280000D02*
X174806359Y-149280000D01*
%TO.C,J2003*%
X142420000Y-84460000D02*
X143800000Y-84460000D01*
X142420000Y-85840000D02*
X142420000Y-84460000D01*
X142420000Y-87110000D02*
X142420000Y-99920000D01*
X142420000Y-87110000D02*
X145180000Y-87110000D01*
X142420000Y-99920000D02*
X145180000Y-99920000D01*
X145180000Y-87110000D02*
X145180000Y-99920000D01*
%TO.C,C6017*%
X155095000Y-97181252D02*
X155095000Y-96658748D01*
X156565000Y-97181252D02*
X156565000Y-96658748D01*
%TO.C,R5007*%
X166663641Y-98458000D02*
X166356359Y-98458000D01*
X166663641Y-99218000D02*
X166356359Y-99218000D01*
%TO.C,R1041*%
X169237742Y-116568724D02*
X169712258Y-116568724D01*
X169237742Y-117613724D02*
X169712258Y-117613724D01*
%TO.C,C5018*%
X168190000Y-102017164D02*
X168190000Y-102232836D01*
X168910000Y-102017164D02*
X168910000Y-102232836D01*
D10*
%TO.C,U1002*%
X137500000Y-113715000D02*
X150500000Y-113715000D01*
X137500000Y-126215000D02*
X137500000Y-113715000D01*
X138000000Y-126715000D02*
X137500000Y-126215000D01*
X150500000Y-113715000D02*
X150500000Y-126715000D01*
X150500000Y-126715000D02*
X138000000Y-126715000D01*
X137600000Y-126715000D02*
G75*
G02*
X137400000Y-126715000I-100000J0D01*
G01*
X137400000Y-126715000D02*
G75*
G02*
X137600000Y-126715000I100000J0D01*
G01*
D15*
%TO.C,C3007*%
X180340000Y-140159420D02*
X180340000Y-140440580D01*
X181360000Y-140159420D02*
X181360000Y-140440580D01*
%TO.C,R6006*%
X161270000Y-131781359D02*
X161270000Y-132088641D01*
X162030000Y-131781359D02*
X162030000Y-132088641D01*
%TO.C,R5008*%
X168631359Y-96995000D02*
X168938641Y-96995000D01*
X168631359Y-97755000D02*
X168938641Y-97755000D01*
%TO.C,R4004*%
X152953492Y-139473641D02*
X152953492Y-139166359D01*
X153713492Y-139473641D02*
X153713492Y-139166359D01*
%TO.C,J1004*%
X125320000Y-120960000D02*
X126700000Y-120960000D01*
X125320000Y-122340000D02*
X125320000Y-120960000D01*
X125320000Y-123610000D02*
X125320000Y-136420000D01*
X125320000Y-123610000D02*
X128080000Y-123610000D01*
X125320000Y-136420000D02*
X128080000Y-136420000D01*
X128080000Y-123610000D02*
X128080000Y-136420000D01*
%TO.C,SW7002*%
D12*
X194858402Y-153475000D02*
X188008402Y-153475000D01*
X188008402Y-162325000D01*
X194858402Y-162325000D01*
X194858402Y-153475000D01*
D16*
X195570205Y-154625000D02*
G75*
G02*
X195346599Y-154625000I-111803J0D01*
G01*
X195346599Y-154625000D02*
G75*
G02*
X195570205Y-154625000I111803J0D01*
G01*
D15*
%TO.C,TP1002*%
X129350000Y-136260000D02*
X130750000Y-136260000D01*
X129350000Y-137660000D02*
X129350000Y-136260000D01*
X130750000Y-136260000D02*
X130750000Y-137660000D01*
X130750000Y-137660000D02*
X129350000Y-137660000D01*
%TO.C,R1037*%
X169222742Y-123933622D02*
X169697258Y-123933622D01*
X169222742Y-124978622D02*
X169697258Y-124978622D01*
%TO.C,R1036*%
X169212742Y-125774847D02*
X169687258Y-125774847D01*
X169212742Y-126819847D02*
X169687258Y-126819847D01*
%TO.C,C6011*%
X183130000Y-147896164D02*
X183130000Y-148111836D01*
X183850000Y-147896164D02*
X183850000Y-148111836D01*
%TO.C,R3005*%
X182020000Y-134536359D02*
X182020000Y-134843641D01*
X182780000Y-134536359D02*
X182780000Y-134843641D01*
%TO.C,R3003*%
X186700000Y-143123641D02*
X186700000Y-142816359D01*
X187460000Y-143123641D02*
X187460000Y-142816359D01*
%TO.C,J2002*%
X167360000Y-86580000D02*
X167360000Y-85200000D01*
X168740000Y-86580000D02*
X167360000Y-86580000D01*
X170010000Y-83820000D02*
X182820000Y-83820000D01*
X170010000Y-86580000D02*
X170010000Y-83820000D01*
X170010000Y-86580000D02*
X182820000Y-86580000D01*
X182820000Y-86580000D02*
X182820000Y-83820000D01*
%TO.C,R5024*%
X174111667Y-105096359D02*
X174111667Y-105403641D01*
X174871667Y-105096359D02*
X174871667Y-105403641D01*
%TO.C,R5019*%
X153151359Y-114028000D02*
X153458641Y-114028000D01*
X153151359Y-114788000D02*
X153458641Y-114788000D01*
%TO.C,J1003*%
X135300000Y-158670000D02*
X135300000Y-157290000D01*
X136680000Y-158670000D02*
X135300000Y-158670000D01*
X137950000Y-155910000D02*
X143140000Y-155910000D01*
X137950000Y-158670000D02*
X137950000Y-155910000D01*
X137950000Y-158670000D02*
X143140000Y-158670000D01*
X143140000Y-158670000D02*
X143140000Y-155910000D01*
%TO.C,R1033*%
X162812742Y-125787806D02*
X163287258Y-125787806D01*
X162812742Y-126832806D02*
X163287258Y-126832806D01*
%TO.C,R1029*%
X162812742Y-118429031D02*
X163287258Y-118429031D01*
X162812742Y-119474031D02*
X163287258Y-119474031D01*
%TO.C,C1002*%
X179082164Y-121995000D02*
X179297836Y-121995000D01*
X179082164Y-122715000D02*
X179297836Y-122715000D01*
%TO.C,X1003*%
D12*
X132700000Y-130150000D02*
X134900000Y-130150000D01*
X134900000Y-126150000D01*
X132700000Y-126150000D01*
X132700000Y-130150000D01*
X133050000Y-130550000D02*
G75*
G02*
X132950000Y-130550000I-50000J0D01*
G01*
X132950000Y-130550000D02*
G75*
G02*
X133050000Y-130550000I50000J0D01*
G01*
D15*
%TO.C,R1008*%
X159557742Y-125785663D02*
X160032258Y-125785663D01*
X159557742Y-126830663D02*
X160032258Y-126830663D01*
%TO.C,R5002*%
X169807000Y-92631359D02*
X169807000Y-92938641D01*
X170567000Y-92631359D02*
X170567000Y-92938641D01*
%TO.C,R1040*%
X169237742Y-118409949D02*
X169712258Y-118409949D01*
X169237742Y-119454949D02*
X169712258Y-119454949D01*
%TO.C,FB2001*%
X147853641Y-93820000D02*
X147546359Y-93820000D01*
X147853641Y-94580000D02*
X147546359Y-94580000D01*
%TO.C,R1013*%
X166027742Y-122086989D02*
X166502258Y-122086989D01*
X166027742Y-123131989D02*
X166502258Y-123131989D01*
%TO.C,R1027*%
X162787742Y-114749643D02*
X163262258Y-114749643D01*
X162787742Y-115794643D02*
X163262258Y-115794643D01*
%TO.C,R5021*%
X176445000Y-105403641D02*
X176445000Y-105096359D01*
X177205000Y-105403641D02*
X177205000Y-105096359D01*
%TO.C,R1002*%
X159557742Y-114747500D02*
X160032258Y-114747500D01*
X159557742Y-115792500D02*
X160032258Y-115792500D01*
%TO.C,R1025*%
X172633333Y-131763641D02*
X172633333Y-131456359D01*
X173393333Y-131763641D02*
X173393333Y-131456359D01*
%TO.C,C1007*%
X131340000Y-129287836D02*
X131340000Y-129072164D01*
X132060000Y-129287836D02*
X132060000Y-129072164D01*
%TO.C,C6016*%
X148565000Y-97818748D02*
X148565000Y-98341252D01*
X150035000Y-97818748D02*
X150035000Y-98341252D01*
%TO.C,R1028*%
X162812742Y-116589337D02*
X163287258Y-116589337D01*
X162812742Y-117634337D02*
X163287258Y-117634337D01*
%TO.C,U1004*%
X148481000Y-106824500D02*
X147681000Y-106824500D01*
X148481000Y-106824500D02*
X149281000Y-106824500D01*
X148481000Y-109944500D02*
X147681000Y-109944500D01*
X148481000Y-109944500D02*
X149281000Y-109944500D01*
X150021000Y-110224500D02*
X149541000Y-110224500D01*
X149781000Y-109894500D01*
X150021000Y-110224500D01*
G36*
X150021000Y-110224500D02*
G01*
X149541000Y-110224500D01*
X149781000Y-109894500D01*
X150021000Y-110224500D01*
G37*
%TO.C,R1034*%
X162812742Y-127627500D02*
X163287258Y-127627500D01*
X162812742Y-128672500D02*
X163287258Y-128672500D01*
D10*
%TO.C,X1001*%
X173260000Y-122201000D02*
X173260000Y-121801000D01*
D12*
X174985000Y-123801000D02*
X174985000Y-123801000D01*
X174985000Y-123901000D02*
X174985000Y-123901000D01*
D10*
X175260000Y-122201000D02*
X175260000Y-121801000D01*
D12*
X174985000Y-123801000D02*
G75*
G02*
X174985000Y-123901000I0J-50000D01*
G01*
X174985000Y-123901000D02*
G75*
G02*
X174985000Y-123801000I0J50000D01*
G01*
D15*
%TO.C,R4007*%
X146470000Y-133323641D02*
X146470000Y-133016359D01*
X145710000Y-133323641D02*
X145710000Y-133016359D01*
%TO.C,C1004*%
X179082164Y-120885000D02*
X179297836Y-120885000D01*
X179082164Y-121605000D02*
X179297836Y-121605000D01*
%TO.C,R1016*%
X166027742Y-116567908D02*
X166502258Y-116567908D01*
X166027742Y-117612908D02*
X166502258Y-117612908D01*
%TO.C,C5002*%
X179665000Y-102837164D02*
X179665000Y-103052836D01*
X180385000Y-102837164D02*
X180385000Y-103052836D01*
%TO.C,R1044*%
X132732359Y-117744000D02*
X133039641Y-117744000D01*
X132732359Y-118504000D02*
X133039641Y-118504000D01*
%TO.C,U5002*%
X173700000Y-97400500D02*
X173700000Y-97825500D01*
X173700000Y-102620500D02*
X173700000Y-102195500D01*
X174125000Y-97400500D02*
X173700000Y-97400500D01*
X174125000Y-102620500D02*
X173700000Y-102620500D01*
X178495000Y-97400500D02*
X178920000Y-97400500D01*
X178495000Y-102620500D02*
X178620000Y-102620500D01*
X178920000Y-97400500D02*
X178920000Y-97825500D01*
X178920000Y-102195500D02*
X178920000Y-102380500D01*
X179160000Y-102950500D02*
X178680000Y-102950500D01*
X178920000Y-102620500D01*
X179160000Y-102950500D01*
G36*
X179160000Y-102950500D02*
G01*
X178680000Y-102950500D01*
X178920000Y-102620500D01*
X179160000Y-102950500D01*
G37*
%TO.C,R6004*%
X165670000Y-131781359D02*
X165670000Y-132088641D01*
X166430000Y-131781359D02*
X166430000Y-132088641D01*
%TO.C,R1009*%
X159557742Y-127625357D02*
X160032258Y-127625357D01*
X159557742Y-128670357D02*
X160032258Y-128670357D01*
%TO.C,SW7004*%
D12*
X172440000Y-153475000D02*
X165590000Y-153475000D01*
X165590000Y-162325000D01*
X172440000Y-162325000D01*
X172440000Y-153475000D01*
D16*
X173151803Y-154625000D02*
G75*
G02*
X172928197Y-154625000I-111803J0D01*
G01*
X172928197Y-154625000D02*
G75*
G02*
X173151803Y-154625000I111803J0D01*
G01*
D15*
%TO.C,R6021*%
X186686359Y-150510000D02*
X186993641Y-150510000D01*
X186686359Y-151270000D02*
X186993641Y-151270000D01*
%TO.C,J2001*%
X125415000Y-109340000D02*
X126815000Y-107360000D01*
X125415000Y-116920000D02*
X125415000Y-109340000D01*
X125415000Y-116920000D02*
X126015000Y-117520000D01*
X126195000Y-109265000D02*
X126830000Y-109265000D01*
X126195000Y-109900000D02*
X126195000Y-109265000D01*
X126815000Y-107360000D02*
X128115000Y-107360000D01*
X128115000Y-107360000D02*
X129515000Y-109340000D01*
X128915000Y-117520000D02*
X126015000Y-117520000D01*
X129515000Y-109340000D02*
X129515000Y-116920000D01*
X129515000Y-116920000D02*
X128915000Y-117520000D01*
%TO.C,R5010*%
X171270000Y-94906359D02*
X171270000Y-95213641D01*
X172030000Y-94906359D02*
X172030000Y-95213641D01*
%TO.C,R1042*%
X169237742Y-114727500D02*
X169712258Y-114727500D01*
X169237742Y-115772500D02*
X169712258Y-115772500D01*
%TO.C,TP1001*%
X131778000Y-139947000D02*
X133178000Y-139947000D01*
X131778000Y-141347000D02*
X131778000Y-139947000D01*
X133178000Y-139947000D02*
X133178000Y-141347000D01*
X133178000Y-141347000D02*
X131778000Y-141347000D01*
%TO.C,D6014*%
X144975000Y-101425000D02*
X144975000Y-103385000D01*
X144975000Y-103385000D02*
X146175000Y-103385000D01*
X146175000Y-101425000D02*
X146175000Y-103385000D01*
%TO.C,R5013*%
X168631359Y-98458000D02*
X168938641Y-98458000D01*
X168631359Y-99218000D02*
X168938641Y-99218000D01*
%TO.C,R5020*%
X172945000Y-105106359D02*
X172945000Y-105413641D01*
X173705000Y-105106359D02*
X173705000Y-105413641D01*
%TO.C,R1006*%
X159557742Y-122106275D02*
X160032258Y-122106275D01*
X159557742Y-123151275D02*
X160032258Y-123151275D01*
%TO.C,FB3011*%
X153783641Y-105160000D02*
X153476359Y-105160000D01*
X153783641Y-105920000D02*
X153476359Y-105920000D01*
%TO.C,C1010*%
X147712164Y-105740000D02*
X147927836Y-105740000D01*
X147712164Y-106460000D02*
X147927836Y-106460000D01*
D10*
%TO.C,U1003*%
X129490000Y-157775000D02*
X129490000Y-156925000D01*
X129740000Y-154975000D02*
X131740000Y-154975000D01*
X129740000Y-156575000D02*
X129740000Y-154975000D01*
X131740000Y-154975000D02*
X131740000Y-156575000D01*
X131740000Y-156575000D02*
X129740000Y-156575000D01*
D15*
%TO.C,R4003*%
X151593492Y-139166359D02*
X151593492Y-139473641D01*
X152353492Y-139166359D02*
X152353492Y-139473641D01*
%TO.C,R6031*%
X146920000Y-98936359D02*
X146920000Y-99243641D01*
X147680000Y-98936359D02*
X147680000Y-99243641D01*
%TO.C,R1043*%
X132732359Y-116410000D02*
X133039641Y-116410000D01*
X132732359Y-117170000D02*
X133039641Y-117170000D01*
%TO.C,D1002*%
X173165000Y-128430000D02*
X173165000Y-130390000D01*
X173165000Y-130390000D02*
X174365000Y-130390000D01*
X174365000Y-128430000D02*
X174365000Y-130390000D01*
%TO.C,R1035*%
X169212742Y-127616071D02*
X169687258Y-127616071D01*
X169212742Y-128661071D02*
X169687258Y-128661071D01*
%TO.C,U6002*%
X158790000Y-147335000D02*
X158790000Y-135115000D01*
X159790000Y-134115000D02*
X170510000Y-134115000D01*
X170510000Y-134115000D02*
X170510000Y-147335000D01*
X170510000Y-147335000D02*
X158790000Y-147335000D01*
X158790000Y-134115000D02*
X158290000Y-134115000D01*
X158790000Y-133615000D01*
X158790000Y-134115000D01*
G36*
X158790000Y-134115000D02*
G01*
X158290000Y-134115000D01*
X158790000Y-133615000D01*
X158790000Y-134115000D01*
G37*
%TO.C,R6022*%
X184870000Y-151553641D02*
X184870000Y-151246359D01*
X185630000Y-151553641D02*
X185630000Y-151246359D01*
%TO.C,C1008*%
X131340000Y-127012164D02*
X131340000Y-127227836D01*
X132060000Y-127012164D02*
X132060000Y-127227836D01*
%TO.C,R3002*%
X174806359Y-149580000D02*
X175113641Y-149580000D01*
X174806359Y-150340000D02*
X175113641Y-150340000D01*
%TO.C,R6003*%
X155866359Y-118260000D02*
X156173641Y-118260000D01*
X155866359Y-119020000D02*
X156173641Y-119020000D01*
%TO.C,R5014*%
X153151359Y-112624000D02*
X153458641Y-112624000D01*
X153151359Y-113384000D02*
X153458641Y-113384000D01*
%TO.C,R5006*%
X166663641Y-99921000D02*
X166356359Y-99921000D01*
X166663641Y-100681000D02*
X166356359Y-100681000D01*
%TO.C,R5001*%
X172733000Y-92631359D02*
X172733000Y-92938641D01*
X173493000Y-92631359D02*
X173493000Y-92938641D01*
%TO.C,R1046*%
X135525641Y-117120000D02*
X135218359Y-117120000D01*
X135525641Y-117880000D02*
X135218359Y-117880000D01*
%TO.C,R1051*%
X135523641Y-118490000D02*
X135216359Y-118490000D01*
X135523641Y-119250000D02*
X135216359Y-119250000D01*
%TO.C,C1001*%
X176610000Y-122232836D02*
X176610000Y-122017164D01*
X177330000Y-122232836D02*
X177330000Y-122017164D01*
%TO.C,J1002*%
X154000000Y-156085000D02*
X154000000Y-153185000D01*
X154600000Y-152585000D02*
X154000000Y-153185000D01*
X154600000Y-152585000D02*
X162180000Y-152585000D01*
X154600000Y-156685000D02*
X154000000Y-156085000D01*
X161620000Y-153365000D02*
X162255000Y-153365000D01*
X162180000Y-152585000D02*
X164160000Y-153985000D01*
X162180000Y-156685000D02*
X154600000Y-156685000D01*
X162255000Y-153365000D02*
X162255000Y-154000000D01*
X164160000Y-153985000D02*
X164160000Y-155285000D01*
X164160000Y-155285000D02*
X162180000Y-156685000D01*
%TO.C,R5017*%
X153151359Y-116836000D02*
X153458641Y-116836000D01*
X153151359Y-117596000D02*
X153458641Y-117596000D01*
%TO.C,C6010*%
X182615580Y-149310000D02*
X182334420Y-149310000D01*
X182615580Y-150330000D02*
X182334420Y-150330000D01*
%TO.C,C5001*%
X179965000Y-97007836D02*
X179965000Y-96792164D01*
X180685000Y-97007836D02*
X180685000Y-96792164D01*
%TO.C,D6013*%
X146700000Y-101425000D02*
X146700000Y-103385000D01*
X146700000Y-103385000D02*
X147900000Y-103385000D01*
X147900000Y-101425000D02*
X147900000Y-103385000D01*
%TO.C,R1005*%
X159557742Y-120266582D02*
X160032258Y-120266582D01*
X159557742Y-121311582D02*
X160032258Y-121311582D01*
%TO.C,R6007*%
X159070000Y-131781359D02*
X159070000Y-132088641D01*
X159830000Y-131781359D02*
X159830000Y-132088641D01*
%TO.C,R1031*%
X162812742Y-122108418D02*
X163287258Y-122108418D01*
X162812742Y-123153418D02*
X163287258Y-123153418D01*
%TO.C,R6014*%
X135470000Y-115103641D02*
X135470000Y-114796359D01*
X136230000Y-115103641D02*
X136230000Y-114796359D01*
D12*
%TO.C,D6001*%
X195820000Y-124740000D02*
X195820000Y-125540000D01*
X195820000Y-125540000D02*
X196780000Y-125540000D01*
X196780000Y-124740000D02*
X195820000Y-124740000D01*
D15*
%TO.C,R5022*%
X175278333Y-105096359D02*
X175278333Y-105403641D01*
X176038333Y-105096359D02*
X176038333Y-105403641D01*
%TO.C,C1011*%
X129837836Y-152550000D02*
X129622164Y-152550000D01*
X129837836Y-153270000D02*
X129622164Y-153270000D01*
%TO.C,R6008*%
X157970000Y-131781359D02*
X157970000Y-132088641D01*
X158730000Y-131781359D02*
X158730000Y-132088641D01*
%TO.C,R1012*%
X166027742Y-123926683D02*
X166502258Y-123926683D01*
X166027742Y-124971683D02*
X166502258Y-124971683D01*
%TO.C,R5023*%
X177820000Y-105086359D02*
X177820000Y-105393641D01*
X178580000Y-105086359D02*
X178580000Y-105393641D01*
%TO.C,R6005*%
X163470000Y-131781359D02*
X163470000Y-132088641D01*
X164230000Y-131781359D02*
X164230000Y-132088641D01*
%TO.C,R1039*%
X169237742Y-120251173D02*
X169712258Y-120251173D01*
X169237742Y-121296173D02*
X169712258Y-121296173D01*
%TO.C,R1060*%
X145320000Y-110043641D02*
X145320000Y-109736359D01*
X146080000Y-110043641D02*
X146080000Y-109736359D01*
%TO.C,L6002*%
D12*
X188050000Y-144225000D02*
X190900000Y-144225000D01*
X190900000Y-145775000D01*
X188050000Y-145775000D01*
X188050000Y-144225000D01*
X187800000Y-144525000D02*
G75*
G02*
X187700000Y-144525000I-50000J0D01*
G01*
X187700000Y-144525000D02*
G75*
G02*
X187800000Y-144525000I50000J0D01*
G01*
D15*
%TO.C,R1032*%
X162812742Y-123948112D02*
X163287258Y-123948112D01*
X162812742Y-124993112D02*
X163287258Y-124993112D01*
%TO.C,R4005*%
X139173492Y-139213625D02*
X139173492Y-138906343D01*
X139933492Y-139213625D02*
X139933492Y-138906343D01*
D12*
%TO.C,D6002*%
X195820000Y-126100000D02*
X195820000Y-126900000D01*
X195820000Y-126900000D02*
X196780000Y-126900000D01*
X196780000Y-126100000D02*
X195820000Y-126100000D01*
D15*
%TO.C,R5012*%
X168631359Y-99921000D02*
X168938641Y-99921000D01*
X168631359Y-100681000D02*
X168938641Y-100681000D01*
D10*
%TO.C,U6004*%
X150750000Y-96480000D02*
X151950000Y-96480000D01*
X152300000Y-96630000D02*
X152900000Y-96630000D01*
X152300000Y-99530000D02*
X152300000Y-96630000D01*
X152900000Y-96630000D02*
X152900000Y-99530000D01*
X152900000Y-99530000D02*
X152300000Y-99530000D01*
D15*
%TO.C,J1001*%
X125320000Y-139370000D02*
X126700000Y-139370000D01*
X125320000Y-140750000D02*
X125320000Y-139370000D01*
X125320000Y-142020000D02*
X125320000Y-154830000D01*
X125320000Y-142020000D02*
X128080000Y-142020000D01*
X125320000Y-154830000D02*
X128080000Y-154830000D01*
X128080000Y-142020000D02*
X128080000Y-154830000D01*
%TO.C,R5018*%
X153151359Y-115432000D02*
X153458641Y-115432000D01*
X153151359Y-116192000D02*
X153458641Y-116192000D01*
%TO.C,L5001*%
X170915000Y-102592779D02*
X170915000Y-102267221D01*
X171935000Y-102592779D02*
X171935000Y-102267221D01*
%TO.C,C6012*%
X189540000Y-149396252D02*
X189540000Y-147973748D01*
X191360000Y-149396252D02*
X191360000Y-147973748D01*
%TO.C,D1001*%
X171520000Y-128430000D02*
X171520000Y-130390000D01*
X171520000Y-130390000D02*
X172720000Y-130390000D01*
X172720000Y-128430000D02*
X172720000Y-130390000D01*
%TD*%
M02*
